<svg width="237" height="90" viewBox="0 0 237 90" fill="none" xmlns="http://www.w3.org/2000/svg">
<path d="M0.728469 72.376L15.6085 62.828C18.9565 68.904 24.6605 71.88 32.7205 71.88C41.5245 71.88 48.0965 66.796 48.0965 59.356C48.0965 52.412 41.5245 47.204 31.4805 47.204C28.0085 47.204 24.9085 47.576 22.1805 48.32L16.1045 38.4L38.4245 18.932H8.41647V1.572H63.3485V15.212L43.3845 33.316H43.5085C50.2045 33.688 55.7845 36.292 60.1245 41.376C64.5885 46.336 66.8205 52.164 66.8205 58.86C66.8205 67.54 63.7205 74.732 57.5205 80.56C51.4445 86.388 43.2605 89.24 33.0925 89.24C18.7085 89.24 6.68047 82.792 0.728469 72.376ZM75.9228 62.828C75.6748 60.224 75.5508 54.148 75.5508 44.724C75.5508 35.424 75.6748 29.348 75.9228 26.744C76.7908 19.18 80.2628 12.856 86.3388 7.772C92.4148 2.688 99.6068 0.207999 107.915 0.207999C116.223 0.207999 123.291 2.688 129.367 7.772C135.443 12.856 139.039 19.18 139.907 26.744C140.155 29.348 140.279 35.424 140.279 44.724C140.279 54.148 140.155 60.224 139.907 62.828C139.039 70.392 135.443 76.716 129.367 81.8C123.291 86.884 116.223 89.364 107.915 89.364C99.6068 89.364 92.4148 86.884 86.3388 81.8C80.2628 76.716 76.7908 70.392 75.9228 62.828ZM95.0188 60.72C95.6388 67.292 101.095 72.004 107.915 72.004C114.735 72.004 120.191 67.292 120.811 60.72C121.059 58.736 121.183 53.404 121.183 44.724C121.183 36.416 121.059 31.332 120.935 29.348C120.067 22.528 114.735 17.568 107.915 17.568C101.095 17.568 95.7628 22.528 94.8948 29.348C94.7708 31.332 94.6468 36.416 94.6468 44.724C94.6468 53.404 94.7708 58.736 95.0188 60.72ZM181.894 32.696C178.05 36.416 173.462 38.276 168.006 38.276C162.55 38.276 157.838 36.416 153.994 32.696C150.15 28.976 148.29 24.512 148.29 19.18C148.29 13.848 150.15 9.384 153.994 5.664C157.838 1.944 162.55 0.0839937 168.006 0.0839937C173.462 0.0839937 178.05 1.944 181.894 5.664C185.738 9.384 187.722 13.848 187.722 19.18C187.722 24.512 185.738 28.976 181.894 32.696ZM171.23 88H154.366L213.266 1.572H230.13L171.23 88ZM168.006 25.752C171.354 25.752 174.082 22.776 174.082 19.18C174.082 15.584 171.354 12.608 168.006 12.608C164.534 12.608 161.93 15.584 161.93 19.18C161.93 23.024 164.534 25.752 168.006 25.752ZM202.726 83.908C198.882 80.188 196.898 75.724 196.898 70.392C196.898 65.06 198.882 60.596 202.726 56.876C206.57 53.156 211.282 51.296 216.738 51.296C222.194 51.296 226.782 53.156 230.626 56.876C234.47 60.596 236.33 65.06 236.33 70.392C236.33 75.724 234.47 80.188 230.626 83.908C226.782 87.628 222.194 89.488 216.738 89.488C211.282 89.488 206.57 87.628 202.726 83.908ZM210.538 70.392C210.538 74.236 213.142 76.964 216.738 76.964C220.086 76.964 222.814 73.988 222.814 70.392C222.814 66.796 220.086 63.82 216.738 63.82C213.266 63.82 210.538 66.796 210.538 70.392Z" fill="url(#paint0_linear_837_2104)"/>
<defs>
<linearGradient id="paint0_linear_837_2104" x1="240" y1="95.317" x2="-11.5347" y2="36.2335" gradientUnits="userSpaceOnUse">
<stop stop-color="#CDA5D5"/>
<stop offset="0.473958" stop-color="#FBE4FF"/>
<stop offset="1" stop-color="#E8FE74"/>
</linearGradient>
</defs>
</svg>
