<svg width="227" height="90" viewBox="0 0 227 90" fill="none" xmlns="http://www.w3.org/2000/svg">
<path d="M0.847094 57.62C0.847094 54.396 1.46709 51.048 2.83109 47.576C4.19509 43.98 5.55909 41.128 6.92309 38.772C8.28709 36.416 10.6431 32.696 13.8671 27.86L31.1031 1.572H52.0591L34.2031 28.108C34.8231 27.86 35.9391 27.736 37.5511 27.736C44.3711 27.736 50.8191 30.464 56.8951 36.044C63.0951 41.5 66.1951 48.568 66.1951 57.372C66.1951 66.052 62.9711 73.492 56.5231 79.568C50.1991 85.644 42.3871 88.62 33.3351 88.62C24.4071 88.62 16.7191 85.644 10.3951 79.568C4.07109 73.492 0.847094 66.176 0.847094 57.62ZM19.8191 57.62C19.8191 65.184 25.8951 71.26 33.3351 71.26C37.1791 71.26 40.4031 69.896 43.0071 67.292C45.7351 64.564 47.0991 61.34 47.0991 57.62C47.0991 54.024 45.7351 50.8 43.0071 48.196C40.2791 45.468 37.0551 44.104 33.3351 44.104C25.7711 44.104 19.8191 50.18 19.8191 57.62ZM69.4433 72.376L84.3233 62.828C87.6713 68.904 93.3753 71.88 101.435 71.88C110.239 71.88 116.811 66.796 116.811 59.356C116.811 52.412 110.239 47.204 100.195 47.204C96.7233 47.204 93.6233 47.576 90.8953 48.32L84.8193 38.4L107.139 18.932H77.1313V1.572H132.063V15.212L112.099 33.316H112.223C118.919 33.688 124.499 36.292 128.839 41.376C133.303 46.336 135.535 52.164 135.535 58.86C135.535 67.54 132.435 74.732 126.235 80.56C120.159 86.388 111.975 89.24 101.807 89.24C87.4233 89.24 75.3953 82.792 69.4433 72.376ZM172.504 32.696C168.66 36.416 164.072 38.276 158.616 38.276C153.16 38.276 148.448 36.416 144.604 32.696C140.76 28.976 138.9 24.512 138.9 19.18C138.9 13.848 140.76 9.384 144.604 5.664C148.448 1.944 153.16 0.0839937 158.616 0.0839937C164.072 0.0839937 168.66 1.944 172.504 5.664C176.348 9.384 178.332 13.848 178.332 19.18C178.332 24.512 176.348 28.976 172.504 32.696ZM161.84 88H144.976L203.876 1.572H220.74L161.84 88ZM158.616 25.752C161.964 25.752 164.692 22.776 164.692 19.18C164.692 15.584 161.964 12.608 158.616 12.608C155.144 12.608 152.54 15.584 152.54 19.18C152.54 23.024 155.144 25.752 158.616 25.752ZM193.336 83.908C189.492 80.188 187.508 75.724 187.508 70.392C187.508 65.06 189.492 60.596 193.336 56.876C197.18 53.156 201.892 51.296 207.348 51.296C212.804 51.296 217.392 53.156 221.236 56.876C225.08 60.596 226.94 65.06 226.94 70.392C226.94 75.724 225.08 80.188 221.236 83.908C217.392 87.628 212.804 89.488 207.348 89.488C201.892 89.488 197.18 87.628 193.336 83.908ZM201.148 70.392C201.148 74.236 203.752 76.964 207.348 76.964C210.696 76.964 213.424 73.988 213.424 70.392C213.424 66.796 210.696 63.82 207.348 63.82C203.876 63.82 201.148 66.796 201.148 70.392Z" fill="url(#paint0_linear_837_2068)"/>
<defs>
<linearGradient id="paint0_linear_837_2068" x1="230.5" y1="95.317" x2="-14.4344" y2="39.4618" gradientUnits="userSpaceOnUse">
<stop stop-color="#CDA5D5"/>
<stop offset="0.473958" stop-color="#FBE4FF"/>
<stop offset="1" stop-color="#E8FE74"/>
</linearGradient>
</defs>
</svg>
