<svg width="235" height="90" viewBox="0 0 235 90" fill="none" xmlns="http://www.w3.org/2000/svg">
<path d="M34.1414 88H13.1854L31.9094 60.348C31.2894 60.72 30.0494 60.844 28.3134 60.844C21.6174 60.844 15.1694 58.116 9.09336 52.784C3.01736 47.328 0.0413595 40.136 0.0413595 31.332C0.0413595 22.776 3.26536 15.584 9.58936 9.508C15.9134 3.43199 23.6014 0.331998 32.6534 0.331998C41.7054 0.331998 49.3934 3.308 55.5934 9.384C61.9174 15.336 65.0174 22.528 65.0174 31.084C65.0174 35.672 64.0254 40.136 61.9174 44.476C59.9334 48.816 56.5854 54.272 51.9974 61.092L34.1414 88ZM32.6534 44.848C40.5894 44.848 46.2934 38.772 46.2934 31.208C46.2934 27.488 44.9294 24.264 42.2014 21.66C36.8694 16.328 28.4374 16.328 23.1054 21.66C20.5014 24.264 19.1374 27.488 19.1374 31.208C19.1374 38.648 25.2134 44.848 32.6534 44.848ZM73.71 62.828C73.462 60.224 73.338 54.148 73.338 44.724C73.338 35.424 73.462 29.348 73.71 26.744C74.578 19.18 78.05 12.856 84.126 7.772C90.202 2.688 97.394 0.207999 105.702 0.207999C114.01 0.207999 121.078 2.688 127.154 7.772C133.23 12.856 136.826 19.18 137.694 26.744C137.942 29.348 138.066 35.424 138.066 44.724C138.066 54.148 137.942 60.224 137.694 62.828C136.826 70.392 133.23 76.716 127.154 81.8C121.078 86.884 114.01 89.364 105.702 89.364C97.394 89.364 90.202 86.884 84.126 81.8C78.05 76.716 74.578 70.392 73.71 62.828ZM92.806 60.72C93.426 67.292 98.882 72.004 105.702 72.004C112.522 72.004 117.978 67.292 118.598 60.72C118.846 58.736 118.97 53.404 118.97 44.724C118.97 36.416 118.846 31.332 118.722 29.348C117.854 22.528 112.522 17.568 105.702 17.568C98.882 17.568 93.55 22.528 92.682 29.348C92.558 31.332 92.434 36.416 92.434 44.724C92.434 53.404 92.558 58.736 92.806 60.72ZM179.682 32.696C175.838 36.416 171.25 38.276 165.794 38.276C160.338 38.276 155.626 36.416 151.782 32.696C147.938 28.976 146.078 24.512 146.078 19.18C146.078 13.848 147.938 9.384 151.782 5.664C155.626 1.944 160.338 0.0839937 165.794 0.0839937C171.25 0.0839937 175.838 1.944 179.682 5.664C183.526 9.384 185.51 13.848 185.51 19.18C185.51 24.512 183.526 28.976 179.682 32.696ZM169.018 88H152.154L211.054 1.572H227.918L169.018 88ZM165.794 25.752C169.142 25.752 171.87 22.776 171.87 19.18C171.87 15.584 169.142 12.608 165.794 12.608C162.322 12.608 159.718 15.584 159.718 19.18C159.718 23.024 162.322 25.752 165.794 25.752ZM200.514 83.908C196.67 80.188 194.686 75.724 194.686 70.392C194.686 65.06 196.67 60.596 200.514 56.876C204.358 53.156 209.07 51.296 214.526 51.296C219.982 51.296 224.57 53.156 228.414 56.876C232.258 60.596 234.118 65.06 234.118 70.392C234.118 75.724 232.258 80.188 228.414 83.908C224.57 87.628 219.982 89.488 214.526 89.488C209.07 89.488 204.358 87.628 200.514 83.908ZM208.326 70.392C208.326 74.236 210.93 76.964 214.526 76.964C217.874 76.964 220.602 73.988 220.602 70.392C220.602 66.796 217.874 63.82 214.526 63.82C211.054 63.82 208.326 66.796 208.326 70.392Z" fill="url(#paint0_linear_837_2087)"/>
<defs>
<linearGradient id="paint0_linear_837_2087" x1="237.5" y1="95.317" x2="-14.9725" y2="35.7661" gradientUnits="userSpaceOnUse">
<stop stop-color="#CDA5D5"/>
<stop offset="0.473958" stop-color="#FBE4FF"/>
<stop offset="1" stop-color="#E8FE74"/>
</linearGradient>
</defs>
</svg>
