<svg width="277" height="277" viewBox="0 0 277 277" fill="none" xmlns="http://www.w3.org/2000/svg">
<g filter="url(#filter0_d_111_15)">
<rect width="269" height="269" rx="22.4167" fill="#D6F379"/>
<path d="M117.757 146.568L115.198 139.19H102.659L100.057 146.568H94.0855L105.388 116.712H112.767L123.899 146.568H117.757ZM104.365 134.455H113.577L111.104 127.247C110.421 125.314 110.066 122.911 110.037 120.039H107.947C107.919 122.939 107.564 125.356 106.881 127.29L104.365 134.455ZM125.595 150.962C125.595 149.227 126.576 147.99 128.538 147.251V145.459C127.031 144.948 126.277 144.023 126.277 142.687C126.277 140.896 127.4 139.602 129.647 138.806V137.057C128.026 135.834 127.215 134.242 127.215 132.28C127.215 130.147 128.04 128.356 129.689 126.906C131.338 125.427 133.371 124.688 135.788 124.688C137.665 124.688 139.257 125.072 140.565 125.84C141.873 126.607 142.783 127.659 143.295 128.996H145.001C145.143 127.688 145.47 126.749 145.982 126.181C146.494 125.612 147.276 125.328 148.328 125.328H149.565V129.38H147.475C146.679 129.38 146.124 129.55 145.812 129.891C145.527 130.204 145.342 130.915 145.257 132.024L145.172 132.664C144.973 134.995 144.063 136.844 142.442 138.209C140.821 139.573 138.774 140.256 136.3 140.256C134.48 140.256 133.073 140 132.078 139.488C130.912 139.886 130.329 140.469 130.329 141.237C130.329 141.976 131.011 142.346 132.376 142.346H141.546C143.651 142.346 145.371 142.943 146.707 144.137C148.044 145.303 148.712 146.782 148.712 148.573C148.712 150.535 148.044 152.07 146.707 153.179C145.371 154.317 143.651 154.885 141.546 154.885H130.841C129.078 154.885 127.756 154.502 126.874 153.734C126.021 152.995 125.595 152.07 125.595 150.962ZM139.243 135.564C140.011 134.796 140.395 133.801 140.395 132.579C140.395 131.356 140.011 130.361 139.243 129.593C138.504 128.797 137.523 128.399 136.3 128.399C135.078 128.399 134.082 128.797 133.315 129.593C132.575 130.361 132.206 131.356 132.206 132.579C132.206 133.801 132.575 134.796 133.315 135.564C134.054 136.303 135.049 136.673 136.3 136.673C137.523 136.673 138.504 136.303 139.243 135.564ZM132.376 150.919H140.651C142.584 150.919 143.551 150.18 143.551 148.701C143.551 147.279 142.584 146.568 140.651 146.568H131.097C130.215 147.052 129.774 147.805 129.774 148.829C129.774 150.222 130.642 150.919 132.376 150.919ZM150.013 135.948C150.013 132.65 151.008 129.948 152.998 127.844C155.017 125.74 157.591 124.688 160.718 124.688C163.846 124.688 166.405 125.74 168.396 127.844C170.415 129.948 171.424 132.65 171.424 135.948C171.424 139.275 170.415 141.99 168.396 144.095C166.377 146.17 163.818 147.208 160.718 147.208C157.647 147.208 155.088 146.142 153.041 144.009C151.022 141.877 150.013 139.19 150.013 135.948ZM166.05 136.033C166.05 133.759 165.552 132.01 164.557 130.787C163.59 129.536 162.311 128.91 160.718 128.91C159.069 128.91 157.761 129.536 156.794 130.787C155.856 132.01 155.387 133.759 155.387 136.033C155.387 138.28 155.856 140 156.794 141.194C157.761 142.388 159.069 142.986 160.718 142.986C162.368 142.986 163.661 142.388 164.6 141.194C165.566 140 166.05 138.28 166.05 136.033ZM176.247 146.568V125.328H181.067C181.067 127.318 180.398 129.408 179.062 131.598H181.493C181.977 129.38 182.759 127.716 183.839 126.607C184.948 125.498 186.54 124.944 188.616 124.944C189.156 124.944 189.682 124.987 190.194 125.072V130.403C189.54 130.29 188.772 130.233 187.891 130.233C185.616 130.233 183.967 130.83 182.943 132.024C181.948 133.19 181.451 135.123 181.451 137.825V146.568H176.247ZM192.378 141.109C192.378 138.379 193.587 136.403 196.003 135.18C198.392 133.929 201.634 133.105 205.728 132.707V131.981C205.728 129.764 204.434 128.655 201.847 128.655C199.089 128.655 197.411 129.835 196.814 132.195L192.079 130.958C192.307 129.252 193.302 127.787 195.065 126.565C196.828 125.314 199.089 124.688 201.847 124.688C204.776 124.688 207.008 125.37 208.543 126.735C210.107 128.072 210.889 130.034 210.889 132.621V141.194C210.889 141.734 210.96 142.09 211.102 142.261C211.273 142.403 211.628 142.474 212.169 142.474H214.173V146.568H211.955C210.249 146.568 209.098 146.256 208.5 145.63C207.932 145.004 207.619 143.839 207.562 142.133H205.728C205.273 143.696 204.491 144.933 203.382 145.843C202.273 146.753 200.88 147.208 199.202 147.208C197.155 147.208 195.506 146.668 194.255 145.587C193.004 144.478 192.378 142.986 192.378 141.109ZM205.728 137.825V136.119C203.055 136.403 201.036 136.901 199.672 137.611C198.335 138.294 197.667 139.289 197.667 140.597C197.667 141.45 197.937 142.118 198.477 142.602C199.046 143.057 199.842 143.284 200.866 143.284C202.259 143.284 203.411 142.815 204.321 141.877C205.259 140.91 205.728 139.559 205.728 137.825Z" fill="#181E32"/>
<path d="M155.717 158.695C155.717 157.554 156.269 156.686 157.373 156.091C158.465 155.495 159.885 155.142 161.634 155.03V154.639C161.634 154.019 161.442 153.542 161.057 153.207C160.685 152.859 160.133 152.686 159.401 152.686C158.024 152.686 157.131 153.269 156.722 154.435L155.531 153.988C155.742 153.306 156.17 152.735 156.815 152.276C157.472 151.805 158.334 151.569 159.401 151.569C160.555 151.569 161.417 151.848 161.987 152.407C162.57 152.952 162.862 153.709 162.862 154.677V159.161C162.862 159.421 162.918 159.607 163.029 159.719C163.141 159.83 163.321 159.886 163.569 159.886H164.462V161.003H163.755C163.135 161.003 162.707 160.866 162.471 160.593C162.235 160.308 162.124 159.799 162.136 159.068H161.559C161.336 159.75 160.97 160.283 160.462 160.668C159.966 161.052 159.339 161.244 158.583 161.244C157.702 161.244 157.001 161.021 156.48 160.575C155.971 160.116 155.717 159.489 155.717 158.695ZM161.634 157.058V155.979C160.183 156.103 159.048 156.388 158.229 156.835C157.41 157.269 157.001 157.864 157.001 158.621C157.001 159.105 157.162 159.489 157.485 159.775C157.807 160.047 158.266 160.184 158.862 160.184C159.618 160.184 160.269 159.917 160.815 159.384C161.361 158.838 161.634 158.063 161.634 157.058ZM165.303 162.956C165.303 162.113 165.737 161.499 166.605 161.114V160.537C166.022 160.351 165.731 159.992 165.731 159.458C165.731 158.751 166.196 158.193 167.126 157.784V157.226C166.419 156.655 166.065 155.849 166.065 154.807C166.065 153.914 166.388 153.151 167.033 152.518C167.678 151.886 168.503 151.569 169.507 151.569C170.277 151.569 170.903 151.737 171.387 152.072C171.883 152.407 172.236 152.847 172.447 153.393H173.024C173.036 152.921 173.16 152.543 173.396 152.258C173.644 151.973 173.985 151.83 174.419 151.83H175.089V152.89H174.438C174.004 152.89 173.688 152.983 173.489 153.17C173.303 153.343 173.191 153.721 173.154 154.304L173.136 154.9C173.098 155.929 172.751 156.76 172.094 157.393C171.436 158.013 170.605 158.323 169.601 158.323C168.856 158.323 168.286 158.205 167.889 157.97C167.591 158.106 167.349 158.286 167.163 158.509C166.977 158.72 166.884 158.931 166.884 159.142C166.884 159.626 167.188 159.868 167.796 159.868H171.889C172.732 159.868 173.409 160.085 173.917 160.519C174.438 160.941 174.699 161.517 174.699 162.249C174.699 163.018 174.438 163.607 173.917 164.017C173.409 164.426 172.764 164.631 171.982 164.631H167.517C166.772 164.631 166.214 164.469 165.842 164.147C165.482 163.824 165.303 163.428 165.303 162.956ZM171.945 154.956C171.945 154.286 171.722 153.728 171.275 153.281C170.841 152.835 170.289 152.611 169.619 152.611C168.925 152.611 168.36 152.835 167.926 153.281C167.504 153.715 167.293 154.273 167.293 154.956C167.293 155.65 167.504 156.215 167.926 156.649C168.348 157.083 168.906 157.3 169.601 157.3C170.295 157.3 170.86 157.083 171.294 156.649C171.728 156.202 171.945 155.638 171.945 154.956ZM168.075 163.514H171.833C172.9 163.514 173.433 163.093 173.433 162.249C173.433 161.418 172.869 161.003 171.74 161.003H167.368C166.76 161.362 166.456 161.846 166.456 162.454C166.456 162.826 166.58 163.093 166.828 163.254C167.076 163.428 167.492 163.514 168.075 163.514ZM175.975 156.351C175.975 154.9 176.347 153.74 177.091 152.872C177.848 152.004 178.803 151.569 179.956 151.569C181.11 151.569 182.053 151.979 182.784 152.797C183.516 153.616 183.882 154.67 183.882 155.96C183.882 156.146 183.87 156.376 183.845 156.649H177.203C177.24 157.852 177.519 158.739 178.04 159.309C178.573 159.88 179.243 160.165 180.049 160.165C180.744 160.165 181.315 159.979 181.761 159.607C182.208 159.223 182.536 158.77 182.747 158.249L183.882 158.658C183.585 159.452 183.095 160.085 182.412 160.556C181.73 161.015 180.936 161.244 180.031 161.244C178.766 161.244 177.773 160.823 177.054 159.979C176.334 159.136 175.975 157.926 175.975 156.351ZM177.221 155.588H182.598C182.598 154.67 182.344 153.945 181.836 153.411C181.327 152.878 180.701 152.611 179.956 152.611C179.225 152.611 178.598 152.89 178.077 153.449C177.556 154.007 177.271 154.72 177.221 155.588ZM186.529 161.003V151.83H187.739C187.739 152.487 187.509 153.219 187.05 154.025H187.795C187.981 153.368 188.328 152.797 188.836 152.314C189.357 151.817 190.027 151.569 190.846 151.569C191.937 151.569 192.75 151.886 193.283 152.518C193.829 153.138 194.102 154.013 194.102 155.142V161.003H192.874V155.439C192.874 153.604 192.105 152.686 190.567 152.686C189.438 152.686 188.688 153.114 188.316 153.97C187.956 154.825 187.776 155.781 187.776 156.835V161.003H186.529ZM196.579 156.388C196.579 154.999 196.97 153.852 197.751 152.946C198.545 152.028 199.556 151.569 200.784 151.569C201.726 151.569 202.52 151.824 203.165 152.332C203.823 152.828 204.263 153.449 204.486 154.193L203.314 154.565C202.905 153.312 202.061 152.686 200.784 152.686C199.953 152.686 199.258 153.014 198.7 153.672C198.154 154.317 197.881 155.222 197.881 156.388C197.881 157.591 198.148 158.522 198.681 159.179C199.227 159.824 199.934 160.147 200.802 160.147C201.509 160.147 202.086 159.942 202.533 159.533C202.992 159.123 203.308 158.59 203.482 157.933L204.672 158.342C204.375 159.247 203.891 159.961 203.221 160.482C202.564 160.99 201.757 161.244 200.802 161.244C199.525 161.244 198.501 160.81 197.732 159.942C196.963 159.061 196.579 157.877 196.579 156.388ZM212.7 151.83H214.022L210.338 162.342C210.027 163.223 209.68 163.824 209.296 164.147C208.911 164.469 208.316 164.631 207.509 164.631H206.002V163.496H207.509C207.931 163.496 208.26 163.415 208.496 163.254C208.731 163.093 208.924 162.795 209.072 162.361L209.631 160.779L205.667 151.83H207.044L209.296 157.021C209.631 157.79 209.804 158.609 209.817 159.477H210.468C210.468 158.819 210.598 158.063 210.859 157.207L212.7 151.83Z" fill="#181E32"/>
<path fill-rule="evenodd" clip-rule="evenodd" d="M70.5006 150.416C79.3525 150.416 86.5285 143.24 86.5285 134.388C86.5285 125.536 79.3525 118.36 70.5006 118.36C61.6486 118.36 54.4727 125.536 54.4727 134.388C54.4727 143.24 61.6486 150.416 70.5006 150.416ZM71.1229 125.713C70.8952 125.156 70.1054 125.156 69.8777 125.713L67.6501 131.169C67.5818 131.337 67.449 131.469 67.2817 131.538L61.8257 133.765C61.268 133.993 61.268 134.783 61.8257 135.011L67.2817 137.238C67.449 137.306 67.5818 137.439 67.6501 137.607L69.8777 143.063C70.1054 143.62 70.8952 143.62 71.1229 143.063L73.3505 137.607C73.4188 137.439 73.5516 137.306 73.7189 137.238L79.175 135.011C79.7327 134.783 79.7327 133.993 79.175 133.765L73.7189 131.538C73.5516 131.469 73.4188 131.337 73.3505 131.169L71.1229 125.713Z" fill="#181E32"/>
<rect x="0.448333" y="0.448333" width="268.103" height="268.103" rx="21.9683" stroke="#181E32" stroke-width="0.896667"/>
</g>
<defs>
<filter id="filter0_d_111_15" x="0" y="0" width="276.173" height="276.173" filterUnits="userSpaceOnUse" color-interpolation-filters="sRGB">
<feFlood flood-opacity="0" result="BackgroundImageFix"/>
<feColorMatrix in="SourceAlpha" type="matrix" values="0 0 0 0 0 0 0 0 0 0 0 0 0 0 0 0 0 0 127 0" result="hardAlpha"/>
<feOffset dx="7.17333" dy="7.17333"/>
<feComposite in2="hardAlpha" operator="out"/>
<feColorMatrix type="matrix" values="0 0 0 0 0.0156863 0 0 0 0 0 0 0 0 0 0.113725 0 0 0 1 0"/>
<feBlend mode="normal" in2="BackgroundImageFix" result="effect1_dropShadow_111_15"/>
<feBlend mode="normal" in="SourceGraphic" in2="effect1_dropShadow_111_15" result="shape"/>
</filter>
</defs>
</svg>
