<svg width="281" height="122" viewBox="0 0 281 122" fill="none" xmlns="http://www.w3.org/2000/svg">
<g filter="url(#filter0_d_111_52)">
<rect width="273.267" height="114.317" rx="22.7722" fill="#B085E8"/>
<path d="M119.625 68.2374L117.026 60.7416H104.287L101.644 68.2374H95.5779L107.06 37.9075H114.556L125.864 68.2374H119.625ZM106.02 55.9322H115.379L112.866 48.6097C112.173 46.6454 111.812 44.2046 111.783 41.2872H109.66C109.631 44.2335 109.27 46.6888 108.576 48.653L106.02 55.9322ZM127.587 72.7003C127.587 70.9382 128.583 69.6817 130.576 68.9307V67.1109C129.046 66.5909 128.28 65.6522 128.28 64.2945C128.28 62.4747 129.421 61.1605 131.703 60.3517V58.5752C130.057 57.3331 129.233 55.7155 129.233 53.7224C129.233 51.556 130.071 49.7362 131.746 48.263C133.422 46.761 135.487 46.01 137.942 46.01C139.849 46.01 141.466 46.3999 142.795 47.1798C144.124 47.9597 145.048 49.0285 145.568 50.3861H147.301C147.446 49.0574 147.778 48.1042 148.298 47.5264C148.818 46.9487 149.612 46.6599 150.681 46.6599H151.937V50.7761H149.814C149.005 50.7761 148.442 50.9494 148.124 51.296C147.836 51.6138 147.648 52.3359 147.561 53.4624L147.475 54.1124C147.272 56.481 146.348 58.3586 144.702 59.7451C143.055 61.1316 140.975 61.8248 138.462 61.8248C136.614 61.8248 135.184 61.5649 134.173 61.0449C132.988 61.4493 132.396 62.0415 132.396 62.8214C132.396 63.5724 133.09 63.9479 134.476 63.9479H143.792C145.929 63.9479 147.677 64.5545 149.034 65.7677C150.392 66.952 151.071 68.4541 151.071 70.2739C151.071 72.267 150.392 73.8268 149.034 74.9533C147.677 76.1088 145.929 76.6865 143.792 76.6865H132.916C131.125 76.6865 129.782 76.2965 128.887 75.5166C128.02 74.7656 127.587 73.8268 127.587 72.7003ZM141.452 57.0587C142.232 56.2788 142.622 55.2678 142.622 54.0257C142.622 52.7836 142.232 51.7726 141.452 50.9927C140.701 50.1839 139.704 49.7795 138.462 49.7795C137.22 49.7795 136.209 50.1839 135.429 50.9927C134.678 51.7726 134.303 52.7836 134.303 54.0257C134.303 55.2678 134.678 56.2788 135.429 57.0587C136.18 57.8097 137.191 58.1852 138.462 58.1852C139.704 58.1852 140.701 57.8097 141.452 57.0587ZM134.476 72.6569H142.882C144.846 72.6569 145.828 71.9059 145.828 70.4038C145.828 68.9596 144.846 68.2374 142.882 68.2374H133.176C132.281 68.7285 131.833 69.494 131.833 70.5338C131.833 71.9492 132.714 72.6569 134.476 72.6569ZM152.392 57.4487C152.392 54.0979 153.403 51.3538 155.425 49.2163C157.476 47.0787 160.09 46.01 163.268 46.01C166.445 46.01 169.045 47.0787 171.067 49.2163C173.118 51.3538 174.143 54.0979 174.143 57.4487C174.143 60.8283 173.118 63.5868 171.067 65.7244C169.016 67.833 166.416 68.8874 163.268 68.8874C160.148 68.8874 157.548 67.8041 155.469 65.6377C153.418 63.4713 152.392 60.7416 152.392 57.4487ZM168.684 57.5353C168.684 55.2245 168.178 53.448 167.167 52.2059C166.185 50.9349 164.885 50.2995 163.268 50.2995C161.592 50.2995 160.264 50.9349 159.282 52.2059C158.328 53.448 157.852 55.2245 157.852 57.5353C157.852 59.8173 158.328 61.5649 159.282 62.778C160.264 63.9912 161.592 64.5978 163.268 64.5978C164.943 64.5978 166.257 63.9912 167.211 62.778C168.193 61.5649 168.684 59.8173 168.684 57.5353ZM179.043 68.2374V46.6599H183.939C183.939 48.6819 183.26 50.805 181.902 53.0292H184.372C184.863 50.7761 185.657 49.0863 186.755 47.9597C187.882 46.8332 189.499 46.2699 191.608 46.2699C192.157 46.2699 192.691 46.3133 193.211 46.3999V51.816C192.547 51.7004 191.767 51.6426 190.871 51.6426C188.56 51.6426 186.885 52.2492 185.845 53.4624C184.834 54.6468 184.329 56.611 184.329 59.3551V68.2374H179.043ZM195.43 62.6914C195.43 59.9184 196.657 57.9108 199.113 56.6687C201.539 55.3978 204.832 54.5601 208.991 54.1557V53.4191C208.991 51.166 207.677 50.0395 205.049 50.0395C202.247 50.0395 200.542 51.2382 199.936 53.6358L195.126 52.3792C195.357 50.6461 196.368 49.1585 198.159 47.9164C199.95 46.6454 202.247 46.01 205.049 46.01C208.024 46.01 210.291 46.7032 211.851 48.0897C213.44 49.4473 214.234 51.4404 214.234 54.069V62.778C214.234 63.3269 214.306 63.6879 214.451 63.8613C214.624 64.0057 214.985 64.0779 215.534 64.0779H217.57V68.2374H215.317C213.584 68.2374 212.414 67.9197 211.808 67.2842C211.23 66.6487 210.912 65.4644 210.855 63.7313H208.991C208.529 65.32 207.735 66.5765 206.608 67.5008C205.482 68.4252 204.066 68.8874 202.362 68.8874C200.282 68.8874 198.607 68.3385 197.336 67.2409C196.065 66.1143 195.43 64.5978 195.43 62.6914ZM208.991 59.3551V57.622C206.276 57.9108 204.225 58.4163 202.839 59.1385C201.481 59.8317 200.802 60.8427 200.802 62.1715C200.802 63.038 201.077 63.7168 201.626 64.2079C202.203 64.6701 203.012 64.9011 204.052 64.9011C205.467 64.9011 206.637 64.4245 207.562 63.4713C208.515 62.4892 208.991 61.1171 208.991 59.3551Z" fill="#E8E8E8"/>
<path fill-rule="evenodd" clip-rule="evenodd" d="M71.6186 73.3266C80.611 73.3266 87.9007 66.0369 87.9007 57.0445C87.9007 48.0521 80.611 40.7623 71.6186 40.7623C62.6262 40.7623 55.3364 48.0521 55.3364 57.0445C55.3364 66.0369 62.6262 73.3266 71.6186 73.3266ZM72.251 48.2322C72.0197 47.6656 71.2174 47.6656 70.986 48.2322L68.7231 53.7748C68.6537 53.9447 68.5188 54.0796 68.3489 54.149L62.8063 56.412C62.2397 56.6433 62.2397 57.4456 62.8063 57.6769L68.3489 59.9398C68.5188 60.0092 68.6537 60.1441 68.7231 60.3141L70.986 65.8567C71.2174 66.4232 72.0197 66.4232 72.251 65.8567L74.5139 60.3141C74.5833 60.1441 74.7182 60.0092 74.8882 59.9398L80.4307 57.6769C80.9973 57.4456 80.9973 56.6433 80.4307 56.412L74.8882 54.149C74.7182 54.0796 74.5833 53.9447 74.5139 53.7748L72.251 48.2322Z" fill="#E8E8E8"/>
<rect x="0.455445" y="0.455445" width="272.356" height="113.406" rx="22.3168" stroke="#181E32" stroke-width="0.91089"/>
</g>
<defs>
<filter id="filter0_d_111_52" x="0" y="0" width="280.554" height="121.604" filterUnits="userSpaceOnUse" color-interpolation-filters="sRGB">
<feFlood flood-opacity="0" result="BackgroundImageFix"/>
<feColorMatrix in="SourceAlpha" type="matrix" values="0 0 0 0 0 0 0 0 0 0 0 0 0 0 0 0 0 0 127 0" result="hardAlpha"/>
<feOffset dx="7.28712" dy="7.28712"/>
<feComposite in2="hardAlpha" operator="out"/>
<feColorMatrix type="matrix" values="0 0 0 0 0.0156863 0 0 0 0 0 0 0 0 0 0.113725 0 0 0 1 0"/>
<feBlend mode="normal" in2="BackgroundImageFix" result="effect1_dropShadow_111_52"/>
<feBlend mode="normal" in="SourceGraphic" in2="effect1_dropShadow_111_52" result="shape"/>
</filter>
</defs>
</svg>
