<svg width="74" height="105" viewBox="0 0 74 105" fill="none" xmlns="http://www.w3.org/2000/svg">
<path d="M13.8686 15.5371C3.31225 19.6915 3.78389 8.73586 5.33925 2.73877C5.97165 -0.641025 2.3422 -0.65565 1.42344 1.61246C-0.915087 7.38428 -0.37821 20.258 8.37594 19.893C15.3793 19.6009 23.0162 16.3593 25.9592 14.775C25.367 15.4187 23.9103 21.3085 23.256 24.1729C22.5481 27.8134 23.2586 35.3667 31.7639 36.4564C40.2692 37.546 49.9338 37.1602 53.703 36.831C29.9303 60.5197 57.7056 64.7777 65.752 72.1799C48.1664 71.0562 38.7456 91.3091 43.4921 101.222C46.0349 106.532 48.021 103.835 47.9229 102.327C46.4845 80.2052 58.6502 80.0074 70.0648 76.6426C74.9568 75.2006 72.9297 71.9135 70.5903 70.6885C41.8491 55.6379 45.8038 52.8385 61.4916 38.0538C64.4696 35.2472 62.8647 33.8698 60.5152 33.194C59.2621 32.8336 45.5172 32.2719 38.8228 32.5511C35.4793 32.7765 28.7041 32.354 28.3521 28.861C28.0001 25.3679 30.1933 17.3496 31.3339 13.7771C32.0548 11.271 29.907 10.4836 28.8771 10.5265C27.9472 10.5653 24.4249 11.3828 13.8686 15.5371Z" fill="#A2B7B2"/>
</svg>
