<svg width="37" height="37" viewBox="0 0 37 37" fill="none" xmlns="http://www.w3.org/2000/svg">
<rect x="0.677368" y="0.416992" width="35.6452" height="35.6452" rx="4.19355" fill="#184A4E"/>
<path d="M24.4172 14.3951H10.0241C9.76957 14.3951 9.52551 14.5056 9.34556 14.7022C9.16561 14.8988 9.06451 15.1654 9.06451 15.4435V19.637C9.06752 21.8406 9.83073 23.9619 11.2019 25.5779H10.0241C9.76957 25.5779 9.52551 25.6884 9.34556 25.885C9.16561 26.0816 9.06451 26.3482 9.06451 26.6263C9.06451 26.9043 9.16561 27.171 9.34556 27.3676C9.52551 27.5642 9.76957 27.6747 10.0241 27.6747H24.0973C24.3518 27.6747 24.5959 27.5642 24.7758 27.3676C24.9558 27.171 25.0569 26.9043 25.0569 26.6263C25.0569 26.3482 24.9558 26.0816 24.7758 25.885C24.5959 25.6884 24.3518 25.5779 24.0973 25.5779H22.9195C23.609 24.7644 24.1516 23.8158 24.5187 22.7822C25.4341 22.7533 26.3031 22.3356 26.9411 21.6178C27.5792 20.9 27.9359 19.9387 27.9355 18.9381V18.2392C27.9344 17.22 27.5634 16.2429 26.9038 15.5223C26.2442 14.8016 25.35 14.3963 24.4172 14.3951ZM23.1378 19.637C23.1357 20.8698 22.8208 22.0778 22.2279 23.1266C21.6349 24.1754 20.7874 25.024 19.7794 25.5779H14.342C13.334 25.024 12.4864 24.1754 11.8935 23.1266C11.3006 22.0778 10.9856 20.8698 10.9836 19.637V16.4919H23.1378V19.637ZM26.0164 18.9381C26.0161 19.287 25.9202 19.6278 25.7411 19.9167C25.5619 20.2055 25.3078 20.4291 25.0113 20.5588C25.0418 20.2526 25.057 19.945 25.0569 19.637V16.6387C25.3419 16.7746 25.5845 16.9984 25.755 17.2827C25.9254 17.567 26.0162 17.8994 26.0164 18.2392V18.9381ZM12.9027 11.9489V9.8521C12.9027 9.57405 13.0038 9.30739 13.1837 9.11078C13.3637 8.91417 13.6077 8.80371 13.8622 8.80371C14.1167 8.80371 14.3608 8.91417 14.5407 9.11078C14.7207 9.30739 14.8218 9.57405 14.8218 9.8521V11.9489C14.8218 12.2269 14.7207 12.4936 14.5407 12.6902C14.3608 12.8868 14.1167 12.9973 13.8622 12.9973C13.6077 12.9973 13.3637 12.8868 13.1837 12.6902C13.0038 12.4936 12.9027 12.2269 12.9027 11.9489ZM16.1011 11.9489V9.8521C16.1011 9.57405 16.2022 9.30739 16.3822 9.11078C16.5621 8.91417 16.8062 8.80371 17.0607 8.80371C17.3152 8.80371 17.5592 8.91417 17.7392 9.11078C17.9191 9.30739 18.0202 9.57405 18.0202 9.8521V11.9489C18.0202 12.2269 17.9191 12.4936 17.7392 12.6902C17.5592 12.8868 17.3152 12.9973 17.0607 12.9973C16.8062 12.9973 16.5621 12.8868 16.3822 12.6902C16.2022 12.4936 16.1011 12.2269 16.1011 11.9489ZM19.2996 11.9489V9.8521C19.2996 9.57405 19.4007 9.30739 19.5807 9.11078C19.7606 8.91417 20.0047 8.80371 20.2592 8.80371C20.5136 8.80371 20.7577 8.91417 20.9377 9.11078C21.1176 9.30739 21.2187 9.57405 21.2187 9.8521V11.9489C21.2187 12.2269 21.1176 12.4936 20.9377 12.6902C20.7577 12.8868 20.5136 12.9973 20.2592 12.9973C20.0047 12.9973 19.7606 12.8868 19.5807 12.6902C19.4007 12.4936 19.2996 12.2269 19.2996 11.9489Z" fill="url(#paint0_linear_2734_5408)"/>
<defs>
<linearGradient id="paint0_linear_2734_5408" x1="22.166" y1="21.4473" x2="8.25381" y2="19.2715" gradientUnits="userSpaceOnUse">
<stop stop-color="#C6A5D5"/>
<stop offset="0.5" stop-color="#F1E4FF"/>
<stop offset="1" stop-color="#E8FE74"/>
</linearGradient>
</defs>
</svg>
