<svg width="28" height="26" viewBox="0 0 28 26" fill="none" xmlns="http://www.w3.org/2000/svg">
<g id="Union">
<path id="Union_2" fill-rule="evenodd" clip-rule="evenodd" d="M5.69363 14.5771L16.5231 23.1197C17.2145 23.665 17.3328 24.6675 16.7875 25.3588C16.2422 26.0501 15.2397 26.1685 14.5483 25.6231L2.2276 15.9042L2.16012 15.851L2.16012 15.851C1.73212 15.5136 1.28654 15.1624 0.962017 14.8206C0.591309 14.4303 0.158203 13.8292 0.158203 12.9835C0.158203 12.1378 0.59131 11.5367 0.962018 11.1463C1.28654 10.8046 1.73213 10.4534 2.16012 10.116L2.16013 10.116L2.2276 10.0628L14.5483 0.343855C15.2397 -0.201473 16.2421 -0.0831258 16.7875 0.608189C17.3328 1.29951 17.2145 2.302 16.5231 2.84733L5.69551 11.3885H26.4056C27.2862 11.3885 28 12.1022 28 12.9828C28 13.8633 27.2862 14.5771 26.4056 14.5771H5.69363Z" fill="#FEFFF5"/>
</g>
</svg>
