<svg width="162" height="123" viewBox="0 0 162 123" fill="none" xmlns="http://www.w3.org/2000/svg">
<path d="M51.5587 25.5677L49.693 24.7625L51.5587 25.5677ZM30.1744 26.7709L28.1779 27.1491L30.1744 26.7709ZM92.7923 57.8393L92.351 55.8558L92.7923 57.8393ZM151.659 61.147L153.224 59.8512L151.659 61.147ZM123.042 119.673L121.73 118.121C120.912 118.813 120.771 120.02 121.407 120.881C122.043 121.742 123.239 121.962 124.14 121.383L123.042 119.673ZM129.547 82.2489C128.823 81.3917 127.54 81.2841 126.683 82.0085C125.826 82.7329 125.719 84.0151 126.443 84.8722L129.547 82.2489ZM157.923 122.12C158.647 122.977 159.93 123.085 160.787 122.36C161.644 121.636 161.751 120.354 161.027 119.497L157.923 122.12ZM0.232348 39.1425C8.57439 42.5462 23.3505 45.961 35.7784 42.1427L34.5849 38.2578C23.4524 41.6781 9.72851 38.6277 1.76765 35.3796L0.232348 39.1425ZM35.7784 42.1427C43.1337 39.8829 49.6665 35.0799 53.4244 26.3729L49.693 24.7625C46.4658 32.2398 40.9519 36.3017 34.5849 38.2578L35.7784 42.1427ZM53.4244 26.3729C56.5615 19.1044 56.419 12.9517 54.1213 8.42824C51.831 3.91949 47.5318 1.32132 43.0269 1.00156C38.4998 0.680223 33.8107 2.66117 30.7678 7.13628C27.7435 11.5841 26.4929 18.2548 28.1779 27.1491L32.1709 26.3926C30.6139 18.1737 31.8979 12.7021 34.1286 9.42145C36.3407 6.16813 39.6269 4.83452 42.7391 5.05543C45.8735 5.27791 48.8775 7.07878 50.4979 10.2688C52.1108 13.4441 52.4866 18.2899 49.693 24.7625L53.4244 26.3729ZM28.1779 27.1491C29.2091 32.5925 31.0231 37.2667 33.4447 41.2549L36.9186 39.1456C34.7662 35.6009 33.1177 31.39 32.1709 26.3926L28.1779 27.1491ZM33.4447 41.2549C40.1935 52.3695 51.4437 57.8349 62.7102 60.1141C73.9688 62.3916 85.4859 61.5466 93.2336 59.8228L92.351 55.8558C85.0611 57.4777 74.1266 58.2771 63.5161 56.1307C52.9135 53.9859 42.8772 48.9589 36.9186 39.1456L33.4447 41.2549ZM93.2336 59.8228C97.7709 58.8133 102.706 57.1684 107.616 55.671C112.588 54.1545 117.617 52.76 122.595 52.1263C127.56 51.4942 132.39 51.6316 136.97 53.1179C141.527 54.5967 145.96 57.4498 150.093 62.4427L153.224 59.8512C148.635 54.308 143.567 50.9861 138.224 49.2523C132.904 47.526 127.434 47.4133 122.082 48.0948C116.741 48.7747 111.434 50.2576 106.43 51.7837C101.364 53.3287 96.6856 54.8913 92.351 55.8558L93.2336 59.8228ZM150.093 62.4427C156.304 69.9456 156.099 79.307 150.824 89.2364C145.522 99.2151 135.214 109.442 121.944 117.964L124.14 121.383C137.771 112.63 148.678 101.937 154.413 91.1432C160.174 80.2997 160.826 69.035 153.224 59.8512L150.093 62.4427ZM124.353 121.225C127.649 118.44 132.444 112.995 134.697 106.101C136.995 99.0677 136.605 90.6002 129.547 82.2489L126.443 84.8722C132.502 92.0408 132.739 99.0064 130.834 104.838C128.883 110.808 124.643 115.66 121.73 118.121L124.353 121.225ZM124.353 121.225C127.266 118.764 132.756 115.392 138.968 114.463C145.036 113.556 151.864 114.951 157.923 122.12L161.027 119.497C153.969 111.145 145.685 109.35 138.367 110.444C131.193 111.516 125.025 115.336 121.73 118.121L124.353 121.225Z" fill="#E8FE74"/>
</svg>
