<svg width="31" height="300" viewBox="0 0 31 300" fill="none" xmlns="http://www.w3.org/2000/svg">
<path d="M16.8618 2C16.8618 1.35335 16.3376 0.829137 15.6909 0.829137C15.0443 0.829137 14.5201 1.35335 14.5201 2H16.8618ZM14.5201 2C14.5201 2.04025 14.5201 2.08111 14.5201 2.12259C14.5201 2.16406 14.5201 2.20615 14.5201 2.24884C14.5201 2.29154 14.5201 2.33485 14.5201 2.37876C14.5201 2.42268 14.5201 2.4672 14.5201 2.51233C14.5201 2.55746 14.5201 2.6032 14.5201 2.64954C14.5201 2.69588 14.5201 2.74283 14.5201 2.79037C14.5201 2.83792 14.5201 2.88607 14.5201 2.93482C14.5201 2.98358 14.5201 3.03293 14.5201 3.08288C14.5201 3.13283 14.5201 3.18338 14.5201 3.23453C14.5201 3.28567 14.5201 3.33742 14.5201 3.38976C14.5201 3.44209 14.5201 3.49503 14.5201 3.54856C14.5201 3.60208 14.5201 3.6562 14.5201 3.71091C14.5201 3.76563 14.5201 3.82093 14.5201 3.87682C14.5201 3.93271 14.5201 3.98919 14.5201 4.04626C14.5201 4.10333 14.5201 4.16099 14.5201 4.21923C14.5201 4.27747 14.5201 4.3363 14.5201 4.39571C14.5201 4.45512 14.5201 4.51512 14.5201 4.57569C14.5201 4.63627 14.5201 4.69743 14.5201 4.75917C14.5201 4.8209 14.5201 4.88322 14.5201 4.94612C14.5201 5.00902 14.5201 5.07249 14.5201 5.13654C14.5201 5.20059 14.5201 5.26522 14.5201 5.33042C14.5201 5.39562 14.5201 5.46139 14.5201 5.52774C14.5201 5.59409 14.5201 5.66101 14.5201 5.7285C14.5201 5.79599 14.5201 5.86405 14.5201 5.93267C14.5201 6.0013 14.5201 6.0705 14.5201 6.14026C14.5201 6.21003 14.5201 6.28036 14.5201 6.35125C14.5201 6.42215 14.5201 6.49361 14.5201 6.56563C14.5201 6.63765 14.5201 6.71024 14.5201 6.78339C14.5201 6.85653 14.5201 6.93024 14.5201 7.00451C14.5201 7.07877 14.5201 7.1536 14.5201 7.22898C14.5201 7.30436 14.5201 7.3803 14.5201 7.4568C14.5201 7.53329 14.5201 7.61035 14.5201 7.68795C14.5201 7.76555 14.5201 7.84371 14.5201 7.92242C14.5201 8.00113 14.5201 8.08039 14.5201 8.1602C14.5201 8.24001 14.5201 8.32037 14.5201 8.40127C14.5201 8.48218 14.5201 8.56363 14.5201 8.64563C14.5201 8.72763 14.5201 8.81018 14.5201 8.89327C14.5201 8.97636 14.5201 9.05999 14.5201 9.14417C14.5201 9.22835 14.5201 9.31306 14.5201 9.39832C14.5201 9.48358 14.5201 9.56938 14.5201 9.65571C14.5201 9.74205 14.5201 9.82893 14.5201 9.91634C14.5201 10.0037 14.5201 10.0917 14.5201 10.1802C14.5201 10.2687 14.5201 10.3577 14.5201 10.4472C14.5201 10.5368 14.5201 10.6269 14.5201 10.7175C14.5201 10.8081 14.5201 10.8992 14.5201 10.9909C14.5201 11.0826 14.5201 11.1748 14.5201 11.2675C14.5201 11.3602 14.5201 11.4535 14.5201 11.5472C14.5201 11.641 14.5201 11.7353 14.5201 11.8301C14.5201 11.925 14.5201 12.0203 14.5201 12.1162C14.5201 12.2121 14.5201 12.3085 14.5201 12.4054C14.5201 12.5023 14.5201 12.5997 14.5201 12.6977C14.5201 12.7956 14.5201 12.8941 14.5201 12.993C14.5201 13.092 14.5201 13.1915 14.5201 13.2915C14.5201 13.3915 14.5201 13.4921 14.5201 13.5931C14.5201 13.6941 14.5201 13.7957 14.5201 13.8977C14.5201 13.9998 14.5201 14.1024 14.5201 14.2054C14.5201 14.3085 14.5201 14.4121 14.5201 14.5162C14.5201 14.6203 14.5201 14.7249 14.5201 14.83C14.5201 14.9351 14.5201 15.0407 14.5201 15.1468C14.5201 15.2529 14.5201 15.3595 14.5201 15.4666C14.5201 15.5737 14.5201 15.6813 14.5201 15.7894C14.5201 15.8975 14.5201 16.0061 14.5201 16.1152C14.5201 16.2243 14.5201 16.3339 14.5201 16.444C14.5201 16.5541 14.5201 16.6647 14.5201 16.7757C14.5201 16.8868 14.5201 16.9984 14.5201 17.1105C14.5201 17.2225 14.5201 17.3351 14.5201 17.4481C14.5201 17.5612 14.5201 17.6747 14.5201 17.7887C14.5201 17.9027 14.5201 18.0172 14.5201 18.1322C14.5201 18.2472 14.5201 18.3627 14.5201 18.4786C14.5201 18.5946 14.5201 18.711 14.5201 18.828C14.5201 18.9449 14.5201 19.0623 14.5201 19.1802C14.5201 19.2981 14.5201 19.4164 14.5201 19.5353C14.5201 19.6541 14.5201 19.7734 14.5201 19.8932C14.5201 20.013 14.5201 20.1333 14.5201 20.254C14.5201 20.3748 14.5201 20.496 14.5201 20.6177C14.5201 20.7394 14.5201 20.8615 14.5201 20.9842C14.5201 21.1068 14.5201 21.2299 14.5201 21.3535C14.5201 21.477 14.5201 21.6011 14.5201 21.7256C14.5201 21.8501 14.5201 21.975 14.5201 22.1005C14.5201 22.2259 14.5201 22.3518 14.5201 22.4782C14.5201 22.6045 14.5201 22.7314 14.5201 22.8586C14.5201 22.9859 14.5201 23.1137 14.5201 23.2419C14.5201 23.3701 14.5201 23.4987 14.5201 23.6279C14.5201 23.757 14.5201 23.8865 14.5201 24.0166C14.5201 24.1466 14.5201 24.2771 14.5201 24.408C14.5201 24.539 14.5201 24.6704 14.5201 24.8022C14.5201 24.934 14.5201 25.0663 14.5201 25.1991C14.5201 25.3318 14.5201 25.465 14.5201 25.5986C14.5201 25.7323 14.5201 25.8664 14.5201 26.0009C14.5201 26.1354 14.5201 26.2704 14.5201 26.4058C14.5201 26.5412 14.5201 26.6771 14.5201 26.8134C14.5201 26.9497 14.5201 27.0865 14.5201 27.2237C14.5201 27.3608 14.5201 27.4985 14.5201 27.6365C14.5201 27.7746 14.5201 27.9131 14.5201 28.052C14.5201 28.191 14.5201 28.3303 14.5201 28.4701C14.5201 28.61 14.5201 28.7502 14.5201 28.8909C14.5201 29.0315 14.5201 29.1726 14.5201 29.3142C14.5201 29.4557 14.5201 29.5977 14.5201 29.7401C14.5201 29.8825 14.5201 30.0253 14.5201 30.1685C14.5201 30.3118 14.5201 30.4555 14.5201 30.5996C14.5201 30.7437 14.5201 30.8882 14.5201 31.0331C14.5201 31.1781 14.5201 31.3234 14.5201 31.4692C14.5201 31.615 14.5201 31.7612 14.5201 31.9079C14.5201 32.0545 14.5201 32.2015 14.5201 32.349C14.5201 32.4965 14.5201 32.6444 14.5201 32.7927C14.5201 32.941 14.5201 33.0897 14.5201 33.2388C14.5201 33.3879 14.5201 33.5375 14.5201 33.6874C14.5201 33.8374 14.5201 33.9877 14.5201 34.1385C14.5201 34.2893 14.5201 34.4404 14.5201 34.592C14.5201 34.7436 14.5201 34.8956 14.5201 35.048C14.5201 35.2004 14.5201 35.3532 14.5201 35.5064C14.5201 35.6596 14.5201 35.8132 14.5201 35.9673C14.5201 36.1213 14.5201 36.2757 14.5201 36.4305C14.5201 36.5853 14.5201 36.7405 14.5201 36.8962C14.5201 37.0518 14.5201 37.2078 14.5201 37.3642C14.5201 37.5206 14.5201 37.6774 14.5201 37.8346C14.5201 37.9918 14.5201 38.1494 14.5201 38.3074C14.5201 38.4654 14.5201 38.6237 14.5201 38.7825C14.5201 38.9413 14.5201 39.1004 14.5201 39.26C14.5201 39.4195 14.5201 39.5795 14.5201 39.7398C14.5201 39.9001 14.5201 40.0608 14.5201 40.2219C14.5201 40.383 14.5201 40.5445 14.5201 40.7063C14.5201 40.8682 14.5201 41.0304 14.5201 41.1931C14.5201 41.3557 14.5201 41.5187 14.5201 41.6821C14.5201 41.8455 14.5201 42.0092 14.5201 42.1734C14.5201 42.3375 14.5201 42.502 14.5201 42.6669C14.5201 42.8318 14.5201 42.9971 14.5201 43.1627C14.5201 43.3284 14.5201 43.4944 14.5201 43.6608C14.5201 43.8272 14.5201 43.9939 14.5201 44.1611C14.5201 44.3282 14.5201 44.4957 14.5201 44.6635C14.5201 44.8314 14.5201 44.9996 14.5201 45.1682C14.5201 45.3368 14.5201 45.5058 14.5201 45.6751C14.5201 45.8445 14.5201 46.0142 14.5201 46.1842C14.5201 46.3543 14.5201 46.5247 14.5201 46.6955C14.5201 46.8662 14.5201 47.0374 14.5201 47.2089C14.5201 47.3804 14.5201 47.5522 14.5201 47.7244C14.5201 47.8966 14.5201 48.0692 14.5201 48.2421C14.5201 48.415 14.5201 48.5883 14.5201 48.7619C14.5201 48.9356 14.5201 49.1095 14.5201 49.2839C14.5201 49.4582 14.5201 49.6329 14.5201 49.8079C14.5201 49.9829 14.5201 50.1583 14.5201 50.334C14.5201 50.5098 14.5201 50.6858 14.5201 50.8623C14.5201 51.0387 14.5201 51.2154 14.5201 51.3925C14.5201 51.5696 14.5201 51.7471 14.5201 51.9249C14.5201 52.1027 14.5201 52.2808 14.5201 52.4593C14.5201 52.6377 14.5201 52.8165 14.5201 52.9957C14.5201 53.1748 14.5201 53.3543 14.5201 53.5341C14.5201 53.7139 14.5201 53.8941 14.5201 54.0746C14.5201 54.2551 14.5201 54.4359 14.5201 54.6171C14.5201 54.7982 14.5201 54.9797 14.5201 55.1615C14.5201 55.3433 14.5201 55.5255 14.5201 55.7079C14.5201 55.8904 14.5201 56.0732 14.5201 56.2563C14.5201 56.4395 14.5201 56.6229 14.5201 56.8067C14.5201 56.9905 14.5201 57.1746 14.5201 57.359C14.5201 57.5434 14.5201 57.7281 14.5201 57.9132C14.5201 58.0983 14.5201 58.2837 14.5201 58.4694C14.5201 58.6551 14.5201 58.8411 14.5201 59.0274C14.5201 59.2138 14.5201 59.4004 14.5201 59.5874C14.5201 59.7744 14.5201 59.9616 14.5201 60.1492C14.5201 60.3368 14.5201 60.5247 14.5201 60.713C14.5201 60.9012 14.5201 61.0897 14.5201 61.2786C14.5201 61.4674 14.5201 61.6565 14.5201 61.846C14.5201 62.0355 14.5201 62.2252 14.5201 62.4153C14.5201 62.6054 14.5201 62.7957 14.5201 62.9864C14.5201 63.1771 14.5201 63.3681 14.5201 63.5593C14.5201 63.7506 14.5201 63.9422 14.5201 64.1341C14.5201 64.326 14.5201 64.5182 14.5201 64.7106C14.5201 64.9031 14.5201 65.0959 14.5201 65.289C14.5201 65.482 14.5201 65.6754 14.5201 65.8691C14.5201 66.0627 14.5201 66.2567 14.5201 66.4509C14.5201 66.6452 14.5201 66.8397 14.5201 67.0345C14.5201 67.2294 14.5201 67.4245 14.5201 67.6199C14.5201 67.8153 14.5201 68.011 14.5201 68.207C14.5201 68.403 14.5201 68.5992 14.5201 68.7958C14.5201 68.9923 14.5201 69.1892 14.5201 69.3863C14.5201 69.5834 14.5201 69.7808 14.5201 69.9785C14.5201 70.1762 14.5201 70.3741 14.5201 70.5724C14.5201 70.7706 14.5201 70.9691 14.5201 71.1679C14.5201 71.3667 14.5201 71.5658 14.5201 71.7652C14.5201 71.9645 14.5201 72.1641 14.5201 72.364C14.5201 72.5639 14.5201 72.7641 14.5201 72.9645C14.5201 73.165 14.5201 73.3657 14.5201 73.5667C14.5201 73.7676 14.5201 73.9689 14.5201 74.1704C14.5201 74.3719 14.5201 74.5737 14.5201 74.7757C14.5201 74.9778 14.5201 75.1801 14.5201 75.3827C14.5201 75.5853 14.5201 75.7881 14.5201 75.9912C14.5201 76.1943 14.5201 76.3977 14.5201 76.6013C14.5201 76.8049 14.5201 77.0088 14.5201 77.2129C14.5201 77.4171 14.5201 77.6215 14.5201 77.8261C14.5201 78.0308 14.5201 78.2357 14.5201 78.4409C14.5201 78.646 14.5201 78.8515 14.5201 79.0571C14.5201 79.2628 14.5201 79.4687 14.5201 79.6749C14.5201 79.8811 14.5201 80.0875 14.5201 80.2942C14.5201 80.5008 14.5201 80.7077 14.5201 80.9149C14.5201 81.1221 14.5201 81.3295 14.5201 81.5372C14.5201 81.7448 14.5201 81.9527 14.5201 82.1609C14.5201 82.369 14.5201 82.5774 14.5201 82.786C14.5201 82.9946 14.5201 83.2035 14.5201 83.4126C14.5201 83.6217 14.5201 83.8311 14.5201 84.0407C14.5201 84.2502 14.5201 84.4601 14.5201 84.6701C14.5201 84.8802 14.5201 85.0905 14.5201 85.301C14.5201 85.5115 14.5201 85.7223 14.5201 85.9333C14.5201 86.1442 14.5201 86.3555 14.5201 86.5669C14.5201 86.7784 14.5201 86.99 14.5201 87.2019C14.5201 87.4138 14.5201 87.626 14.5201 87.8383C14.5201 88.0507 14.5201 88.2633 14.5201 88.4761C14.5201 88.6889 14.5201 88.9019 14.5201 89.1152C14.5201 89.3284 14.5201 89.5419 14.5201 89.7556C14.5201 89.9693 14.5201 90.1832 14.5201 90.3973C14.5201 90.6115 14.5201 90.8258 14.5201 91.0404C14.5201 91.255 14.5201 91.4697 14.5201 91.6847C14.5201 91.8997 14.5201 92.1149 14.5201 92.3304C14.5201 92.5458 14.5201 92.7614 14.5201 92.9773C14.5201 93.1931 14.5201 93.4092 14.5201 93.6254C14.5201 93.8417 14.5201 94.0582 14.5201 94.2748C14.5201 94.4915 14.5201 94.7084 14.5201 94.9255C14.5201 95.1426 14.5201 95.3599 14.5201 95.5774C14.5201 95.7949 14.5201 96.0126 14.5201 96.2305C14.5201 96.4484 14.5201 96.6665 14.5201 96.8848C14.5201 97.1031 14.5201 97.3216 14.5201 97.5403C14.5201 97.759 14.5201 97.9779 14.5201 98.197C14.5201 98.4161 14.5201 98.6354 14.5201 98.8549C14.5201 99.0743 14.5201 99.294 14.5201 99.5139C14.5201 99.7337 14.5201 99.9538 14.5201 100.174C14.5201 100.394 14.5201 100.615 14.5201 100.835C14.5201 101.056 14.5201 101.277 14.5201 101.498C14.5201 101.719 14.5201 101.94 14.5201 102.161C14.5201 102.383 14.5201 102.604 14.5201 102.826C14.5201 103.048 14.5201 103.27 14.5201 103.492C14.5201 103.714 14.5201 103.936 14.5201 104.159C14.5201 104.381 14.5201 104.604 14.5201 104.826C14.5201 105.049 14.5201 105.272 14.5201 105.495C14.5201 105.719 14.5201 105.942 14.5201 106.165C14.5201 106.389 14.5201 106.613 14.5201 106.836C14.5201 107.06 14.5201 107.284 14.5201 107.508C14.5201 107.733 14.5201 107.957 14.5201 108.181C14.5201 108.406 14.5201 108.631 14.5201 108.856C14.5201 109.08 14.5201 109.305 14.5201 109.531C14.5201 109.756 14.5201 109.981 14.5201 110.207C14.5201 110.432 14.5201 110.658 14.5201 110.884C14.5201 111.109 14.5201 111.335 14.5201 111.562C14.5201 111.788 14.5201 112.014 14.5201 112.241C14.5201 112.467 14.5201 112.694 14.5201 112.92C14.5201 113.147 14.5201 113.374 14.5201 113.601C14.5201 113.828 14.5201 114.055 14.5201 114.283C14.5201 114.51 14.5201 114.738 14.5201 114.965C14.5201 115.193 14.5201 115.421 14.5201 115.649C14.5201 115.877 14.5201 116.105 14.5201 116.333C14.5201 116.561 14.5201 116.79 14.5201 117.018C14.5201 117.247 14.5201 117.476 14.5201 117.704C14.5201 117.933 14.5201 118.162 14.5201 118.391C14.5201 118.62 14.5201 118.85 14.5201 119.079C14.5201 119.308 14.5201 119.538 14.5201 119.767C14.5201 119.997 14.5201 120.227 14.5201 120.457C14.5201 120.687 14.5201 120.917 14.5201 121.147C14.5201 121.377 14.5201 121.607 14.5201 121.838C14.5201 122.068 14.5201 122.299 14.5201 122.53C14.5201 122.76 14.5201 122.991 14.5201 123.222C14.5201 123.453 14.5201 123.684 14.5201 123.915C14.5201 124.146 14.5201 124.378 14.5201 124.609C14.5201 124.841 14.5201 125.072 14.5201 125.304C14.5201 125.536 14.5201 125.767 14.5201 125.999C14.5201 126.231 14.5201 126.463 14.5201 126.695C14.5201 126.928 14.5201 127.16 14.5201 127.392C14.5201 127.625 14.5201 127.857 14.5201 128.09C14.5201 128.322 14.5201 128.555 14.5201 128.788C14.5201 129.021 14.5201 129.254 14.5201 129.487C14.5201 129.72 14.5201 129.953 14.5201 130.186C14.5201 130.419 14.5201 130.653 14.5201 130.886C14.5201 131.12 14.5201 131.353 14.5201 131.587C14.5201 131.821 14.5201 132.054 14.5201 132.288C14.5201 132.522 14.5201 132.756 14.5201 132.99C14.5201 133.224 14.5201 133.458 14.5201 133.693C14.5201 133.927 14.5201 134.161 14.5201 134.396C14.5201 134.63 14.5201 134.865 14.5201 135.099C14.5201 135.334 14.5201 135.569 14.5201 135.804C14.5201 136.039 14.5201 136.273 14.5201 136.508C14.5201 136.743 14.5201 136.979 14.5201 137.214C14.5201 137.449 14.5201 137.684 14.5201 137.92C14.5201 138.155 14.5201 138.39 14.5201 138.626C14.5201 138.861 14.5201 139.097 14.5201 139.333C14.5201 139.569 14.5201 139.804 14.5201 140.04C14.5201 140.276 14.5201 140.512 14.5201 140.748C14.5201 140.984 14.5201 141.22 14.5201 141.456C14.5201 141.692 14.5201 141.929 14.5201 142.165C14.5201 142.401 14.5201 142.638 14.5201 142.874C14.5201 143.111 14.5201 143.347 14.5201 143.584C14.5201 143.82 14.5201 144.057 14.5201 144.294C14.5201 144.531 14.5201 144.767 14.5201 145.004C14.5201 145.241 14.5201 145.478 14.5201 145.715C14.5201 145.952 14.5201 146.189 14.5201 146.426C14.5201 146.664 14.5201 146.901 14.5201 147.138C14.5201 147.375 14.5201 147.613 14.5201 147.85C14.5201 148.087 14.5201 148.325 14.5201 148.562C14.5201 148.8 14.5201 149.037 14.5201 149.275C14.5201 149.513 14.5201 149.75 14.5201 149.988C14.5201 150.226 14.5201 150.463 14.5201 150.701C14.5201 150.939 14.5201 151.177 14.5201 151.415C14.5201 151.653 14.5201 151.891 14.5201 152.129C14.5201 152.367 14.5201 152.605 14.5201 152.843C14.5201 153.081 14.5201 153.319 14.5201 153.558C14.5201 153.796 14.5201 154.034 14.5201 154.272C14.5201 154.511 14.5201 154.749 14.5201 154.987C14.5201 155.226 14.5201 155.464 14.5201 155.702C14.5201 155.941 14.5201 156.179 14.5201 156.418C14.5201 156.656 14.5201 156.895 14.5201 157.134C14.5201 157.372 14.5201 157.611 14.5201 157.85C14.5201 158.088 14.5201 158.327 14.5201 158.566C14.5201 158.804 14.5201 159.043 14.5201 159.282C14.5201 159.521 14.5201 159.759 14.5201 159.998C14.5201 160.237 14.5201 160.476 14.5201 160.715C14.5201 160.954 14.5201 161.193 14.5201 161.432C14.5201 161.671 14.5201 161.91 14.5201 162.148C14.5201 162.387 14.5201 162.626 14.5201 162.865C14.5201 163.105 14.5201 163.344 14.5201 163.583C14.5201 163.822 14.5201 164.061 14.5201 164.3C14.5201 164.539 14.5201 164.778 14.5201 165.017C14.5201 165.256 14.5201 165.495 14.5201 165.735C14.5201 165.974 14.5201 166.213 14.5201 166.452C14.5201 166.691 14.5201 166.93 14.5201 167.169C14.5201 167.409 14.5201 167.648 14.5201 167.887C14.5201 168.126 14.5201 168.365 14.5201 168.605C14.5201 168.844 14.5201 169.083 14.5201 169.322C14.5201 169.561 14.5201 169.801 14.5201 170.04C14.5201 170.279 14.5201 170.518 14.5201 170.758C14.5201 170.997 14.5201 171.236 14.5201 171.475C14.5201 171.714 14.5201 171.954 14.5201 172.193C14.5201 172.432 14.5201 172.671 14.5201 172.91C14.5201 173.149 14.5201 173.389 14.5201 173.628C14.5201 173.867 14.5201 174.106 14.5201 174.345C14.5201 174.584 14.5201 174.824 14.5201 175.063C14.5201 175.302 14.5201 175.541 14.5201 175.78C14.5201 176.019 14.5201 176.258 14.5201 176.497C14.5201 176.736 14.5201 176.975 14.5201 177.214C14.5201 177.453 14.5201 177.692 14.5201 177.931C14.5201 178.17 14.5201 178.409 14.5201 178.648C14.5201 178.887 14.5201 179.126 14.5201 179.365C14.5201 179.604 14.5201 179.843 14.5201 180.082C14.5201 180.32 14.5201 180.559 14.5201 180.798C14.5201 181.037 14.5201 181.276 14.5201 181.514C14.5201 181.753 14.5201 181.992 14.5201 182.23C14.5201 182.469 14.5201 182.708 14.5201 182.946C14.5201 183.185 14.5201 183.423 14.5201 183.662C14.5201 183.901 14.5201 184.139 14.5201 184.378C14.5201 184.616 14.5201 184.854 14.5201 185.093C14.5201 185.331 14.5201 185.569 14.5201 185.808C14.5201 186.046 14.5201 186.284 14.5201 186.523C14.5201 186.761 14.5201 186.999 14.5201 187.237C14.5201 187.475 14.5201 187.713 14.5201 187.951C14.5201 188.189 14.5201 188.427 14.5201 188.665C14.5201 188.903 14.5201 189.141 14.5201 189.379C14.5201 189.617 14.5201 189.854 14.5201 190.092C14.5201 190.33 14.5201 190.568 14.5201 190.805C14.5201 191.043 14.5201 191.28 14.5201 191.518C14.5201 191.755 14.5201 191.993 14.5201 192.23C14.5201 192.468 14.5201 192.705 14.5201 192.942C14.5201 193.18 14.5201 193.417 14.5201 193.654C14.5201 193.891 14.5201 194.128 14.5201 194.365C14.5201 194.602 14.5201 194.839 14.5201 195.076C14.5201 195.313 14.5201 195.55 14.5201 195.787C14.5201 196.023 14.5201 196.26 14.5201 196.497C14.5201 196.733 14.5201 196.97 14.5201 197.206C14.5201 197.443 14.5201 197.679 14.5201 197.916C14.5201 198.152 14.5201 198.388 14.5201 198.624C14.5201 198.861 14.5201 199.097 14.5201 199.333C14.5201 199.569 14.5201 199.805 14.5201 200.041C14.5201 200.276 14.5201 200.512 14.5201 200.748C14.5201 200.984 14.5201 201.219 14.5201 201.455C14.5201 201.69 14.5201 201.926 14.5201 202.161C14.5201 202.397 14.5201 202.632 14.5201 202.867C14.5201 203.102 14.5201 203.337 14.5201 203.572C14.5201 203.808 14.5201 204.042 14.5201 204.277C14.5201 204.512 14.5201 204.747 14.5201 204.982C14.5201 205.216 14.5201 205.451 14.5201 205.685C14.5201 205.92 14.5201 206.154 14.5201 206.389C14.5201 206.623 14.5201 206.857 14.5201 207.091C14.5201 207.325 14.5201 207.559 14.5201 207.793C14.5201 208.027 14.5201 208.261 14.5201 208.494C14.5201 208.728 14.5201 208.962 14.5201 209.195C14.5201 209.429 14.5201 209.662 14.5201 209.895C14.5201 210.129 14.5201 210.362 14.5201 210.595C14.5201 210.828 14.5201 211.061 14.5201 211.294C14.5201 211.527 14.5201 211.759 14.5201 211.992C14.5201 212.225 14.5201 212.457 14.5201 212.69C14.5201 212.922 14.5201 213.154 14.5201 213.386C14.5201 213.619 14.5201 213.851 14.5201 214.083C14.5201 214.314 14.5201 214.546 14.5201 214.778C14.5201 215.01 14.5201 215.241 14.5201 215.473C14.5201 215.704 14.5201 215.936 14.5201 216.167C14.5201 216.398 14.5201 216.629 14.5201 216.86C14.5201 217.091 14.5201 217.322 14.5201 217.553C14.5201 217.783 14.5201 218.014 14.5201 218.244C14.5201 218.475 14.5201 218.705 14.5201 218.935C14.5201 219.166 14.5201 219.396 14.5201 219.626C14.5201 219.856 14.5201 220.085 14.5201 220.315C14.5201 220.545 14.5201 220.774 14.5201 221.004C14.5201 221.233 14.5201 221.462 14.5201 221.691C14.5201 221.921 14.5201 222.15 14.5201 222.378C14.5201 222.607 14.5201 222.836 14.5201 223.064C14.5201 223.293 14.5201 223.521 14.5201 223.75C14.5201 223.978 14.5201 224.206 14.5201 224.434C14.5201 224.662 14.5201 224.89 14.5201 225.118C14.5201 225.345 14.5201 225.573 14.5201 225.8C14.5201 226.028 14.5201 226.255 14.5201 226.482C14.5201 226.709 14.5201 226.936 14.5201 227.163C14.5201 227.39 14.5201 227.616 14.5201 227.843C14.5201 228.069 14.5201 228.296 14.5201 228.522C14.5201 228.748 14.5201 228.974 14.5201 229.2C14.5201 229.426 14.5201 229.651 14.5201 229.877C14.5201 230.103 14.5201 230.328 14.5201 230.553C14.5201 230.778 14.5201 231.003 14.5201 231.228C14.5201 231.453 14.5201 231.678 14.5201 231.902C14.5201 232.127 14.5201 232.351 14.5201 232.576C14.5201 232.8 14.5201 233.024 14.5201 233.248C14.5201 233.472 14.5201 233.695 14.5201 233.919C14.5201 234.142 14.5201 234.366 14.5201 234.589C14.5201 234.812 14.5201 235.035 14.5201 235.258C14.5201 235.481 14.5201 235.703 14.5201 235.926C14.5201 236.148 14.5201 236.371 14.5201 236.593C14.5201 236.815 14.5201 237.037 14.5201 237.259C14.5201 237.48 14.5201 237.702 14.5201 237.923C14.5201 238.145 14.5201 238.366 14.5201 238.587C14.5201 238.808 14.5201 239.029 14.5201 239.25C14.5201 239.47 14.5201 239.691 14.5201 239.911C14.5201 240.131 14.5201 240.351 14.5201 240.571C14.5201 240.791 14.5201 241.011 14.5201 241.23C14.5201 241.45 14.5201 241.669 14.5201 241.888C14.5201 242.108 14.5201 242.326 14.5201 242.545C14.5201 242.764 14.5201 242.982 14.5201 243.201C14.5201 243.419 14.5201 243.637 14.5201 243.855C14.5201 244.073 14.5201 244.291 14.5201 244.508C14.5201 244.726 14.5201 244.943 14.5201 245.16C14.5201 245.378 14.5201 245.595 14.5201 245.811C14.5201 246.028 14.5201 246.244 14.5201 246.461C14.5201 246.677 14.5201 246.893 14.5201 247.109C14.5201 247.325 14.5201 247.541 14.5201 247.756C14.5201 247.972 14.5201 248.187 14.5201 248.402C14.5201 248.617 14.5201 248.832 14.5201 249.046C14.5201 249.261 14.5201 249.475 14.5201 249.689C14.5201 249.904 14.5201 250.118 14.5201 250.331C14.5201 250.545 14.5201 250.759 14.5201 250.972C14.5201 251.185 14.5201 251.398 14.5201 251.611C14.5201 251.824 14.5201 252.037 14.5201 252.249C14.5201 252.461 14.5201 252.674 14.5201 252.885C14.5201 253.097 14.5201 253.309 14.5201 253.521C14.5201 253.732 14.5201 253.943 14.5201 254.154C14.5201 254.365 14.5201 254.576 14.5201 254.787C14.5201 254.997 14.5201 255.208 14.5201 255.418C14.5201 255.628 14.5201 255.838 14.5201 256.047C14.5201 256.257 14.5201 256.466 14.5201 256.676C14.5201 256.885 14.5201 257.094 14.5201 257.302C14.5201 257.511 14.5201 257.719 14.5201 257.928C14.5201 258.136 14.5201 258.344 14.5201 258.551C14.5201 258.759 14.5201 258.967 14.5201 259.174C14.5201 259.381 14.5201 259.588 14.5201 259.795C14.5201 260.001 14.5201 260.208 14.5201 260.414C14.5201 260.62 14.5201 260.826 14.5201 261.032C14.5201 261.238 14.5201 261.443 14.5201 261.648C14.5201 261.854 14.5201 262.059 14.5201 262.263C14.5201 262.468 14.5201 262.672 14.5201 262.877C14.5201 263.081 14.5201 263.285 14.5201 263.488C14.5201 263.692 14.5201 263.896 14.5201 264.099C14.5201 264.302 14.5201 264.505 14.5201 264.707C14.5201 264.91 14.5201 265.112 14.5201 265.314C14.5201 265.517 14.5201 265.718 14.5201 265.92C14.5201 266.121 14.5201 266.323 14.5201 266.524C14.5201 266.725 14.5201 266.926 14.5201 267.126C14.5201 267.327 14.5201 267.527 14.5201 267.727C14.5201 267.927 14.5201 268.126 14.5201 268.326C14.5201 268.525 14.5201 268.724 14.5201 268.923C14.5201 269.122 14.5201 269.321 14.5201 269.519C14.5201 269.717 14.5201 269.915 14.5201 270.113C14.5201 270.311 14.5201 270.508 14.5201 270.705C14.5201 270.902 14.5201 271.099 14.5201 271.296C14.5201 271.493 14.5201 271.689 14.5201 271.885C14.5201 272.081 14.5201 272.277 14.5201 272.472C14.5201 272.668 14.5201 272.863 14.5201 273.058C14.5201 273.253 14.5201 273.447 14.5201 273.641C14.5201 273.836 14.5201 274.03 14.5201 274.223C14.5201 274.417 14.5201 274.611 14.5201 274.804C14.5201 274.997 14.5201 275.19 14.5201 275.382C14.5201 275.575 14.5201 275.767 14.5201 275.959C14.5201 276.151 14.5201 276.342 14.5201 276.534C14.5201 276.725 14.5201 276.916 14.5201 277.107C14.5201 277.298 14.5201 277.488 14.5201 277.678C14.5201 277.868 14.5201 278.058 14.5201 278.248C14.5201 278.437 14.5201 278.626 14.5201 278.815C14.5201 279.004 14.5201 279.193 14.5201 279.381C14.5201 279.569 14.5201 279.757 14.5201 279.945C14.5201 280.133 14.5201 280.32 14.5201 280.507C14.5201 280.694 14.5201 280.881 14.5201 281.067C14.5201 281.254 14.5201 281.44 14.5201 281.625C14.5201 281.811 14.5201 281.997 14.5201 282.182C14.5201 282.367 14.5201 282.552 14.5201 282.736C14.5201 282.921 14.5201 283.105 14.5201 283.289C14.5201 283.472 14.5201 283.656 14.5201 283.839C14.5201 284.022 14.5201 284.205 14.5201 284.388C14.5201 284.57 14.5201 284.752 14.5201 284.934C14.5201 285.116 14.5201 285.298 14.5201 285.479C14.5201 285.66 14.5201 285.841 14.5201 286.022C14.5201 286.202 14.5201 286.382 14.5201 286.562C14.5201 286.742 14.5201 286.922 14.5201 287.101C14.5201 287.28 14.5201 287.459 14.5201 287.638C14.5201 287.816 14.5201 287.994 14.5201 288.172C14.5201 288.35 14.5201 288.527 14.5201 288.705C14.5201 288.882 14.5201 289.059 14.5201 289.235C14.5201 289.412 14.5201 289.588 14.5201 289.764C14.5201 289.939 14.5201 290.115 14.5201 290.29C14.5201 290.465 14.5201 290.64 14.5201 290.814C14.5201 290.988 14.5201 291.163 14.5201 291.336C14.5201 291.51 14.5201 291.683 14.5201 291.856C14.5201 292.029 14.5201 292.202 14.5201 292.374H16.8618C16.8618 292.202 16.8618 292.029 16.8618 291.856C16.8618 291.683 16.8618 291.51 16.8618 291.336C16.8618 291.163 16.8618 290.988 16.8618 290.814C16.8618 290.64 16.8618 290.465 16.8618 290.29C16.8618 290.115 16.8618 289.939 16.8618 289.764C16.8618 289.588 16.8618 289.412 16.8618 289.235C16.8618 289.059 16.8618 288.882 16.8618 288.705C16.8618 288.527 16.8618 288.35 16.8618 288.172C16.8618 287.994 16.8618 287.816 16.8618 287.638C16.8618 287.459 16.8618 287.28 16.8618 287.101C16.8618 286.922 16.8618 286.742 16.8618 286.562C16.8618 286.382 16.8618 286.202 16.8618 286.022C16.8618 285.841 16.8618 285.66 16.8618 285.479C16.8618 285.298 16.8618 285.116 16.8618 284.934C16.8618 284.752 16.8618 284.57 16.8618 284.388C16.8618 284.205 16.8618 284.022 16.8618 283.839C16.8618 283.656 16.8618 283.472 16.8618 283.289C16.8618 283.105 16.8618 282.921 16.8618 282.736C16.8618 282.552 16.8618 282.367 16.8618 282.182C16.8618 281.997 16.8618 281.811 16.8618 281.625C16.8618 281.44 16.8618 281.254 16.8618 281.067C16.8618 280.881 16.8618 280.694 16.8618 280.507C16.8618 280.32 16.8618 280.133 16.8618 279.945C16.8618 279.757 16.8618 279.569 16.8618 279.381C16.8618 279.193 16.8618 279.004 16.8618 278.815C16.8618 278.626 16.8618 278.437 16.8618 278.248C16.8618 278.058 16.8618 277.868 16.8618 277.678C16.8618 277.488 16.8618 277.298 16.8618 277.107C16.8618 276.916 16.8618 276.725 16.8618 276.534C16.8618 276.342 16.8618 276.151 16.8618 275.959C16.8618 275.767 16.8618 275.575 16.8618 275.382C16.8618 275.19 16.8618 274.997 16.8618 274.804C16.8618 274.611 16.8618 274.417 16.8618 274.223C16.8618 274.03 16.8618 273.836 16.8618 273.641C16.8618 273.447 16.8618 273.253 16.8618 273.058C16.8618 272.863 16.8618 272.668 16.8618 272.472C16.8618 272.277 16.8618 272.081 16.8618 271.885C16.8618 271.689 16.8618 271.493 16.8618 271.296C16.8618 271.099 16.8618 270.902 16.8618 270.705C16.8618 270.508 16.8618 270.311 16.8618 270.113C16.8618 269.915 16.8618 269.717 16.8618 269.519C16.8618 269.321 16.8618 269.122 16.8618 268.923C16.8618 268.724 16.8618 268.525 16.8618 268.326C16.8618 268.126 16.8618 267.927 16.8618 267.727C16.8618 267.527 16.8618 267.327 16.8618 267.126C16.8618 266.926 16.8618 266.725 16.8618 266.524C16.8618 266.323 16.8618 266.121 16.8618 265.92C16.8618 265.718 16.8618 265.517 16.8618 265.314C16.8618 265.112 16.8618 264.91 16.8618 264.707C16.8618 264.505 16.8618 264.302 16.8618 264.099C16.8618 263.896 16.8618 263.692 16.8618 263.488C16.8618 263.285 16.8618 263.081 16.8618 262.877C16.8618 262.672 16.8618 262.468 16.8618 262.263C16.8618 262.059 16.8618 261.854 16.8618 261.648C16.8618 261.443 16.8618 261.238 16.8618 261.032C16.8618 260.826 16.8618 260.62 16.8618 260.414C16.8618 260.208 16.8618 260.001 16.8618 259.795C16.8618 259.588 16.8618 259.381 16.8618 259.174C16.8618 258.967 16.8618 258.759 16.8618 258.551C16.8618 258.344 16.8618 258.136 16.8618 257.928C16.8618 257.719 16.8618 257.511 16.8618 257.302C16.8618 257.094 16.8618 256.885 16.8618 256.676C16.8618 256.466 16.8618 256.257 16.8618 256.047C16.8618 255.838 16.8618 255.628 16.8618 255.418C16.8618 255.208 16.8618 254.997 16.8618 254.787C16.8618 254.576 16.8618 254.365 16.8618 254.154C16.8618 253.943 16.8618 253.732 16.8618 253.521C16.8618 253.309 16.8618 253.097 16.8618 252.885C16.8618 252.674 16.8618 252.461 16.8618 252.249C16.8618 252.037 16.8618 251.824 16.8618 251.611C16.8618 251.398 16.8618 251.185 16.8618 250.972C16.8618 250.759 16.8618 250.545 16.8618 250.331C16.8618 250.118 16.8618 249.904 16.8618 249.689C16.8618 249.475 16.8618 249.261 16.8618 249.046C16.8618 248.832 16.8618 248.617 16.8618 248.402C16.8618 248.187 16.8618 247.972 16.8618 247.756C16.8618 247.541 16.8618 247.325 16.8618 247.109C16.8618 246.893 16.8618 246.677 16.8618 246.461C16.8618 246.244 16.8618 246.028 16.8618 245.811C16.8618 245.595 16.8618 245.378 16.8618 245.16C16.8618 244.943 16.8618 244.726 16.8618 244.508C16.8618 244.291 16.8618 244.073 16.8618 243.855C16.8618 243.637 16.8618 243.419 16.8618 243.201C16.8618 242.982 16.8618 242.764 16.8618 242.545C16.8618 242.326 16.8618 242.108 16.8618 241.888C16.8618 241.669 16.8618 241.45 16.8618 241.23C16.8618 241.011 16.8618 240.791 16.8618 240.571C16.8618 240.351 16.8618 240.131 16.8618 239.911C16.8618 239.691 16.8618 239.47 16.8618 239.25C16.8618 239.029 16.8618 238.808 16.8618 238.587C16.8618 238.366 16.8618 238.145 16.8618 237.923C16.8618 237.702 16.8618 237.48 16.8618 237.259C16.8618 237.037 16.8618 236.815 16.8618 236.593C16.8618 236.371 16.8618 236.148 16.8618 235.926C16.8618 235.703 16.8618 235.481 16.8618 235.258C16.8618 235.035 16.8618 234.812 16.8618 234.589C16.8618 234.366 16.8618 234.142 16.8618 233.919C16.8618 233.695 16.8618 233.472 16.8618 233.248C16.8618 233.024 16.8618 232.8 16.8618 232.576C16.8618 232.351 16.8618 232.127 16.8618 231.902C16.8618 231.678 16.8618 231.453 16.8618 231.228C16.8618 231.003 16.8618 230.778 16.8618 230.553C16.8618 230.328 16.8618 230.103 16.8618 229.877C16.8618 229.651 16.8618 229.426 16.8618 229.2C16.8618 228.974 16.8618 228.748 16.8618 228.522C16.8618 228.296 16.8618 228.069 16.8618 227.843C16.8618 227.616 16.8618 227.39 16.8618 227.163C16.8618 226.936 16.8618 226.709 16.8618 226.482C16.8618 226.255 16.8618 226.028 16.8618 225.8C16.8618 225.573 16.8618 225.345 16.8618 225.118C16.8618 224.89 16.8618 224.662 16.8618 224.434C16.8618 224.206 16.8618 223.978 16.8618 223.75C16.8618 223.521 16.8618 223.293 16.8618 223.064C16.8618 222.836 16.8618 222.607 16.8618 222.378C16.8618 222.15 16.8618 221.921 16.8618 221.691C16.8618 221.462 16.8618 221.233 16.8618 221.004C16.8618 220.774 16.8618 220.545 16.8618 220.315C16.8618 220.085 16.8618 219.856 16.8618 219.626C16.8618 219.396 16.8618 219.166 16.8618 218.935C16.8618 218.705 16.8618 218.475 16.8618 218.244C16.8618 218.014 16.8618 217.783 16.8618 217.553C16.8618 217.322 16.8618 217.091 16.8618 216.86C16.8618 216.629 16.8618 216.398 16.8618 216.167C16.8618 215.936 16.8618 215.704 16.8618 215.473C16.8618 215.241 16.8618 215.01 16.8618 214.778C16.8618 214.546 16.8618 214.314 16.8618 214.083C16.8618 213.851 16.8618 213.619 16.8618 213.386C16.8618 213.154 16.8618 212.922 16.8618 212.69C16.8618 212.457 16.8618 212.225 16.8618 211.992C16.8618 211.759 16.8618 211.527 16.8618 211.294C16.8618 211.061 16.8618 210.828 16.8618 210.595C16.8618 210.362 16.8618 210.129 16.8618 209.895C16.8618 209.662 16.8618 209.429 16.8618 209.195C16.8618 208.962 16.8618 208.728 16.8618 208.494C16.8618 208.261 16.8618 208.027 16.8618 207.793C16.8618 207.559 16.8618 207.325 16.8618 207.091C16.8618 206.857 16.8618 206.623 16.8618 206.389C16.8618 206.154 16.8618 205.92 16.8618 205.685C16.8618 205.451 16.8618 205.216 16.8618 204.982C16.8618 204.747 16.8618 204.512 16.8618 204.277C16.8618 204.042 16.8618 203.808 16.8618 203.572C16.8618 203.337 16.8618 203.102 16.8618 202.867C16.8618 202.632 16.8618 202.397 16.8618 202.161C16.8618 201.926 16.8618 201.69 16.8618 201.455C16.8618 201.219 16.8618 200.984 16.8618 200.748C16.8618 200.512 16.8618 200.276 16.8618 200.041C16.8618 199.805 16.8618 199.569 16.8618 199.333C16.8618 199.097 16.8618 198.861 16.8618 198.624C16.8618 198.388 16.8618 198.152 16.8618 197.916C16.8618 197.679 16.8618 197.443 16.8618 197.206C16.8618 196.97 16.8618 196.733 16.8618 196.497C16.8618 196.26 16.8618 196.023 16.8618 195.787C16.8618 195.55 16.8618 195.313 16.8618 195.076C16.8618 194.839 16.8618 194.602 16.8618 194.365C16.8618 194.128 16.8618 193.891 16.8618 193.654C16.8618 193.417 16.8618 193.18 16.8618 192.942C16.8618 192.705 16.8618 192.468 16.8618 192.23C16.8618 191.993 16.8618 191.755 16.8618 191.518C16.8618 191.28 16.8618 191.043 16.8618 190.805C16.8618 190.568 16.8618 190.33 16.8618 190.092C16.8618 189.854 16.8618 189.617 16.8618 189.379C16.8618 189.141 16.8618 188.903 16.8618 188.665C16.8618 188.427 16.8618 188.189 16.8618 187.951C16.8618 187.713 16.8618 187.475 16.8618 187.237C16.8618 186.999 16.8618 186.761 16.8618 186.523C16.8618 186.284 16.8618 186.046 16.8618 185.808C16.8618 185.569 16.8618 185.331 16.8618 185.093C16.8618 184.854 16.8618 184.616 16.8618 184.378C16.8618 184.139 16.8618 183.901 16.8618 183.662C16.8618 183.423 16.8618 183.185 16.8618 182.946C16.8618 182.708 16.8618 182.469 16.8618 182.23C16.8618 181.992 16.8618 181.753 16.8618 181.514C16.8618 181.276 16.8618 181.037 16.8618 180.798C16.8618 180.559 16.8618 180.32 16.8618 180.082C16.8618 179.843 16.8618 179.604 16.8618 179.365C16.8618 179.126 16.8618 178.887 16.8618 178.648C16.8618 178.409 16.8618 178.17 16.8618 177.931C16.8618 177.692 16.8618 177.453 16.8618 177.214C16.8618 176.975 16.8618 176.736 16.8618 176.497C16.8618 176.258 16.8618 176.019 16.8618 175.78C16.8618 175.541 16.8618 175.302 16.8618 175.063C16.8618 174.824 16.8618 174.584 16.8618 174.345C16.8618 174.106 16.8618 173.867 16.8618 173.628C16.8618 173.389 16.8618 173.149 16.8618 172.91C16.8618 172.671 16.8618 172.432 16.8618 172.193C16.8618 171.954 16.8618 171.714 16.8618 171.475C16.8618 171.236 16.8618 170.997 16.8618 170.758C16.8618 170.518 16.8618 170.279 16.8618 170.04C16.8618 169.801 16.8618 169.561 16.8618 169.322C16.8618 169.083 16.8618 168.844 16.8618 168.605C16.8618 168.365 16.8618 168.126 16.8618 167.887C16.8618 167.648 16.8618 167.409 16.8618 167.169C16.8618 166.93 16.8618 166.691 16.8618 166.452C16.8618 166.213 16.8618 165.974 16.8618 165.735C16.8618 165.495 16.8618 165.256 16.8618 165.017C16.8618 164.778 16.8618 164.539 16.8618 164.3C16.8618 164.061 16.8618 163.822 16.8618 163.583C16.8618 163.344 16.8618 163.105 16.8618 162.865C16.8618 162.626 16.8618 162.387 16.8618 162.148C16.8618 161.91 16.8618 161.671 16.8618 161.432C16.8618 161.193 16.8618 160.954 16.8618 160.715C16.8618 160.476 16.8618 160.237 16.8618 159.998C16.8618 159.759 16.8618 159.521 16.8618 159.282C16.8618 159.043 16.8618 158.804 16.8618 158.566C16.8618 158.327 16.8618 158.088 16.8618 157.85C16.8618 157.611 16.8618 157.372 16.8618 157.134C16.8618 156.895 16.8618 156.656 16.8618 156.418C16.8618 156.179 16.8618 155.941 16.8618 155.702C16.8618 155.464 16.8618 155.226 16.8618 154.987C16.8618 154.749 16.8618 154.511 16.8618 154.272C16.8618 154.034 16.8618 153.796 16.8618 153.558C16.8618 153.319 16.8618 153.081 16.8618 152.843C16.8618 152.605 16.8618 152.367 16.8618 152.129C16.8618 151.891 16.8618 151.653 16.8618 151.415C16.8618 151.177 16.8618 150.939 16.8618 150.701C16.8618 150.463 16.8618 150.226 16.8618 149.988C16.8618 149.75 16.8618 149.513 16.8618 149.275C16.8618 149.037 16.8618 148.8 16.8618 148.562C16.8618 148.325 16.8618 148.087 16.8618 147.85C16.8618 147.613 16.8618 147.375 16.8618 147.138C16.8618 146.901 16.8618 146.664 16.8618 146.426C16.8618 146.189 16.8618 145.952 16.8618 145.715C16.8618 145.478 16.8618 145.241 16.8618 145.004C16.8618 144.767 16.8618 144.531 16.8618 144.294C16.8618 144.057 16.8618 143.82 16.8618 143.584C16.8618 143.347 16.8618 143.111 16.8618 142.874C16.8618 142.638 16.8618 142.401 16.8618 142.165C16.8618 141.929 16.8618 141.692 16.8618 141.456C16.8618 141.22 16.8618 140.984 16.8618 140.748C16.8618 140.512 16.8618 140.276 16.8618 140.04C16.8618 139.804 16.8618 139.569 16.8618 139.333C16.8618 139.097 16.8618 138.861 16.8618 138.626C16.8618 138.39 16.8618 138.155 16.8618 137.92C16.8618 137.684 16.8618 137.449 16.8618 137.214C16.8618 136.979 16.8618 136.743 16.8618 136.508C16.8618 136.273 16.8618 136.039 16.8618 135.804C16.8618 135.569 16.8618 135.334 16.8618 135.099C16.8618 134.865 16.8618 134.63 16.8618 134.396C16.8618 134.161 16.8618 133.927 16.8618 133.693C16.8618 133.458 16.8618 133.224 16.8618 132.99C16.8618 132.756 16.8618 132.522 16.8618 132.288C16.8618 132.054 16.8618 131.821 16.8618 131.587C16.8618 131.353 16.8618 131.12 16.8618 130.886C16.8618 130.653 16.8618 130.419 16.8618 130.186C16.8618 129.953 16.8618 129.72 16.8618 129.487C16.8618 129.254 16.8618 129.021 16.8618 128.788C16.8618 128.555 16.8618 128.322 16.8618 128.09C16.8618 127.857 16.8618 127.625 16.8618 127.392C16.8618 127.16 16.8618 126.928 16.8618 126.695C16.8618 126.463 16.8618 126.231 16.8618 125.999C16.8618 125.767 16.8618 125.536 16.8618 125.304C16.8618 125.072 16.8618 124.841 16.8618 124.609C16.8618 124.378 16.8618 124.146 16.8618 123.915C16.8618 123.684 16.8618 123.453 16.8618 123.222C16.8618 122.991 16.8618 122.76 16.8618 122.53C16.8618 122.299 16.8618 122.068 16.8618 121.838C16.8618 121.607 16.8618 121.377 16.8618 121.147C16.8618 120.917 16.8618 120.687 16.8618 120.457C16.8618 120.227 16.8618 119.997 16.8618 119.767C16.8618 119.538 16.8618 119.308 16.8618 119.079C16.8618 118.85 16.8618 118.62 16.8618 118.391C16.8618 118.162 16.8618 117.933 16.8618 117.704C16.8618 117.476 16.8618 117.247 16.8618 117.018C16.8618 116.79 16.8618 116.561 16.8618 116.333C16.8618 116.105 16.8618 115.877 16.8618 115.649C16.8618 115.421 16.8618 115.193 16.8618 114.965C16.8618 114.738 16.8618 114.51 16.8618 114.283C16.8618 114.055 16.8618 113.828 16.8618 113.601C16.8618 113.374 16.8618 113.147 16.8618 112.92C16.8618 112.694 16.8618 112.467 16.8618 112.241C16.8618 112.014 16.8618 111.788 16.8618 111.562C16.8618 111.335 16.8618 111.109 16.8618 110.884C16.8618 110.658 16.8618 110.432 16.8618 110.207C16.8618 109.981 16.8618 109.756 16.8618 109.531C16.8618 109.305 16.8618 109.08 16.8618 108.856C16.8618 108.631 16.8618 108.406 16.8618 108.181C16.8618 107.957 16.8618 107.733 16.8618 107.508C16.8618 107.284 16.8618 107.06 16.8618 106.836C16.8618 106.613 16.8618 106.389 16.8618 106.165C16.8618 105.942 16.8618 105.719 16.8618 105.495C16.8618 105.272 16.8618 105.049 16.8618 104.826C16.8618 104.604 16.8618 104.381 16.8618 104.159C16.8618 103.936 16.8618 103.714 16.8618 103.492C16.8618 103.27 16.8618 103.048 16.8618 102.826C16.8618 102.604 16.8618 102.383 16.8618 102.161C16.8618 101.94 16.8618 101.719 16.8618 101.498C16.8618 101.277 16.8618 101.056 16.8618 100.835C16.8618 100.615 16.8618 100.394 16.8618 100.174C16.8618 99.9538 16.8618 99.7337 16.8618 99.5139C16.8618 99.294 16.8618 99.0743 16.8618 98.8549C16.8618 98.6354 16.8618 98.4161 16.8618 98.197C16.8618 97.9779 16.8618 97.759 16.8618 97.5403C16.8618 97.3216 16.8618 97.1031 16.8618 96.8848C16.8618 96.6665 16.8618 96.4484 16.8618 96.2305C16.8618 96.0126 16.8618 95.7949 16.8618 95.5774C16.8618 95.3599 16.8618 95.1426 16.8618 94.9255C16.8618 94.7084 16.8618 94.4915 16.8618 94.2748C16.8618 94.0582 16.8618 93.8417 16.8618 93.6254C16.8618 93.4092 16.8618 93.1931 16.8618 92.9773C16.8618 92.7614 16.8618 92.5458 16.8618 92.3304C16.8618 92.1149 16.8618 91.8997 16.8618 91.6847C16.8618 91.4697 16.8618 91.255 16.8618 91.0404C16.8618 90.8258 16.8618 90.6115 16.8618 90.3973C16.8618 90.1832 16.8618 89.9693 16.8618 89.7556C16.8618 89.5419 16.8618 89.3284 16.8618 89.1152C16.8618 88.9019 16.8618 88.6889 16.8618 88.4761C16.8618 88.2633 16.8618 88.0507 16.8618 87.8383C16.8618 87.626 16.8618 87.4138 16.8618 87.2019C16.8618 86.99 16.8618 86.7784 16.8618 86.5669C16.8618 86.3555 16.8618 86.1442 16.8618 85.9333C16.8618 85.7223 16.8618 85.5115 16.8618 85.301C16.8618 85.0905 16.8618 84.8802 16.8618 84.6701C16.8618 84.4601 16.8618 84.2502 16.8618 84.0407C16.8618 83.8311 16.8618 83.6217 16.8618 83.4126C16.8618 83.2035 16.8618 82.9946 16.8618 82.786C16.8618 82.5774 16.8618 82.369 16.8618 82.1609C16.8618 81.9527 16.8618 81.7448 16.8618 81.5372C16.8618 81.3295 16.8618 81.1221 16.8618 80.9149C16.8618 80.7077 16.8618 80.5008 16.8618 80.2942C16.8618 80.0875 16.8618 79.8811 16.8618 79.6749C16.8618 79.4687 16.8618 79.2628 16.8618 79.0571C16.8618 78.8515 16.8618 78.646 16.8618 78.4409C16.8618 78.2357 16.8618 78.0308 16.8618 77.8261C16.8618 77.6215 16.8618 77.4171 16.8618 77.2129C16.8618 77.0088 16.8618 76.8049 16.8618 76.6013C16.8618 76.3977 16.8618 76.1943 16.8618 75.9912C16.8618 75.7881 16.8618 75.5853 16.8618 75.3827C16.8618 75.1801 16.8618 74.9778 16.8618 74.7757C16.8618 74.5737 16.8618 74.3719 16.8618 74.1704C16.8618 73.9689 16.8618 73.7676 16.8618 73.5667C16.8618 73.3657 16.8618 73.165 16.8618 72.9645C16.8618 72.7641 16.8618 72.5639 16.8618 72.364C16.8618 72.1641 16.8618 71.9645 16.8618 71.7652C16.8618 71.5658 16.8618 71.3667 16.8618 71.1679C16.8618 70.9691 16.8618 70.7706 16.8618 70.5724C16.8618 70.3741 16.8618 70.1762 16.8618 69.9785C16.8618 69.7808 16.8618 69.5834 16.8618 69.3863C16.8618 69.1892 16.8618 68.9923 16.8618 68.7958C16.8618 68.5992 16.8618 68.403 16.8618 68.207C16.8618 68.011 16.8618 67.8153 16.8618 67.6199C16.8618 67.4245 16.8618 67.2294 16.8618 67.0345C16.8618 66.8397 16.8618 66.6452 16.8618 66.4509C16.8618 66.2567 16.8618 66.0627 16.8618 65.8691C16.8618 65.6754 16.8618 65.482 16.8618 65.289C16.8618 65.0959 16.8618 64.9031 16.8618 64.7106C16.8618 64.5182 16.8618 64.326 16.8618 64.1341C16.8618 63.9422 16.8618 63.7506 16.8618 63.5593C16.8618 63.3681 16.8618 63.1771 16.8618 62.9864C16.8618 62.7957 16.8618 62.6054 16.8618 62.4153C16.8618 62.2252 16.8618 62.0355 16.8618 61.846C16.8618 61.6565 16.8618 61.4674 16.8618 61.2786C16.8618 61.0897 16.8618 60.9012 16.8618 60.713C16.8618 60.5247 16.8618 60.3368 16.8618 60.1492C16.8618 59.9616 16.8618 59.7744 16.8618 59.5874C16.8618 59.4004 16.8618 59.2138 16.8618 59.0274C16.8618 58.8411 16.8618 58.6551 16.8618 58.4694C16.8618 58.2837 16.8618 58.0983 16.8618 57.9132C16.8618 57.7281 16.8618 57.5434 16.8618 57.359C16.8618 57.1746 16.8618 56.9905 16.8618 56.8067C16.8618 56.6229 16.8618 56.4395 16.8618 56.2563C16.8618 56.0732 16.8618 55.8904 16.8618 55.7079C16.8618 55.5255 16.8618 55.3433 16.8618 55.1615C16.8618 54.9797 16.8618 54.7982 16.8618 54.6171C16.8618 54.4359 16.8618 54.2551 16.8618 54.0746C16.8618 53.8941 16.8618 53.7139 16.8618 53.5341C16.8618 53.3543 16.8618 53.1748 16.8618 52.9957C16.8618 52.8165 16.8618 52.6377 16.8618 52.4593C16.8618 52.2808 16.8618 52.1027 16.8618 51.9249C16.8618 51.7471 16.8618 51.5696 16.8618 51.3925C16.8618 51.2154 16.8618 51.0387 16.8618 50.8623C16.8618 50.6858 16.8618 50.5098 16.8618 50.334C16.8618 50.1583 16.8618 49.9829 16.8618 49.8079C16.8618 49.6329 16.8618 49.4582 16.8618 49.2839C16.8618 49.1095 16.8618 48.9356 16.8618 48.7619C16.8618 48.5883 16.8618 48.415 16.8618 48.2421C16.8618 48.0692 16.8618 47.8966 16.8618 47.7244C16.8618 47.5522 16.8618 47.3804 16.8618 47.2089C16.8618 47.0374 16.8618 46.8662 16.8618 46.6955C16.8618 46.5247 16.8618 46.3543 16.8618 46.1842C16.8618 46.0142 16.8618 45.8445 16.8618 45.6751C16.8618 45.5058 16.8618 45.3368 16.8618 45.1682C16.8618 44.9996 16.8618 44.8314 16.8618 44.6635C16.8618 44.4957 16.8618 44.3282 16.8618 44.1611C16.8618 43.9939 16.8618 43.8272 16.8618 43.6608C16.8618 43.4944 16.8618 43.3284 16.8618 43.1627C16.8618 42.9971 16.8618 42.8318 16.8618 42.6669C16.8618 42.502 16.8618 42.3375 16.8618 42.1734C16.8618 42.0092 16.8618 41.8455 16.8618 41.6821C16.8618 41.5187 16.8618 41.3557 16.8618 41.1931C16.8618 41.0304 16.8618 40.8682 16.8618 40.7063C16.8618 40.5445 16.8618 40.383 16.8618 40.2219C16.8618 40.0608 16.8618 39.9001 16.8618 39.7398C16.8618 39.5795 16.8618 39.4195 16.8618 39.26C16.8618 39.1004 16.8618 38.9413 16.8618 38.7825C16.8618 38.6237 16.8618 38.4654 16.8618 38.3074C16.8618 38.1494 16.8618 37.9918 16.8618 37.8346C16.8618 37.6774 16.8618 37.5206 16.8618 37.3642C16.8618 37.2078 16.8618 37.0518 16.8618 36.8962C16.8618 36.7405 16.8618 36.5853 16.8618 36.4305C16.8618 36.2757 16.8618 36.1213 16.8618 35.9673C16.8618 35.8132 16.8618 35.6596 16.8618 35.5064C16.8618 35.3532 16.8618 35.2004 16.8618 35.048C16.8618 34.8956 16.8618 34.7436 16.8618 34.592C16.8618 34.4404 16.8618 34.2893 16.8618 34.1385C16.8618 33.9877 16.8618 33.8374 16.8618 33.6874C16.8618 33.5375 16.8618 33.3879 16.8618 33.2388C16.8618 33.0897 16.8618 32.941 16.8618 32.7927C16.8618 32.6444 16.8618 32.4965 16.8618 32.349C16.8618 32.2015 16.8618 32.0545 16.8618 31.9079C16.8618 31.7612 16.8618 31.615 16.8618 31.4692C16.8618 31.3234 16.8618 31.1781 16.8618 31.0331C16.8618 30.8882 16.8618 30.7437 16.8618 30.5996C16.8618 30.4555 16.8618 30.3118 16.8618 30.1685C16.8618 30.0253 16.8618 29.8825 16.8618 29.7401C16.8618 29.5977 16.8618 29.4557 16.8618 29.3142C16.8618 29.1726 16.8618 29.0315 16.8618 28.8909C16.8618 28.7502 16.8618 28.61 16.8618 28.4701C16.8618 28.3303 16.8618 28.191 16.8618 28.052C16.8618 27.9131 16.8618 27.7746 16.8618 27.6365C16.8618 27.4985 16.8618 27.3608 16.8618 27.2237C16.8618 27.0865 16.8618 26.9497 16.8618 26.8134C16.8618 26.6771 16.8618 26.5412 16.8618 26.4058C16.8618 26.2704 16.8618 26.1354 16.8618 26.0009C16.8618 25.8664 16.8618 25.7323 16.8618 25.5986C16.8618 25.465 16.8618 25.3318 16.8618 25.1991C16.8618 25.0663 16.8618 24.934 16.8618 24.8022C16.8618 24.6704 16.8618 24.539 16.8618 24.408C16.8618 24.2771 16.8618 24.1466 16.8618 24.0166C16.8618 23.8865 16.8618 23.757 16.8618 23.6279C16.8618 23.4987 16.8618 23.3701 16.8618 23.2419C16.8618 23.1137 16.8618 22.9859 16.8618 22.8586C16.8618 22.7314 16.8618 22.6045 16.8618 22.4782C16.8618 22.3518 16.8618 22.2259 16.8618 22.1005C16.8618 21.975 16.8618 21.8501 16.8618 21.7256C16.8618 21.6011 16.8618 21.477 16.8618 21.3535C16.8618 21.2299 16.8618 21.1068 16.8618 20.9842C16.8618 20.8615 16.8618 20.7394 16.8618 20.6177C16.8618 20.496 16.8618 20.3748 16.8618 20.254C16.8618 20.1333 16.8618 20.013 16.8618 19.8932C16.8618 19.7734 16.8618 19.6541 16.8618 19.5353C16.8618 19.4164 16.8618 19.2981 16.8618 19.1802C16.8618 19.0623 16.8618 18.9449 16.8618 18.828C16.8618 18.711 16.8618 18.5946 16.8618 18.4786C16.8618 18.3627 16.8618 18.2472 16.8618 18.1322C16.8618 18.0172 16.8618 17.9027 16.8618 17.7887C16.8618 17.6747 16.8618 17.5612 16.8618 17.4481C16.8618 17.3351 16.8618 17.2225 16.8618 17.1105C16.8618 16.9984 16.8618 16.8868 16.8618 16.7757C16.8618 16.6647 16.8618 16.5541 16.8618 16.444C16.8618 16.3339 16.8618 16.2243 16.8618 16.1152C16.8618 16.0061 16.8618 15.8975 16.8618 15.7894C16.8618 15.6813 16.8618 15.5737 16.8618 15.4666C16.8618 15.3595 16.8618 15.2529 16.8618 15.1468C16.8618 15.0407 16.8618 14.9351 16.8618 14.83C16.8618 14.7249 16.8618 14.6203 16.8618 14.5162C16.8618 14.4121 16.8618 14.3085 16.8618 14.2054C16.8618 14.1024 16.8618 13.9998 16.8618 13.8977C16.8618 13.7957 16.8618 13.6941 16.8618 13.5931C16.8618 13.4921 16.8618 13.3915 16.8618 13.2915C16.8618 13.1915 16.8618 13.092 16.8618 12.993C16.8618 12.8941 16.8618 12.7956 16.8618 12.6977C16.8618 12.5997 16.8618 12.5023 16.8618 12.4054C16.8618 12.3085 16.8618 12.2121 16.8618 12.1162C16.8618 12.0203 16.8618 11.925 16.8618 11.8301C16.8618 11.7353 16.8618 11.641 16.8618 11.5472C16.8618 11.4535 16.8618 11.3602 16.8618 11.2675C16.8618 11.1748 16.8618 11.0826 16.8618 10.9909C16.8618 10.8992 16.8618 10.8081 16.8618 10.7175C16.8618 10.6269 16.8618 10.5368 16.8618 10.4472C16.8618 10.3577 16.8618 10.2687 16.8618 10.1802C16.8618 10.0917 16.8618 10.0037 16.8618 9.91634C16.8618 9.82893 16.8618 9.74205 16.8618 9.65571C16.8618 9.56938 16.8618 9.48358 16.8618 9.39832C16.8618 9.31306 16.8618 9.22835 16.8618 9.14417C16.8618 9.05999 16.8618 8.97636 16.8618 8.89327C16.8618 8.81018 16.8618 8.72763 16.8618 8.64563C16.8618 8.56363 16.8618 8.48218 16.8618 8.40127C16.8618 8.32037 16.8618 8.24001 16.8618 8.1602C16.8618 8.08039 16.8618 8.00113 16.8618 7.92242C16.8618 7.84371 16.8618 7.76555 16.8618 7.68795C16.8618 7.61035 16.8618 7.53329 16.8618 7.4568C16.8618 7.3803 16.8618 7.30436 16.8618 7.22898C16.8618 7.1536 16.8618 7.07877 16.8618 7.00451C16.8618 6.93024 16.8618 6.85653 16.8618 6.78339C16.8618 6.71024 16.8618 6.63765 16.8618 6.56563C16.8618 6.49361 16.8618 6.42215 16.8618 6.35125C16.8618 6.28036 16.8618 6.21003 16.8618 6.14026C16.8618 6.0705 16.8618 6.0013 16.8618 5.93267C16.8618 5.86405 16.8618 5.79599 16.8618 5.7285C16.8618 5.66101 16.8618 5.59409 16.8618 5.52774C16.8618 5.46139 16.8618 5.39562 16.8618 5.33042C16.8618 5.26522 16.8618 5.20059 16.8618 5.13654C16.8618 5.07249 16.8618 5.00902 16.8618 4.94612C16.8618 4.88322 16.8618 4.8209 16.8618 4.75917C16.8618 4.69743 16.8618 4.63627 16.8618 4.57569C16.8618 4.51512 16.8618 4.45512 16.8618 4.39571C16.8618 4.3363 16.8618 4.27747 16.8618 4.21923C16.8618 4.16099 16.8618 4.10333 16.8618 4.04626C16.8618 3.98919 16.8618 3.93271 16.8618 3.87682C16.8618 3.82093 16.8618 3.76563 16.8618 3.71091C16.8618 3.6562 16.8618 3.60208 16.8618 3.54856C16.8618 3.49503 16.8618 3.44209 16.8618 3.38976C16.8618 3.33742 16.8618 3.28567 16.8618 3.23453C16.8618 3.18338 16.8618 3.13283 16.8618 3.08288C16.8618 3.03293 16.8618 2.98358 16.8618 2.93482C16.8618 2.88607 16.8618 2.83792 16.8618 2.79037C16.8618 2.74283 16.8618 2.69588 16.8618 2.64954C16.8618 2.6032 16.8618 2.55746 16.8618 2.51233C16.8618 2.4672 16.8618 2.42268 16.8618 2.37876C16.8618 2.33485 16.8618 2.29154 16.8618 2.24884C16.8618 2.20615 16.8618 2.16406 16.8618 2.12259C16.8618 2.08111 16.8618 2.04025 16.8618 2H14.5201Z" fill="#749295"/>
<path d="M1.64062 283.007C13.3493 283.007 15.691 293.935 15.691 298.619C15.691 293.935 18.0327 283.007 29.7413 283.007" stroke="#749295" stroke-width="2.34173" stroke-linecap="round" stroke-linejoin="round"/>
</svg>
