<svg width="1340" height="249" viewBox="0 0 1340 249" fill="none" xmlns="http://www.w3.org/2000/svg">
<mask id="path-1-inside-1_1709_19291" fill="white">
<path fill-rule="evenodd" clip-rule="evenodd" d="M272 39.7596C272 52.1586 265.166 62.9488 255.088 68.5121L242.323 80.0158C240.806 81.3824 238.504 81.3877 236.981 80.0281L224.346 68.7477C214.031 63.2573 207 52.336 207 39.7596C207 21.667 221.551 7 239.5 7C257.449 7 272 21.667 272 39.7596ZM239.5 53.4627C247.192 53.4627 253.428 47.1769 253.428 39.4229C253.428 31.6689 247.192 25.3831 239.5 25.3831C231.807 25.3831 225.571 31.6689 225.571 39.4229C225.571 47.1769 231.807 53.4627 239.5 53.4627Z"/>
</mask>
<path fill-rule="evenodd" clip-rule="evenodd" d="M272 39.7596C272 52.1586 265.166 62.9488 255.088 68.5121L242.323 80.0158C240.806 81.3824 238.504 81.3877 236.981 80.0281L224.346 68.7477C214.031 63.2573 207 52.336 207 39.7596C207 21.667 221.551 7 239.5 7C257.449 7 272 21.667 272 39.7596ZM239.5 53.4627C247.192 53.4627 253.428 47.1769 253.428 39.4229C253.428 31.6689 247.192 25.3831 239.5 25.3831C231.807 25.3831 225.571 31.6689 225.571 39.4229C225.571 47.1769 231.807 53.4627 239.5 53.4627Z" fill="#C2FFA0"/>
<path d="M255.088 68.5121L254.605 67.6366L254.504 67.6922L254.419 67.7692L255.088 68.5121ZM242.323 80.0158L241.653 79.2729L242.323 80.0158ZM236.981 80.0281L236.315 80.774H236.315L236.981 80.0281ZM224.346 68.7477L225.012 68.0017L224.923 67.9215L224.816 67.8649L224.346 68.7477ZM255.571 69.3876C265.958 63.6541 273 52.5345 273 39.7596H271C271 51.7828 264.375 62.2436 254.605 67.6366L255.571 69.3876ZM242.992 80.7586L255.758 69.255L254.419 67.7692L241.653 79.2729L242.992 80.7586ZM236.315 80.774C238.218 82.4736 241.096 82.467 242.992 80.7586L241.653 79.2729C240.516 80.2979 238.789 80.3019 237.647 79.2821L236.315 80.774ZM223.68 69.4936L236.315 80.774L237.647 79.2821L225.012 68.0017L223.68 69.4936ZM206 39.7596C206 52.7172 213.245 63.9719 223.877 69.6304L224.816 67.8649C214.816 62.5427 208 51.9548 208 39.7596H206ZM239.5 6C220.991 6 206 21.1222 206 39.7596H208C208 22.2117 222.111 8 239.5 8V6ZM273 39.7596C273 21.1222 258.009 6 239.5 6V8C256.889 8 271 22.2117 271 39.7596H273ZM252.428 39.4229C252.428 46.6321 246.633 52.4627 239.5 52.4627V54.4627C247.752 54.4627 254.428 47.7216 254.428 39.4229H252.428ZM239.5 26.3831C246.633 26.3831 252.428 32.2137 252.428 39.4229H254.428C254.428 31.1241 247.752 24.3831 239.5 24.3831V26.3831ZM226.571 39.4229C226.571 32.2137 232.367 26.3831 239.5 26.3831V24.3831C231.248 24.3831 224.571 31.1241 224.571 39.4229H226.571ZM239.5 52.4627C232.367 52.4627 226.571 46.6321 226.571 39.4229H224.571C224.571 47.7216 231.248 54.4627 239.5 54.4627V52.4627Z" fill="#06050F" mask="url(#path-1-inside-1_1709_19291)"/>
<path fill-rule="evenodd" clip-rule="evenodd" d="M691.352 128.906C691.167 127.889 691.292 126.84 691.709 125.894C692.107 124.967 692.767 124.176 693.608 123.619C694.45 123.062 695.436 122.763 696.445 122.759H696.727C698.391 122.759 699.986 122.098 701.163 120.922C702.339 119.746 703 118.151 703 116.488C703 114.825 702.339 113.23 701.163 112.054C699.986 110.878 698.391 110.217 696.727 110.217H696.194C695.185 110.213 694.199 109.915 693.357 109.357C692.516 108.8 691.856 108.01 691.458 107.082V106.831C691.041 105.886 690.916 104.837 691.101 103.82C691.285 102.803 691.77 101.864 692.493 101.125L692.681 100.937C693.265 100.355 693.727 99.6631 694.043 98.9019C694.359 98.1407 694.521 97.3247 694.521 96.5007C694.521 95.6766 694.359 94.8606 694.043 94.0994C693.727 93.3382 693.265 92.6466 692.681 92.0642C692.099 91.4812 691.407 91.0187 690.645 90.7032C689.884 90.3876 689.068 90.2252 688.243 90.2252C687.419 90.2252 686.603 90.3876 685.841 90.7032C685.08 91.0187 684.388 91.4812 683.805 92.0642L683.617 92.2524C682.878 92.9751 681.939 93.46 680.922 93.6444C679.904 93.8288 678.855 93.7043 677.909 93.287C676.981 92.8896 676.19 92.2296 675.633 91.3885C675.076 90.5473 674.777 89.5616 674.773 88.5527V88.2706C674.773 86.6075 674.112 85.0126 672.935 83.8366C671.759 82.6606 670.164 82 668.5 82C666.836 82 665.241 82.6606 664.065 83.8366C662.888 85.0126 662.227 86.6075 662.227 88.2706V88.8035C662.223 89.8124 661.924 90.7981 661.367 91.6393C660.81 92.4805 660.019 93.1404 659.091 93.5378H658.84C657.894 93.9552 656.845 94.0797 655.827 93.8953C654.81 93.7108 653.871 93.226 653.132 92.5032L652.944 92.3151C652.361 91.732 651.669 91.2695 650.908 90.954C650.146 90.6384 649.33 90.476 648.506 90.476C647.681 90.476 646.865 90.6384 646.104 90.954C645.342 91.2695 644.65 91.732 644.068 92.3151C643.485 92.8974 643.022 93.589 642.706 94.3502C642.391 95.1115 642.228 95.9274 642.228 96.7515C642.228 97.5755 642.391 98.3915 642.706 99.1527C643.022 99.914 643.485 100.606 644.068 101.188L644.256 101.376C644.979 102.115 645.464 103.053 645.648 104.07C645.833 105.088 645.708 106.137 645.291 107.082C644.932 108.056 644.289 108.9 643.445 109.504C642.6 110.108 641.593 110.444 640.555 110.468H640.273C638.609 110.468 637.014 111.129 635.837 112.305C634.661 113.481 634 115.076 634 116.739C634 118.402 634.661 119.997 635.837 121.173C637.014 122.349 638.609 123.009 640.273 123.009H640.806C641.815 123.013 642.801 123.312 643.643 123.869C644.484 124.426 645.144 125.217 645.542 126.145C645.959 127.09 646.084 128.139 645.899 129.156C645.715 130.173 645.23 131.112 644.507 131.851L644.319 132.039C643.735 132.621 643.273 133.313 642.957 134.074C642.641 134.835 642.479 135.651 642.479 136.475C642.479 137.299 642.641 138.115 642.957 138.877C643.273 139.638 643.735 140.329 644.319 140.912C644.901 141.495 645.593 141.957 646.355 142.273C647.116 142.588 647.932 142.751 648.757 142.751C649.581 142.751 650.397 142.588 651.159 142.273C651.92 141.957 652.612 141.495 653.195 140.912L653.383 140.724C654.122 140.001 655.061 139.516 656.078 139.332C657.096 139.147 658.145 139.272 659.091 139.689C660.065 140.047 660.91 140.691 661.514 141.535C662.118 142.379 662.454 143.386 662.478 144.423V144.706C662.478 146.369 663.139 147.964 664.315 149.139C665.492 150.315 667.087 150.976 668.751 150.976C670.415 150.976 672.01 150.315 673.186 149.139C674.363 147.964 675.024 146.369 675.024 144.706V144.173C675.028 143.164 675.327 142.178 675.884 141.337C676.441 140.496 677.232 139.836 678.16 139.438C679.106 139.021 680.155 138.896 681.173 139.081C682.19 139.265 683.129 139.75 683.868 140.473L684.056 140.661C684.639 141.244 685.331 141.707 686.092 142.022C686.854 142.338 687.67 142.5 688.494 142.5C689.319 142.5 690.135 142.338 690.896 142.022C691.658 141.707 692.35 141.244 692.932 140.661C693.515 140.079 693.978 139.387 694.294 138.626C694.609 137.865 694.772 137.049 694.772 136.225C694.772 135.401 694.609 134.585 694.294 133.823C693.978 133.062 693.515 132.371 692.932 131.788L692.744 131.6C692.021 130.861 691.536 129.923 691.352 128.906ZM668.112 104.019C661.437 104.019 656.027 109.428 656.027 116.1C656.027 122.772 661.437 128.181 668.112 128.181C674.786 128.181 680.197 122.772 680.197 116.1C680.197 109.428 674.786 104.019 668.112 104.019Z" fill="#C2FFA0" stroke="#06050F" stroke-linecap="round" stroke-linejoin="round"/>
<path fill-rule="evenodd" clip-rule="evenodd" d="M702.455 108.333C702.399 108.004 702.437 107.665 702.564 107.359C702.685 107.059 702.886 106.803 703.142 106.623C703.398 106.443 703.698 106.346 704.005 106.345H704.091C704.597 106.345 705.083 106.131 705.441 105.75C705.799 105.37 706 104.854 706 104.316C706 103.778 705.799 103.262 705.441 102.881C705.083 102.501 704.597 102.287 704.091 102.287H703.929C703.621 102.286 703.321 102.189 703.065 102.009C702.809 101.829 702.608 101.573 702.487 101.273V101.192C702.36 100.886 702.322 100.546 702.378 100.217C702.435 99.8882 702.582 99.5846 702.802 99.3455L702.86 99.2847C703.037 99.0962 703.178 98.8725 703.274 98.6262C703.37 98.3799 703.419 98.1159 703.419 97.8493C703.419 97.5827 703.37 97.3188 703.274 97.0725C703.178 96.8262 703.037 96.6024 702.86 96.414C702.682 96.2254 702.472 96.0758 702.24 95.9737C702.008 95.8716 701.76 95.819 701.509 95.819C701.258 95.819 701.01 95.8716 700.778 95.9737C700.546 96.0758 700.335 96.2254 700.158 96.414L700.101 96.4749C699.876 96.7087 699.59 96.8656 699.281 96.9253C698.971 96.9849 698.652 96.9447 698.364 96.8096C698.081 96.6811 697.841 96.4675 697.671 96.1954C697.501 95.9233 697.41 95.6044 697.409 95.278V95.1867C697.409 94.6486 697.208 94.1326 696.85 93.7522C696.492 93.3717 696.006 93.158 695.5 93.158C694.994 93.158 694.508 93.3717 694.15 93.7522C693.792 94.1326 693.591 94.6486 693.591 95.1867V95.3591C693.59 95.6855 693.499 96.0044 693.329 96.2766C693.159 96.5487 692.919 96.7622 692.636 96.8908H692.56C692.272 97.0258 691.953 97.0661 691.643 97.0064C691.333 96.9468 691.048 96.7899 690.823 96.556L690.765 96.4952C690.588 96.3066 690.378 96.1569 690.146 96.0548C689.914 95.9527 689.666 95.9002 689.415 95.9002C689.164 95.9002 688.915 95.9527 688.684 96.0548C688.452 96.1569 688.241 96.3066 688.064 96.4952C687.887 96.6836 687.746 96.9073 687.65 97.1536C687.554 97.3999 687.504 97.6639 687.504 97.9305C687.504 98.1971 687.554 98.4611 687.65 98.7074C687.746 98.9536 687.887 99.1774 688.064 99.3658L688.121 99.4267C688.341 99.6657 688.489 99.9694 688.545 100.298C688.601 100.627 688.563 100.967 688.436 101.273C688.327 101.588 688.131 101.861 687.874 102.056C687.617 102.252 687.311 102.36 686.995 102.368H686.909C686.403 102.368 685.917 102.582 685.559 102.962C685.201 103.343 685 103.859 685 104.397C685 104.935 685.201 105.451 685.559 105.832C685.917 106.212 686.403 106.426 686.909 106.426H687.071C687.379 106.427 687.679 106.524 687.935 106.704C688.191 106.884 688.392 107.14 688.513 107.44C688.64 107.746 688.678 108.085 688.622 108.414C688.565 108.743 688.418 109.047 688.198 109.286L688.14 109.347C687.963 109.535 687.822 109.759 687.726 110.005C687.63 110.252 687.581 110.516 687.581 110.782C687.581 111.049 687.63 111.313 687.726 111.559C687.822 111.806 687.963 112.029 688.14 112.218C688.318 112.406 688.528 112.556 688.76 112.658C688.992 112.76 689.24 112.813 689.491 112.813C689.742 112.813 689.99 112.76 690.222 112.658C690.454 112.556 690.665 112.406 690.842 112.218L690.899 112.157C691.124 111.923 691.41 111.766 691.719 111.706C692.029 111.647 692.348 111.687 692.636 111.822C692.933 111.938 693.19 112.146 693.374 112.419C693.558 112.692 693.66 113.018 693.667 113.354V113.445C693.667 113.983 693.868 114.499 694.226 114.88C694.584 115.26 695.07 115.474 695.576 115.474C696.083 115.474 696.568 115.26 696.926 114.88C697.284 114.499 697.485 113.983 697.485 113.445V113.273C697.487 112.946 697.578 112.627 697.747 112.355C697.917 112.083 698.158 111.87 698.44 111.741C698.728 111.606 699.047 111.566 699.357 111.625C699.667 111.685 699.952 111.842 700.177 112.076L700.235 112.137C700.412 112.325 700.622 112.475 700.854 112.577C701.086 112.679 701.334 112.732 701.585 112.732C701.836 112.732 702.085 112.679 702.316 112.577C702.548 112.475 702.759 112.325 702.936 112.137C703.113 111.948 703.254 111.724 703.35 111.478C703.446 111.232 703.496 110.968 703.496 110.701C703.496 110.435 703.446 110.171 703.35 109.924C703.254 109.678 703.113 109.454 702.936 109.266L702.879 109.205C702.659 108.966 702.511 108.662 702.455 108.333ZM695.382 100.282C693.35 100.282 691.704 102.032 691.704 104.19C691.704 106.349 693.35 108.099 695.382 108.099C697.413 108.099 699.06 106.349 699.06 104.19C699.06 102.032 697.413 100.282 695.382 100.282Z" fill="#03433B" stroke="#06050F" stroke-linecap="round" stroke-linejoin="round"/>
<mask id="path-5-inside-2_1709_19291" fill="white">
<path fill-rule="evenodd" clip-rule="evenodd" d="M1063.47 5.18018C1047.19 5.18018 1034 18.3744 1034 34.6504C1034 50.9264 1047.19 64.1207 1063.47 64.1207H1091.05C1094.29 64.1207 1097.42 63.5961 1100.34 62.6271C1100.41 62.705 1100.49 62.7758 1100.58 62.8374L1122.98 77.9446C1124.07 78.6789 1125.41 77.4801 1124.84 76.2846L1113.88 53.2852C1118.03 48.2073 1120.52 41.7195 1120.52 34.6504C1120.52 18.3744 1107.32 5.18018 1091.05 5.18018H1063.47Z"/>
</mask>
<path fill-rule="evenodd" clip-rule="evenodd" d="M1063.47 5.18018C1047.19 5.18018 1034 18.3744 1034 34.6504C1034 50.9264 1047.19 64.1207 1063.47 64.1207H1091.05C1094.29 64.1207 1097.42 63.5961 1100.34 62.6271C1100.41 62.705 1100.49 62.7758 1100.58 62.8374L1122.98 77.9446C1124.07 78.6789 1125.41 77.4801 1124.84 76.2846L1113.88 53.2852C1118.03 48.2073 1120.52 41.7195 1120.52 34.6504C1120.52 18.3744 1107.32 5.18018 1091.05 5.18018H1063.47Z" fill="#BFFF9B"/>
<path d="M1100.34 62.6271L1100.98 62.0514L1100.6 61.6293L1100.06 61.8077L1100.34 62.6271ZM1100.58 62.8374L1101.06 62.1216L1101.06 62.1216L1100.58 62.8374ZM1122.98 77.9446L1122.49 78.6604L1122.98 77.9446ZM1124.84 76.2846L1124.07 76.6561L1124.84 76.2846ZM1113.88 53.2852L1113.21 52.7389L1112.87 53.1627L1113.1 53.6567L1113.88 53.2852ZM1034.86 34.6504C1034.86 18.8513 1047.67 6.04353 1063.47 6.04353V4.31683C1046.72 4.31683 1033.14 17.8976 1033.14 34.6504H1034.86ZM1063.47 63.2573C1047.67 63.2573 1034.86 50.4496 1034.86 34.6504H1033.14C1033.14 51.4032 1046.72 64.984 1063.47 64.984V63.2573ZM1091.05 63.2573H1063.47V64.984H1091.05V63.2573ZM1100.06 61.8077C1097.23 62.7479 1094.2 63.2573 1091.05 63.2573V64.984C1094.39 64.984 1097.6 64.4442 1100.61 63.4465L1100.06 61.8077ZM1101.06 62.1216C1101.03 62.1002 1101 62.0765 1100.98 62.0514L1099.69 63.2028C1099.81 63.3334 1099.94 63.4514 1100.1 63.5532L1101.06 62.1216ZM1123.46 77.2289L1101.06 62.1216L1100.1 63.5532L1122.49 78.6604L1123.46 77.2289ZM1124.07 76.6561C1124.17 76.8668 1124.11 77.0602 1123.96 77.193C1123.88 77.2605 1123.8 77.2964 1123.72 77.3043C1123.65 77.3114 1123.56 77.2998 1123.46 77.2289L1122.49 78.6604C1124.37 79.9241 1126.54 77.8409 1125.62 75.9131L1124.07 76.6561ZM1113.1 53.6567L1124.07 76.6561L1125.62 75.9131L1114.66 52.9137L1113.1 53.6567ZM1119.66 34.6504C1119.66 41.5132 1117.24 47.8096 1113.21 52.7389L1114.55 53.8315C1118.82 48.6051 1121.38 41.9258 1121.38 34.6504H1119.66ZM1091.05 6.04353C1106.85 6.04353 1119.66 18.8513 1119.66 34.6504H1121.38C1121.38 17.8976 1107.8 4.31683 1091.05 4.31683V6.04353ZM1063.47 6.04353H1091.05V4.31683H1063.47V6.04353Z" fill="#06050F" mask="url(#path-5-inside-2_1709_19291)"/>
<path d="M1108.32 1.21352C1108.65 0.62761 1109.5 0.627609 1109.83 1.21352L1112.04 5.13749C1112.29 5.57465 1112.71 5.88299 1113.2 5.98225L1117.62 6.87314C1118.28 7.00616 1118.54 7.8086 1118.08 8.30373L1115.03 11.6198C1114.69 11.9892 1114.53 12.4881 1114.59 12.9866L1115.11 17.4612C1115.18 18.1293 1114.5 18.6252 1113.89 18.3453L1109.79 16.4708C1109.34 16.262 1108.81 16.262 1108.36 16.4708L1104.26 18.3453C1103.65 18.6252 1102.97 18.1293 1103.04 17.4612L1103.56 12.9866C1103.62 12.4881 1103.46 11.9892 1103.12 11.6198L1100.07 8.30373C1099.61 7.8086 1099.87 7.00616 1100.53 6.87314L1104.95 5.98225C1105.44 5.88299 1105.87 5.57465 1106.11 5.13749L1108.32 1.21352Z" fill="#03433B" stroke="#06050F" stroke-width="0.86335"/>
<circle cx="1062.92" cy="35.8291" r="5.61177" fill="white" stroke="#06050F" stroke-width="0.86335"/>
<circle cx="1079.33" cy="35.8291" r="5.61177" fill="white" stroke="#06050F" stroke-width="0.86335"/>
<circle cx="1095.73" cy="35.8291" r="5.61177" fill="white" stroke="#06050F" stroke-width="0.86335"/>
<path d="M1 100.501C90.5543 216.169 253.16 330.109 496.5 121.001C628 8.00037 725 4 843 121.001C1064.28 340.412 1233.26 201.152 1338.5 76.5012" stroke="black" stroke-width="2" stroke-linejoin="round" stroke-dasharray="6 6"/>
<circle cx="1082" cy="236" r="12.25" fill="#FEFFF5" stroke="#1E1E1E" stroke-width="1.5"/>
<circle cx="240" cy="236" r="12.25" fill="#FEFFF5" stroke="#1E1E1E" stroke-width="1.5"/>
<circle cx="670" cy="35" r="12.25" fill="#FEFFF5" stroke="#1E1E1E" stroke-width="1.5"/>
</svg>
