<svg width="60" height="58" viewBox="0 0 60 58" fill="none" xmlns="http://www.w3.org/2000/svg">
<g id="Group 980">
<path id="Vector 111" d="M7.92761 2.77781C8.47773 -0.912694 4.42041 -0.341431 3.93137 2.49278L2.40401 19.8846C2.22078 22.4536 4.54596 23.2746 5.54391 20.1086C6.38118 17.4522 7.40478 7.42651 7.92761 2.77781Z" fill="#FEFFF5"/>
<path id="Vector 112" d="M44.8727 7.70813C46.4628 5.52639 43.9751 4.20138 42.1404 5.79187C37.9814 9.39704 31.0097 21.0642 28.584 26.9161C27.5646 29.1386 29.5187 30.4256 31.0716 28.2411C38.2148 18.1927 43.2486 10.3656 44.8727 7.70813Z" fill="#FEFFF5"/>
<path id="Vector 113" d="M54.1748 54.2752C49.7542 51.8942 40.5613 49.3833 36.5174 48.4254C34.0799 47.8481 33.0122 50.8052 35.3964 52.0751C39.3765 54.1951 49.2341 56.5049 53.6654 57.3947C55.9287 57.8432 56.017 55.2674 54.1748 54.2752Z" fill="#FEFFF5"/>
</g>
</svg>
