<svg width="552" height="345" viewBox="0 0 552 345" fill="none" xmlns="http://www.w3.org/2000/svg">
<path d="M155.551 142.395L137.723 169.045C137.123 169.943 135.777 169.854 135.3 168.885L121.134 140.121C120.657 139.153 121.407 138.031 122.485 138.102L154.478 140.216C155.555 140.287 156.151 141.498 155.551 142.395Z" stroke="url(#paint0_linear_1913_21451)" stroke-width="1.68288"/>
<path d="M144.834 147.946L127.007 174.596C126.406 175.493 125.06 175.404 124.583 174.436L110.417 145.672C109.94 144.703 110.69 143.582 111.768 143.653L143.761 145.767C144.838 145.838 145.434 147.049 144.834 147.946Z" stroke="url(#paint1_linear_1913_21451)" stroke-width="1.68288"/>
<circle cx="180.973" cy="204.768" r="24.1822" fill="#BFFF9B" stroke="#184A4E"/>
<path d="M126.279 268.844L126.274 268.829L126.268 268.814C124.761 265.01 121.143 261.922 117.172 259.793C113.196 257.661 108.768 256.438 105.524 256.438C91.7035 256.438 80.5 245.234 80.5 231.414C80.5 217.594 91.7035 206.391 105.524 206.391C117.257 206.391 127.106 214.467 129.811 225.364C129.931 225.848 130.054 226.361 130.182 226.899C130.939 230.063 131.889 234.039 133.602 237.392C135.617 241.336 138.75 244.536 143.949 244.536C154.207 244.536 162.522 252.851 162.522 263.108C162.522 273.366 154.207 281.681 143.949 281.681C135.694 281.681 128.696 276.295 126.279 268.844Z" fill="#BFFF9B" stroke="#184A4E"/>
<g clip-path="url(#clip0_1913_21451)">
<path d="M542.716 344.312H232.832C228.57 326.917 228.82 308.434 233.759 291.218C240.885 266.391 257.696 244.468 279.89 231.092C301.462 218.073 329.605 211.109 340.702 188.567C346.804 176.181 346.14 161.58 343.732 147.997C341.325 134.414 337.312 120.982 337.16 107.192C336.759 71.1909 365.442 37.873 400.725 29.8498C436.008 21.8128 474.779 37.8042 496.585 66.5393C518.391 95.2744 523.594 134.84 513.092 169.3C508.028 185.884 499.532 201.875 499.283 219.201C499.034 237.78 508.318 255.079 518.225 270.836C528.119 286.594 539.119 302.324 542.965 320.504C544.598 328.224 544.556 336.564 542.716 344.312Z" fill="#5D8083"/>
<path d="M382.682 292.553H204.245V344.326H382.682V292.553Z" fill="#F6FFD7"/>
<path d="M277.682 83.3802C298.308 68.4265 302.84 39.6742 287.805 19.1601C272.77 -1.35406 243.862 -5.8617 223.237 9.09196C202.612 24.0456 198.08 52.7979 213.114 73.3121C228.149 93.8262 257.057 98.3338 277.682 83.3802Z" fill="#5D8083"/>
<path d="M204.245 344.312V292.553H382.682V311.503" stroke="#184A4E" stroke-linecap="round" stroke-linejoin="round"/>
<path d="M421.895 93.9114L424.316 97.1455L425.783 99.0997C426.834 100.49 428.91 100.655 430.155 99.4025C431.027 98.5493 431.248 97.2143 430.708 96.1134C430.667 96.0308 430.612 95.9345 430.556 95.8519L429.657 94.4344L426.737 89.8379C425.741 91.7095 424.205 93.1545 422.227 93.8289C422.13 93.8702 422.033 93.8977 421.922 93.9252L421.895 93.9114Z" fill="white"/>
<path d="M403.589 80.2601C404.572 82.2694 406.924 83.1776 408.986 82.4207C411.241 81.0858 412.791 79.4481 413.607 77.5077C413.884 76.8746 414.589 76.5168 415.212 76.7921C416.305 77.2737 417.689 77.1499 419.28 76.6132C420.165 76.3104 421.134 76.737 421.549 77.5627L422.13 78.7188C422.421 79.3243 423.127 79.5995 423.763 79.3518C424.316 79.1454 424.718 78.6499 424.884 78.0719C425.036 77.549 425.271 77.0811 425.576 76.7095C426.115 76.0489 426.849 75.6636 427.623 75.7324C429.09 75.8287 430.169 77.4389 430.045 79.338C429.948 80.7418 429.215 81.8978 428.246 82.3657C427.997 82.4895 427.872 82.751 427.9 83.0263C428.149 85.242 427.831 87.3751 427.056 89.1641C428.398 90.1688 430.335 90.1412 431.65 88.9852C433.172 87.6503 433.324 85.352 431.996 83.8382C431.982 83.8245 431.954 83.8107 431.927 83.7969C432.162 83.6731 432.369 83.5217 432.563 83.3428C434.085 82.0079 434.237 79.7096 432.909 78.1958C432.771 78.0307 432.605 77.893 432.439 77.7554C433.269 76.448 433.186 74.6865 432.093 73.4617C431.428 72.7185 430.543 72.2919 429.616 72.2368C429.685 71.2873 429.381 70.3102 428.703 69.5257C427.803 68.5211 426.475 68.122 425.23 68.3422C425.05 67.888 424.815 67.4614 424.469 67.0761C422.891 65.2733 420.138 65.0944 418.325 66.6632C418.228 66.7458 418.173 66.8421 418.076 66.9247C416.471 65.2733 413.842 65.1219 412.085 66.6632C411.379 67.2688 410.936 68.0532 410.729 68.8927C409.567 68.6312 408.308 68.8239 407.256 69.5808C405.651 70.7093 405.084 72.7048 405.665 74.4525C405.651 74.4525 405.623 74.4525 405.609 74.4663C403.437 75.526 402.552 78.1132 403.617 80.2739L403.589 80.2601Z" fill="#F6FFD7"/>
<path d="M408.985 82.4207C409.068 83.5767 409.317 84.7603 409.704 85.93C411.724 91.8064 417.121 95.302 421.88 93.912C421.991 93.8845 422.088 93.8432 422.185 93.8157C424.163 93.1413 425.699 91.7101 426.696 89.8247C426.806 89.6183 426.917 89.3843 427.028 89.1641C427.802 87.3751 428.121 85.2282 427.872 83.0263C427.844 82.751 427.968 82.4895 428.218 82.3657C429.2 81.8978 429.933 80.7418 430.016 79.338C430.141 77.4389 429.062 75.8287 427.595 75.7324C426.82 75.6636 426.087 76.0489 425.547 76.7095C425.243 77.0811 425.007 77.549 424.855 78.0719C424.689 78.6499 424.302 79.1316 423.734 79.3518C423.098 79.5995 422.392 79.3243 422.102 78.7187L421.521 77.5627C421.106 76.737 420.137 76.3104 419.251 76.6132C417.66 77.1361 416.277 77.2737 415.183 76.7921C414.547 76.5306 413.855 76.8884 413.578 77.5077C412.762 79.4619 411.212 81.0996 408.957 82.4207H408.985Z" fill="white"/>
<path d="M382.682 156.006L383.969 157.327L392.713 166.355L393.696 167.36C405.028 159.598 414.741 148.602 423.237 135.115L428.246 148.355C423.14 157.19 416.692 164.952 407.92 171.488L409.207 172.823L417.951 181.851L418.92 182.856C421.853 180.847 424.69 178.617 427.429 176.181C428.481 175.232 429.519 174.268 430.543 173.264C431.553 172.259 432.563 171.255 433.545 170.195C434.085 169.617 434.638 169.025 435.164 168.433C435.635 167.91 436.091 167.387 436.548 166.851C437.087 166.245 437.613 165.612 438.139 164.979C438.554 164.484 438.955 163.974 439.357 163.465C439.481 163.314 439.592 163.176 439.716 163.025C439.993 162.667 440.284 162.309 440.547 161.951C441.266 161.029 441.958 160.107 442.65 159.171C442.899 158.841 443.148 158.511 443.369 158.167C444.531 156.57 445.652 154.933 446.759 153.254C447.077 152.786 447.382 152.332 447.672 151.864C448.046 151.313 448.392 150.749 448.752 150.171C449.042 149.717 449.333 149.249 449.609 148.795C450.135 147.955 450.647 147.116 451.145 146.249L481.641 137.579L465.3 104.949C459.904 94.1597 447.479 88.7512 435.856 92.178C433.67 92.8248 431.594 93.568 429.629 94.4212L430.529 95.8387C430.584 95.935 430.64 96.0176 430.681 96.1002C431.221 97.2011 431.013 98.5223 430.128 99.3893C428.882 100.642 426.807 100.49 425.755 99.0865L424.289 97.1323C421.397 98.8801 418.865 100.944 416.72 103.339C415.101 105.156 413.953 107.344 413.164 109.642C406.744 128.441 398.47 144.198 382.654 156.006H382.682Z" fill="#BFFF9B"/>
<path d="M427.43 176.181L428.246 325.732H464.041L467.348 213.517L509.149 325.732H550.146L481.641 137.578L451.146 146.248C444.158 158.084 436.34 168.226 427.43 176.181Z" fill="#184A4E"/>
<path d="M520.369 340.637C526.983 339.468 533.597 339.468 540.211 340.637L536.254 331.967C532.282 329.201 528.311 329.201 524.34 331.967L520.369 340.637Z" fill="white"/>
<path d="M522.486 325.898L524.34 331.967C525.987 331.362 528.062 331.004 530.29 331.004C532.518 331.004 534.607 331.362 536.254 331.967L534.4 325.912H522.486V325.898Z" fill="white"/>
<path d="M520.369 340.637V344.312H540.211V340.637C533.597 339.467 526.983 339.467 520.369 340.637Z" fill="#184A4E"/>
<path d="M449.498 325.732V331.691C449.429 331.691 449.36 331.719 449.277 331.76C444.988 333.714 441.113 332.971 437.585 329.889V325.732H449.498Z" fill="white"/>
<path d="M417.951 344.311V340.843C417.951 339.522 418.74 338.311 419.944 337.774L437.599 329.889C441.127 332.971 445.002 333.715 449.291 331.76C449.831 331.513 450.439 331.884 450.439 332.476V344.311H417.951Z" fill="white"/>
<path d="M450.439 340.721H417.951V344.326H450.439V340.721Z" fill="#184A4E"/>
<path d="M339.498 182.553C339.899 183.544 341.255 183.695 341.864 182.8C343.15 180.915 345.005 179.374 347.288 178.452C353.652 175.878 360.93 179.112 363.214 185.635C365.33 191.663 362.162 198.448 356.171 200.76C353.943 201.613 351.632 201.778 349.446 201.338C348.381 201.118 347.495 202.15 347.896 203.154L356.364 223.921L402.828 205.164C411.669 201.599 415.931 191.567 412.333 182.773L393.474 136.56L372.609 144.982C371.778 145.313 370.907 144.556 371.156 143.703C371.944 140.991 371.861 138.005 370.713 135.184C367.987 128.496 360.322 125.275 353.597 128C346.872 130.711 343.635 138.335 346.361 145.024C347.509 147.845 349.543 150.047 352.02 151.437C352.795 151.877 352.698 153.033 351.868 153.364L331.002 161.786L339.47 182.553H339.498Z" fill="#BFFF9B"/>
<path d="M339.498 182.553C339.899 183.544 341.255 183.695 341.864 182.8C343.15 180.915 345.005 179.374 347.288 178.452C353.652 175.878 360.93 179.112 363.214 185.635C365.33 191.663 362.162 198.448 356.171 200.76C353.943 201.613 351.632 201.778 349.446 201.338C348.381 201.118 347.495 202.15 347.896 203.154L356.364 223.921L402.828 205.164C411.669 201.599 415.931 191.567 412.333 182.773L393.474 136.56L372.609 144.982C371.778 145.313 370.907 144.556 371.156 143.703C371.944 140.991 371.861 138.005 370.713 135.184C367.987 128.496 360.322 125.275 353.597 128C346.872 130.711 343.635 138.335 346.361 145.024C347.509 147.845 349.543 150.047 352.02 151.437C352.795 151.877 352.698 153.033 351.868 153.364L331.002 161.786L339.47 182.553H339.498Z" stroke="#184A4E" stroke-linecap="round" stroke-linejoin="round"/>
<path d="M405.692 179.76L400.766 184.783C400.116 185.471 400.13 186.586 400.821 187.219C401.209 187.618 401.748 187.77 402.247 187.687C402.606 187.646 402.966 187.467 403.257 187.178C402.634 187.866 402.675 188.926 403.34 189.559C403.672 189.875 404.101 190.027 404.53 190.027C404.986 190.027 405.443 189.848 405.789 189.504L407.103 188.141C406.494 188.829 406.522 189.875 407.186 190.508C407.601 190.88 408.141 191.045 408.625 190.962C409.013 190.921 409.345 190.729 409.649 190.453L415.184 184.659L417.951 181.866L409.206 172.838C408.999 172.948 408.777 173.072 408.542 173.168L405.872 174.489L403.215 175.797L402.44 176.182L400.738 177.008C399.908 177.421 399.576 178.412 399.991 179.237C400.185 179.623 400.489 179.87 400.849 180.035C401.112 180.146 401.43 180.187 401.735 180.146C401.915 180.118 402.067 180.063 402.247 179.98L404.903 178.645C405.609 178.274 406.273 179.196 405.706 179.76H405.692Z" fill="white"/>
<path d="M520.369 340.637V344.312H540.211V340.637C533.597 339.467 526.983 339.467 520.369 340.637Z" stroke="#184A4E" stroke-linecap="round" stroke-linejoin="round"/>
<path d="M532.38 333.178C530.941 332.724 529.599 332.724 528.354 333.178" stroke="#184A4E" stroke-linecap="round" stroke-linejoin="round"/>
<path d="M532.38 336.206C530.941 335.752 529.599 335.752 528.354 336.206" stroke="#184A4E" stroke-linecap="round" stroke-linejoin="round"/>
<path d="M522.486 325.898L524.34 331.967" stroke="#184A4E" stroke-linecap="round" stroke-linejoin="round"/>
<path d="M536.254 331.967L534.386 325.898" stroke="#184A4E" stroke-linecap="round" stroke-linejoin="round"/>
<path d="M540.211 340.637L536.254 331.967C532.282 329.201 528.311 329.201 524.34 331.967L520.369 340.637" stroke="#184A4E" stroke-linecap="round" stroke-linejoin="round"/>
<path d="M417.951 344.311V340.843C417.951 339.522 418.74 338.311 419.944 337.774L437.599 329.889C441.127 332.971 445.002 333.715 449.291 331.76C449.831 331.513 450.439 331.884 450.439 332.476V344.311H417.951Z" stroke="#184A4E" stroke-linecap="round" stroke-linejoin="round"/>
<path d="M436.935 333.646L428.024 337.624" stroke="#184A4E" stroke-linecap="round" stroke-linejoin="round"/>
<path d="M450.439 340.721H417.951" stroke="#184A4E" stroke-linecap="round" stroke-linejoin="round"/>
<path d="M424.731 335.643C427.277 335.959 428.537 337.734 428.716 340.721" stroke="#184A4E" stroke-linecap="round" stroke-linejoin="round"/>
<path d="M449.499 325.732V331.705" stroke="#184A4E" stroke-linecap="round" stroke-linejoin="round"/>
<path d="M437.599 329.889L437.585 325.732" stroke="#184A4E" stroke-linecap="round" stroke-linejoin="round"/>
<path d="M421.881 93.898L425.769 99.0862C426.821 100.49 428.896 100.641 430.141 99.389C431.027 98.522 431.234 97.2008 430.695 96.0999C430.653 96.0173 430.598 95.921 430.543 95.8246L426.724 89.7969" stroke="#184A4E" stroke-linecap="round" stroke-linejoin="round"/>
<path d="M408.985 82.4216C406.91 83.1647 404.571 82.2702 403.575 80.2472C402.523 78.1003 403.409 75.4993 405.581 74.4396C405.595 74.4396 405.623 74.4396 405.637 74.4259C405.055 72.6781 405.637 70.6826 407.228 69.5541C408.279 68.7972 409.538 68.6045 410.701 68.866C410.908 68.0403 411.351 67.2421 412.057 66.6366C413.814 65.0952 416.457 65.2466 418.062 66.9118C418.145 66.8292 418.228 66.7191 418.311 66.6503C420.123 65.0677 422.877 65.2466 424.454 67.0494C424.8 67.4348 425.049 67.8614 425.215 68.3155C426.461 68.0953 427.789 68.4944 428.674 69.4991C429.352 70.2697 429.657 71.2468 429.588 72.1964C430.515 72.2652 431.4 72.6781 432.064 73.435C433.158 74.6598 433.241 76.4214 432.41 77.7425C432.576 77.8801 432.742 78.0177 432.881 78.1829C434.223 79.6967 434.071 81.995 432.549 83.3299C432.355 83.5088 432.134 83.6464 431.898 83.7703C431.926 83.7978 431.94 83.7978 431.968 83.8253C433.296 85.3391 433.144 87.6512 431.622 88.9723C430.293 90.1146 428.384 90.1558 427.028 89.1374" stroke="#184A4E" stroke-linecap="round" stroke-linejoin="round"/>
<path d="M425.575 76.7088C425.271 77.0804 425.036 77.5483 424.884 78.0712C424.718 78.6492 424.33 79.1309 423.763 79.3511C423.14 79.5988 422.435 79.3236 422.13 78.718L421.563 77.562C421.148 76.7225 420.179 76.3097 419.294 76.5987C417.702 77.1354 416.319 77.2593 415.212 76.7776C414.589 76.5024 413.884 76.8602 413.607 77.507C412.79 79.4612 411.241 81.0989 408.985 82.42C409.068 83.576 409.304 84.7596 409.705 85.9293C411.739 91.7919 417.121 95.3013 421.881 93.9113C421.992 93.8838 422.089 93.8562 422.199 93.815C424.178 93.1406 425.714 91.6956 426.71 89.824C426.821 89.6175 426.945 89.3974 427.028 89.1634C427.817 87.3743 428.135 85.2412 427.872 83.0255C427.845 82.7503 427.969 82.4888 428.218 82.365C429.187 81.8971 429.934 80.741 430.017 79.3511C430.141 77.4519 429.062 75.828 427.609 75.7454C426.835 75.6904 426.101 76.0757 425.562 76.7225" stroke="#184A4E" stroke-linecap="round" stroke-linejoin="round"/>
<path d="M444.435 105.375C436.686 133.023 428.993 155.772 407.906 171.501L418.92 182.855C437.558 170.098 451.837 148.546 463.488 121.697C463.986 120.541 465.356 120.045 466.476 120.61" stroke="#184A4E" stroke-linecap="round" stroke-linejoin="round"/>
<path d="M428.232 148.367L418.436 122.398" stroke="#184A4E" stroke-linecap="round" stroke-linejoin="round"/>
<path d="M464.027 325.734H428.246L427.43 176.168" stroke="#184A4E" stroke-linecap="round" stroke-linejoin="round"/>
<path d="M481.627 137.578L550.146 325.732H509.148L467.348 213.531" stroke="#184A4E" stroke-linecap="round" stroke-linejoin="round"/>
<path d="M464.027 325.747L467.348 213.518" stroke="#184A4E" stroke-linecap="round" stroke-linejoin="round"/>
<path d="M408.819 181.357L403.298 187.109C403.298 187.109 403.257 187.151 403.257 187.164C402.98 187.44 402.62 187.632 402.261 187.674C401.749 187.756 401.209 187.605 400.835 187.206C400.144 186.559 400.13 185.444 400.78 184.756L405.706 179.747C406.273 179.182 405.609 178.26 404.903 178.632L402.247 179.967C402.081 180.049 401.915 180.104 401.735 180.132C401.43 180.173 401.112 180.132 400.849 180.022C400.489 179.87 400.185 179.609 399.991 179.224C399.576 178.398 399.922 177.407 400.752 176.994L402.454 176.155L403.229 175.769L405.9 174.462L408.57 173.141C408.791 173.044 409.013 172.921 409.22 172.811" stroke="#184A4E" stroke-linecap="round" stroke-linejoin="round"/>
<path d="M403.298 187.122C402.634 187.81 402.648 188.897 403.34 189.558C404.032 190.219 405.125 190.191 405.775 189.503L411.324 183.709" stroke="#184A4E" stroke-linecap="round" stroke-linejoin="round"/>
<path d="M407.09 188.127C407.09 188.127 407.09 188.127 407.09 188.141C406.481 188.829 406.508 189.875 407.186 190.508C407.602 190.866 408.127 191.045 408.625 190.962C409.013 190.921 409.359 190.728 409.649 190.439L415.198 184.645L417.965 181.852" stroke="#184A4E" stroke-linecap="round" stroke-linejoin="round"/>
<path d="M429.629 94.4074C431.58 93.5679 433.669 92.8248 435.855 92.178C447.478 88.7512 459.903 94.1597 465.3 104.949L481.641 137.579L451.145 146.249" stroke="#184A4E" stroke-linecap="round" stroke-linejoin="round"/>
<path d="M396.117 142.974C403.769 133.409 408.888 122.207 413.192 109.642C413.966 107.33 415.115 105.156 416.734 103.339C418.892 100.931 421.41 98.8806 424.302 97.1328" stroke="#184A4E" stroke-linecap="round" stroke-linejoin="round"/>
<path d="M403.021 159.915C410.479 153.102 417.162 144.735 423.237 135.102" stroke="#184A4E" stroke-linecap="round" stroke-linejoin="round"/>
<path d="M478.693 145.451L454.895 152.236" stroke="white" stroke-linecap="round" stroke-linejoin="round"/>
<path d="M468.496 220.675L456.624 186.875" stroke="white" stroke-linecap="round" stroke-linejoin="round"/>
<path d="M305.626 57.8287L301.683 73.2972C298.763 72.8705 295.691 72.265 292.509 71.5081V76.6826C285.452 76.3523 278.451 73.3385 273.262 67.7924L261.681 82.6141C270.481 89.5088 281.453 92.275 292.509 91.5043V102.803L246.35 101.936L245.492 57.2094C246.488 49.0898 256.644 44.7547 267.963 43.6951L267.866 44.6584C267.866 44.7272 267.866 44.7823 267.866 44.8511V44.8924C267.866 44.8924 267.866 44.9612 267.866 44.9887C267.866 46.2548 268.668 47.3971 269.886 47.7962C271.007 48.1815 272.169 47.865 272.958 47.1218C273.027 47.0668 273.082 47.0117 273.138 46.9429C273.193 46.8741 273.248 46.819 273.304 46.7365C273.345 46.6677 273.401 46.5989 273.442 46.5301C273.539 46.3787 273.608 46.2273 273.677 46.0621C273.705 45.9796 273.733 45.897 273.76 45.8007C273.788 45.7181 273.802 45.6218 273.829 45.5392L274.217 43.4336C275.504 43.4336 276.777 43.4886 278.036 43.585C279.406 43.6813 280.775 43.8327 282.104 44.0254C287.196 44.7547 291.914 47.1081 295.65 50.6449C299.316 54.1267 302.637 56.4387 305.654 57.8149L305.626 57.8287Z" fill="#BFFF9B"/>
<path d="M203.691 273.975L239.819 273.961L270.467 164.58L295.76 273.961L331.749 273.947L292.522 102.803L246.363 101.936L203.691 273.975Z" fill="#184A4E"/>
<path d="M232.361 288.838C225.692 287.655 219.023 287.655 212.354 288.838L216.352 280.099C220.351 277.305 224.364 277.305 228.362 280.099L232.361 288.838Z" fill="white"/>
<path d="M229.304 273.975L228.363 280.099C226.702 279.479 224.613 279.122 222.358 279.122C220.102 279.122 218.013 279.479 216.353 280.099L217.293 273.988H229.304V273.975Z" fill="white"/>
<path d="M232.361 288.837V292.553H212.354V288.837C219.023 287.653 225.692 287.653 232.361 288.837Z" fill="#184A4E"/>
<path d="M307.313 273.975L308.241 279.934C308.31 279.934 308.379 279.961 308.462 280.002C312.751 281.957 316.625 281.213 320.154 278.131L319.227 273.975H307.313Z" fill="white"/>
<path d="M339.802 292.553V289.085C339.802 287.764 339.013 286.553 337.809 286.016L320.154 278.131C316.625 281.214 312.751 281.957 308.462 280.002C307.922 279.755 307.313 280.126 307.313 280.718V292.553H339.802Z" fill="white"/>
<path d="M307.314 292.539H339.803V288.934H307.314V292.539Z" fill="#184A4E"/>
<path d="M275.033 38.9462L273.995 44.451L273.801 45.5244C273.469 47.3135 271.601 48.3869 269.872 47.7814C268.654 47.3685 267.852 46.2401 267.852 44.9739C267.852 44.9189 267.852 44.8501 267.852 44.7813C267.852 44.74 267.852 44.6849 267.852 44.6574L268.64 37.3223C270.411 38.6159 272.501 39.2627 274.659 39.0012C274.784 38.9875 274.894 38.9599 275.005 38.9462H275.033Z" fill="white"/>
<path d="M275.033 38.9457C274.922 38.9457 274.812 38.9732 274.687 39.0008C272.529 39.276 270.439 38.6154 268.668 37.3218C267.893 36.7438 267.174 36.0557 266.537 35.2437C265.846 34.3767 265.251 33.3858 264.78 32.2986C264.656 32.0372 264.559 31.7757 264.462 31.5142C264.365 31.2527 264.102 31.0601 263.812 31.0601C262.705 31.0601 261.501 30.3169 260.781 29.0508C259.785 27.3306 260.048 25.3488 261.376 24.5919C262.082 24.1928 262.926 24.2203 263.729 24.5919C264.296 24.8672 264.836 25.2938 265.278 26.2571C265.486 26.7113 265.943 27.0278 266.441 27.0003C266.911 27.0003 267.34 26.7113 267.534 26.2846C268.226 24.7846 268.765 23.5185 268.419 22.0735C268.226 21.3028 268.876 20.5734 269.665 20.711C275.241 21.6331 278.645 21.5918 280.056 20.656C280.416 20.422 280.9 20.5321 281.094 20.9037C281.744 22.0735 282.242 23.3809 282.533 24.7983C282.616 25.1837 282.685 25.5965 282.726 25.9956C283.529 32.3812 280.111 38.0787 275.047 38.9457H275.033Z" fill="white"/>
<path d="M283.819 21.5646C283.972 21.8674 284.055 22.2252 284.055 22.5968C284.055 23.6014 283.418 24.4547 282.519 24.7987C282.228 23.3812 281.744 22.0738 281.08 20.9041C280.886 20.5325 280.402 20.4086 280.042 20.6563C278.631 21.5922 275.227 21.6334 269.651 20.7114C268.862 20.5738 268.212 21.3032 268.405 22.0738C268.751 23.5051 268.212 24.7712 267.52 26.285C267.326 26.7116 266.897 26.9869 266.427 27.0006C265.929 27.0144 265.472 26.7116 265.264 26.2575C264.822 25.2941 264.296 24.8675 263.715 24.5923C262.912 24.2345 262.068 24.2069 261.363 24.5923C260.034 25.3492 259.771 27.3447 260.768 29.0512C261.473 30.3035 262.677 31.0467 263.798 31.0604C264.088 31.0604 264.351 31.2531 264.448 31.5146C264.545 31.776 264.642 32.0375 264.766 32.299C265.237 33.3862 265.832 34.3771 266.524 35.2441C266.081 35.6569 263.424 37.3772 261.639 35.0514C261.39 34.7486 261.224 34.4184 261.155 34.1156C260.92 33.2073 260.449 32.3953 259.675 31.8724C255.731 29.3126 252.563 18.9361 260.394 15.8396C261.252 15.4956 261.902 14.8488 262.373 14.0643C263.272 12.5367 264.946 11.5046 266.856 11.5046C267.132 11.5046 267.423 11.5184 267.686 11.5734C268.239 11.6697 268.793 11.5184 269.291 11.2844C269.969 10.9679 270.716 10.8027 271.505 10.8027C272.487 10.8027 273.414 11.078 274.189 11.5459C274.826 11.9312 275.6 11.9587 276.251 11.6009C277.136 11.0917 278.202 10.8027 279.322 10.8027C282.602 10.8027 285.258 13.2661 285.258 16.3075C285.258 17.5736 284.802 18.7434 284.013 19.6792C283.556 20.216 283.487 20.9453 283.806 21.5784L283.819 21.5646Z" fill="#184A4E"/>
<path d="M324.126 52.4883L321.621 58.3097C321.234 58.406 320.874 58.6399 320.597 58.9978L314.398 67.021C314.398 67.021 314.371 67.0485 314.357 67.0623C311.991 69.9799 309.141 72.2368 306.041 73.8195C304.685 73.7094 303.108 73.5167 301.683 73.2965L305.626 57.828C313.458 61.3924 319.269 58.461 324.126 52.4883Z" fill="white"/>
<path d="M392.395 63.5117C391.994 64.5026 390.638 64.654 390.029 63.7594C388.743 61.8741 386.889 60.3327 384.605 59.4106C378.241 56.8371 370.963 60.0712 368.68 66.5944C366.563 72.6222 369.731 79.4069 375.722 81.7189C377.95 82.5721 380.261 82.7373 382.447 82.2969C383.512 82.0767 384.398 83.1088 383.997 84.1135L375.529 104.88L329.065 86.1227C320.224 82.5584 315.962 72.5259 319.56 63.7319L338.419 17.5191L359.285 25.9414C360.115 26.2717 360.986 25.5148 360.737 24.6616C359.949 21.9504 360.032 18.9641 361.18 16.1429C363.906 9.45452 371.571 6.23421 378.296 8.95909C385.021 11.6702 388.258 19.2944 385.533 25.9827C384.384 28.8039 382.35 31.0058 379.873 32.3958C379.099 32.8362 379.195 33.9922 380.026 34.3225L400.891 42.7448L392.423 63.5117H392.395Z" fill="#F6FFD7"/>
<path d="M392.395 63.5117C391.994 64.5026 390.638 64.654 390.029 63.7594C388.743 61.8741 386.889 60.3327 384.605 59.4106C378.241 56.8371 370.963 60.0712 368.68 66.5944C366.563 72.6222 369.731 79.4069 375.722 81.7189C377.95 82.5721 380.261 82.7373 382.447 82.2969C383.512 82.0767 384.398 83.1088 383.997 84.1135L375.529 104.88L329.065 86.1227C320.224 82.5584 315.962 72.5259 319.56 63.7319L338.419 17.5191L359.285 25.9414C360.115 26.2717 360.986 25.5148 360.737 24.6616C359.949 21.9504 360.032 18.9641 361.18 16.1429C363.906 9.45452 371.571 6.23421 378.296 8.95909C385.021 11.6702 388.258 19.2944 385.533 25.9827C384.384 28.8039 382.35 31.0058 379.873 32.3958C379.099 32.8362 379.195 33.9922 380.026 34.3225L400.891 42.7448L392.423 63.5117H392.395Z" stroke="#184A4E" stroke-linecap="round" stroke-linejoin="round"/>
<path d="M334.765 71.2725C334.641 71.6853 334.35 72.0432 333.949 72.3046L331.472 73.8597L328.663 75.6213L328.553 75.6901C327.183 76.5571 325.827 77.4792 324.568 78.5251C320.016 82.3096 314.91 85.3235 309.514 87.5117C304.034 89.7274 298.264 91.0898 292.522 91.4889C281.481 92.2596 270.494 89.4934 261.694 82.5986L273.276 67.7769C278.464 73.323 285.466 76.3369 292.522 76.6672C297.185 76.8874 301.862 75.9516 306.054 73.8047C309.154 72.2221 312.004 69.9789 314.37 67.0475C314.37 67.0475 314.398 67.0338 314.412 67.0063L320.61 58.983C320.873 58.6252 321.247 58.405 321.634 58.2949C321.98 58.1986 322.354 58.1986 322.7 58.2949C322.921 58.35 323.143 58.4738 323.35 58.6252C324.014 59.1619 324.25 60.0564 323.973 60.8134C323.89 61.0198 323.793 61.1849 323.668 61.3638L321.51 64.0887C320.929 64.8319 321.828 65.7952 322.603 65.2722L329.507 60.8134C330.448 60.2216 331.721 60.4968 332.275 61.4464C332.648 61.9831 332.704 62.6299 332.482 63.1804C332.344 63.5795 332.067 63.9511 331.68 64.2126C331.652 64.2263 331.638 64.2401 331.611 64.2539C332.275 63.8135 333.119 63.841 333.755 64.2401C334.004 64.3915 334.226 64.6117 334.392 64.8731C334.613 65.2172 334.71 65.5888 334.71 65.9466C334.71 66.1805 334.668 66.442 334.585 66.6622L334.475 66.9099C334.323 67.1989 334.073 67.4604 333.783 67.6531L331.915 68.8366C332.482 68.5063 333.146 68.4788 333.7 68.7265C334.06 68.8779 334.378 69.1394 334.599 69.4972C334.931 70.0477 335.001 70.6945 334.779 71.2587L334.765 71.2725Z" fill="white"/>
<path d="M232.361 288.837V292.553H212.354V288.837C219.023 287.653 225.692 287.653 232.361 288.837Z" stroke="#184A4E" stroke-linecap="round" stroke-linejoin="round"/>
<path d="M220.254 281.323C221.707 280.869 223.063 280.869 224.322 281.323" stroke="#184A4E" stroke-linecap="round" stroke-linejoin="round"/>
<path d="M220.254 284.364C221.707 283.91 223.063 283.91 224.322 284.364" stroke="#184A4E" stroke-linecap="round" stroke-linejoin="round"/>
<path d="M229.303 273.975L228.362 280.099" stroke="#184A4E" stroke-linecap="round" stroke-linejoin="round"/>
<path d="M216.353 280.085L217.28 273.975" stroke="#184A4E" stroke-linecap="round" stroke-linejoin="round"/>
<path d="M212.354 288.838L216.352 280.099C220.365 277.305 224.364 277.305 228.362 280.099L232.361 288.838" stroke="#184A4E" stroke-linecap="round" stroke-linejoin="round"/>
<path d="M339.802 292.553V289.085C339.802 287.764 339.013 286.553 337.809 286.016L320.154 278.131C316.625 281.214 312.751 281.957 308.462 280.002C307.922 279.755 307.313 280.126 307.313 280.718V292.553H339.802Z" stroke="#184A4E" stroke-linecap="round" stroke-linejoin="round"/>
<path d="M320.805 281.873L329.715 285.864" stroke="#184A4E" stroke-linecap="round" stroke-linejoin="round"/>
<path d="M307.313 288.947H339.802" stroke="#184A4E" stroke-linecap="round" stroke-linejoin="round"/>
<path d="M333.022 283.869C330.476 284.186 329.217 285.961 329.037 288.947" stroke="#184A4E" stroke-linecap="round" stroke-linejoin="round"/>
<path d="M307.313 273.975L308.241 279.934" stroke="#184A4E" stroke-linecap="round" stroke-linejoin="round"/>
<path d="M320.155 278.131L319.228 273.975" stroke="#184A4E" stroke-linecap="round" stroke-linejoin="round"/>
<path d="M267.16 57.828C275.047 78.9114 301.544 82.8611 314.384 67.0623C314.384 67.0623 314.398 67.0485 314.412 67.021L320.611 58.9978C321.123 58.3509 321.953 58.1032 322.7 58.3234C322.922 58.3785 323.143 58.5023 323.351 58.6537C324.015 59.1904 324.236 60.085 323.973 60.8419C323.89 61.0483 323.793 61.2134 323.683 61.3924L321.524 64.1172C320.943 64.8466 321.842 65.81 322.617 65.3008L329.522 60.8419C330.449 60.2501 331.722 60.5253 332.289 61.4749C332.663 62.0116 332.704 62.6585 332.496 63.2227C332.358 63.6218 332.081 63.9934 331.68 64.2411C331.652 64.2548 331.625 64.2686 331.611 64.2961L323.738 69.2505" stroke="#184A4E" stroke-linecap="round" stroke-linejoin="round"/>
<path d="M325.827 72.6781L331.625 69.0311L331.86 68.8797C331.86 68.8797 331.874 68.8797 331.888 68.8797L333.756 67.6962C334.364 67.3246 334.683 66.6503 334.683 65.9897C334.683 65.6181 334.586 65.2603 334.378 64.9163C334.212 64.6548 333.991 64.4346 333.742 64.2832C333.105 63.8841 332.261 63.8704 331.597 64.297" stroke="#184A4E" stroke-linecap="round" stroke-linejoin="round"/>
<path d="M250.155 68.5899C265.376 97.4076 301.904 97.3663 324.582 78.5398C325.841 77.4939 327.183 76.5719 328.567 75.7048L328.678 75.636L333.963 72.3194C334.365 72.0579 334.655 71.7001 334.78 71.2735C335.001 70.723 334.918 70.0762 334.6 69.5257C334.033 68.6037 332.843 68.3284 331.916 68.8651C331.916 68.8651 331.902 68.8651 331.888 68.8651" stroke="#184A4E" stroke-linecap="round" stroke-linejoin="round"/>
<path d="M292.522 76.6689V61.3242" stroke="#184A4E" stroke-linecap="round" stroke-linejoin="round"/>
<path d="M274.189 43.4336C275.476 43.4336 276.749 43.4886 278.008 43.585C279.378 43.6813 280.748 43.8327 282.076 44.0254C287.168 44.7547 291.886 47.1081 295.622 50.6449C299.289 54.1267 302.61 56.4387 305.626 57.8149C313.458 61.3793 319.269 58.448 324.126 52.4752" stroke="#184A4E" stroke-linecap="round" stroke-linejoin="round"/>
<path d="M292.523 91.4908V102.789L246.364 101.936L245.506 57.2096C246.502 49.09 256.658 44.755 267.976 43.6953" stroke="#184A4E" stroke-linecap="round" stroke-linejoin="round"/>
<path d="M305.626 57.828L301.683 73.2827" stroke="#184A4E" stroke-linecap="round" stroke-linejoin="round"/>
<path d="M261.694 82.5989L273.276 67.791" stroke="#184A4E" stroke-linecap="round" stroke-linejoin="round"/>
<path d="M246.35 101.936L203.691 273.975L239.819 273.961" stroke="#184A4E" stroke-linecap="round" stroke-linejoin="round"/>
<path d="M295.76 273.961L331.749 273.947L292.522 102.803" stroke="#184A4E" stroke-linecap="round" stroke-linejoin="round"/>
<path d="M270.467 164.58L239.819 273.96" stroke="#184A4E" stroke-linecap="round" stroke-linejoin="round"/>
<path d="M270.467 164.58L295.76 273.96" stroke="#184A4E" stroke-linecap="round" stroke-linejoin="round"/>
<path d="M305.861 73.7786C301.738 73.4208 297.255 72.6089 292.522 71.4941" stroke="#184A4E" stroke-linecap="round" stroke-linejoin="round"/>
<path d="M275.033 38.9325L273.788 45.5245C273.456 47.2998 271.588 48.387 269.858 47.7815C268.64 47.3686 267.838 46.2401 267.838 44.974C267.838 44.8777 267.838 44.7538 267.852 44.6437L268.654 37.3086" stroke="#184A4E" stroke-linecap="round" stroke-linejoin="round"/>
<path d="M263.729 24.5782C264.31 24.8397 264.836 25.2801 265.278 26.2434C265.486 26.6976 265.943 27.0004 266.441 26.9866C266.911 26.9866 267.34 26.6976 267.534 26.271C268.226 24.7709 268.765 23.5048 268.419 22.0598C268.239 21.2891 268.876 20.5597 269.665 20.6974C275.227 21.6194 278.631 21.5781 280.056 20.6423C280.416 20.4084 280.886 20.5185 281.094 20.89C281.744 22.0598 282.228 23.3672 282.519 24.7709C282.602 25.17 282.671 25.5691 282.726 25.9682C283.529 32.3538 280.111 38.0513 275.047 38.9183C274.936 38.932 274.826 38.9458 274.701 38.9733C272.556 39.2486 270.453 38.6017 268.682 37.3081C267.049 36.1108 265.693 34.3768 264.78 32.285C264.656 32.0235 264.559 31.762 264.462 31.5005C264.365 31.2253 264.102 31.0326 263.812 31.0326C262.705 31.0326 261.501 30.2895 260.781 29.0371C259.785 27.3306 260.048 25.3352 261.376 24.5782C262.082 24.1791 262.94 24.2067 263.729 24.5782Z" stroke="#184A4E" stroke-linecap="round" stroke-linejoin="round"/>
<path d="M282.519 24.7851C283.418 24.4548 284.055 23.5878 284.055 22.5832C284.055 22.2116 283.972 21.8676 283.82 21.5648C283.515 20.9318 283.584 20.2024 284.027 19.6657C284.802 18.7298 285.272 17.5738 285.272 16.294C285.272 13.2526 282.602 10.7892 279.323 10.7892C278.202 10.7892 277.136 11.0782 276.251 11.5873C275.614 11.9452 274.826 11.9176 274.189 11.5323C273.401 11.0506 272.487 10.7754 271.491 10.7754C270.702 10.7754 269.955 10.9543 269.277 11.2708C268.779 11.5048 268.226 11.6424 267.672 11.5598C267.395 11.5185 267.119 11.491 266.842 11.491C264.933 11.491 263.258 12.5232 262.359 14.0508C261.902 14.8352 261.224 15.482 260.38 15.8261C252.549 18.9225 255.717 29.2991 259.661 31.8588C260.45 32.368 260.92 33.1937 261.141 34.102C261.224 34.4048 261.377 34.7213 261.626 35.0378C263.411 37.3636 266.081 35.6434 266.51 35.2305" stroke="#184A4E" stroke-linecap="round" stroke-linejoin="round"/>
<path d="M279.682 106.16L280.139 113.908C280.222 115.422 279.018 116.702 277.496 116.716" stroke="white" stroke-linecap="round" stroke-linejoin="round"/>
<path d="M276.002 108.334C275.988 108.54 275.795 108.692 275.601 108.664C275.393 108.65 275.241 108.458 275.269 108.265C275.283 108.059 275.476 107.907 275.67 107.935C275.878 107.949 276.03 108.141 276.002 108.334Z" stroke="white" stroke-linecap="round" stroke-linejoin="round"/>
<path d="M252.742 108.375L270.702 108.513" stroke="white" stroke-linecap="round" stroke-linejoin="round"/>
<path d="M283.93 108.266L288.98 108.307" stroke="white" stroke-linecap="round" stroke-linejoin="round"/>
<path d="M278.811 136.395L270.232 170.593" stroke="white" stroke-linecap="round" stroke-linejoin="round"/>
<path d="M488.781 75.1951C509.467 75.1951 526.236 58.516 526.236 37.9413C526.236 17.3666 509.467 0.6875 488.781 0.6875C468.095 0.6875 451.325 17.3666 451.325 37.9413C451.325 58.516 468.095 75.1951 488.781 75.1951Z" fill="#BFFF9B"/>
<path d="M488.781 75.1951C509.467 75.1951 526.236 58.516 526.236 37.9413C526.236 17.3666 509.467 0.6875 488.781 0.6875C468.095 0.6875 451.325 17.3666 451.325 37.9413C451.325 58.516 468.095 75.1951 488.781 75.1951Z" stroke="#184A4E" stroke-linecap="round" stroke-linejoin="round"/>
<path d="M484.145 39.0974L476.369 31.3631L468.247 39.4552L484.145 55.2815L509.328 30.2346L501.192 22.1426L484.145 39.0974Z" fill="white"/>
<path d="M484.145 39.0974L476.369 31.3631L468.247 39.4552L484.145 55.2815L509.328 30.2346L501.192 22.1426L484.145 39.0974Z" fill="url(#paint2_linear_1913_21451)" stroke="#184A4E" stroke-linecap="round" stroke-linejoin="round"/>
<path d="M526.319 164.084C526.319 159.694 528.035 155.551 531.162 152.441L537.721 145.918C538.509 145.133 538.952 144.087 538.952 142.973C538.952 141.858 538.523 140.812 537.721 140.028L531.162 133.504C528.035 130.394 526.319 126.266 526.319 121.862C526.319 117.458 528.035 113.329 531.162 110.219L537.721 103.696C538.509 102.912 538.952 101.866 538.952 100.751C538.952 99.6361 538.523 98.5902 537.721 97.8058L531.162 91.2826C528.755 88.888 528.755 84.9934 531.162 82.585C533.57 80.1904 537.485 80.1904 539.907 82.585L546.465 89.1082C549.592 92.2184 551.308 96.347 551.308 100.751C551.308 105.155 549.592 109.283 546.465 112.394L539.907 118.917C539.118 119.701 538.675 120.747 538.675 121.862C538.675 122.977 539.104 124.022 539.907 124.807L546.465 131.33C549.592 134.44 551.308 138.569 551.308 142.973C551.308 147.377 549.592 151.505 546.465 154.615L539.907 161.139C539.118 161.923 538.675 162.969 538.675 164.084C538.675 165.198 539.104 166.244 539.907 167.029L546.465 173.552C549.592 176.662 551.308 180.791 551.308 185.195C551.308 189.598 549.592 193.727 546.465 196.837L539.907 203.36C537.499 205.755 533.584 205.755 531.162 203.36C528.755 200.966 528.755 197.071 531.162 194.663L537.721 188.14C538.509 187.355 538.952 186.309 538.952 185.195C538.952 184.08 538.523 183.034 537.721 182.25L531.162 175.726C528.035 172.616 526.319 168.488 526.319 164.084Z" fill="#BFFF9B"/>
<path d="M526.319 164.084C526.319 159.694 528.035 155.551 531.162 152.441L537.721 145.918C538.509 145.133 538.952 144.087 538.952 142.973C538.952 141.858 538.523 140.812 537.721 140.028L531.162 133.504C528.035 130.394 526.319 126.266 526.319 121.862C526.319 117.458 528.035 113.329 531.162 110.219L537.721 103.696C538.509 102.912 538.952 101.866 538.952 100.751C538.952 99.6361 538.523 98.5902 537.721 97.8058L531.162 91.2826C528.755 88.888 528.755 84.9934 531.162 82.585C533.57 80.1904 537.485 80.1904 539.907 82.585L546.465 89.1082C549.592 92.2184 551.308 96.347 551.308 100.751C551.308 105.155 549.592 109.283 546.465 112.394L539.907 118.917C539.118 119.701 538.675 120.747 538.675 121.862C538.675 122.977 539.104 124.022 539.907 124.807L546.465 131.33C549.592 134.44 551.308 138.569 551.308 142.973C551.308 147.377 549.592 151.505 546.465 154.615L539.907 161.139C539.118 161.923 538.675 162.969 538.675 164.084C538.675 165.198 539.104 166.244 539.907 167.029L546.465 173.552C549.592 176.662 551.308 180.791 551.308 185.195C551.308 189.598 549.592 193.727 546.465 196.837L539.907 203.36C537.499 205.755 533.584 205.755 531.162 203.36C528.755 200.966 528.755 197.071 531.162 194.663L537.721 188.14C538.509 187.355 538.952 186.309 538.952 185.195C538.952 184.08 538.523 183.034 537.721 182.25L531.162 175.726C528.035 172.616 526.319 168.488 526.319 164.084Z" stroke="#184A4E" stroke-linecap="round" stroke-linejoin="round"/>
<path d="M216.353 344.229C216.353 328.871 228.875 316.416 244.316 316.416C259.758 316.416 272.28 328.871 272.28 344.229H216.353Z" fill="url(#paint3_linear_1913_21451)"/>
<path d="M216.353 344.229C216.353 328.871 228.875 316.416 244.316 316.416C259.758 316.416 272.28 328.871 272.28 344.229" stroke="#184A4E" stroke-linecap="round" stroke-linejoin="round"/>
<path d="M260.754 344.229C260.754 336.44 267.105 330.123 274.936 330.123C282.768 330.123 289.119 336.44 289.119 344.229H260.754Z" fill="url(#paint4_linear_1913_21451)"/>
<path d="M260.754 344.229C260.754 336.44 267.105 330.123 274.936 330.123C282.768 330.123 289.119 336.44 289.119 344.229" stroke="#184A4E" stroke-linecap="round" stroke-linejoin="round"/>
<path d="M404.364 316.664C397.93 310.994 383.816 316.375 372.83 328.705C372.609 328.953 372.387 329.215 372.166 329.462C371.087 315.026 364.597 303.92 356.752 303.92C348.907 303.92 342.417 315.026 341.338 329.462C341.117 329.215 340.895 328.967 340.674 328.705C329.688 316.388 315.574 310.994 309.14 316.664C303.633 321.508 305.529 332.903 313.07 343.802H400.434C407.961 332.903 409.871 321.508 404.364 316.664Z" fill="#BFFF9B"/>
<path d="M372.166 329.091C371.087 314.655 364.597 303.549 356.752 303.549C348.907 303.549 342.417 314.655 341.338 329.091C341.227 330.481 341.172 331.912 341.172 333.371C341.172 336.908 341.49 340.293 342.085 343.445" stroke="#184A4E" stroke-linecap="round" stroke-linejoin="round"/>
<path d="M356.752 312.012V323.861V332.889V340.306" stroke="#184A4E" stroke-linecap="round" stroke-linejoin="round"/>
<path d="M362.702 317.943L356.752 323.861L350.803 317.943" stroke="#184A4E" stroke-linecap="round" stroke-linejoin="round"/>
<path d="M362.702 326.973L356.752 332.89L350.803 326.973" stroke="#184A4E" stroke-linecap="round" stroke-linejoin="round"/>
<path d="M341.338 329.092L340.674 328.335C329.688 316.018 315.574 310.623 309.14 316.293C303.633 321.138 305.543 332.533 313.07 343.432" stroke="#184A4E" stroke-linecap="round" stroke-linejoin="round"/>
<path d="M314.786 322.637L322.673 331.486L322.687 331.499L328.706 338.257L330.532 340.307" stroke="#184A4E" stroke-linecap="round" stroke-linejoin="round"/>
<path d="M322.064 321.865L321.566 330.219L313.153 329.723" stroke="#184A4E" stroke-linecap="round" stroke-linejoin="round"/>
<path d="M327.778 328.307L327.266 336.66L318.867 336.151" stroke="#184A4E" stroke-linecap="round" stroke-linejoin="round"/>
<path d="M398.733 322.637L390.832 331.486V331.499L384.813 338.257H384.799L382.973 340.307" stroke="#184A4E" stroke-linecap="round" stroke-linejoin="round"/>
<path d="M391.44 321.865L391.939 330.219L400.351 329.723" stroke="#184A4E" stroke-linecap="round" stroke-linejoin="round"/>
<path d="M385.739 328.307L386.237 336.66L394.65 336.151" stroke="#184A4E" stroke-linecap="round" stroke-linejoin="round"/>
<path d="M363.353 343.446C365.137 338.781 368.126 333.785 372.166 329.092C372.388 328.844 372.609 328.597 372.831 328.335C383.817 316.018 397.93 310.623 404.364 316.293C409.871 321.138 407.962 332.533 400.435 343.432" stroke="#184A4E" stroke-linecap="round" stroke-linejoin="round"/>
<path d="M241.245 19.7628C231.711 21.5106 226.052 27.5934 223.686 37.3507C223.658 37.447 223.534 37.447 223.506 37.3507C221.154 27.5934 215.495 21.5244 205.948 19.7628C205.851 19.7491 205.851 19.6115 205.948 19.5839C215.481 17.8362 221.14 11.7533 223.506 1.99608C223.534 1.89974 223.658 1.89974 223.686 1.99608C226.038 11.7533 231.698 17.8224 241.245 19.5839C241.342 19.5977 241.342 19.7353 241.245 19.7628Z" fill="url(#paint5_linear_1913_21451)"/>
<path d="M241.245 19.7628C231.711 21.5106 226.052 27.5934 223.686 37.3507C223.658 37.447 223.534 37.447 223.506 37.3507C221.154 27.5934 215.495 21.5244 205.948 19.7628C205.851 19.7491 205.851 19.6115 205.948 19.5839C215.481 17.8362 221.14 11.7533 223.506 1.99608C223.534 1.89974 223.658 1.89974 223.686 1.99608C226.038 11.7533 231.698 17.8224 241.245 19.5839C241.342 19.5977 241.342 19.7353 241.245 19.7628Z" stroke="#184A4E" stroke-linecap="round" stroke-linejoin="round"/>
<path d="M405.25 257.515C394.208 259.786 387.539 266.956 384.647 278.324C384.578 278.585 384.232 278.585 384.163 278.324C381.271 266.956 374.602 259.786 363.56 257.515C363.283 257.46 363.283 257.075 363.56 257.02C374.602 254.749 381.271 247.579 384.163 236.212C384.232 235.95 384.578 235.95 384.647 236.212C387.539 247.579 394.208 254.749 405.25 257.02C405.526 257.075 405.526 257.46 405.25 257.515Z" fill="url(#paint6_linear_1913_21451)"/>
<path d="M405.25 257.515C394.208 259.786 387.539 266.956 384.647 278.324C384.578 278.585 384.232 278.585 384.163 278.324C381.271 266.956 374.602 259.786 363.56 257.515C363.283 257.46 363.283 257.075 363.56 257.02C374.602 254.749 381.271 247.579 384.163 236.212C384.232 235.95 384.578 235.95 384.647 236.212C387.539 247.579 394.208 254.749 405.25 257.02C405.526 257.075 405.526 257.46 405.25 257.515Z" stroke="#184A4E" stroke-linecap="round" stroke-linejoin="round"/>
<path d="M550.16 344.312H204.245" stroke="#184A4E" stroke-linecap="round" stroke-linejoin="round"/>
<path d="M421.037 1.04688V4.37728" stroke="#184A4E" stroke-linecap="round" stroke-linejoin="round"/>
<path d="M421.037 12.084V15.4006" stroke="#184A4E" stroke-linecap="round" stroke-linejoin="round"/>
<path d="M413.814 8.23047H417.163" stroke="#184A4E" stroke-linecap="round" stroke-linejoin="round"/>
<path d="M424.911 8.23047H428.26" stroke="#184A4E" stroke-linecap="round" stroke-linejoin="round"/>
<path d="M496.944 95.6738V100.174" stroke="#184A4E" stroke-linecap="round" stroke-linejoin="round"/>
<path d="M496.944 110.578V115.078" stroke="#184A4E" stroke-linecap="round" stroke-linejoin="round"/>
<path d="M487.189 105.375H491.714" stroke="#184A4E" stroke-linecap="round" stroke-linejoin="round"/>
<path d="M502.188 105.375H506.699" stroke="#184A4E" stroke-linecap="round" stroke-linejoin="round"/>
<path d="M216.353 100.146V103.917" stroke="#184A4E" stroke-linecap="round" stroke-linejoin="round"/>
<path d="M216.353 112.629V116.386" stroke="#184A4E" stroke-linecap="round" stroke-linejoin="round"/>
<path d="M208.175 108.266H211.966" stroke="#184A4E" stroke-linecap="round" stroke-linejoin="round"/>
<path d="M220.725 108.266H224.516" stroke="#184A4E" stroke-linecap="round" stroke-linejoin="round"/>
<path d="M402.8 279.617V282.507" stroke="#184A4E" stroke-linecap="round" stroke-linejoin="round"/>
<path d="M402.8 289.209V292.099" stroke="#184A4E" stroke-linecap="round" stroke-linejoin="round"/>
<path d="M396.532 285.865H399.438" stroke="#184A4E" stroke-linecap="round" stroke-linejoin="round"/>
<path d="M406.162 285.865H409.082" stroke="#184A4E" stroke-linecap="round" stroke-linejoin="round"/>
<path d="M534.386 223.537V227.308" stroke="#184A4E" stroke-linecap="round" stroke-linejoin="round"/>
<path d="M534.386 236.02V239.79" stroke="#184A4E" stroke-linecap="round" stroke-linejoin="round"/>
<path d="M526.223 231.67H530.014" stroke="#184A4E" stroke-linecap="round" stroke-linejoin="round"/>
<path d="M538.772 231.67H542.55" stroke="#184A4E" stroke-linecap="round" stroke-linejoin="round"/>
</g>
<defs>
<linearGradient id="paint0_linear_1913_21451" x1="134.711" y1="161.266" x2="124.487" y2="128.5" gradientUnits="userSpaceOnUse">
<stop stop-color="#CDA5D5"/>
<stop offset="0.5" stop-color="#F1E4FF"/>
<stop offset="1" stop-color="#E8FE74"/>
</linearGradient>
<linearGradient id="paint1_linear_1913_21451" x1="123.994" y1="166.816" x2="113.77" y2="134.051" gradientUnits="userSpaceOnUse">
<stop stop-color="#CDA5D5"/>
<stop offset="0.5" stop-color="#F1E4FF"/>
<stop offset="1" stop-color="#E8FE74"/>
</linearGradient>
<linearGradient id="paint2_linear_1913_21451" x1="496.768" y1="44.3457" x2="466.865" y2="38.5485" gradientUnits="userSpaceOnUse">
<stop stop-color="#CDA5D5"/>
<stop offset="0.5" stop-color="#F1E4FF"/>
<stop offset="1" stop-color="#E8FE74"/>
</linearGradient>
<linearGradient id="paint3_linear_1913_21451" x1="255.181" y1="335.051" x2="216.743" y2="322.963" gradientUnits="userSpaceOnUse">
<stop stop-color="#CDA5D5"/>
<stop offset="0.5" stop-color="#F1E4FF"/>
<stop offset="1" stop-color="#E8FE74"/>
</linearGradient>
<linearGradient id="paint4_linear_1913_21451" x1="280.447" y1="339.574" x2="260.952" y2="333.444" gradientUnits="userSpaceOnUse">
<stop stop-color="#CDA5D5"/>
<stop offset="0.5" stop-color="#F1E4FF"/>
<stop offset="1" stop-color="#E8FE74"/>
</linearGradient>
<linearGradient id="paint5_linear_1913_21451" x1="230.482" y1="25.7082" x2="204.35" y2="21.6281" gradientUnits="userSpaceOnUse">
<stop stop-color="#CDA5D5"/>
<stop offset="0.5" stop-color="#F1E4FF"/>
<stop offset="1" stop-color="#E8FE74"/>
</linearGradient>
<linearGradient id="paint6_linear_1913_21451" x1="392.584" y1="264.493" x2="361.53" y2="259.682" gradientUnits="userSpaceOnUse">
<stop stop-color="#CDA5D5"/>
<stop offset="0.5" stop-color="#F1E4FF"/>
<stop offset="1" stop-color="#E8FE74"/>
</linearGradient>
<clipPath id="clip0_1913_21451">
<rect width="349" height="345" fill="white" transform="translate(203)"/>
</clipPath>
</defs>
</svg>
