<svg width="349" height="345" viewBox="0 0 349 345" fill="none" xmlns="http://www.w3.org/2000/svg">
<g clip-path="url(#clip0_561_10104)">
<path d="M339.716 344.312H29.8316C25.57 326.917 25.819 308.434 30.7587 291.218C37.8845 266.391 54.696 244.468 76.8898 231.092C98.4611 218.073 126.605 211.109 137.702 188.567C143.804 176.181 143.139 161.58 140.732 147.997C138.324 134.414 134.312 120.982 134.159 107.192C133.758 71.1909 162.441 37.873 197.725 29.8498C233.008 21.8128 271.778 37.8042 293.585 66.5393C315.391 95.2744 320.594 134.84 310.092 169.3C305.027 185.884 296.532 201.875 296.283 219.201C296.034 237.78 305.318 255.079 315.225 270.836C325.118 286.594 336.118 302.324 339.965 320.504C341.597 328.224 341.556 336.564 339.716 344.312Z" fill="#5D8083"/>
<path d="M179.682 292.553H1.24512V344.326H179.682V292.553Z" fill="#F6FFD7"/>
<path d="M74.6818 83.3808C95.3071 68.4271 99.8392 39.6748 84.8045 19.1607C69.7698 -1.35345 40.8617 -5.86109 20.2364 9.09258C-0.388813 24.0462 -4.92087 52.7986 10.1138 73.3127C25.1485 93.8268 54.0566 98.3344 74.6818 83.3808Z" fill="#5D8083"/>
<path d="M1.24512 344.312V292.553H179.682V311.503" stroke="#184A4E" stroke-linecap="round" stroke-linejoin="round"/>
<path d="M218.895 93.912L221.316 97.1461L222.783 99.1003C223.834 100.49 225.91 100.655 227.155 99.403C228.027 98.5498 228.248 97.2149 227.708 96.1139C227.667 96.0313 227.612 95.935 227.556 95.8524L226.657 94.435L223.737 89.8384C222.741 91.7101 221.205 93.1551 219.227 93.8294C219.13 93.8707 219.033 93.8982 218.922 93.9258L218.895 93.912Z" fill="white"/>
<path d="M200.589 80.2601C201.571 82.2694 203.923 83.1776 205.985 82.4207C208.24 81.0858 209.79 79.4481 210.606 77.5077C210.883 76.8746 211.589 76.5168 212.211 76.7921C213.305 77.2737 214.688 77.1499 216.279 76.6132C217.165 76.3104 218.134 76.737 218.549 77.5627L219.13 78.7188C219.42 79.3243 220.126 79.5995 220.763 79.3518C221.316 79.1454 221.717 78.6499 221.883 78.0719C222.035 77.549 222.271 77.0811 222.575 76.7095C223.115 76.0489 223.848 75.6636 224.623 75.7324C226.09 75.8287 227.169 77.4389 227.044 79.338C226.947 80.7418 226.214 81.8978 225.246 82.3657C224.996 82.4895 224.872 82.751 224.9 83.0263C225.149 85.242 224.83 87.3751 224.056 89.1641C225.398 90.1688 227.335 90.1412 228.649 88.9852C230.171 87.6503 230.324 85.352 228.995 83.8382C228.981 83.8245 228.954 83.8107 228.926 83.7969C229.161 83.6731 229.369 83.5217 229.563 83.3428C231.085 82.0079 231.237 79.7096 229.908 78.1958C229.77 78.0307 229.604 77.893 229.438 77.7554C230.268 76.448 230.185 74.6865 229.092 73.4617C228.428 72.7185 227.542 72.2919 226.615 72.2368C226.685 71.2873 226.38 70.3102 225.702 69.5257C224.803 68.5211 223.474 68.122 222.229 68.3422C222.049 67.888 221.814 67.4614 221.468 67.0761C219.891 65.2733 217.137 65.0944 215.325 66.6632C215.228 66.7458 215.173 66.8421 215.076 66.9247C213.471 65.2733 210.842 65.1219 209.084 66.6632C208.379 67.2688 207.936 68.0532 207.728 68.8927C206.566 68.6312 205.307 68.8239 204.255 69.5808C202.65 70.7093 202.083 72.7048 202.664 74.4525C202.65 74.4525 202.623 74.4525 202.609 74.4663C200.437 75.526 199.551 78.1132 200.616 80.2739L200.589 80.2601Z" fill="#F6FFD7"/>
<path d="M205.985 82.4207C206.068 83.5767 206.317 84.7603 206.705 85.93C208.725 91.8064 214.121 95.302 218.881 93.912C218.992 93.8845 219.088 93.8432 219.185 93.8157C221.164 93.1413 222.7 91.7101 223.696 89.8247C223.807 89.6183 223.917 89.3843 224.028 89.1641C224.803 87.3751 225.121 85.2282 224.872 83.0263C224.844 82.751 224.969 82.4895 225.218 82.3657C226.2 81.8978 226.934 80.7418 227.017 79.338C227.141 77.4389 226.062 75.8287 224.595 75.7324C223.821 75.6636 223.087 76.0489 222.548 76.7095C222.243 77.0811 222.008 77.549 221.856 78.0719C221.69 78.6499 221.302 79.1316 220.735 79.3518C220.098 79.5995 219.393 79.3243 219.102 78.7187L218.521 77.5627C218.106 76.737 217.137 76.3104 216.252 76.6132C214.661 77.1361 213.277 77.2737 212.184 76.7921C211.547 76.5306 210.856 76.8884 210.579 77.5077C209.763 79.4619 208.213 81.0996 205.958 82.4207H205.985Z" fill="white"/>
<path d="M179.682 156.006L180.969 157.327L189.713 166.355L190.696 167.36C202.028 159.598 211.741 148.602 220.237 135.115L225.246 148.355C220.14 157.19 213.692 164.952 204.92 171.488L206.207 172.823L214.951 181.851L215.92 182.856C218.853 180.847 221.69 178.617 224.429 176.181C225.481 175.232 226.519 174.268 227.543 173.264C228.553 172.259 229.563 171.255 230.545 170.195C231.085 169.617 231.638 169.025 232.164 168.433C232.635 167.91 233.091 167.387 233.548 166.851C234.087 166.245 234.613 165.612 235.139 164.979C235.554 164.484 235.955 163.974 236.357 163.465C236.481 163.314 236.592 163.176 236.716 163.025C236.993 162.667 237.284 162.309 237.547 161.951C238.266 161.029 238.958 160.107 239.65 159.171C239.899 158.841 240.148 158.511 240.369 158.167C241.531 156.57 242.652 154.933 243.759 153.254C244.077 152.786 244.382 152.332 244.672 151.864C245.046 151.313 245.392 150.749 245.752 150.171C246.042 149.717 246.333 149.249 246.609 148.795C247.135 147.955 247.647 147.116 248.145 146.249L278.641 137.579L262.3 104.949C256.904 94.1597 244.479 88.7512 232.856 92.178C230.67 92.8248 228.594 93.5679 226.629 94.4212L227.529 95.8387C227.584 95.935 227.64 96.0176 227.681 96.1001C228.221 97.2011 228.013 98.5222 227.128 99.3893C225.882 100.642 223.807 100.49 222.755 99.0865L221.289 97.1323C218.397 98.8801 215.865 100.944 213.72 103.339C212.101 105.156 210.953 107.344 210.164 109.642C203.744 128.441 195.47 144.198 179.654 156.006H179.682Z" fill="#BFFF9B"/>
<path d="M224.429 176.181L225.246 325.733H261.041L264.348 213.518L306.148 325.733H347.146L278.641 137.579L248.145 146.249C241.158 158.084 233.34 168.227 224.429 176.181Z" fill="#184A4E"/>
<path d="M317.37 340.637C323.984 339.468 330.597 339.468 337.211 340.637L333.254 331.967C329.283 329.201 325.312 329.201 321.341 331.967L317.37 340.637Z" fill="white"/>
<path d="M319.486 325.898L321.34 331.967C322.987 331.362 325.062 331.004 327.29 331.004C329.518 331.004 331.607 331.362 333.254 331.967L331.4 325.912H319.486V325.898Z" fill="white"/>
<path d="M317.37 340.637V344.312H337.211V340.637C330.597 339.468 323.984 339.468 317.37 340.637Z" fill="#184A4E"/>
<path d="M246.499 325.733V331.692C246.43 331.692 246.36 331.72 246.277 331.761C241.988 333.715 238.114 332.972 234.585 329.889V325.733H246.499Z" fill="white"/>
<path d="M214.951 344.312V340.844C214.951 339.523 215.74 338.312 216.944 337.775L234.599 329.889C238.127 332.972 242.002 333.715 246.291 331.761C246.831 331.513 247.439 331.885 247.439 332.477V344.312H214.951Z" fill="white"/>
<path d="M247.439 340.72H214.951V344.326H247.439V340.72Z" fill="#184A4E"/>
<path d="M136.498 182.553C136.899 183.544 138.255 183.695 138.864 182.801C140.15 180.915 142.005 179.374 144.288 178.452C150.652 175.879 157.93 179.113 160.214 185.636C162.33 191.664 159.162 198.448 153.171 200.76C150.943 201.614 148.632 201.779 146.446 201.338C145.381 201.118 144.495 202.15 144.896 203.155L153.364 223.922L199.828 205.164C208.669 201.6 212.931 191.567 209.333 182.773L190.474 136.561L169.609 144.983C168.778 145.313 167.907 144.556 168.156 143.703C168.944 140.992 168.861 138.006 167.713 135.184C164.987 128.496 157.322 125.276 150.597 128.001C143.872 130.712 140.635 138.336 143.361 145.024C144.509 147.845 146.543 150.047 149.02 151.437C149.795 151.878 149.698 153.034 148.868 153.364L128.002 161.786L136.47 182.553H136.498Z" fill="#BFFF9B"/>
<path d="M136.498 182.553C136.899 183.544 138.255 183.695 138.864 182.801C140.15 180.915 142.005 179.374 144.288 178.452C150.652 175.879 157.93 179.113 160.214 185.636C162.33 191.664 159.162 198.448 153.171 200.76C150.943 201.614 148.632 201.779 146.446 201.338C145.381 201.118 144.495 202.15 144.896 203.155L153.364 223.922L199.828 205.164C208.669 201.6 212.931 191.567 209.333 182.773L190.474 136.561L169.609 144.983C168.778 145.313 167.907 144.556 168.156 143.703C168.944 140.992 168.861 138.006 167.713 135.184C164.987 128.496 157.322 125.276 150.597 128.001C143.872 130.712 140.635 138.336 143.361 145.024C144.509 147.845 146.543 150.047 149.02 151.437C149.795 151.878 149.698 153.034 148.868 153.364L128.002 161.786L136.47 182.553H136.498Z" stroke="#184A4E" stroke-linecap="round" stroke-linejoin="round"/>
<path d="M202.692 179.759L197.766 184.783C197.116 185.471 197.13 186.585 197.821 187.218C198.209 187.618 198.748 187.769 199.247 187.686C199.606 187.645 199.966 187.466 200.257 187.177C199.634 187.865 199.675 188.925 200.34 189.558C200.672 189.875 201.101 190.026 201.53 190.026C201.986 190.026 202.443 189.847 202.789 189.503L204.103 188.141C203.494 188.829 203.522 189.875 204.186 190.508C204.601 190.879 205.141 191.044 205.625 190.962C206.013 190.92 206.345 190.728 206.649 190.453L212.184 184.659L214.951 181.865L206.206 172.837C205.999 172.947 205.777 173.071 205.542 173.167L202.872 174.489L200.215 175.796L199.44 176.181L197.738 177.007C196.908 177.42 196.576 178.411 196.991 179.237C197.185 179.622 197.489 179.87 197.849 180.035C198.112 180.145 198.43 180.186 198.735 180.145C198.915 180.117 199.067 180.062 199.247 179.98L201.903 178.645C202.609 178.273 203.273 179.195 202.706 179.759H202.692Z" fill="white"/>
<path d="M317.37 340.637V344.312H337.211V340.637C330.597 339.468 323.984 339.468 317.37 340.637Z" stroke="#184A4E" stroke-linecap="round" stroke-linejoin="round"/>
<path d="M329.38 333.178C327.941 332.724 326.599 332.724 325.354 333.178" stroke="#184A4E" stroke-linecap="round" stroke-linejoin="round"/>
<path d="M329.38 336.206C327.941 335.752 326.599 335.752 325.354 336.206" stroke="#184A4E" stroke-linecap="round" stroke-linejoin="round"/>
<path d="M319.486 325.898L321.34 331.967" stroke="#184A4E" stroke-linecap="round" stroke-linejoin="round"/>
<path d="M333.254 331.967L331.386 325.898" stroke="#184A4E" stroke-linecap="round" stroke-linejoin="round"/>
<path d="M337.211 340.637L333.254 331.967C329.283 329.201 325.312 329.201 321.341 331.967L317.37 340.637" stroke="#184A4E" stroke-linecap="round" stroke-linejoin="round"/>
<path d="M214.951 344.312V340.844C214.951 339.523 215.74 338.312 216.944 337.775L234.599 329.889C238.127 332.972 242.002 333.715 246.291 331.761C246.831 331.513 247.439 331.885 247.439 332.477V344.312H214.951Z" stroke="#184A4E" stroke-linecap="round" stroke-linejoin="round"/>
<path d="M233.935 333.646L225.024 337.624" stroke="#184A4E" stroke-linecap="round" stroke-linejoin="round"/>
<path d="M247.439 340.72H214.951" stroke="#184A4E" stroke-linecap="round" stroke-linejoin="round"/>
<path d="M221.731 335.642C224.277 335.958 225.536 337.734 225.716 340.72" stroke="#184A4E" stroke-linecap="round" stroke-linejoin="round"/>
<path d="M246.499 325.733V331.706" stroke="#184A4E" stroke-linecap="round" stroke-linejoin="round"/>
<path d="M234.599 329.889L234.585 325.733" stroke="#184A4E" stroke-linecap="round" stroke-linejoin="round"/>
<path d="M218.881 93.8983L222.769 99.0865C223.821 100.49 225.896 100.642 227.141 99.3893C228.027 98.5223 228.234 97.2011 227.695 96.1002C227.653 96.0176 227.598 95.9213 227.543 95.8249L223.724 89.7972" stroke="#184A4E" stroke-linecap="round" stroke-linejoin="round"/>
<path d="M205.985 82.4207C203.91 83.1639 201.571 82.2694 200.575 80.2463C199.523 78.0995 200.409 75.4984 202.581 74.4388C202.595 74.4388 202.623 74.4388 202.637 74.425C202.055 72.6772 202.637 70.6817 204.228 69.5533C205.279 68.7963 206.538 68.6037 207.701 68.8652C207.908 68.0394 208.351 67.2412 209.057 66.6357C210.814 65.0944 213.457 65.2457 215.062 66.9109C215.145 66.8284 215.228 66.7183 215.311 66.6495C217.123 65.0668 219.877 65.2457 221.454 67.0486C221.8 67.4339 222.049 67.8605 222.215 68.3147C223.461 68.0945 224.789 68.4936 225.674 69.4982C226.352 70.2689 226.657 71.246 226.588 72.1956C227.515 72.2644 228.4 72.6772 229.064 73.4341C230.158 74.659 230.241 76.4205 229.41 77.7417C229.576 77.8793 229.742 78.0169 229.881 78.182C231.223 79.6959 231.071 81.9941 229.549 83.329C229.355 83.5079 229.134 83.6456 228.898 83.7694C228.926 83.7969 228.94 83.7969 228.968 83.8245C230.296 85.3383 230.144 87.6503 228.622 88.9715C227.293 90.1137 225.384 90.155 224.028 89.1366" stroke="#184A4E" stroke-linecap="round" stroke-linejoin="round"/>
<path d="M222.575 76.7095C222.271 77.081 222.036 77.5489 221.884 78.0719C221.718 78.6499 221.33 79.1316 220.763 79.3518C220.14 79.5995 219.435 79.3242 219.13 78.7187L218.563 77.5627C218.148 76.7232 217.179 76.3104 216.294 76.5994C214.702 77.1361 213.319 77.2599 212.212 76.7783C211.589 76.503 210.884 76.8608 210.607 77.5076C209.79 79.4619 208.241 81.0995 205.985 82.4207C206.068 83.5767 206.304 84.7602 206.705 85.93C208.739 91.7926 214.121 95.3019 218.881 93.912C218.992 93.8844 219.089 93.8569 219.199 93.8156C221.178 93.1413 222.714 91.6963 223.71 89.8246C223.821 89.6182 223.945 89.398 224.028 89.1641C224.817 87.375 225.135 85.2419 224.872 83.0262C224.845 82.751 224.969 82.4895 225.218 82.3656C226.187 81.8977 226.934 80.7417 227.017 79.3518C227.141 77.4526 226.062 75.8287 224.609 75.7461C223.835 75.6911 223.101 76.0764 222.562 76.7232" stroke="#184A4E" stroke-linecap="round" stroke-linejoin="round"/>
<path d="M241.434 105.376C233.686 133.024 225.993 155.772 204.906 171.502L215.92 182.856C234.558 170.098 248.837 148.547 260.487 121.697C260.985 120.541 262.355 120.046 263.476 120.61" stroke="#184A4E" stroke-linecap="round" stroke-linejoin="round"/>
<path d="M225.232 148.368L215.436 122.399" stroke="#184A4E" stroke-linecap="round" stroke-linejoin="round"/>
<path d="M261.027 325.733H225.246L224.429 176.168" stroke="#184A4E" stroke-linecap="round" stroke-linejoin="round"/>
<path d="M278.627 137.579L347.146 325.733H306.148L264.348 213.531" stroke="#184A4E" stroke-linecap="round" stroke-linejoin="round"/>
<path d="M261.027 325.747L264.348 213.518" stroke="#184A4E" stroke-linecap="round" stroke-linejoin="round"/>
<path d="M205.819 181.356L200.298 187.108C200.298 187.108 200.257 187.15 200.257 187.163C199.98 187.439 199.62 187.631 199.261 187.673C198.749 187.755 198.209 187.604 197.835 187.205C197.144 186.558 197.13 185.443 197.78 184.755L202.706 179.746C203.273 179.181 202.609 178.259 201.903 178.631L199.247 179.966C199.081 180.048 198.915 180.104 198.735 180.131C198.43 180.172 198.112 180.131 197.849 180.021C197.489 179.87 197.185 179.608 196.991 179.223C196.576 178.397 196.922 177.406 197.752 176.993L199.454 176.154L200.229 175.768L202.9 174.461L205.57 173.14C205.791 173.044 206.013 172.92 206.22 172.81" stroke="#184A4E" stroke-linecap="round" stroke-linejoin="round"/>
<path d="M200.298 187.122C199.634 187.81 199.648 188.897 200.34 189.558C201.032 190.219 202.125 190.191 202.775 189.503L208.324 183.709" stroke="#184A4E" stroke-linecap="round" stroke-linejoin="round"/>
<path d="M204.09 188.127C204.09 188.127 204.09 188.127 204.09 188.141C203.481 188.829 203.508 189.875 204.186 190.508C204.602 190.865 205.127 191.044 205.625 190.962C206.013 190.92 206.359 190.728 206.649 190.439L212.198 184.645L214.965 181.851" stroke="#184A4E" stroke-linecap="round" stroke-linejoin="round"/>
<path d="M226.629 94.4074C228.58 93.5679 230.67 92.8248 232.856 92.178C244.479 88.7512 256.904 94.1597 262.3 104.949L278.641 137.579L248.145 146.249" stroke="#184A4E" stroke-linecap="round" stroke-linejoin="round"/>
<path d="M193.117 142.974C200.769 133.409 205.888 122.207 210.192 109.642C210.966 107.33 212.115 105.156 213.734 103.339C215.892 100.931 218.41 98.8801 221.302 97.1323" stroke="#184A4E" stroke-linecap="round" stroke-linejoin="round"/>
<path d="M200.021 159.915C207.479 153.102 214.162 144.735 220.237 135.102" stroke="#184A4E" stroke-linecap="round" stroke-linejoin="round"/>
<path d="M275.694 145.451L251.895 152.235" stroke="white" stroke-linecap="round" stroke-linejoin="round"/>
<path d="M265.496 220.674L253.625 186.874" stroke="white" stroke-linecap="round" stroke-linejoin="round"/>
<path d="M102.626 57.828L98.6825 73.2965C95.763 72.8699 92.6913 72.2643 89.5089 71.5074V76.682C82.4522 76.3517 75.4509 73.3378 70.2622 67.7917L58.681 82.6134C67.481 89.5082 78.4535 92.2743 89.5089 91.5036V102.802L43.3501 101.935L42.4922 57.2087C43.4884 49.0891 53.6445 44.7541 64.9628 43.6944L64.8659 44.6577C64.8659 44.7266 64.8659 44.7816 64.8659 44.8504V44.8917C64.8659 44.8917 64.8659 44.9605 64.8659 44.988C64.8659 46.2541 65.6685 47.3964 66.8861 47.7955C68.0068 48.1808 69.1691 47.8643 69.9578 47.1211C70.027 47.0661 70.0823 47.011 70.1377 46.9422C70.193 46.8734 70.2484 46.8184 70.3037 46.7358C70.3452 46.667 70.4006 46.5982 70.4421 46.5294C70.5389 46.378 70.6081 46.2266 70.6773 46.0615C70.705 45.9789 70.7326 45.8963 70.7603 45.8C70.788 45.7174 70.8018 45.6211 70.8295 45.5385L71.2169 43.4329C72.5037 43.4329 73.7767 43.488 75.0358 43.5843C76.4056 43.6806 77.7755 43.832 79.1038 44.0247C84.1956 44.7541 88.9139 47.1074 92.6498 50.6442C96.3165 54.126 99.6373 56.438 102.654 57.8142L102.626 57.828Z" fill="#BFFF9B"/>
<path d="M0.691895 273.974L36.8192 273.96L67.4672 164.58L92.7605 273.96L128.749 273.947L89.5227 102.802L43.3639 101.935L0.691895 273.974Z" fill="#184A4E"/>
<path d="M29.3612 288.837C22.692 287.654 16.0227 287.654 9.35352 288.837L13.3523 280.098C17.3511 277.305 21.3637 277.305 25.3624 280.098L29.3612 288.837Z" fill="white"/>
<path d="M26.3036 273.974L25.3627 280.098C23.7023 279.479 21.613 279.121 19.3576 279.121C17.1023 279.121 15.0129 279.479 13.3525 280.098L14.2934 273.988H26.3036V273.974Z" fill="white"/>
<path d="M29.3612 288.837V292.553H9.35352V288.837C16.0227 287.654 22.692 287.654 29.3612 288.837Z" fill="#184A4E"/>
<path d="M104.314 273.974L105.241 279.933C105.31 279.933 105.379 279.961 105.462 280.002C109.752 281.956 113.626 281.213 117.154 278.13L116.227 273.974H104.314Z" fill="white"/>
<path d="M136.802 292.553V289.085C136.802 287.764 136.014 286.553 134.81 286.016L117.154 278.13C113.626 281.213 109.752 281.956 105.462 280.002C104.923 279.754 104.314 280.126 104.314 280.718V292.553H136.802Z" fill="white"/>
<path d="M104.314 292.539H136.802V288.934H104.314V292.539Z" fill="#184A4E"/>
<path d="M72.0332 38.9465L70.9955 44.4513L70.8018 45.5247C70.4697 47.3138 68.6018 48.3872 66.8722 47.7817C65.6546 47.3688 64.8521 46.2404 64.8521 44.9743C64.8521 44.9192 64.8521 44.8504 64.8521 44.7816C64.8521 44.7403 64.8521 44.6852 64.8521 44.6577L65.6407 37.3226C67.4118 38.6162 69.5011 39.263 71.6596 39.0015C71.7842 38.9878 71.8949 38.9602 72.0056 38.9465H72.0332Z" fill="white"/>
<path d="M72.0332 38.9465C71.9225 38.9465 71.8118 38.974 71.6872 39.0015C69.5287 39.2768 67.4394 38.6162 65.6683 37.3226C64.8935 36.7446 64.174 36.0565 63.5375 35.2445C62.8457 34.3775 62.2507 33.3866 61.7803 32.2994C61.6557 32.038 61.5589 31.7765 61.462 31.515C61.3652 31.2535 61.1023 31.0609 60.8117 31.0609C59.7048 31.0609 58.501 30.3177 57.7815 29.0516C56.7852 27.3314 57.0481 25.3496 58.3765 24.5927C59.0821 24.1936 59.9262 24.2211 60.7287 24.5927C61.296 24.868 61.8356 25.2946 62.2784 26.2579C62.4859 26.7121 62.9425 27.0286 63.4406 27.0011C63.9111 27.0011 64.34 26.7121 64.5337 26.2854C65.2256 24.7854 65.7652 23.5193 65.4193 22.0743C65.2256 21.3036 65.8759 20.5742 66.6646 20.7118C72.2407 21.6339 75.6445 21.5926 77.0558 20.6568C77.4156 20.4228 77.8999 20.5329 78.0936 20.9045C78.7439 22.0743 79.242 23.3817 79.5326 24.7991C79.6156 25.1845 79.6848 25.5973 79.7263 25.9964C80.5288 32.382 77.1112 38.0795 72.047 38.9465H72.0332Z" fill="white"/>
<path d="M80.8193 21.5651C80.9715 21.8678 81.0546 22.2256 81.0546 22.5972C81.0546 23.6018 80.4181 24.4551 79.5187 24.7991C79.2281 23.3816 78.7439 22.0743 78.0797 20.9045C77.886 20.5329 77.4017 20.409 77.042 20.6568C75.6306 21.5926 72.2268 21.6339 66.6507 20.7118C65.862 20.5742 65.2117 21.3036 65.4054 22.0743C65.7513 23.5055 65.2117 24.7716 64.5199 26.2854C64.3261 26.7121 63.8972 26.9873 63.4268 27.0011C62.9287 27.0148 62.472 26.7121 62.2645 26.2579C61.8217 25.2946 61.2959 24.8679 60.7148 24.5927C59.9123 24.2349 59.0682 24.2074 58.3626 24.5927C57.0343 25.3496 56.7714 27.3451 57.7676 29.0516C58.4733 30.3039 59.6771 31.0471 60.7978 31.0608C61.0884 31.0608 61.3513 31.2535 61.4481 31.515C61.545 31.7765 61.6419 32.0379 61.7664 32.2994C62.2368 33.3866 62.8318 34.3775 63.5236 35.2445C63.0809 35.6574 60.4242 37.3776 58.6393 35.0518C58.3903 34.7491 58.2242 34.4188 58.155 34.116C57.9198 33.2077 57.4494 32.3958 56.6745 31.8728C52.7311 29.3131 49.5625 18.9365 57.394 15.8401C58.2519 15.496 58.9022 14.8492 59.3727 14.0648C60.272 12.5372 61.9463 11.505 63.8557 11.505C64.1324 11.505 64.423 11.5188 64.6859 11.5738C65.2394 11.6702 65.7928 11.5188 66.2909 11.2848C66.9689 10.9683 67.7161 10.8032 68.5048 10.8032C69.4872 10.8032 70.4142 11.0784 71.1891 11.5463C71.8256 11.9316 72.6004 11.9592 73.2507 11.6014C74.1363 11.0922 75.2017 10.8032 76.3225 10.8032C79.6017 10.8032 82.2584 13.2666 82.2584 16.308C82.2584 17.5741 81.8017 18.7438 81.0131 19.6797C80.5565 20.2164 80.4873 20.9458 80.8055 21.5788L80.8193 21.5651Z" fill="#184A4E"/>
<path d="M121.126 52.4883L118.621 58.3097C118.234 58.406 117.874 58.64 117.597 58.9978L111.398 67.021C111.398 67.021 111.371 67.0486 111.357 67.0623C108.991 69.9799 106.141 72.2368 103.041 73.8195C101.685 73.7094 100.108 73.5167 98.6826 73.2965L102.626 57.828C110.458 61.3924 116.269 58.4611 121.126 52.4883Z" fill="white"/>
<path d="M189.395 63.5117C188.994 64.5026 187.638 64.654 187.029 63.7594C185.742 61.8741 183.888 60.3327 181.605 59.4106C175.24 56.8371 167.962 60.0712 165.679 66.5944C163.562 72.6222 166.731 79.4069 172.722 81.7189C174.95 82.5721 177.26 82.7373 179.446 82.2969C180.512 82.0767 181.397 83.1088 180.996 84.1135L172.528 104.88L126.065 86.1227C117.223 82.5584 112.962 72.5258 116.559 63.7319L135.418 17.5191L156.284 25.9414C157.114 26.2717 157.986 25.5148 157.737 24.6616C156.948 21.9504 157.031 18.9641 158.18 16.1429C160.905 9.45452 168.571 6.23421 175.296 8.95909C182.02 11.6702 185.258 19.2944 182.532 25.9827C181.384 28.8039 179.35 31.0058 176.873 32.3958C176.098 32.8362 176.195 33.9922 177.025 34.3225L197.891 42.7448L189.423 63.5117H189.395Z" fill="#F6FFD7"/>
<path d="M189.395 63.5117C188.994 64.5026 187.638 64.654 187.029 63.7594C185.742 61.8741 183.888 60.3327 181.605 59.4106C175.24 56.8371 167.962 60.0712 165.679 66.5944C163.562 72.6222 166.731 79.4069 172.722 81.7189C174.95 82.5721 177.26 82.7373 179.446 82.2969C180.512 82.0767 181.397 83.1088 180.996 84.1135L172.528 104.88L126.065 86.1227C117.223 82.5584 112.962 72.5259 116.559 63.7319L135.418 17.5191L156.284 25.9414C157.114 26.2717 157.986 25.5148 157.737 24.6616C156.948 21.9504 157.031 18.9641 158.18 16.1429C160.905 9.45452 168.571 6.23421 175.296 8.95909C182.02 11.6702 185.258 19.2944 182.532 25.9827C181.384 28.8039 179.35 31.0058 176.873 32.3958C176.098 32.8362 176.195 33.9922 177.025 34.3225L197.891 42.7448L189.423 63.5117H189.395Z" stroke="#184A4E" stroke-linecap="round" stroke-linejoin="round"/>
<path d="M131.766 71.2735C131.641 71.6863 131.351 72.0441 130.949 72.3056L128.473 73.8607L125.664 75.6223L125.553 75.6911C124.183 76.5581 122.827 77.4801 121.568 78.526C117.016 82.3106 111.91 85.3245 106.514 87.5126C101.035 89.7283 95.2649 91.0908 89.5227 91.4899C78.4811 92.2605 67.4949 89.4944 58.6948 82.5996L70.276 67.7779C75.4648 73.324 82.4661 76.3379 89.5227 76.6682C94.1856 76.8884 98.8624 75.9526 103.055 73.8057C106.154 72.223 109.005 69.9798 111.371 67.0485C111.371 67.0485 111.398 67.0348 111.412 67.0072L117.611 58.984C117.874 58.6262 118.247 58.406 118.635 58.2959C118.981 58.1995 119.354 58.1995 119.7 58.2959C119.922 58.3509 120.143 58.4748 120.351 58.6262C121.015 59.1629 121.25 60.0574 120.973 60.8143C120.89 61.0208 120.793 61.1859 120.669 61.3648L118.51 64.0897C117.929 64.8328 118.829 65.7962 119.603 65.2732L126.508 60.8143C127.449 60.2226 128.722 60.4978 129.275 61.4474C129.649 61.9841 129.704 62.6309 129.483 63.1814C129.344 63.5805 129.068 63.9521 128.68 64.2135C128.653 64.2273 128.639 64.2411 128.611 64.2548C129.275 63.8144 130.119 63.842 130.756 64.2411C131.005 64.3925 131.226 64.6126 131.392 64.8741C131.614 65.2182 131.71 65.5897 131.71 65.9476C131.71 66.1815 131.669 66.443 131.586 66.6632L131.475 66.9109C131.323 67.1999 131.074 67.4614 130.783 67.6541L128.915 68.8376C129.483 68.5073 130.147 68.4798 130.7 68.7275C131.06 68.8789 131.378 69.1404 131.6 69.4982C131.932 70.0486 132.001 70.6955 131.78 71.2597L131.766 71.2735Z" fill="white"/>
<path d="M29.3612 288.837V292.553H9.35352V288.837C16.0227 287.654 22.692 287.654 29.3612 288.837Z" stroke="#184A4E" stroke-linecap="round" stroke-linejoin="round"/>
<path d="M17.2544 281.323C18.7072 280.869 20.0632 280.869 21.3223 281.323" stroke="#184A4E" stroke-linecap="round" stroke-linejoin="round"/>
<path d="M17.2544 284.365C18.7072 283.91 20.0632 283.91 21.3223 284.365" stroke="#184A4E" stroke-linecap="round" stroke-linejoin="round"/>
<path d="M26.3032 273.974L25.3623 280.098" stroke="#184A4E" stroke-linecap="round" stroke-linejoin="round"/>
<path d="M13.3525 280.085L14.2796 273.974" stroke="#184A4E" stroke-linecap="round" stroke-linejoin="round"/>
<path d="M9.35352 288.837L13.3523 280.098C17.3649 277.305 21.3637 277.305 25.3624 280.098L29.3612 288.837" stroke="#184A4E" stroke-linecap="round" stroke-linejoin="round"/>
<path d="M136.802 292.553V289.085C136.802 287.764 136.014 286.553 134.81 286.016L117.154 278.13C113.626 281.213 109.752 281.956 105.462 280.002C104.923 279.754 104.314 280.126 104.314 280.718V292.553H136.802Z" stroke="#184A4E" stroke-linecap="round" stroke-linejoin="round"/>
<path d="M117.805 281.874L126.715 285.865" stroke="#184A4E" stroke-linecap="round" stroke-linejoin="round"/>
<path d="M104.314 288.947H136.802" stroke="#184A4E" stroke-linecap="round" stroke-linejoin="round"/>
<path d="M130.023 283.869C127.477 284.186 126.217 285.961 126.038 288.947" stroke="#184A4E" stroke-linecap="round" stroke-linejoin="round"/>
<path d="M104.314 273.974L105.241 279.933" stroke="#184A4E" stroke-linecap="round" stroke-linejoin="round"/>
<path d="M117.154 278.13L116.227 273.974" stroke="#184A4E" stroke-linecap="round" stroke-linejoin="round"/>
<path d="M64.1602 57.828C72.047 78.9114 98.5441 82.8611 111.384 67.0623C111.384 67.0623 111.398 67.0486 111.412 67.021L117.611 58.9978C118.123 58.351 118.953 58.1032 119.7 58.3234C119.922 58.3785 120.143 58.5023 120.351 58.6537C121.015 59.1904 121.236 60.085 120.973 60.8419C120.89 61.0483 120.793 61.2135 120.683 61.3924L118.524 64.1172C117.943 64.8466 118.842 65.81 119.617 65.3008L126.522 60.8419C127.449 60.2501 128.722 60.5254 129.289 61.4749C129.663 62.0117 129.704 62.6585 129.496 63.2227C129.358 63.6218 129.081 63.9934 128.68 64.2411C128.652 64.2549 128.625 64.2686 128.611 64.2962L120.738 69.2505" stroke="#184A4E" stroke-linecap="round" stroke-linejoin="round"/>
<path d="M122.827 72.6772L128.625 69.0303L128.86 68.8789C128.86 68.8789 128.874 68.8789 128.888 68.8789L130.756 67.6954C131.364 67.3238 131.683 66.6494 131.683 65.9889C131.683 65.6173 131.586 65.2595 131.378 64.9154C131.212 64.654 130.991 64.4338 130.742 64.2824C130.105 63.8833 129.261 63.8695 128.597 64.2961" stroke="#184A4E" stroke-linecap="round" stroke-linejoin="round"/>
<path d="M47.1553 68.5899C62.3755 97.4076 98.9041 97.3663 121.582 78.5398C122.841 77.4939 124.183 76.5719 125.567 75.7049L125.678 75.6361L130.963 72.3194C131.365 72.0579 131.655 71.7001 131.78 71.2735C132.001 70.723 131.918 70.0762 131.6 69.5257C131.033 68.6037 129.843 68.3284 128.916 68.8651C128.916 68.8651 128.902 68.8651 128.888 68.8651" stroke="#184A4E" stroke-linecap="round" stroke-linejoin="round"/>
<path d="M89.5225 76.6682V61.3235" stroke="#184A4E" stroke-linecap="round" stroke-linejoin="round"/>
<path d="M71.189 43.4329C72.4758 43.4329 73.7487 43.488 75.0079 43.5843C76.3777 43.6806 77.7475 43.832 79.0758 44.0247C84.1677 44.7541 88.886 47.1074 92.6218 50.6442C96.2885 54.126 99.6093 56.438 102.626 57.8142C110.457 61.3786 116.269 58.4473 121.125 52.4746" stroke="#184A4E" stroke-linecap="round" stroke-linejoin="round"/>
<path d="M89.5225 91.4899V102.789L43.3637 101.935L42.5059 57.2087C43.5021 49.0891 53.6581 44.7541 64.9765 43.6944" stroke="#184A4E" stroke-linecap="round" stroke-linejoin="round"/>
<path d="M102.626 57.828L98.6826 73.2827" stroke="#184A4E" stroke-linecap="round" stroke-linejoin="round"/>
<path d="M58.6948 82.5996L70.276 67.7917" stroke="#184A4E" stroke-linecap="round" stroke-linejoin="round"/>
<path d="M43.3501 101.935L0.691895 273.974L36.8192 273.96" stroke="#184A4E" stroke-linecap="round" stroke-linejoin="round"/>
<path d="M92.7602 273.96L128.749 273.947L89.5225 102.802" stroke="#184A4E" stroke-linecap="round" stroke-linejoin="round"/>
<path d="M67.4674 164.58L36.8193 273.96" stroke="#184A4E" stroke-linecap="round" stroke-linejoin="round"/>
<path d="M67.4673 164.58L92.7606 273.96" stroke="#184A4E" stroke-linecap="round" stroke-linejoin="round"/>
<path d="M102.861 73.7781C98.7376 73.4203 94.2546 72.6084 89.5225 71.4937" stroke="#184A4E" stroke-linecap="round" stroke-linejoin="round"/>
<path d="M72.0334 38.9328L70.7881 45.5248C70.456 47.3001 68.5881 48.3873 66.8585 47.7817C65.6409 47.3689 64.8384 46.2404 64.8384 44.9743C64.8384 44.8779 64.8384 44.7541 64.8522 44.644L65.6547 37.3088" stroke="#184A4E" stroke-linecap="round" stroke-linejoin="round"/>
<path d="M60.7287 24.579C61.3098 24.8405 61.8356 25.2808 62.2784 26.2442C62.4859 26.6983 62.9425 27.0011 63.4406 26.9873C63.9111 26.9873 64.34 26.6983 64.5337 26.2717C65.2256 24.7716 65.7652 23.5055 65.4193 22.0605C65.2394 21.2899 65.8759 20.5605 66.6646 20.6981C72.2269 21.6201 75.6307 21.5789 77.0558 20.643C77.4156 20.4091 77.886 20.5192 78.0936 20.8908C78.7439 22.0605 79.2282 23.3679 79.5188 24.7716C79.6018 25.1707 79.671 25.5698 79.7263 25.9689C80.5288 32.3545 77.1112 38.052 72.047 38.919C71.9363 38.9328 71.8256 38.9465 71.7011 38.974C69.5564 39.2493 67.4533 38.6025 65.6822 37.3088C64.0495 36.1115 62.6935 34.3775 61.7803 32.2857C61.6557 32.0242 61.5589 31.7628 61.462 31.5013C61.3652 31.226 61.1023 31.0334 60.8117 31.0334C59.7048 31.0334 58.501 30.2902 57.7815 29.0379C56.7852 27.3314 57.0481 25.3359 58.3765 24.579C59.0821 24.1799 59.94 24.2074 60.7287 24.579Z" stroke="#184A4E" stroke-linecap="round" stroke-linejoin="round"/>
<path d="M79.5189 24.7854C80.4182 24.4551 81.0547 23.5881 81.0547 22.5834C81.0547 22.2119 80.9717 21.8678 80.8195 21.5651C80.5151 20.932 80.5843 20.2026 81.0271 19.6659C81.8019 18.7301 82.2723 17.5741 82.2723 16.2942C82.2723 13.2528 79.6019 10.7894 76.3226 10.7894C75.2019 10.7894 74.1364 11.0784 73.2509 11.5876C72.6144 11.9454 71.8257 11.9179 71.1893 11.5325C70.4006 11.0509 69.4874 10.7756 68.4911 10.7756C67.7024 10.7756 66.9553 10.9545 66.2773 11.2711C65.7792 11.505 65.2257 11.6426 64.6722 11.5601C64.3955 11.5188 64.1188 11.4913 63.842 11.4913C61.9326 11.4913 60.2584 12.5234 59.359 14.051C58.9024 14.8354 58.2244 15.4822 57.3803 15.8263C49.5488 18.9227 52.7174 29.2993 56.6608 31.859C57.4495 32.3682 57.92 33.194 58.1414 34.1023C58.2244 34.405 58.3766 34.7215 58.6256 35.0381C60.4106 37.3639 63.081 35.6436 63.51 35.2307" stroke="#184A4E" stroke-linecap="round" stroke-linejoin="round"/>
<path d="M76.6823 106.16L77.1389 113.908C77.2219 115.422 76.0181 116.702 74.4961 116.716" stroke="white" stroke-linecap="round" stroke-linejoin="round"/>
<path d="M73.0017 108.335C72.9879 108.541 72.7942 108.692 72.6005 108.665C72.3929 108.651 72.2407 108.458 72.2684 108.266C72.2822 108.059 72.4759 107.908 72.6697 107.935C72.8772 107.949 73.0294 108.142 73.0017 108.335Z" stroke="white" stroke-linecap="round" stroke-linejoin="round"/>
<path d="M49.7427 108.376L67.7026 108.513" stroke="white" stroke-linecap="round" stroke-linejoin="round"/>
<path d="M80.9302 108.266L85.9805 108.307" stroke="white" stroke-linecap="round" stroke-linejoin="round"/>
<path d="M75.8106 136.395L67.2319 170.594" stroke="white" stroke-linecap="round" stroke-linejoin="round"/>
<path d="M285.781 75.1957C306.467 75.1957 323.236 58.5166 323.236 37.9419C323.236 17.3672 306.467 0.68811 285.781 0.68811C265.095 0.68811 248.325 17.3672 248.325 37.9419C248.325 58.5166 265.095 75.1957 285.781 75.1957Z" fill="#BFFF9B"/>
<path d="M285.781 75.1957C306.467 75.1957 323.236 58.5166 323.236 37.9419C323.236 17.3672 306.467 0.68811 285.781 0.68811C265.095 0.68811 248.325 17.3672 248.325 37.9419C248.325 58.5166 265.095 75.1957 285.781 75.1957Z" stroke="#184A4E" stroke-linecap="round" stroke-linejoin="round"/>
<path d="M281.145 39.0979L273.369 31.3636L265.247 39.4557L281.145 55.282L306.328 30.2351L298.192 22.1431L281.145 39.0979Z" fill="white"/>
<path d="M281.145 39.0979L273.369 31.3636L265.247 39.4557L281.145 55.282L306.328 30.2351L298.192 22.1431L281.145 39.0979Z" fill="url(#paint0_linear_561_10104)" stroke="#184A4E" stroke-linecap="round" stroke-linejoin="round"/>
<path d="M323.319 164.085C323.319 159.694 325.035 155.552 328.162 152.442L334.721 145.919C335.509 145.134 335.952 144.088 335.952 142.974C335.952 141.859 335.523 140.813 334.721 140.029L328.162 133.505C325.035 130.395 323.319 126.267 323.319 121.863C323.319 117.459 325.035 113.33 328.162 110.22L334.721 103.697C335.509 102.912 335.952 101.866 335.952 100.752C335.952 99.637 335.523 98.5911 334.721 97.8067L328.162 91.2835C325.755 88.8889 325.755 84.9942 328.162 82.5859C330.57 80.1913 334.485 80.1913 336.907 82.5859L343.465 89.1091C346.592 92.2193 348.308 96.3479 348.308 100.752C348.308 105.156 346.592 109.284 343.465 112.394L336.907 118.918C336.118 119.702 335.675 120.748 335.675 121.863C335.675 122.977 336.104 124.023 336.907 124.808L343.465 131.331C346.592 134.441 348.308 138.57 348.308 142.974C348.308 147.377 346.592 151.506 343.465 154.616L336.907 161.139C336.118 161.924 335.675 162.97 335.675 164.085C335.675 165.199 336.104 166.245 336.907 167.03L343.465 173.553C346.592 176.663 348.308 180.792 348.308 185.195C348.308 189.599 346.592 193.728 343.465 196.838L336.907 203.361C334.499 205.756 330.584 205.756 328.162 203.361C325.755 200.967 325.755 197.072 328.162 194.664L334.721 188.141C335.509 187.356 335.952 186.31 335.952 185.195C335.952 184.081 335.523 183.035 334.721 182.25L328.162 175.727C325.035 172.617 323.319 168.488 323.319 164.085Z" fill="#BFFF9B"/>
<path d="M323.319 164.085C323.319 159.694 325.035 155.552 328.162 152.442L334.721 145.919C335.509 145.134 335.952 144.088 335.952 142.974C335.952 141.859 335.523 140.813 334.721 140.029L328.162 133.505C325.035 130.395 323.319 126.267 323.319 121.863C323.319 117.459 325.035 113.33 328.162 110.22L334.721 103.697C335.509 102.912 335.952 101.866 335.952 100.752C335.952 99.637 335.523 98.5911 334.721 97.8067L328.162 91.2835C325.755 88.8889 325.755 84.9942 328.162 82.5859C330.57 80.1913 334.485 80.1913 336.907 82.5859L343.465 89.1091C346.592 92.2193 348.308 96.3479 348.308 100.752C348.308 105.156 346.592 109.284 343.465 112.394L336.907 118.918C336.118 119.702 335.675 120.748 335.675 121.863C335.675 122.977 336.104 124.023 336.907 124.808L343.465 131.331C346.592 134.441 348.308 138.57 348.308 142.974C348.308 147.377 346.592 151.506 343.465 154.616L336.907 161.139C336.118 161.924 335.675 162.97 335.675 164.085C335.675 165.199 336.104 166.245 336.907 167.03L343.465 173.553C346.592 176.663 348.308 180.792 348.308 185.195C348.308 189.599 346.592 193.728 343.465 196.838L336.907 203.361C334.499 205.756 330.584 205.756 328.162 203.361C325.755 200.967 325.755 197.072 328.162 194.664L334.721 188.141C335.509 187.356 335.952 186.31 335.952 185.195C335.952 184.081 335.523 183.035 334.721 182.25L328.162 175.727C325.035 172.617 323.319 168.488 323.319 164.085Z" stroke="#184A4E" stroke-linecap="round" stroke-linejoin="round"/>
<path d="M13.3525 344.229C13.3525 328.871 25.8746 316.416 41.3163 316.416C56.7579 316.416 69.28 328.871 69.28 344.229H13.3525Z" fill="url(#paint1_linear_561_10104)"/>
<path d="M13.3525 344.229C13.3525 328.871 25.8746 316.416 41.3163 316.416C56.7579 316.416 69.28 328.871 69.28 344.229" stroke="#184A4E" stroke-linecap="round" stroke-linejoin="round"/>
<path d="M57.7539 344.229C57.7539 336.44 64.1049 330.123 71.9364 330.123C79.7679 330.123 86.1189 336.44 86.1189 344.229H57.7539Z" fill="url(#paint2_linear_561_10104)"/>
<path d="M57.7539 344.229C57.7539 336.44 64.1049 330.123 71.9364 330.123C79.7679 330.123 86.1189 336.44 86.1189 344.229" stroke="#184A4E" stroke-linecap="round" stroke-linejoin="round"/>
<path d="M201.364 316.664C194.93 310.994 180.816 316.375 169.83 328.706C169.609 328.954 169.387 329.215 169.166 329.463C168.087 315.026 161.597 303.92 153.752 303.92C145.907 303.92 139.417 315.026 138.338 329.463C138.117 329.215 137.895 328.967 137.674 328.706C126.688 316.389 112.574 310.994 106.14 316.664C100.633 321.508 102.529 332.903 110.07 343.803H197.434C204.961 332.903 206.871 321.508 201.364 316.664Z" fill="#BFFF9B"/>
<path d="M169.166 329.091C168.087 314.655 161.597 303.549 153.752 303.549C145.907 303.549 139.417 314.655 138.338 329.091C138.227 330.481 138.172 331.912 138.172 333.371C138.172 336.908 138.49 340.293 139.085 343.445" stroke="#184A4E" stroke-linecap="round" stroke-linejoin="round"/>
<path d="M153.752 312.012V323.862V332.889V340.307" stroke="#184A4E" stroke-linecap="round" stroke-linejoin="round"/>
<path d="M159.702 317.944L153.752 323.862L147.802 317.944" stroke="#184A4E" stroke-linecap="round" stroke-linejoin="round"/>
<path d="M159.702 326.972L153.752 332.889L147.802 326.972" stroke="#184A4E" stroke-linecap="round" stroke-linejoin="round"/>
<path d="M138.338 329.091L137.674 328.334C126.688 316.017 112.574 310.622 106.14 316.292C100.633 321.137 102.543 332.532 110.07 343.431" stroke="#184A4E" stroke-linecap="round" stroke-linejoin="round"/>
<path d="M111.786 322.637L119.672 331.486L119.686 331.499L125.705 338.257L127.532 340.307" stroke="#184A4E" stroke-linecap="round" stroke-linejoin="round"/>
<path d="M119.064 321.866L118.565 330.22L110.153 329.724" stroke="#184A4E" stroke-linecap="round" stroke-linejoin="round"/>
<path d="M124.778 328.307L124.266 336.66L115.868 336.151" stroke="#184A4E" stroke-linecap="round" stroke-linejoin="round"/>
<path d="M195.732 322.637L187.831 331.486V331.499L181.812 338.257H181.799L179.972 340.307" stroke="#184A4E" stroke-linecap="round" stroke-linejoin="round"/>
<path d="M188.44 321.866L188.939 330.22L197.351 329.724" stroke="#184A4E" stroke-linecap="round" stroke-linejoin="round"/>
<path d="M182.74 328.307L183.238 336.66L191.65 336.151" stroke="#184A4E" stroke-linecap="round" stroke-linejoin="round"/>
<path d="M160.352 343.445C162.137 338.78 165.126 333.784 169.166 329.091C169.387 328.843 169.609 328.596 169.83 328.334C180.816 316.017 194.93 310.622 201.364 316.292C206.871 321.137 204.961 332.532 197.434 343.431" stroke="#184A4E" stroke-linecap="round" stroke-linejoin="round"/>
<path d="M38.2443 19.7622C28.7109 21.51 23.0517 27.5928 20.6856 37.3501C20.658 37.4464 20.5334 37.4464 20.5058 37.3501C18.1536 27.5928 12.4944 21.5238 2.94715 19.7622C2.8503 19.7485 2.8503 19.6108 2.94715 19.5833C12.4806 17.8356 18.1397 11.7527 20.5058 1.99547C20.5334 1.89913 20.658 1.89913 20.6856 1.99547C23.0379 11.7527 28.697 17.8218 38.2443 19.5833C38.3411 19.5971 38.3411 19.7347 38.2443 19.7622Z" fill="url(#paint3_linear_561_10104)"/>
<path d="M38.2443 19.7622C28.7109 21.51 23.0517 27.5928 20.6856 37.3501C20.658 37.4464 20.5334 37.4464 20.5058 37.3501C18.1536 27.5928 12.4944 21.5238 2.94715 19.7622C2.8503 19.7485 2.8503 19.6108 2.94715 19.5833C12.4806 17.8355 18.1397 11.7527 20.5058 1.99547C20.5334 1.89913 20.658 1.89913 20.6856 1.99547C23.0379 11.7527 28.697 17.8218 38.2443 19.5833C38.3411 19.5971 38.3411 19.7347 38.2443 19.7622Z" stroke="#184A4E" stroke-linecap="round" stroke-linejoin="round"/>
<path d="M202.249 257.515C191.208 259.786 184.538 266.956 181.647 278.323C181.577 278.585 181.231 278.585 181.162 278.323C178.27 266.956 171.601 259.786 160.56 257.515C160.283 257.46 160.283 257.074 160.56 257.019C171.601 254.749 178.27 247.579 181.162 236.211C181.231 235.95 181.577 235.95 181.647 236.211C184.538 247.579 191.208 254.749 202.249 257.019C202.526 257.074 202.526 257.46 202.249 257.515Z" fill="url(#paint4_linear_561_10104)"/>
<path d="M202.249 257.515C191.208 259.786 184.538 266.956 181.647 278.323C181.577 278.585 181.231 278.585 181.162 278.323C178.27 266.956 171.601 259.786 160.56 257.515C160.283 257.46 160.283 257.074 160.56 257.019C171.601 254.749 178.27 247.579 181.162 236.211C181.231 235.95 181.577 235.95 181.647 236.211C184.538 247.579 191.208 254.749 202.249 257.019C202.526 257.074 202.526 257.46 202.249 257.515Z" stroke="#184A4E" stroke-linecap="round" stroke-linejoin="round"/>
<path d="M347.16 344.312H1.24512" stroke="#184A4E" stroke-linecap="round" stroke-linejoin="round"/>
<path d="M218.037 1.0459V4.37631" stroke="#184A4E" stroke-linecap="round" stroke-linejoin="round"/>
<path d="M218.037 12.0831V15.3997" stroke="#184A4E" stroke-linecap="round" stroke-linejoin="round"/>
<path d="M210.814 8.22968H214.162" stroke="#184A4E" stroke-linecap="round" stroke-linejoin="round"/>
<path d="M221.911 8.22968H225.26" stroke="#184A4E" stroke-linecap="round" stroke-linejoin="round"/>
<path d="M293.944 95.6735V100.174" stroke="#184A4E" stroke-linecap="round" stroke-linejoin="round"/>
<path d="M293.944 110.578V115.078" stroke="#184A4E" stroke-linecap="round" stroke-linejoin="round"/>
<path d="M284.189 105.376H288.714" stroke="#184A4E" stroke-linecap="round" stroke-linejoin="round"/>
<path d="M299.188 105.376H303.699" stroke="#184A4E" stroke-linecap="round" stroke-linejoin="round"/>
<path d="M13.3525 100.146V103.917" stroke="#184A4E" stroke-linecap="round" stroke-linejoin="round"/>
<path d="M13.3525 112.628V116.385" stroke="#184A4E" stroke-linecap="round" stroke-linejoin="round"/>
<path d="M5.1748 108.266H8.96603" stroke="#184A4E" stroke-linecap="round" stroke-linejoin="round"/>
<path d="M17.7246 108.266H21.5158" stroke="#184A4E" stroke-linecap="round" stroke-linejoin="round"/>
<path d="M199.8 279.617V282.507" stroke="#184A4E" stroke-linecap="round" stroke-linejoin="round"/>
<path d="M199.8 289.209V292.099" stroke="#184A4E" stroke-linecap="round" stroke-linejoin="round"/>
<path d="M193.532 285.865H196.438" stroke="#184A4E" stroke-linecap="round" stroke-linejoin="round"/>
<path d="M203.163 285.865H206.082" stroke="#184A4E" stroke-linecap="round" stroke-linejoin="round"/>
<path d="M331.386 223.536V227.307" stroke="#184A4E" stroke-linecap="round" stroke-linejoin="round"/>
<path d="M331.386 236.019V239.789" stroke="#184A4E" stroke-linecap="round" stroke-linejoin="round"/>
<path d="M323.223 231.67H327.014" stroke="#184A4E" stroke-linecap="round" stroke-linejoin="round"/>
<path d="M335.772 231.67H339.55" stroke="#184A4E" stroke-linecap="round" stroke-linejoin="round"/>
</g>
<defs>
<linearGradient id="paint0_linear_561_10104" x1="306.328" y1="47.0112" x2="262.527" y2="38.5616" gradientUnits="userSpaceOnUse">
<stop stop-color="#CDA5D5"/>
<stop offset="0.473958" stop-color="#FBE4FF"/>
<stop offset="1" stop-color="#E8FE74"/>
</linearGradient>
<linearGradient id="paint1_linear_561_10104" x1="69.28" y1="337.288" x2="12.9466" y2="319.66" gradientUnits="userSpaceOnUse">
<stop stop-color="#CDA5D5"/>
<stop offset="0.473958" stop-color="#FBE4FF"/>
<stop offset="1" stop-color="#E8FE74"/>
</linearGradient>
<linearGradient id="paint2_linear_561_10104" x1="86.1189" y1="340.709" x2="57.548" y2="331.768" gradientUnits="userSpaceOnUse">
<stop stop-color="#CDA5D5"/>
<stop offset="0.473958" stop-color="#FBE4FF"/>
<stop offset="1" stop-color="#E8FE74"/>
</linearGradient>
<linearGradient id="paint3_linear_561_10104" x1="38.3169" y1="28.5625" x2="0.0454511" y2="22.6164" gradientUnits="userSpaceOnUse">
<stop stop-color="#CDA5D5"/>
<stop offset="0.473958" stop-color="#FBE4FF"/>
<stop offset="1" stop-color="#E8FE74"/>
</linearGradient>
<linearGradient id="paint4_linear_561_10104" x1="202.457" y1="267.911" x2="156.975" y2="260.9" gradientUnits="userSpaceOnUse">
<stop stop-color="#CDA5D5"/>
<stop offset="0.473958" stop-color="#FBE4FF"/>
<stop offset="1" stop-color="#E8FE74"/>
</linearGradient>
<clipPath id="clip0_561_10104">
<rect width="349" height="345" fill="white"/>
</clipPath>
</defs>
</svg>
