<svg width="24" height="25" viewBox="0 0 24 25" fill="none" xmlns="http://www.w3.org/2000/svg">
<path id="Vector" d="M6.96 0.4375H17.04C20.88 0.4375 24 3.5575 24 7.3975V17.4775C24 19.3234 23.2667 21.0937 21.9615 22.399C20.6562 23.7042 18.8859 24.4375 17.04 24.4375H6.96C3.12 24.4375 0 21.3175 0 17.4775V7.3975C0 5.55159 0.733284 3.78129 2.03854 2.47604C3.34379 1.17078 5.11409 0.4375 6.96 0.4375ZM6.72 2.8375C5.57426 2.8375 4.47546 3.29264 3.6653 4.1028C2.85514 4.91296 2.4 6.01176 2.4 7.1575V17.7175C2.4 20.1055 4.332 22.0375 6.72 22.0375H17.28C18.4257 22.0375 19.5245 21.5824 20.3347 20.7722C21.1449 19.962 21.6 18.8632 21.6 17.7175V7.1575C21.6 4.7695 19.668 2.8375 17.28 2.8375H6.72ZM18.3 4.6375C18.6978 4.6375 19.0794 4.79554 19.3607 5.07684C19.642 5.35814 19.8 5.73968 19.8 6.1375C19.8 6.53532 19.642 6.91686 19.3607 7.19816C19.0794 7.47947 18.6978 7.6375 18.3 7.6375C17.9022 7.6375 17.5206 7.47947 17.2393 7.19816C16.958 6.91686 16.8 6.53532 16.8 6.1375C16.8 5.73968 16.958 5.35814 17.2393 5.07684C17.5206 4.79554 17.9022 4.6375 18.3 4.6375ZM12 6.4375C13.5913 6.4375 15.1174 7.06964 16.2426 8.19486C17.3679 9.32008 18 10.8462 18 12.4375C18 14.0288 17.3679 15.5549 16.2426 16.6801C15.1174 17.8054 13.5913 18.4375 12 18.4375C10.4087 18.4375 8.88258 17.8054 7.75736 16.6801C6.63214 15.5549 6 14.0288 6 12.4375C6 10.8462 6.63214 9.32008 7.75736 8.19486C8.88258 7.06964 10.4087 6.4375 12 6.4375ZM12 8.8375C11.0452 8.8375 10.1295 9.21678 9.45442 9.89192C8.77928 10.567 8.4 11.4827 8.4 12.4375C8.4 13.3923 8.77928 14.308 9.45442 14.9831C10.1295 15.6582 11.0452 16.0375 12 16.0375C12.9548 16.0375 13.8705 15.6582 14.5456 14.9831C15.2207 14.308 15.6 13.3923 15.6 12.4375C15.6 11.4827 15.2207 10.567 14.5456 9.89192C13.8705 9.21678 12.9548 8.8375 12 8.8375Z" fill="#FEFFF5"/>
</svg>
