<svg width="24" height="24" viewBox="0 0 24 24" fill="none" xmlns="http://www.w3.org/2000/svg">
<path id="Vector" d="M5.03673 2.99419C5.03639 3.67193 4.77075 4.32177 4.29822 4.80077C3.8257 5.27976 3.18502 5.54867 2.5171 5.54833C1.84919 5.54799 1.20877 5.27843 0.736721 4.79896C0.264673 4.31949 -0.00033364 3.66937 3.15251e-07 2.99164C0.000334271 2.3139 0.265981 1.66405 0.738502 1.18506C1.21102 0.706067 1.85171 0.437161 2.51962 0.4375C3.18753 0.437839 3.82796 0.707394 4.30001 1.18687C4.77205 1.66634 5.03706 2.31645 5.03673 2.99419ZM5.11228 7.44061H0.0755511V23.4375H5.11228V7.44061ZM13.0703 7.44061H8.05876V23.4375H13.0199V15.043C13.0199 10.3666 19.0262 9.93214 19.0262 15.043V23.4375H24V13.3053C24 5.42183 15.1102 5.71571 13.0199 9.58716L13.0703 7.44061Z" fill="#FEFFF5"/>
</svg>
