<svg width="942" height="164" viewBox="0 0 942 164" fill="none" xmlns="http://www.w3.org/2000/svg">
<g clip-path="url(#clip0_1208_12932)">
<path d="M135.32 32.6196L113.69 50.9496C104.01 40.0396 91.86 34.6796 77.23 34.6796C64.46 34.6796 53.75 39.0096 44.9 47.6596C36.04 56.3096 31.72 67.0196 31.72 79.9996C31.72 92.9796 36.05 103.68 44.7 112.33C53.56 120.77 64.27 125.1 77.24 125.1C92.07 125.1 104.22 119.54 113.9 108.62L135.53 126.95C120.91 144.05 100.1 153.93 77.24 153.93C55.62 153.93 37.49 146.93 22.46 132.92C7.42 118.71 0 101.21 0 79.9996C0 58.7896 7.42 41.2696 22.45 27.0596C37.49 12.8496 55.61 5.84961 77.24 5.84961C100.1 5.84961 120.7 15.9396 135.32 32.6196Z" fill="#E3F89D"/>
<path d="M204.9 64.7904C215.6 74.7204 220.86 86.9804 220.86 101.57C220.86 116.16 215.61 128.43 204.9 138.55C194.2 148.48 181.35 153.54 166.36 153.54C151.37 153.54 138.33 148.48 127.63 138.55C117.12 128.43 111.87 116.17 111.87 101.57C111.87 86.9704 117.12 74.7104 127.63 64.7904C138.33 54.6704 151.18 49.6104 166.36 49.6104C181.54 49.6104 194.19 54.6704 204.9 64.7904ZM148.26 119.87C153.13 124.74 159.16 127.26 166.36 127.26C173.56 127.26 179.59 124.73 184.46 119.87C189.33 114.81 191.86 108.78 191.86 101.57C191.86 94.3604 189.33 88.3404 184.46 83.4704C179.59 78.4104 173.56 75.8803 166.36 75.8803C159.16 75.8803 153.13 78.4104 148.26 83.4704C143.39 88.3404 140.86 94.3703 140.86 101.57C140.86 108.77 143.39 115 148.26 119.87Z" fill="#E3F89D"/>
<path d="M293.22 153.03V119.58C293.22 109.79 293.43 99.9597 293.22 90.1697C293.03 81.5197 298.34 77.1597 305.43 72.2497C310.45 68.7697 316.88 67.6097 321.72 64.3097C325.73 61.5797 327.7 56.7697 331.95 53.9597C337.19 50.4897 343.58 48.9297 349.82 48.9297C363.57 48.9297 372.86 54.3897 377.51 65.0997C383.17 54.3897 394.29 48.9297 411.07 48.9297C433.91 48.9297 446.85 64.6997 446.85 91.1797V116.85C446.85 124.73 448.47 127.56 453.52 127.56H455.34L456.55 127.36V152.83C453.72 153.84 449.47 154.25 443.61 154.25C425.62 154.25 416.72 144.55 416.72 125.14V94.8197C416.72 82.8897 411.46 75.6197 401.96 75.6197C392.46 75.6197 385.38 83.9097 385.38 95.8297V153.04H355.26V94.8197C355.26 82.8897 349.8 75.6197 340.1 75.6197C330.4 75.6197 323.32 83.9097 323.32 95.8297V153.04H293.2L293.22 153.03Z" fill="#E3F89D"/>
<path d="M473.08 86.8499C473.08 86.8499 483.36 70.7099 501.71 79.0699C515.42 85.3199 520.61 100.69 520.87 114.79C521.08 126.21 518.24 150.7 504.06 153.25C493.62 155.13 488.48 141.85 488.09 133.51C486.97 109.75 494.24 84.9899 504.16 63.6399C513.5 43.5399 531.41 10.9099 557.13 10.0199C572.67 9.47991 571.14 25.7899 568 36.4199C563.6 51.2699 555.42 62.6999 546.82 75.2899C545 77.9499 543.29 80.6899 541.87 83.5999C540.35 86.7299 539.69 90.5699 541.35 93.6299C544.14 98.7699 551.34 99.2199 556.46 99.6099C565.36 100.29 576.7 98.2899 583.98 104.65C589.44 109.42 591.12 116.4 588.48 123.03C585.09 131.55 576.49 137.17 567.53 139.13C558.33 141.14 547.41 140.5 538.53 137.42" stroke="#E3F89D" stroke-width="20" stroke-miterlimit="10"/>
<path d="M621.9 65.4696C631.32 55.4596 643.09 50.5596 657.02 50.5596C671.93 50.5596 683.51 56.6396 686.45 65.2696V52.3196H715.68V116.48C715.68 124.33 717.64 127.47 722.94 127.47C724.31 127.47 726.08 127.27 727.85 127.08V151.41C724.71 152.39 720.39 152.98 714.7 152.98C708.23 152.98 702.73 151.8 698.61 149.45C694.1 146.51 691.15 142.98 689.78 138.86C683.31 148.47 672.51 153.18 657.01 153.18C643.08 153.18 631.31 148.28 621.89 138.47C612.67 128.46 607.96 116.3 607.96 101.78C607.96 87.2596 612.67 75.2896 621.89 65.4796L621.9 65.4696ZM680.57 119.43C685.67 114.52 688.22 108.64 688.22 101.77C688.22 94.8996 685.67 89.0196 680.57 84.3096C675.66 79.4096 669.58 77.0496 662.32 77.0496C655.06 77.0496 649.37 79.4096 644.46 84.3096C639.56 89.0196 637.2 94.9096 637.2 101.77C637.2 108.63 639.56 114.52 644.46 119.43C649.37 124.14 655.25 126.49 662.32 126.49C669.39 126.49 675.66 124.13 680.57 119.43Z" fill="#E3F89D"/>
<path d="M831.82 68.7004L813.51 86.8204C807.08 80.0004 799.68 76.6904 790.92 76.6904C776.7 76.6904 765.79 87.6004 765.79 102.4C765.79 117.2 776.89 127.92 790.92 127.92C799.69 127.92 807.09 124.61 813.51 117.79L831.82 135.91C820.72 148.18 807.08 154.22 790.91 154.22C775.72 154.22 762.86 149.35 752.34 139.42C742.01 129.49 736.76 117.21 736.76 102.41C736.76 87.6104 742.02 75.3304 752.34 65.4004C762.86 55.4704 775.71 50.4004 790.91 50.4004C807.08 50.4004 820.71 56.4404 831.82 68.7104V68.7004Z" fill="#E3F89D"/>
<path d="M842.83 154.21V17.46H872.06V93L904.63 55.33H938.57L899.13 100.06L941.9 154.21H908.94L880.29 117.71L872.05 126.54V154.21H842.82H842.83Z" fill="#E3F89D"/>
<path d="M230.97 153.09V51.0601H261.13V63.8101C264.98 54.9001 275.3 48.8301 287.65 48.8301C301.42 48.8301 310.73 54.3001 315.38 65.0201C321.05 54.2901 332.38 48.8301 349.39 48.8301C372.67 48.8301 385.62 64.6201 385.62 91.1401V153.08H355.46V94.7801C355.46 82.8401 349.99 75.5501 340.28 75.5501C330.57 75.5501 323.28 83.8501 323.28 95.7901V153.08H293.12V94.7801C293.12 82.8401 287.65 75.5501 277.94 75.5501C268.23 75.5501 261.14 83.8501 261.14 95.7901V153.08H230.98L230.97 153.09Z" fill="#E3F89D"/>
</g>
<defs>
<clipPath id="clip0_1208_12932">
<rect width="941.92" height="163.42" fill="white"/>
</clipPath>
</defs>
</svg>
