<svg width="141" height="25" viewBox="0 0 141 25" fill="none" xmlns="http://www.w3.org/2000/svg">
<g clip-path="url(#clip0_1461_17776)">
<path d="M20.4214 4.87734L17.1879 7.61749C15.7408 5.98655 13.9245 5.18528 11.7375 5.18528C9.82851 5.18528 8.22747 5.83258 6.90448 7.12567C5.58 8.41875 4.93421 10.0198 4.93421 11.9602C4.93421 13.9006 5.5815 15.5001 6.87459 16.7932C8.19907 18.0549 9.8001 18.7022 11.739 18.7022C13.9559 18.7022 15.7722 17.871 17.2193 16.2386L20.4528 18.9787C18.2672 21.535 15.1563 23.012 11.739 23.012C8.50702 23.012 5.79676 21.9655 3.54993 19.8712C1.3016 17.7469 0.192383 15.1309 0.192383 11.9602C0.192383 8.78949 1.3016 6.17042 3.54843 4.04617C5.79676 1.92192 8.50552 0.875488 11.739 0.875488C15.1563 0.875488 18.2358 2.38384 20.4214 4.87734Z" fill="#184A4E"/>
<path d="M30.8231 9.68332C32.4226 11.1678 33.2089 13.0005 33.2089 15.1816C33.2089 17.3626 32.4241 19.1969 30.8231 20.7097C29.2235 22.1941 27.3026 22.9506 25.0617 22.9506C22.8209 22.9506 20.8715 22.1941 19.272 20.7097C17.7008 19.1969 16.916 17.3641 16.916 15.1816C16.916 12.999 17.7008 11.1663 19.272 9.68332C20.8715 8.17048 22.7925 7.41406 25.0617 7.41406C27.331 7.41406 29.222 8.17048 30.8231 9.68332ZM22.356 17.9172C23.084 18.6452 23.9854 19.022 25.0617 19.022C26.1381 19.022 27.0395 18.6438 27.7675 17.9172C28.4955 17.1608 28.8737 16.2594 28.8737 15.1816C28.8737 14.1037 28.4955 13.2038 27.7675 12.4758C27.0395 11.7194 26.1381 11.3412 25.0617 11.3412C23.9854 11.3412 23.084 11.7194 22.356 12.4758C21.6279 13.2038 21.2497 14.1052 21.2497 15.1816C21.2497 16.2579 21.6279 17.1892 22.356 17.9172Z" fill="#184A4E"/>
<path d="M44.0254 22.8744V17.874C44.0254 16.4105 44.0568 14.941 44.0254 13.4775C43.997 12.1844 44.7908 11.5326 45.8507 10.7986C46.6012 10.2784 47.5624 10.105 48.2859 9.61166C48.8854 9.20355 49.1799 8.4845 49.8152 8.06443C50.5985 7.5457 51.5538 7.3125 52.4866 7.3125C54.5421 7.3125 55.9308 8.12872 56.626 9.72975C57.4721 8.12872 59.1344 7.3125 61.6428 7.3125C65.0572 7.3125 66.9916 9.66996 66.9916 13.6285V17.4659C66.9916 18.6438 67.2338 19.0669 67.9887 19.0669H68.2608L68.4416 19.037V22.8445C68.0186 22.9955 67.3833 23.0568 66.5072 23.0568C63.8179 23.0568 62.4875 21.6067 62.4875 18.7051V14.1726C62.4875 12.3892 61.7011 11.3024 60.281 11.3024C58.8608 11.3024 57.8024 12.5417 57.8024 14.3236V22.8759H53.2998V14.1726C53.2998 12.3892 52.4836 11.3024 51.0335 11.3024C49.5835 11.3024 48.5251 12.5417 48.5251 14.3236V22.8759H44.0225L44.0254 22.8744Z" fill="#184A4E"/>
<path d="M70.9126 12.9829C70.9126 12.9829 72.4494 10.5701 75.1925 11.8198C77.242 12.7542 78.0179 15.0518 78.0567 17.1596C78.0881 18.8668 77.6636 22.5278 75.5438 22.909C73.9831 23.1901 73.2147 21.2048 73.1564 19.9581C72.989 16.4062 74.0758 12.7048 75.5587 9.51321C76.955 6.50846 79.6324 1.63061 83.4772 1.49756C85.8003 1.41684 85.5716 3.85502 85.1022 5.4441C84.4444 7.66402 83.2216 9.37269 81.936 11.2548C81.6639 11.6524 81.4083 12.062 81.196 12.497C80.9688 12.9649 80.8701 13.539 81.1183 13.9964C81.5354 14.7648 82.6117 14.8321 83.3771 14.8904C84.7075 14.992 86.4028 14.693 87.491 15.6438C88.3073 16.3569 88.5584 17.4003 88.1637 18.3914C87.657 19.6651 86.3714 20.5052 85.0319 20.7982C83.6566 21.0987 82.0242 21.003 80.6967 20.5426" stroke="#184A4E" stroke-width="2.9898" stroke-miterlimit="10"/>
<path d="M93.1606 9.78749C94.5687 8.29109 96.3282 7.55859 98.4106 7.55859C100.64 7.55859 102.371 8.46749 102.81 9.75759V7.8217H107.18V17.413C107.18 18.5865 107.473 19.0559 108.265 19.0559C108.47 19.0559 108.734 19.026 108.999 18.9976V22.6347C108.53 22.7812 107.884 22.8694 107.033 22.8694C106.066 22.8694 105.244 22.693 104.628 22.3417C103.954 21.9022 103.513 21.3745 103.308 20.7586C102.341 22.1952 100.726 22.8993 98.4091 22.8993C96.3267 22.8993 94.5672 22.1668 93.1591 20.7003C91.7808 19.2039 91.0767 17.3861 91.0767 15.2155C91.0767 13.0449 91.7808 11.2555 93.1591 9.78898L93.1606 9.78749ZM101.931 17.854C102.694 17.12 103.075 16.241 103.075 15.214C103.075 14.187 102.694 13.308 101.931 12.6039C101.197 11.8714 100.288 11.5186 99.2029 11.5186C98.1176 11.5186 97.267 11.8714 96.533 12.6039C95.8005 13.308 95.4477 14.1885 95.4477 15.214C95.4477 16.2395 95.8005 17.12 96.533 17.854C97.267 18.5581 98.146 18.9094 99.2029 18.9094C100.26 18.9094 101.197 18.5566 101.931 17.854Z" fill="#184A4E"/>
<path d="M124.542 10.2708L121.804 12.9796C120.843 11.9601 119.737 11.4652 118.427 11.4652C116.302 11.4652 114.671 13.0962 114.671 15.3086C114.671 17.5211 116.33 19.1236 118.427 19.1236C119.738 19.1236 120.845 18.6288 121.804 17.6093L124.542 20.318C122.882 22.1523 120.843 23.0552 118.426 23.0552C116.155 23.0552 114.233 22.3272 112.66 20.8428C111.116 19.3583 110.331 17.5226 110.331 15.3101C110.331 13.0977 111.117 11.2619 112.66 9.77751C114.233 8.29307 116.154 7.53516 118.426 7.53516C120.843 7.53516 122.881 8.43808 124.542 10.2723V10.2708Z" fill="#184A4E"/>
<path d="M126.187 23.0521V2.60938H130.557V13.9018L135.426 8.27056H140.499L134.603 14.9572L140.997 23.0521H136.07L131.787 17.5957L130.555 18.9157V23.0521H126.186H126.187Z" fill="#184A4E"/>
<path d="M34.7197 22.8842V7.6317H39.2283V9.5377C39.8039 8.20574 41.3466 7.29834 43.1928 7.29834C45.2513 7.29834 46.6431 8.11605 47.3382 9.71858C48.1858 8.11455 49.8795 7.29834 52.4223 7.29834C55.9025 7.29834 57.8384 9.65879 57.8384 13.6233V22.8827H53.3297V14.1674C53.3297 12.3825 52.512 11.2927 51.0605 11.2927C49.6089 11.2927 48.5191 12.5335 48.5191 14.3184V22.8827H44.0105V14.1674C44.0105 12.3825 43.1928 11.2927 41.7413 11.2927C40.2897 11.2927 39.2298 12.5335 39.2298 14.3184V22.8827H34.7212L34.7197 22.8842Z" fill="#184A4E"/>
</g>
<defs>
<clipPath id="clip0_1461_17776">
<rect width="140.808" height="24.4297" fill="white" transform="translate(0.192383)"/>
</clipPath>
</defs>
</svg>
