<svg width="219" height="38" viewBox="0 0 219 38" fill="none" xmlns="http://www.w3.org/2000/svg">
<g clip-path="url(#clip0_2824_2798)">
<path d="M31.4624 7.58546L26.4334 11.8473C24.1827 9.31063 21.3578 8.06441 17.9563 8.06441C14.9872 8.06441 12.4971 9.07116 10.4394 11.0823C8.37944 13.0935 7.37502 15.5836 7.37502 18.6015C7.37502 21.6194 8.38176 24.1072 10.3929 26.1183C12.4529 28.0807 14.943 29.0874 17.9586 29.0874C21.4066 29.0874 24.2315 27.7947 26.4822 25.2557L31.5112 29.5175C28.112 33.4934 23.2736 35.7905 17.9586 35.7905C12.9319 35.7905 8.71657 34.163 5.22204 30.9056C1.72518 27.6017 0 23.5329 0 18.6015C0 13.6701 1.72518 9.59661 5.21971 6.29273C8.71657 2.98885 12.9295 1.36133 17.9586 1.36133C23.2736 1.36133 28.0632 3.70729 31.4624 7.58546Z" fill="#FEFFF5"/>
<path d="M47.6396 15.0607C50.1274 17.3694 51.3504 20.2199 51.3504 23.6121C51.3504 27.0044 50.1297 29.8572 47.6396 32.2101C45.1518 34.5189 42.1641 35.6954 38.6789 35.6954C35.1937 35.6954 32.1618 34.5189 29.674 32.2101C27.2304 29.8572 26.0098 27.0067 26.0098 23.6121C26.0098 20.2176 27.2304 17.3671 29.674 15.0607C32.1618 12.7077 35.1495 11.5312 38.6789 11.5312C42.2083 11.5312 45.1495 12.7077 47.6396 15.0607ZM34.4706 27.867C35.6029 28.9993 37.0049 29.5852 38.6789 29.5852C40.3529 29.5852 41.7549 28.9969 42.8872 27.867C44.0195 26.6905 44.6077 25.2885 44.6077 23.6121C44.6077 21.9358 44.0195 20.5361 42.8872 19.4038C41.7549 18.2274 40.3529 17.6391 38.6789 17.6391C37.0049 17.6391 35.6029 18.2274 34.4706 19.4038C33.3383 20.5361 32.7501 21.9381 32.7501 23.6121C32.7501 25.2862 33.3383 26.7347 34.4706 27.867Z" fill="#FEFFF5"/>
<path d="M68.1746 35.5767V27.7994C68.1746 25.5232 68.2234 23.2377 68.1746 20.9615C68.1304 18.9503 69.365 17.9366 71.0134 16.795C72.1806 15.9859 73.6756 15.7162 74.8009 14.949C75.7333 14.3142 76.1913 13.1959 77.1794 12.5425C78.3978 11.7358 79.8835 11.373 81.3343 11.373C84.5312 11.373 86.6912 12.6425 87.7723 15.1326C89.0883 12.6425 91.6737 11.373 95.5751 11.373C100.886 11.373 103.894 15.0396 103.894 21.1963V27.1647C103.894 28.9968 104.271 29.6548 105.445 29.6548H105.868L106.149 29.6083V35.5302C105.491 35.765 104.503 35.8603 103.141 35.8603C98.9581 35.8603 96.8888 33.6051 96.8888 29.0922V22.0426C96.8888 19.2689 95.6658 17.5786 93.457 17.5786C91.2482 17.5786 89.6021 19.506 89.6021 22.2775V35.579H82.5991V22.0426C82.5991 19.2689 81.3296 17.5786 79.0743 17.5786C76.8191 17.5786 75.1729 19.506 75.1729 22.2775V35.579H68.1699L68.1746 35.5767Z" fill="#FEFFF5"/>
<path d="M109.993 20.1925C109.993 20.1925 112.383 16.4399 116.65 18.3836C119.837 19.8367 121.044 23.4103 121.105 26.6886C121.153 29.3438 120.493 35.0379 117.196 35.6307C114.769 36.0678 113.574 32.9802 113.483 31.0411C113.223 25.5168 114.913 19.76 117.219 14.7961C119.391 10.1227 123.555 2.53614 129.535 2.32921C133.148 2.20366 132.792 5.9958 132.062 8.46731C131.039 11.92 129.138 14.5775 127.138 17.5047C126.715 18.1232 126.317 18.7603 125.987 19.4368C125.634 20.1646 125.48 21.0574 125.866 21.7689C126.515 22.9639 128.189 23.0686 129.379 23.1592C131.449 23.3173 134.085 22.8523 135.778 24.331C137.047 25.4401 137.438 27.063 136.824 28.6045C136.036 30.5854 134.036 31.8921 131.953 32.3478C129.814 32.8151 127.275 32.6663 125.211 31.9502" stroke="#FEFFF5" stroke-width="4.65008" stroke-miterlimit="10"/>
<path d="M144.595 15.2225C146.785 12.8951 149.521 11.7559 152.76 11.7559C156.227 11.7559 158.919 13.1695 159.603 15.176V12.1651H166.399V27.0825C166.399 28.9077 166.855 29.6377 168.087 29.6377C168.405 29.6377 168.817 29.5912 169.228 29.5471V35.2039C168.498 35.4317 167.494 35.5689 166.171 35.5689C164.667 35.5689 163.388 35.2945 162.43 34.7482C161.381 34.0646 160.696 33.2439 160.377 32.2859C158.873 34.5203 156.362 35.6154 152.758 35.6154C149.519 35.6154 146.782 34.4761 144.592 32.1953C142.449 29.8679 141.354 27.0407 141.354 23.6647C141.354 20.2887 142.449 17.5057 144.592 15.2248L144.595 15.2225ZM158.236 27.7684C159.421 26.6268 160.014 25.2597 160.014 23.6624C160.014 22.0651 159.421 20.698 158.236 19.6029C157.094 18.4636 155.68 17.9149 153.992 17.9149C152.304 17.9149 150.981 18.4636 149.84 19.6029C148.701 20.698 148.152 22.0674 148.152 23.6624C148.152 25.2574 148.701 26.6268 149.84 27.7684C150.981 28.8635 152.349 29.4099 153.992 29.4099C155.636 29.4099 157.094 28.8612 158.236 27.7684Z" fill="#FEFFF5"/>
<path d="M193.402 15.9736L189.144 20.1865C187.649 18.6009 185.929 17.8313 183.892 17.8313C180.586 17.8313 178.049 20.3679 178.049 23.8089C178.049 27.25 180.63 29.7424 183.892 29.7424C185.931 29.7424 187.652 28.9729 189.144 27.3872L193.402 31.6002C190.821 34.453 187.649 35.8573 183.89 35.8573C180.358 35.8573 177.368 34.725 174.922 32.4162C172.52 30.1075 171.3 27.2523 171.3 23.8113C171.3 20.3702 172.523 17.5151 174.922 15.2063C177.368 12.8975 180.356 11.7188 183.89 11.7188C187.649 11.7188 190.819 13.1231 193.402 15.9759V15.9736Z" fill="#FEFFF5"/>
<path d="M195.961 35.8535V4.05859H202.757V21.6219L210.33 12.8635H218.221L209.051 23.2634L218.995 35.8535H211.332L204.671 27.3671L202.755 29.4201V35.8535H195.959H195.961Z" fill="#FEFFF5"/>
<path d="M53.7012 35.5924V11.87H60.7135V14.8345C61.6086 12.7629 64.0081 11.3516 66.8795 11.3516C70.0811 11.3516 72.2457 12.6234 73.3268 15.1158C74.6451 12.621 77.2794 11.3516 81.2343 11.3516C86.647 11.3516 89.6579 15.0228 89.6579 21.1888V35.5901H82.6456V22.0351C82.6456 19.259 81.3738 17.5641 79.1162 17.5641C76.8586 17.5641 75.1636 19.4938 75.1636 22.2699V35.5901H68.1513V22.0351C68.1513 19.259 66.8795 17.5641 64.6219 17.5641C62.3643 17.5641 60.7158 19.4938 60.7158 22.2699V35.5901H53.7035L53.7012 35.5924Z" fill="#FEFFF5"/>
</g>
<defs>
<clipPath id="clip0_2824_2798">
<rect width="219" height="37.9958" fill="white"/>
</clipPath>
</defs>
</svg>
