<svg width="122" height="23" viewBox="0 0 122 23" fill="none" xmlns="http://www.w3.org/2000/svg">
<g clip-path="url(#clip0_942_5465)">
<path d="M18.7194 4.6141L15.7273 7.14978C14.3882 5.64055 12.7074 4.89907 10.6836 4.89907C8.91704 4.89907 7.43548 5.49806 6.21122 6.69466C4.98558 7.89125 4.38797 9.37281 4.38797 11.1684C4.38797 12.964 4.98696 14.4442 6.18355 15.6408C7.4092 16.8083 8.89076 17.4073 10.685 17.4073C12.7365 17.4073 14.4172 16.6381 15.7563 15.1275L18.7485 17.6632C16.726 20.0287 13.8473 21.3955 10.685 21.3955C7.69417 21.3955 5.18616 20.4271 3.10699 18.4891C1.02644 16.5233 0 14.1025 0 11.167C0 8.23155 1.02644 5.8107 3.10561 3.84496C5.18616 1.87923 7.69278 0.910889 10.685 0.910889C13.8473 0.910889 16.697 2.30668 18.7194 4.6141Z" fill="#184A4E"/>
<path d="M28.3446 9.06427C29.8248 10.4379 30.5524 12.1339 30.5524 14.1522C30.5524 16.1705 29.8262 17.8679 28.3446 19.2678C26.8644 20.6415 25.0868 21.3415 23.0132 21.3415C20.9396 21.3415 19.1357 20.6415 17.6555 19.2678C16.2016 17.8679 15.4753 16.1719 15.4753 14.1522C15.4753 12.1325 16.2016 10.4366 17.6555 9.06427C19.1357 7.66433 20.9133 6.96436 23.0132 6.96436C25.1131 6.96436 26.863 7.66433 28.3446 9.06427ZM20.5093 16.6837C21.183 17.3574 22.0172 17.706 23.0132 17.706C24.0092 17.706 24.8434 17.356 25.517 16.6837C26.1907 15.9838 26.5407 15.1496 26.5407 14.1522C26.5407 13.1548 26.1907 12.3221 25.517 11.6484C24.8434 10.9484 24.0092 10.5984 23.0132 10.5984C22.0172 10.5984 21.183 10.9484 20.5093 11.6484C19.8356 12.3221 19.4857 13.1562 19.4857 14.1522C19.4857 15.1482 19.8356 16.0101 20.5093 16.6837Z" fill="#184A4E"/>
<path d="M31.9759 21.3112V7.21628H36.1425V8.97866C36.6738 7.74887 38.1 6.90918 39.8056 6.90918C41.7077 6.90918 42.9929 7.66449 43.6361 9.14605C44.4191 7.66449 45.9574 6.90918 48.2786 6.90918C51.4382 6.90918 53.2282 9.09071 53.2282 12.7538V16.3049C53.2282 17.3949 53.4524 17.7864 54.1509 17.7864H54.4027L54.5701 17.7588V21.2821C54.1786 21.4219 53.5907 21.4786 52.78 21.4786C50.2914 21.4786 49.0602 20.1367 49.0602 17.4517V13.2574C49.0602 11.607 48.3326 10.6013 47.0184 10.6013C45.7042 10.6013 44.7248 11.7481 44.7248 13.3971V21.3112H40.5582V13.2574C40.5582 11.607 39.8029 10.6013 38.461 10.6013C37.1192 10.6013 36.1398 11.7481 36.1398 13.3971V21.3112H31.9731H31.9759Z" fill="#184A4E"/>
<path d="M57.1431 12.1146C58.1432 10.6496 60.1186 10.3176 61.5891 11.2818C62.5768 11.9306 63.216 13.0248 63.4954 14.173C63.7762 15.3212 63.7278 16.526 63.5701 17.6964C63.4414 18.6509 63.2229 19.6358 62.6239 20.3897C62.1148 21.0302 61.2239 21.466 60.4672 21.1533C60.0716 20.9901 59.7728 20.647 59.575 20.268C59.2209 19.5888 59.16 18.7961 59.178 18.0297C59.2195 16.2051 59.6621 14.4123 60.2044 12.6693C61.4439 8.68109 63.5701 3.51292 67.7506 1.8031C68.7701 1.38671 70.4232 1.3217 70.7469 2.67323C70.8368 3.04811 70.7995 3.44237 70.74 3.82417C70.2821 6.74441 68.5847 9.30498 66.832 11.6857C66.547 12.0717 66.2469 12.5558 66.4336 12.9971C66.6259 13.4509 67.2055 13.5615 67.6966 13.61C69.488 13.787 72.7306 13.6003 73.277 15.9035C73.4209 16.5108 73.2494 17.1665 72.8966 17.6798C71.6004 19.5666 68.1752 19.9733 66.2054 19.1005" stroke="#184A4E" stroke-width="2.76669" stroke-miterlimit="10"/>
<path d="M77.7301 9.15827C79.0333 7.77354 80.6615 7.0957 82.5885 7.0957C84.651 7.0957 86.2529 7.93678 86.6596 9.1306V7.33917H90.7032V16.2147C90.7032 17.3006 90.9743 17.735 91.7075 17.735C91.897 17.735 92.1418 17.7073 92.3867 17.6811V21.0467C91.9523 21.1823 91.3547 21.2639 90.5676 21.2639C89.6726 21.2639 88.9117 21.1007 88.3418 20.7756C87.7179 20.3689 87.3098 19.8806 87.1203 19.3106C86.2253 20.64 84.7313 21.2916 82.5871 21.2916C80.6601 21.2916 79.0319 20.6138 77.7288 19.2567C76.4533 17.872 75.8018 16.1898 75.8018 14.1812C75.8018 12.1726 76.4533 10.5167 77.7288 9.15965L77.7301 9.15827ZM85.8462 16.6228C86.5517 15.9436 86.9045 15.1302 86.9045 14.1798C86.9045 13.2295 86.5517 12.416 85.8462 11.7645C85.167 11.0867 84.3259 10.7602 83.3216 10.7602C82.3173 10.7602 81.5302 11.0867 80.851 11.7645C80.1731 12.416 79.8467 13.2308 79.8467 14.1798C79.8467 15.1288 80.1731 15.9436 80.851 16.6228C81.5302 17.2744 82.3436 17.5994 83.3216 17.5994C84.2996 17.5994 85.167 17.273 85.8462 16.6228Z" fill="#184A4E"/>
<path d="M106.769 9.60501L104.236 12.1116C103.347 11.1682 102.323 10.7103 101.111 10.7103C99.1442 10.7103 97.635 12.2195 97.635 14.2669C97.635 16.3142 99.1705 17.7972 101.111 17.7972C102.325 17.7972 103.348 17.3393 104.236 16.3959L106.769 18.9025C105.234 20.5998 103.347 21.4354 101.11 21.4354C99.0086 21.4354 97.2297 20.7617 95.7744 19.388C94.3454 18.0144 93.6191 16.3156 93.6191 14.2683C93.6191 12.2209 94.3468 10.5222 95.7744 9.1485C97.2297 7.77484 99.0073 7.07349 101.11 7.07349C103.347 7.07349 105.232 7.90903 106.769 9.60639V9.60501Z" fill="#184A4E"/>
<path d="M108.292 21.4343V2.51562H112.336V12.9654L116.841 7.75435H121.537L116.081 13.9421L121.997 21.4329H117.438L113.474 16.3837L112.335 17.6052V21.4329H108.291L108.292 21.4343Z" fill="#184A4E"/>
</g>
<defs>
<clipPath id="clip0_942_5465">
<rect width="122" height="22.4849" fill="white" transform="translate(0 0.156982)"/>
</clipPath>
</defs>
</svg>
