<svg width="50" height="60" viewBox="0 0 50 60" fill="none" xmlns="http://www.w3.org/2000/svg">
<path id="Vector" d="M2.5 31.4988C5.28081 27.4125 10.7732 26.4864 14.8617 29.1759C17.6079 30.9856 19.3849 34.0378 20.1618 37.2404C20.9426 40.4431 20.808 43.804 20.3695 47.0684C20.0118 49.7308 19.4041 52.4782 17.7387 54.5811C16.3233 56.3677 13.8463 57.5832 11.7424 56.7111C10.6424 56.2558 9.81165 55.2988 9.26165 54.2416C8.27702 52.347 8.10778 50.136 8.15778 47.9983C8.27317 42.9088 9.50395 37.908 11.0117 33.0461C14.4579 21.9216 20.3695 7.50577 31.9928 2.7365C34.8274 1.57505 39.4236 1.39369 40.3236 5.16358C40.5737 6.20927 40.4698 7.30898 40.3044 8.37397C39.0313 16.5195 34.312 23.6619 29.4389 30.3026C28.6465 31.3792 27.8119 32.7297 28.3312 33.9606C28.8658 35.2262 30.4773 35.5349 31.8427 35.67C36.8236 36.1639 45.8391 35.6429 47.3584 42.0676C47.7584 43.7615 47.2814 45.5905 46.3007 47.0221C42.6968 52.2852 33.1735 53.4197 27.6965 50.9849" stroke="#184A4E" stroke-width="4" stroke-miterlimit="10"/>
</svg>
