<svg width="374" height="342" viewBox="0 0 374 342" fill="none" xmlns="http://www.w3.org/2000/svg">
<path d="M346.098 166.441C342.26 198.96 327.419 236.769 297.778 254.138C252.994 280.386 256.743 320.758 169.328 338.309C155.699 341.047 142.765 342.199 130.569 341.972C124.013 341.85 117.666 341.322 111.546 340.421C55.9889 332.301 18.6015 293.665 4.88539 247.029C-13.1658 185.692 22.8774 145.537 46.7671 121.343C70.6569 97.1492 88.1549 21.7645 173.953 3.83484C187.036 1.10686 200.414 -0.285159 213.788 0.0488302C244.315 0.798504 277.612 10.827 300.651 31.7578C302.381 33.3308 304.063 34.9615 305.704 36.6419C337.726 69.5258 351.333 122.108 346.098 166.441Z" fill="#E3F89D"/>
<path opacity="0.7" d="M346.098 166.441C342.26 198.96 327.419 236.769 297.778 254.138C252.994 280.386 256.743 320.758 169.328 338.309C155.699 341.047 142.765 342.199 130.569 341.972C124.013 341.85 117.666 341.322 111.546 340.421C55.9889 332.301 18.6015 293.665 4.88539 247.029C-13.1658 185.692 22.8774 145.537 46.7671 121.343C70.6569 97.1492 88.1549 21.7645 173.953 3.83484C187.036 1.10686 200.414 -0.285159 213.788 0.0488302C244.315 0.798504 277.612 10.827 300.651 31.7578C302.381 33.3308 304.063 34.9615 305.704 36.6419C337.726 69.5258 351.333 122.108 346.098 166.441Z" fill="#FEFFF5"/>
<path d="M320.827 306.728V216.344" stroke="#1D191F" stroke-miterlimit="10" stroke-linecap="round" stroke-linejoin="round"/>
<path d="M313.503 306.726V261.906" stroke="#1D191F" stroke-miterlimit="10" stroke-linecap="round" stroke-linejoin="round"/>
<path d="M323.115 231.165C323.115 231.165 315.729 230.319 312.731 224.471C309.732 218.624 309.414 203.543 320.913 186.866C332.412 170.189 338.434 169.975 340.437 183.612C342.439 197.248 342.153 217.059 337.446 224.564C332.74 232.07 323.115 231.165 323.115 231.165Z" fill="url(#paint0_linear_1055_7717)" stroke="#1D191F" stroke-miterlimit="10" stroke-linecap="round" stroke-linejoin="round"/>
<path d="M325.733 199.675C327.095 195.028 328.716 190.846 330.611 188.018" stroke="#1D191F" stroke-miterlimit="10" stroke-linecap="round" stroke-linejoin="round"/>
<path d="M320.044 230.119C320.044 230.119 321.563 215.537 324.865 202.823" stroke="#1D191F" stroke-miterlimit="10" stroke-linecap="round" stroke-linejoin="round"/>
<path d="M327.511 260.5C327.511 260.5 322.773 256.824 323.152 251.537C323.532 246.25 329.621 235.719 344.526 229.037C359.431 222.355 363.671 224.729 359.347 234.969C355.022 245.209 346.537 258.746 340.152 261.95C333.768 265.154 327.511 260.5 327.511 260.5Z" fill="url(#paint1_linear_1055_7717)" stroke="#1D191F" stroke-miterlimit="10" stroke-linecap="round" stroke-linejoin="round"/>
<path d="M342.489 239.887C345.373 237.254 348.24 235.05 350.729 233.894" stroke="#1D191F" stroke-miterlimit="10" stroke-linecap="round" stroke-linejoin="round"/>
<path d="M340.574 241.694C332.978 249.077 325.831 258.493 325.831 258.493C325.831 258.493 322.013 263.63 320.878 273.847" stroke="#1D191F" stroke-miterlimit="10" stroke-linecap="round" stroke-linejoin="round"/>
<path d="M324.798 291.068C324.798 291.068 322.054 288.938 322.273 285.875C322.493 282.813 326.021 276.711 334.656 272.839C343.292 268.968 345.749 270.344 343.243 276.276C340.738 282.209 335.822 290.052 332.123 291.908C328.423 293.764 324.798 291.068 324.798 291.068Z" fill="url(#paint2_linear_1055_7717)" stroke="#1D191F" stroke-miterlimit="10" stroke-linecap="round" stroke-linejoin="round"/>
<path d="M333.476 279.127C335.146 277.601 336.808 276.324 338.249 275.654" stroke="#1D191F" stroke-miterlimit="10" stroke-linecap="round" stroke-linejoin="round"/>
<path d="M332.366 280.174C327.966 284.451 323.824 289.907 323.824 289.907C323.824 289.907 321.612 292.883 320.955 298.802" stroke="#1D191F" stroke-miterlimit="10" stroke-linecap="round" stroke-linejoin="round"/>
<path d="M314.129 248.278C314.129 248.278 318.867 244.603 318.487 239.316C318.108 234.029 312.019 223.498 297.114 216.816C282.209 210.134 277.968 212.508 282.293 222.748C286.618 232.988 295.103 246.525 301.487 249.729C307.872 252.933 314.129 248.278 314.129 248.278Z" fill="url(#paint3_linear_1055_7717)" stroke="#1D191F" stroke-miterlimit="10" stroke-linecap="round" stroke-linejoin="round"/>
<path d="M299.151 227.666C296.267 225.033 293.4 222.829 290.911 221.672" stroke="#1D191F" stroke-miterlimit="10" stroke-linecap="round" stroke-linejoin="round"/>
<path d="M301.066 229.472C308.662 236.854 315.809 246.271 315.809 246.271C315.809 246.271 319.627 251.408 320.761 261.625" stroke="#1D191F" stroke-miterlimit="10" stroke-linecap="round" stroke-linejoin="round"/>
<path d="M311.803 289.101C311.803 289.101 316.601 289.253 319 286.361C321.4 283.469 322.839 275.401 316.841 265.507C310.843 255.613 307.004 255.004 304.605 262.158C302.205 269.312 300.766 279.968 303.165 284.382C305.564 288.797 311.803 289.101 311.803 289.101Z" fill="url(#paint4_linear_1055_7717)" stroke="#1D191F" stroke-miterlimit="10" stroke-linecap="round" stroke-linejoin="round"/>
<path d="M312.554 281.752C312.626 282.735 312.676 283.719 312.7 284.693" stroke="#1D191F" stroke-miterlimit="10" stroke-linecap="round" stroke-linejoin="round"/>
<path d="M308.874 261.722C308.874 261.722 311.387 270.243 312.348 279.448" stroke="#1D191F" stroke-miterlimit="10" stroke-linecap="round" stroke-linejoin="round"/>
<path d="M2.09961 230.719H112.905V4.45776" stroke="#1D191F" stroke-miterlimit="10" stroke-linecap="round" stroke-linejoin="round"/>
<path d="M230.497 230.719H119.69V4.45776" stroke="#1D191F" stroke-miterlimit="10" stroke-linecap="round" stroke-linejoin="round"/>
<path d="M164.917 230.719H275.724V4.45776" stroke="#1D191F" stroke-miterlimit="10" stroke-linecap="round" stroke-linejoin="round"/>
<path d="M253.11 57.5854L214.384 100.399" stroke="#1D191F" stroke-miterlimit="10" stroke-linecap="round" stroke-linejoin="round"/>
<path d="M231.626 90.7126L220.885 102.588" stroke="#1D191F" stroke-miterlimit="10" stroke-linecap="round" stroke-linejoin="round"/>
<path d="M146.261 46.3354L125.343 69.4616" stroke="#1D191F" stroke-miterlimit="10" stroke-linecap="round" stroke-linejoin="round"/>
<path d="M151.914 40.7091L166.047 25.0837" stroke="#1D191F" stroke-miterlimit="10" stroke-linecap="round" stroke-linejoin="round"/>
<path d="M108.383 183.842L94.8149 198.842" stroke="#1D191F" stroke-miterlimit="10" stroke-linecap="round" stroke-linejoin="round"/>
<path d="M103.861 163.841L78.7031 191.655" stroke="#1D191F" stroke-miterlimit="10" stroke-linecap="round" stroke-linejoin="round"/>
<path d="M359.108 76.3188C367.332 55.7419 357.327 32.3905 336.759 24.162C316.192 15.9335 292.851 25.9438 284.626 46.5206C276.401 67.0975 286.407 90.4489 306.975 98.6774C327.542 106.906 350.883 96.8956 359.108 76.3188Z" stroke="#1D191F" stroke-miterlimit="10" stroke-linecap="round" stroke-linejoin="round"/>
<path d="M321.854 96.4326C341.191 96.4326 356.867 80.7497 356.867 61.4038C356.867 42.0579 341.191 26.375 321.854 26.375C302.517 26.375 286.841 42.0579 286.841 61.4038C286.841 80.7497 302.517 96.4326 321.854 96.4326Z" stroke="#1D191F" stroke-miterlimit="10" stroke-linecap="round" stroke-linejoin="round"/>
<path d="M321.855 63.7981C323.176 63.7981 324.247 62.7266 324.247 61.4049C324.247 60.0832 323.176 59.0117 321.855 59.0117C320.533 59.0117 319.462 60.0832 319.462 61.4049C319.462 62.7266 320.533 63.7981 321.855 63.7981Z" stroke="#1D191F" stroke-miterlimit="10" stroke-linecap="round" stroke-linejoin="round"/>
<path d="M321.854 63.7988V75.5677" stroke="#1D191F" stroke-miterlimit="10" stroke-linecap="round" stroke-linejoin="round"/>
<path d="M319.461 61.4053H290.915" stroke="#1D191F" stroke-miterlimit="10" stroke-linecap="round" stroke-linejoin="round"/>
<path d="M246.906 224.691H289.794C289.794 224.691 266.611 281.804 270.958 307.317H227.491C227.491 307.317 235.604 242.085 246.906 224.691Z" fill="#1D191F" stroke="#1D191F" stroke-miterlimit="10" stroke-linecap="round" stroke-linejoin="round"/>
<path d="M209.8 142.703C209.8 142.703 210.229 150.435 224.614 154.946C238.997 159.457 253.597 154.946 261.754 161.39C269.912 167.833 269.698 177.713 266.907 182.654C264.116 187.594 259.607 192.534 272.918 198.333C286.229 204.133 278.285 221.101 272.704 227.33C267.121 233.558 257.461 236.565 246.726 234.418C235.991 232.27 223.325 206.281 209.585 192.535C195.845 178.788 194.168 153.415 202.93 146.141C211.692 138.866 209.8 142.703 209.8 142.703Z" fill="#1D191F" stroke="#1D191F" stroke-miterlimit="10" stroke-linecap="round" stroke-linejoin="round"/>
<path d="M207.591 114.905C207.591 114.905 213.516 112.321 215.035 117.337C216.555 122.353 217.01 136.032 217.01 136.032L213.82 135.272C213.82 135.272 214.58 119.768 211.085 117.336C207.591 114.904 204.856 120.376 204.856 120.376L207.591 114.905Z" fill="url(#paint5_linear_1055_7717)" stroke="#1D191F" stroke-miterlimit="10" stroke-linecap="round" stroke-linejoin="round"/>
<path d="M141.09 281.724L161.327 270.899C161.327 270.899 159.925 249.649 160.125 248.847C160.325 248.046 165.396 206.47 165.396 206.47L151.509 247.645L141.09 281.724Z" fill="#1D191F" stroke="#1D191F" stroke-miterlimit="10" stroke-linecap="round" stroke-linejoin="round"/>
<path d="M230.559 185.118C230.559 185.118 250.538 196.021 253.264 197.157C255.988 198.293 254.399 212.149 254.399 221.235C254.399 230.32 240.775 307.098 240.775 307.098H139.966C139.966 307.098 156.995 280.975 157.449 274.161C157.903 267.347 154.951 261.895 154.497 255.308C154.043 248.721 163.806 208.515 165.396 206.471C166.985 204.426 173.797 199.202 173.797 199.202L197.863 178.076L208.989 175.577L230.559 185.118Z" fill="#E3F89D" stroke="#1D191F" stroke-miterlimit="10" stroke-linecap="round" stroke-linejoin="round"/>
<path d="M163.764 281.545L160.401 288.472" stroke="#1D191F" stroke-miterlimit="10" stroke-linecap="round" stroke-linejoin="round"/>
<path d="M166.985 261.668C166.985 261.668 161.99 265.075 164.487 266.892C166.985 268.71 168.12 272.571 168.12 272.571L164.928 278.809" stroke="#1D191F" stroke-miterlimit="10" stroke-linecap="round" stroke-linejoin="round"/>
<path d="M190.515 278.195C191.87 278.3 193.293 278.375 194.786 278.417" stroke="#1D191F" stroke-miterlimit="10" stroke-linecap="round" stroke-linejoin="round"/>
<path d="M169.022 272.571C169.022 272.571 174.454 276.204 186.3 277.76" stroke="#1D191F" stroke-miterlimit="10" stroke-linecap="round" stroke-linejoin="round"/>
<path d="M155.478 127.368C155.478 127.368 152.439 128.584 152.439 132.536C152.439 136.488 155.629 144.24 155.629 144.24L157.452 143.632C157.452 143.632 154.11 135.576 154.565 132.688C155.021 129.8 157.756 129.04 157.756 129.04L157.148 127.064L155.478 127.368Z" fill="url(#paint6_linear_1055_7717)" stroke="#1D191F" stroke-miterlimit="10" stroke-linecap="round" stroke-linejoin="round"/>
<path d="M163.297 147.72C164.07 151.718 162.727 155.339 160.297 155.81C157.866 156.28 155.27 153.421 154.496 149.424C153.723 145.426 155.066 141.804 157.497 141.334C159.927 140.864 162.524 143.723 163.297 147.72Z" fill="url(#paint7_linear_1055_7717)" stroke="#1D191F" stroke-miterlimit="10" stroke-linecap="round" stroke-linejoin="round"/>
<path d="M170.686 146.432C172.201 151.543 170.43 156.576 166.73 157.674C163.029 158.772 158.801 155.519 157.286 150.409C155.771 145.299 157.542 140.266 161.243 139.168C164.943 138.069 169.171 141.321 170.686 146.432Z" fill="#1D191F" stroke="#1D191F" stroke-miterlimit="10" stroke-linecap="round" stroke-linejoin="round"/>
<path d="M184.399 174.291L187.995 185.982L176.174 200.88L174.21 212.389C174.21 212.389 172.246 245.234 173.368 250.287C174.491 255.34 174.491 256.743 174.491 256.743C174.491 256.743 198.903 228.39 210.969 210.985C223.034 193.58 225.84 182.912 225.84 182.912L214.055 176.456L208.443 150.349L184.399 174.291Z" fill="#FAFAFA" stroke="#1D191F" stroke-miterlimit="10" stroke-linecap="round" stroke-linejoin="round"/>
<path d="M203.033 162.97L187.995 185.981L183.803 172.436L203.033 162.97Z" fill="#1D191F" stroke="#1D191F" stroke-miterlimit="10" stroke-linecap="round" stroke-linejoin="round"/>
<path d="M174.321 211.735L174.21 212.389C174.21 212.389 172.246 245.233 173.368 250.287C174.491 255.34 174.491 256.743 174.491 256.743C174.491 256.743 198.903 228.39 210.969 210.985C211.915 209.62 212.798 208.302 213.633 207.022C198.523 212.194 183.123 212.285 174.321 211.735Z" fill="#FAFAFA" stroke="#1D191F" stroke-miterlimit="10" stroke-linecap="round" stroke-linejoin="round"/>
<path d="M168.392 102.592C168.392 102.592 157.149 109.432 155.933 119.768C154.717 130.104 158.972 141.199 160.643 145.607C162.314 150.015 168.087 167.191 171.126 170.535C174.165 173.879 184.04 178.895 185.711 179.806C187.383 180.719 190.421 180.414 193.004 178.591C195.586 176.767 206.222 163.847 207.892 160.807C209.564 157.766 209.867 151.079 209.867 151.079C209.867 151.079 209.563 137.703 208.956 129.038C208.348 120.375 208.804 112.015 201.663 104.719C194.524 97.424 175.381 97.2718 168.392 102.592Z" fill="#FAFAFA" stroke="#1D191F" stroke-miterlimit="10" stroke-linecap="round" stroke-linejoin="round"/>
<path d="M208.957 129.039C208.349 120.375 208.804 112.015 201.664 104.72C194.524 97.4239 175.381 97.2718 168.392 102.592C168.392 102.592 157.149 109.432 155.933 119.768C155.227 125.772 156.369 132.023 157.775 137.081C160.361 135.509 169.083 130.132 178.874 123.263C190.573 115.055 194.371 102.287 194.371 102.287C194.371 102.287 195.738 101.527 195.434 103.199C195.13 104.871 190.572 114.751 188.902 116.271C187.23 117.792 187.23 117.792 187.23 117.792C187.23 117.792 188.597 117.487 194.827 124.935C201.056 132.383 204.55 135.423 206.373 136.335C206.939 136.618 208.062 136.813 209.39 136.924C209.27 134.191 209.125 131.435 208.957 129.039Z" fill="#1D191F" stroke="#1D191F" stroke-miterlimit="10" stroke-linecap="round" stroke-linejoin="round"/>
<path d="M211.691 151.84C215.551 151.84 218.68 147.518 218.68 142.188C218.68 136.857 215.551 132.536 211.691 132.536C207.831 132.536 204.702 136.857 204.702 142.188C204.702 147.518 207.831 151.84 211.691 151.84Z" fill="#1D191F" stroke="#1D191F" stroke-miterlimit="10" stroke-linecap="round" stroke-linejoin="round"/>
<path d="M214.655 147.887C217.13 147.887 219.136 144.586 219.136 140.515C219.136 136.444 217.13 133.143 214.655 133.143C212.18 133.143 210.173 136.444 210.173 140.515C210.173 144.586 212.18 147.887 214.655 147.887Z" fill="url(#paint8_linear_1055_7717)" stroke="#1D191F" stroke-miterlimit="10" stroke-linecap="round" stroke-linejoin="round"/>
<path d="M160.296 152.488C160.296 152.488 160.34 168.278 164.442 169.646C168.544 171.014 179.786 168.278 179.786 168.278" stroke="#1D191F" stroke-width="2" stroke-miterlimit="10" stroke-linecap="round" stroke-linejoin="round"/>
<path d="M185.56 168.201C185.56 169.419 184.064 170.406 182.218 170.406C180.372 170.406 178.875 169.419 178.875 168.201C178.875 166.984 180.372 165.997 182.218 165.997C184.064 165.997 185.56 166.984 185.56 168.201Z" fill="#1D191F" stroke="#1D191F" stroke-miterlimit="10" stroke-linecap="round" stroke-linejoin="round"/>
<path d="M186.511 186.708C186.511 186.708 181.743 195.112 178.337 220.098C174.932 245.085 177.202 250.082 177.202 250.082L172.434 253.035C172.434 253.035 162.444 251.899 165.849 228.276C169.255 204.652 171.072 200.791 171.072 200.791L186.511 186.708Z" fill="#E3F89D" stroke="#1D191F" stroke-miterlimit="10" stroke-linecap="round" stroke-linejoin="round"/>
<path d="M216.935 178.076C216.935 178.076 206.037 203.971 194.685 220.099C183.333 236.227 167.893 259.396 167.893 259.396C167.893 259.396 176.067 255.535 193.322 242.587C210.578 229.639 228.061 199.883 229.877 196.93C231.694 193.977 234.418 187.162 234.418 187.162L216.935 178.076Z" fill="#E3F89D" stroke="#1D191F" stroke-miterlimit="10" stroke-linecap="round" stroke-linejoin="round"/>
<path d="M122.62 293.149C122.62 293.149 119.37 295.239 114.261 297.33C109.153 299.42 108.685 299.045 110.315 300.814C111.944 302.583 120.531 299.42 122.852 298.491C125.174 297.562 129.586 296.168 129.586 296.168C129.586 296.168 134.926 299.188 138.177 300.117C141.427 301.046 145.375 299.652 145.375 299.652C145.375 299.652 145.607 295.936 142.821 293.845C140.035 291.755 133.998 286.877 131.908 287.109C129.818 287.341 122.62 293.149 122.62 293.149Z" fill="#FAFAFA" stroke="#1D191F" stroke-miterlimit="10" stroke-linecap="round" stroke-linejoin="round"/>
<path d="M121.227 287.575C121.227 287.575 118.441 286.878 116.583 288.272C114.726 289.665 112.636 294.079 112.404 295.241C112.172 296.402 112.636 297.099 114.494 295.473C116.351 293.847 119.602 291.524 119.602 291.524L122.388 290.595L121.227 287.575Z" fill="#FAFAFA" stroke="#1D191F" stroke-miterlimit="10" stroke-linecap="round" stroke-linejoin="round"/>
<path d="M128.425 285.482C128.425 285.482 122.852 283.624 121.692 285.25C120.531 286.876 116.583 296.168 117.745 296.865C118.906 297.561 120.531 296.168 122.62 293.148C124.71 290.129 125.871 288.502 125.871 288.502L128.656 288.037L128.425 285.482Z" fill="#FAFAFA" stroke="#1D191F" stroke-miterlimit="10" stroke-linecap="round" stroke-linejoin="round"/>
<path d="M138.377 287.564C138.377 287.564 131.111 281.885 129.295 283.247C127.479 284.611 121.575 293.469 120.895 295.286C120.214 297.104 123.393 296.195 125.89 293.923C128.387 291.652 131.339 289.153 131.339 289.153L137.015 292.106L138.377 287.564Z" fill="#FAFAFA" stroke="#1D191F" stroke-miterlimit="10" stroke-linecap="round" stroke-linejoin="round"/>
<path d="M164.488 291.879C164.488 291.879 154.952 291.425 151.092 290.061C147.232 288.698 139.512 285.745 137.242 285.973C134.971 286.2 126.344 294.604 124.527 296.422C122.711 298.239 122.894 298.728 124.71 298.955C126.526 299.182 130.884 296.194 132.928 294.604C134.971 293.014 137.014 292.105 137.014 292.105C137.014 292.105 140.194 296.648 142.464 298.693C144.734 300.737 150.184 302.328 152.227 302.1C154.27 301.873 156.086 301.419 156.086 301.419L163.806 301.191L164.488 291.879Z" fill="#FAFAFA" stroke="#1D191F" stroke-miterlimit="10" stroke-linecap="round" stroke-linejoin="round"/>
<path d="M230.786 226.224C230.786 226.224 222.386 235.991 222.84 239.398C223.293 242.806 223.521 246.213 223.521 246.213L217.391 283.238C217.391 283.238 212.169 280.739 212.169 282.784C212.169 284.828 212.169 284.828 212.169 284.828L163.127 289.825L162.673 307.088L240.777 307.316C240.777 307.316 244.637 303 245.091 301.41C245.545 299.82 254.172 272.334 256.443 243.486C258.713 214.638 257.578 201.69 256.443 199.419C255.307 197.148 241.912 192.831 241.912 192.831" fill="#E3F89D"/>
<path d="M230.786 226.224C230.786 226.224 222.386 235.991 222.84 239.398C223.294 242.806 223.521 246.213 223.521 246.213L217.391 283.238C217.391 283.238 212.169 280.739 212.169 282.784C212.169 284.828 212.169 284.828 212.169 284.828L163.127 289.825L162.673 307.088L240.777 307.316C240.777 307.316 244.637 303 245.091 301.41C245.545 299.82 254.172 272.334 256.443 243.486C258.713 214.638 257.578 201.69 256.443 199.419C255.307 197.148 241.912 192.831 241.912 192.831" stroke="#1D191F" stroke-miterlimit="10" stroke-linecap="round" stroke-linejoin="round"/>
<path d="M219.206 283.02C219.206 283.02 226.471 287.79 230.785 288.926L219.206 283.02Z" fill="#FAFAFA"/>
<path d="M219.206 283.02C219.206 283.02 226.471 287.79 230.785 288.926" stroke="#1D191F" stroke-miterlimit="10" stroke-linecap="round" stroke-linejoin="round"/>
<path d="M151.106 236.946L156.711 218.978C156.711 218.978 160.261 215.595 162.628 211.535C164.996 207.475 164.996 199.863 164.658 198.51C164.319 197.156 169.561 191.066 171.083 188.867C172.605 186.668 173.45 182.778 171.422 179.901C169.392 177.025 168.378 181.762 167.026 183.961C165.673 186.161 160.938 188.359 160.938 188.359L155.866 192.419C155.866 192.419 147.581 199.693 147.073 200.708C146.566 201.723 145.551 204.937 145.551 204.937L146.228 214.748L141.832 231.834L151.106 236.946Z" fill="#FAFAFA" stroke="#1D191F" stroke-miterlimit="10" stroke-linecap="round" stroke-linejoin="round"/>
<path d="M152.483 186.5C152.483 186.5 156.541 180.071 157.726 178.042C158.909 176.011 160.769 167.891 161.953 168.399C163.137 168.907 164.32 171.613 163.982 175.166C163.644 178.718 159.416 186.838 159.416 186.838L152.483 186.5Z" fill="#FAFAFA" stroke="#1D191F" stroke-miterlimit="10" stroke-linecap="round" stroke-linejoin="round"/>
<path d="M142.677 226.76L146.227 214.749L144.705 195.464L149.44 186.33L162.46 184.638C162.46 184.638 170.407 188.867 171.083 188.867C171.759 188.867 171.083 190.728 169.561 191.066C168.039 191.404 165.165 190.559 165.165 190.559L170.068 193.773C170.068 193.773 169.73 195.295 168.546 195.633C167.363 195.971 164.996 195.971 164.996 195.971C164.996 195.971 169.223 198.678 168.208 199.186C167.194 199.693 166.01 199.862 164.996 199.862C163.981 199.862 161.783 199.862 161.783 199.862L159.247 199.524L155.358 201.047C155.358 201.047 158.063 207.983 157.894 211.366C157.725 214.749 153.498 216.949 153.498 216.949" fill="#FAFAFA"/>
<path d="M142.677 226.76L146.227 214.749L144.705 195.464L149.44 186.33L162.46 184.638C162.46 184.638 170.407 188.867 171.083 188.867C171.759 188.867 171.083 190.728 169.561 191.066C168.039 191.404 165.165 190.559 165.165 190.559L170.068 193.773C170.068 193.773 169.73 195.295 168.546 195.633C167.363 195.971 164.996 195.971 164.996 195.971C164.996 195.971 169.223 198.678 168.208 199.186C167.194 199.693 166.01 199.862 164.996 199.862C163.981 199.862 161.783 199.862 161.783 199.862L159.247 199.524L155.358 201.047C155.358 201.047 158.063 207.983 157.894 211.366C157.725 214.749 153.498 216.949 153.498 216.949" stroke="#1D191F" stroke-miterlimit="10" stroke-linecap="round" stroke-linejoin="round"/>
<path d="M165.165 190.559C165.165 190.559 162.46 188.36 160.938 188.36C159.417 188.36 150.117 190.051 150.117 190.051" stroke="#1D191F" stroke-miterlimit="10" stroke-linecap="round" stroke-linejoin="round"/>
<path d="M164.997 195.972C164.997 195.972 160.601 193.604 159.248 193.604C157.895 193.604 147.243 196.31 147.243 196.31" stroke="#1D191F" stroke-miterlimit="10" stroke-linecap="round" stroke-linejoin="round"/>
<path d="M142.894 222.988L156.62 232.242C156.62 232.242 150.508 265.085 149.906 267.892C149.305 270.698 144.897 278.116 142.693 280.321C140.489 282.526 137.884 282.125 131.873 280.521C125.861 278.917 120.652 274.106 120.852 267.892C121.052 261.677 142.894 222.988 142.894 222.988Z" fill="#E3F89D" stroke="#1D191F" stroke-miterlimit="10" stroke-linecap="round" stroke-linejoin="round"/>
<path d="M71.9305 302.582H67.9404V303.811H71.9305V302.582Z" fill="#FAFAFA" stroke="#1D191F" stroke-miterlimit="10" stroke-linecap="round" stroke-linejoin="round"/>
<path d="M77.4559 302.582H73.4658V303.811H77.4559V302.582Z" fill="#FAFAFA" stroke="#1D191F" stroke-miterlimit="10" stroke-linecap="round" stroke-linejoin="round"/>
<path d="M82.9812 302.582H78.9912V303.811H82.9812V302.582Z" fill="#FAFAFA" stroke="#1D191F" stroke-miterlimit="10" stroke-linecap="round" stroke-linejoin="round"/>
<path d="M88.5061 302.582H84.5161V303.811H88.5061V302.582Z" fill="#FAFAFA" stroke="#1D191F" stroke-miterlimit="10" stroke-linecap="round" stroke-linejoin="round"/>
<path d="M94.032 302.582H90.042V303.811H94.032V302.582Z" fill="#FAFAFA" stroke="#1D191F" stroke-miterlimit="10" stroke-linecap="round" stroke-linejoin="round"/>
<path d="M99.5564 302.582H95.5664V303.811H99.5564V302.582Z" fill="#FAFAFA" stroke="#1D191F" stroke-miterlimit="10" stroke-linecap="round" stroke-linejoin="round"/>
<path d="M105.082 302.582H101.092V303.811H105.082V302.582Z" fill="#FAFAFA" stroke="#1D191F" stroke-miterlimit="10" stroke-linecap="round" stroke-linejoin="round"/>
<path d="M110.608 302.582H106.617V303.811H110.608V302.582Z" fill="#FAFAFA" stroke="#1D191F" stroke-miterlimit="10" stroke-linecap="round" stroke-linejoin="round"/>
<path d="M116.132 302.582H112.142V303.811H116.132V302.582Z" fill="#FAFAFA" stroke="#1D191F" stroke-miterlimit="10" stroke-linecap="round" stroke-linejoin="round"/>
<path d="M121.658 302.582H117.668V303.811H121.658V302.582Z" fill="#FAFAFA" stroke="#1D191F" stroke-miterlimit="10" stroke-linecap="round" stroke-linejoin="round"/>
<path d="M127.183 302.582H123.193V303.811H127.183V302.582Z" fill="#FAFAFA" stroke="#1D191F" stroke-miterlimit="10" stroke-linecap="round" stroke-linejoin="round"/>
<path d="M132.708 302.582H128.718V303.811H132.708V302.582Z" fill="#FAFAFA" stroke="#1D191F" stroke-miterlimit="10" stroke-linecap="round" stroke-linejoin="round"/>
<path d="M138.234 302.582H134.243V303.811H138.234V302.582Z" fill="#FAFAFA" stroke="#1D191F" stroke-miterlimit="10" stroke-linecap="round" stroke-linejoin="round"/>
<path d="M143.759 302.582H139.769V303.811H143.759V302.582Z" fill="#FAFAFA" stroke="#1D191F" stroke-miterlimit="10" stroke-linecap="round" stroke-linejoin="round"/>
<path d="M149.284 302.582H145.294V303.811H149.284V302.582Z" fill="#FAFAFA" stroke="#1D191F" stroke-miterlimit="10" stroke-linecap="round" stroke-linejoin="round"/>
<path d="M154.808 302.582H150.818V303.811H154.808V302.582Z" fill="#FAFAFA" stroke="#1D191F" stroke-miterlimit="10" stroke-linecap="round" stroke-linejoin="round"/>
<path d="M164.428 303.549H65.647V307.028H164.428V303.549Z" fill="url(#paint9_linear_1055_7717)" stroke="#1D191F" stroke-miterlimit="10" stroke-linecap="round" stroke-linejoin="round"/>
<path d="M164.428 303.549H126.56V307.028H164.428V303.549Z" fill="url(#paint10_linear_1055_7717)" stroke="#1D191F" stroke-miterlimit="10" stroke-linecap="round" stroke-linejoin="round"/>
<path d="M96.4732 273.106H18.8109L3.21338 190.479H80.8757L96.4732 273.106Z" fill="#1D191F" stroke="url(#paint11_linear_1055_7717)" stroke-miterlimit="10" stroke-linecap="round" stroke-linejoin="round"/>
<path d="M94.1101 271.013H18.7726L3.96533 192.575H79.3028L94.1101 271.013Z" fill="#1D191F"/>
<path d="M79.6034 264.77H23.59L12.5806 206.451H68.5939L79.6034 264.77Z" fill="#1D191F"/>
<path d="M3.96533 192.575L18.7726 271.013H94.1101L79.3028 192.575M3.96533 192.575H79.3028M3.96533 192.575L12.5806 206.451M79.3028 192.575L68.5939 206.451M79.6034 264.77H23.59M79.6034 264.77L68.5939 206.451M79.6034 264.77L94.1093 271.013M23.59 264.77L12.5806 206.451M23.59 264.77L18.772 271.013M12.5806 206.451H68.5939" stroke="url(#paint12_linear_1055_7717)" stroke-miterlimit="10" stroke-linecap="round" stroke-linejoin="round"/>
<path d="M88.6751 302.678H42.0195V307.317H88.6751V302.678Z" fill="#1D191F" stroke="url(#paint13_linear_1055_7717)" stroke-miterlimit="10" stroke-linecap="round" stroke-linejoin="round"/>
<path d="M46.3654 247.305H33.6147L41.7293 240.056H54.48L46.3654 247.305Z" fill="#1D191F"/>
<path d="M62.0141 307.317H49.2635L33.6147 289.528H46.3654L62.0141 307.317Z" fill="#1D191F"/>
<path d="M46.3654 247.594H33.6147V289.343H46.3654V247.594Z" fill="#1D191F"/>
<path d="M46.3654 247.305H33.6147L41.7293 240.056H54.48L46.3654 247.305Z" stroke="url(#paint14_linear_1055_7717)" stroke-miterlimit="10" stroke-linecap="round" stroke-linejoin="round"/>
<path d="M62.0141 307.317H49.2635L33.6147 289.528H46.3654L62.0141 307.317Z" stroke="url(#paint15_linear_1055_7717)" stroke-miterlimit="10" stroke-linecap="round" stroke-linejoin="round"/>
<path d="M46.3654 247.594H33.6147V289.343H46.3654V247.594Z" stroke="url(#paint16_linear_1055_7717)" stroke-miterlimit="10" stroke-linecap="round" stroke-linejoin="round"/>
<path d="M233.083 299.374C233.083 299.374 235.353 304.144 241.029 307.097L233.083 299.374Z" fill="#FAFAFA"/>
<path d="M233.083 299.374C233.083 299.374 235.353 304.144 241.029 307.097" stroke="#1D191F" stroke-miterlimit="10" stroke-linecap="round" stroke-linejoin="round"/>
<defs>
<linearGradient id="paint0_linear_1055_7717" x1="332.24" y1="212.268" x2="309.25" y2="210.347" gradientUnits="userSpaceOnUse">
<stop stop-color="#C6A5D5"/>
<stop offset="0.5" stop-color="#F1E4FF"/>
<stop offset="1" stop-color="#E8FE74"/>
</linearGradient>
<linearGradient id="paint1_linear_1055_7717" x1="349.389" y1="250.602" x2="321.507" y2="246.239" gradientUnits="userSpaceOnUse">
<stop stop-color="#C6A5D5"/>
<stop offset="0.5" stop-color="#F1E4FF"/>
<stop offset="1" stop-color="#E8FE74"/>
</linearGradient>
<linearGradient id="paint2_linear_1055_7717" x1="337.474" y1="285.333" x2="321.32" y2="282.806" gradientUnits="userSpaceOnUse">
<stop stop-color="#C6A5D5"/>
<stop offset="0.5" stop-color="#F1E4FF"/>
<stop offset="1" stop-color="#E8FE74"/>
</linearGradient>
<linearGradient id="paint3_linear_1055_7717" x1="306.946" y1="238.381" x2="279.064" y2="234.018" gradientUnits="userSpaceOnUse">
<stop stop-color="#C6A5D5"/>
<stop offset="0.5" stop-color="#F1E4FF"/>
<stop offset="1" stop-color="#E8FE74"/>
</linearGradient>
<linearGradient id="paint4_linear_1055_7717" x1="315.223" y1="278.625" x2="300.892" y2="277.274" gradientUnits="userSpaceOnUse">
<stop stop-color="#C6A5D5"/>
<stop offset="0.5" stop-color="#F1E4FF"/>
<stop offset="1" stop-color="#E8FE74"/>
</linearGradient>
<linearGradient id="paint5_linear_1055_7717" x1="213.294" y1="128.84" x2="204.184" y2="128.046" gradientUnits="userSpaceOnUse">
<stop stop-color="#C6A5D5"/>
<stop offset="0.5" stop-color="#F1E4FF"/>
<stop offset="1" stop-color="#E8FE74"/>
</linearGradient>
<linearGradient id="paint6_linear_1055_7717" x1="156.13" y1="138.572" x2="152.124" y2="138.378" gradientUnits="userSpaceOnUse">
<stop stop-color="#C6A5D5"/>
<stop offset="0.5" stop-color="#F1E4FF"/>
<stop offset="1" stop-color="#E8FE74"/>
</linearGradient>
<linearGradient id="paint7_linear_1055_7717" x1="160.691" y1="151.05" x2="153.782" y2="150.365" gradientUnits="userSpaceOnUse">
<stop stop-color="#C6A5D5"/>
<stop offset="0.5" stop-color="#F1E4FF"/>
<stop offset="1" stop-color="#E8FE74"/>
</linearGradient>
<linearGradient id="paint8_linear_1055_7717" x1="216.396" y1="143.021" x2="209.687" y2="142.383" gradientUnits="userSpaceOnUse">
<stop stop-color="#C6A5D5"/>
<stop offset="0.5" stop-color="#F1E4FF"/>
<stop offset="1" stop-color="#E8FE74"/>
</linearGradient>
<linearGradient id="paint9_linear_1055_7717" x1="134.228" y1="305.88" x2="130.626" y2="289.889" gradientUnits="userSpaceOnUse">
<stop stop-color="#C6A5D5"/>
<stop offset="0.5" stop-color="#F1E4FF"/>
<stop offset="1" stop-color="#E8FE74"/>
</linearGradient>
<linearGradient id="paint10_linear_1055_7717" x1="152.85" y1="305.88" x2="145.512" y2="293.389" gradientUnits="userSpaceOnUse">
<stop stop-color="#C6A5D5"/>
<stop offset="0.5" stop-color="#F1E4FF"/>
<stop offset="1" stop-color="#E8FE74"/>
</linearGradient>
<linearGradient id="paint11_linear_1055_7717" x1="67.9607" y1="245.839" x2="-0.346358" y2="233.782" gradientUnits="userSpaceOnUse">
<stop stop-color="#C6A5D5"/>
<stop offset="0.5" stop-color="#F1E4FF"/>
<stop offset="1" stop-color="#E8FE74"/>
</linearGradient>
<linearGradient id="paint12_linear_1055_7717" x1="66.5499" y1="245.129" x2="0.597727" y2="233.275" gradientUnits="userSpaceOnUse">
<stop stop-color="#C6A5D5"/>
<stop offset="0.5" stop-color="#F1E4FF"/>
<stop offset="1" stop-color="#E8FE74"/>
</linearGradient>
<linearGradient id="paint13_linear_1055_7717" x1="74.411" y1="305.786" x2="64.2674" y2="289.832" gradientUnits="userSpaceOnUse">
<stop stop-color="#C6A5D5"/>
<stop offset="0.5" stop-color="#F1E4FF"/>
<stop offset="1" stop-color="#E8FE74"/>
</linearGradient>
<linearGradient id="paint14_linear_1055_7717" x1="53.3315" y1="285.121" x2="31.9758" y2="283.711" gradientUnits="userSpaceOnUse">
<stop stop-color="#C6A5D5"/>
<stop offset="0.5" stop-color="#F1E4FF"/>
<stop offset="1" stop-color="#E8FE74"/>
</linearGradient>
<linearGradient id="paint15_linear_1055_7717" x1="53.3315" y1="285.121" x2="31.9758" y2="283.711" gradientUnits="userSpaceOnUse">
<stop stop-color="#C6A5D5"/>
<stop offset="0.5" stop-color="#F1E4FF"/>
<stop offset="1" stop-color="#E8FE74"/>
</linearGradient>
<linearGradient id="paint16_linear_1055_7717" x1="53.3315" y1="285.121" x2="31.9758" y2="283.711" gradientUnits="userSpaceOnUse">
<stop stop-color="#C6A5D5"/>
<stop offset="0.5" stop-color="#F1E4FF"/>
<stop offset="1" stop-color="#E8FE74"/>
</linearGradient>
</defs>
</svg>
