<svg width="46" height="32" viewBox="0 0 46 32" fill="none" xmlns="http://www.w3.org/2000/svg">
<g id="63457240e85439c338e98c46_quote">
<path id="Shape" fill-rule="evenodd" clip-rule="evenodd" d="M34.0532 12.8855C34.4958 12.8237 34.9414 12.7615 35.4044 12.7615C37.3105 12.7614 39.1776 13.2755 40.7898 14.2443C42.4021 15.2131 43.6935 16.597 44.5148 18.236C45.3361 19.875 45.6536 21.702 45.4307 23.5057C45.2078 25.3095 44.4535 27.0163 43.2551 28.4286C42.0568 29.841 40.4632 30.9012 38.6589 31.4866C36.8545 32.072 34.9132 32.1588 33.0593 31.7367C31.2054 31.3147 29.5148 30.4012 28.183 29.1018C26.8513 27.8025 25.9327 26.1704 25.5337 24.3944L25.4755 24.4072L25.4194 24.0481C25.3745 23.7553 25.3117 23.332 25.278 22.8959C25.1838 21.9725 25.1389 20.6964 25.2152 19.1615C25.3072 17.6289 25.545 15.8375 26.0767 13.9521C26.3571 13.0116 26.7003 12.0433 27.1265 11.0963C27.1763 10.9962 27.2258 10.896 27.2754 10.7957C27.6944 9.94786 28.1136 9.09951 28.7014 8.31957C29.2689 7.40466 30.0002 6.60093 30.7405 5.83567C31.2032 5.27807 31.7777 4.84108 32.3377 4.41512C32.5978 4.21728 32.8548 4.02182 33.096 3.81777C33.625 3.39725 34.2018 3.08346 34.7579 2.78096C35.0272 2.63446 35.2917 2.4906 35.5435 2.33854C36.0652 2.00565 36.615 1.80522 37.137 1.61491C37.3826 1.52538 37.6221 1.43808 37.8496 1.34028C38.0245 1.27558 38.1951 1.20938 38.3618 1.14467C38.8836 0.942161 39.3675 0.754345 39.8282 0.673346C40.1686 0.591345 40.4854 0.517053 40.7745 0.449265C40.9904 0.398657 41.1907 0.351674 41.3739 0.307815L42.7131 0L43.8011 4.14268L42.7378 4.56379L41.5286 5.03834C41.1771 5.14691 40.8421 5.34213 40.4858 5.5497C40.3511 5.62821 40.2133 5.70848 40.0705 5.78651C39.8987 5.89561 39.7118 5.99377 39.521 6.09399C39.1584 6.28437 38.7818 6.48212 38.4688 6.77621C38.2839 6.93935 38.0807 7.09016 37.875 7.24279C37.5388 7.49218 37.1961 7.74645 36.9164 8.06735C36.7574 8.26382 36.5773 8.44517 36.3966 8.62706C36.0879 8.9379 35.7776 9.25036 35.5681 9.64277L35.5388 9.68531C35.1515 10.246 34.7655 10.8048 34.516 11.4469C34.2603 11.9001 34.101 12.4045 33.9462 12.9004C33.9818 12.8955 34.0175 12.8905 34.0532 12.8855ZM9.37669 12.8855C9.81926 12.8237 10.2649 12.7615 10.7278 12.7615C12.6339 12.7614 14.501 13.2755 16.1133 14.2443C17.7255 15.2131 19.017 16.597 19.8382 18.236C20.6595 19.875 20.9771 21.702 20.7542 23.5057C20.5312 25.3095 19.7769 27.0163 18.5786 28.4286C17.3802 29.841 15.7866 30.9012 13.9823 31.4866C12.178 32.072 10.2366 32.1588 8.38272 31.7367C6.52886 31.3147 4.83825 30.4012 3.50648 29.1018C2.17471 27.8025 1.2562 26.1704 0.857199 24.3944L0.798872 24.4072L0.742789 24.0481C0.697923 23.7553 0.63511 23.332 0.60146 22.8959C0.50724 21.9725 0.462373 20.6964 0.538646 19.1615C0.630622 17.6289 0.868414 15.8375 1.40008 13.9521C1.6805 13.0116 2.02373 12.0433 2.44996 11.0963C2.49988 10.996 2.54952 10.8955 2.59916 10.795C3.01803 9.9474 3.43712 9.0993 4.02476 8.31957C4.59233 7.40466 5.32365 6.60094 6.06395 5.83568C6.52728 5.27576 7.10288 4.83783 7.66375 4.4111C7.92298 4.21386 8.17907 4.01902 8.41947 3.81563C8.94842 3.3951 9.52528 3.0813 10.0814 2.77879C10.3507 2.6323 10.6151 2.48845 10.8669 2.33641C11.3929 2.0023 11.9462 1.80079 12.4721 1.60929C12.7133 1.52146 12.9487 1.43573 13.173 1.34028C13.3479 1.27561 13.5184 1.20944 13.685 1.14476C14.2068 0.942217 14.6908 0.754363 15.1516 0.67335C15.4917 0.591426 15.8083 0.517196 16.0971 0.449459C16.3133 0.398778 16.5139 0.351732 16.6973 0.307819L18.0366 4.18384e-06L19.1246 4.14269L18.0612 4.56379L16.8521 5.03835C16.5004 5.14693 16.1653 5.34221 15.8091 5.54982C15.6744 5.62829 15.5367 5.70852 15.3939 5.78651C15.2222 5.89559 15.0353 5.99375 14.8445 6.09394C14.4819 6.28434 14.1052 6.4821 13.7922 6.77622C13.6073 6.93939 13.404 7.09023 13.1982 7.2429C12.8622 7.49225 12.5195 7.7465 12.2398 8.06735C12.0808 8.26383 11.9007 8.44517 11.72 8.62707C11.4113 8.9379 11.101 9.25036 10.8915 9.64277C10.8818 9.65695 10.872 9.67113 10.8622 9.68532C10.4749 10.246 10.0889 10.8048 9.83945 11.4469C9.5837 11.9001 9.42447 12.4045 9.26967 12.9004C9.30533 12.8955 9.341 12.8905 9.37669 12.8855Z" fill="#114855"/>
</g>
</svg>
