<svg width="177" height="6" viewBox="0 0 177 6" fill="none" xmlns="http://www.w3.org/2000/svg">
<path fill-rule="evenodd" clip-rule="evenodd" d="M3.97532 5.97927C25.8517 4.4636 47.8807 3.49985 69.9428 3.06513C92.1023 2.62902 114.304 2.73408 136.444 3.38125C148.903 3.74499 161.341 4.2829 173.743 4.98843C175.225 5.07295 176.5 4.2843 176.5 3.58763C176.5 2.76023 175.229 2.27135 173.743 2.18683C151.553 0.924708 129.248 0.204696 106.922 0.0380008C84.6723 -0.128228 62.4071 0.250923 40.2293 1.17498C27.6199 1.70029 15.0445 2.40909 2.50954 3.27759C1.03273 3.37985 0.226777 4.34126 0.584262 5.00104C1.0217 5.81024 2.49391 6.08199 3.97532 5.97927" fill="#184A4E"/>
</svg>
