<svg width="67" height="66" viewBox="0 0 67 66" fill="none" xmlns="http://www.w3.org/2000/svg">
<path id="Vector 105" d="M1.92595 29.0079L14.2507 32.8362C15.571 33.3647 15.6668 34.6314 14.735 35.8553L8.01803 43.5462C6.74301 45.308 9.08801 47.5366 10.8022 46.5033L19.5714 40.5552C21.7759 39.2264 22.9977 40.1455 22.944 42.8266L22.0292 62.9129C21.8296 65.351 25.4977 66.4509 26.235 64.3509L31.9385 48.3312C32.9212 46.0834 34.2415 46.612 35.5109 48.1644L47.132 63.0121C49.0859 65.1453 51.6336 63.2785 51.0506 60.65L47.3036 48.3403C46.9632 47.2211 46.966 45.5639 48.8744 45.4068L63.9946 45.5635C66.6862 45.5966 67.1816 41.987 64.9321 41.0252L54.3696 36.7969C52.5118 35.9302 51.8277 35.3492 53.1027 33.5873L65.6076 17.7722C66.8831 16.0101 65.4192 13.5815 62.9219 14.4246L46.031 19.6396C43.7791 20.3348 42.8501 19.9015 42.8048 17.611L42.5372 2.21064C42.2475 0.0676458 39.6548 -0.35609 38.7706 1.50122L30.618 18.9972C29.3908 21.3924 27.7749 22.0354 25.9195 19.5116L16.9362 7.37826C15.1291 5.48771 12.3365 7.50211 13.0176 9.74035L17.1081 21.512C17.9359 23.9928 16.7113 24.731 14.4111 24.7931L2.37353 24.7649C0.465055 24.922 0.214527 28.384 1.92595 29.0079Z" fill="#5D8083"/>
</svg>
