<svg width="343" height="436" viewBox="0 0 343 436" fill="none" xmlns="http://www.w3.org/2000/svg">
<path d="M282.14 6C282.14 7.47276 280.946 8.66667 279.473 8.66667C278 8.66667 276.806 7.47276 276.806 6C276.806 4.52724 278 3.33333 279.473 3.33333C280.946 3.33333 282.14 4.52724 282.14 6ZM233.541 288.971V289.471H233.539L233.541 288.971ZM130.726 288.515V288.015H130.728L130.726 288.515ZM272.71 430C272.71 431.473 271.516 432.667 270.043 432.667C268.57 432.667 267.376 431.473 267.376 430C267.376 428.527 268.57 427.333 270.043 427.333C271.516 427.333 272.71 428.527 272.71 430ZM32.5826 118.036C32.4305 117.806 32.4941 117.495 32.7246 117.343C32.9551 117.191 33.2652 117.255 33.4173 117.485L32.5826 118.036ZM37.8738 30.2129C37.6904 30.4194 37.3744 30.4381 37.1679 30.2547C36.9615 30.0713 36.9428 29.7553 37.1262 29.5488L37.8738 30.2129ZM298.061 257.828C298.193 257.585 298.497 257.496 298.739 257.628C298.982 257.76 299.071 258.064 298.939 258.306L298.061 257.828ZM297.644 176.077C297.801 176.304 297.744 176.615 297.517 176.772C297.29 176.929 296.978 176.872 296.821 176.645L297.644 176.077ZM29.6215 325.511C29.512 325.765 29.2178 325.882 28.9643 325.772C28.7107 325.663 28.5939 325.368 28.7034 325.115L29.6215 325.511ZM30.0552 396.249C29.9282 396.004 30.024 395.702 30.2692 395.575C30.5144 395.448 30.8161 395.544 30.9431 395.789L30.0552 396.249ZM276.436 6.5C276.16 6.5 275.936 6.27614 275.936 6C275.936 5.72386 276.16 5.5 276.436 5.5V6.5ZM270.362 5.5C270.639 5.5 270.862 5.72386 270.862 6C270.862 6.27614 270.639 6.5 270.362 6.5V5.5ZM264.289 6.5C264.013 6.5 263.789 6.27614 263.789 6C263.789 5.72386 264.013 5.5 264.289 5.5V6.5ZM258.215 5.5C258.491 5.5 258.715 5.72386 258.715 6C258.715 6.27614 258.491 6.5 258.215 6.5V5.5ZM252.142 6.5C251.866 6.5 251.642 6.27614 251.642 6C251.642 5.72386 251.866 5.5 252.142 5.5V6.5ZM246.068 5.5C246.344 5.5 246.568 5.72386 246.568 6C246.568 6.27614 246.344 6.5 246.068 6.5V5.5ZM239.995 6.5C239.718 6.5 239.495 6.27614 239.495 6C239.495 5.72386 239.718 5.5 239.995 5.5V6.5ZM233.921 5.5C234.197 5.5 234.421 5.72386 234.421 6C234.421 6.27614 234.197 6.5 233.921 6.5V5.5ZM227.847 6.5C227.571 6.5 227.347 6.27614 227.347 6C227.347 5.72386 227.571 5.5 227.847 5.5V6.5ZM221.774 5.5C222.05 5.5 222.274 5.72386 222.274 6C222.274 6.27614 222.05 6.5 221.774 6.5V5.5ZM215.7 6.5C215.424 6.5 215.2 6.27614 215.2 6C215.2 5.72386 215.424 5.5 215.7 5.5V6.5ZM209.627 5.5C209.903 5.5 210.127 5.72386 210.127 6C210.127 6.27614 209.903 6.5 209.627 6.5V5.5ZM203.553 6.5C203.277 6.5 203.053 6.27614 203.053 6C203.053 5.72386 203.277 5.5 203.553 5.5V6.5ZM197.48 5.5C197.756 5.5 197.98 5.72386 197.98 6C197.98 6.27614 197.756 6.5 197.48 6.5V5.5ZM191.406 6.5C191.13 6.5 190.906 6.27614 190.906 6C190.906 5.72386 191.13 5.5 191.406 5.5V6.5ZM185.332 5.5C185.609 5.5 185.832 5.72386 185.832 6C185.832 6.27614 185.609 6.5 185.332 6.5V5.5ZM179.259 6.5C178.983 6.5 178.759 6.27614 178.759 6C178.759 5.72386 178.983 5.5 179.259 5.5V6.5ZM173.185 5.5C173.461 5.5 173.685 5.72386 173.685 6C173.685 6.27614 173.461 6.5 173.185 6.5V5.5ZM167.112 6.5C166.836 6.5 166.612 6.27614 166.612 6C166.612 5.72386 166.836 5.5 167.112 5.5V6.5ZM161.038 5.5C161.314 5.5 161.538 5.72386 161.538 6C161.538 6.27614 161.314 6.5 161.038 6.5V5.5ZM154.964 6.5C154.688 6.5 154.464 6.27614 154.464 6C154.464 5.72386 154.688 5.5 154.964 5.5V6.5ZM148.891 5.5C149.167 5.5 149.391 5.72386 149.391 6C149.391 6.27614 149.167 6.5 148.891 6.5V5.5ZM142.817 6.5C142.541 6.5 142.317 6.27614 142.317 6C142.317 5.72386 142.541 5.5 142.817 5.5V6.5ZM136.744 5.5C137.02 5.5 137.244 5.72386 137.244 6C137.244 6.27614 137.02 6.5 136.744 6.5V5.5ZM130.67 6.5C130.394 6.5 130.17 6.27614 130.17 6C130.17 5.72386 130.394 5.5 130.67 5.5V6.5ZM124.597 5.5C124.873 5.5 125.097 5.72386 125.097 6C125.097 6.27614 124.873 6.5 124.597 6.5V5.5ZM118.523 6.5C118.247 6.5 118.023 6.27614 118.023 6C118.023 5.72386 118.247 5.5 118.523 5.5V6.5ZM112.449 5.5C112.726 5.5 112.949 5.72386 112.949 6C112.949 6.27614 112.726 6.5 112.449 6.5V5.5ZM106.376 6.5C106.1 6.5 105.876 6.27614 105.876 6C105.876 5.72386 106.1 5.5 106.376 5.5V6.5ZM100.302 5.5C100.578 5.5 100.802 5.72386 100.802 6C100.802 6.27614 100.578 6.5 100.302 6.5V5.5ZM94.5188 6.53855C94.2428 6.54631 94.0128 6.32883 94.005 6.0528C93.9972 5.77677 94.2147 5.54671 94.4907 5.53894L94.5188 6.53855ZM88.9516 5.85234C89.2267 5.82886 89.4688 6.03288 89.4922 6.30802C89.5157 6.58317 89.3117 6.82524 89.0366 6.84872L88.9516 5.85234ZM83.5845 7.4735C83.3112 7.51293 83.0576 7.32334 83.0182 7.05003C82.9788 6.77672 83.1684 6.52318 83.4417 6.48375L83.5845 7.4735ZM77.9741 7.43937C78.2446 7.38369 78.5089 7.55781 78.5646 7.82828C78.6203 8.09875 78.4462 8.36315 78.1757 8.41883L77.9741 7.43937ZM72.8385 9.68877C72.572 9.76096 72.2974 9.60342 72.2252 9.33688C72.153 9.07034 72.3105 8.79574 72.5771 8.72355L72.8385 9.68877ZM67.2668 10.344C67.5282 10.255 67.8123 10.3947 67.9013 10.6561C67.9903 10.9175 67.8506 11.2016 67.5892 11.2906L67.2668 10.344ZM62.4581 13.2292C62.2032 13.3354 61.9105 13.2148 61.8043 12.9599C61.6981 12.705 61.8186 12.4122 62.0736 12.3061L62.4581 13.2292ZM57.0257 14.617C57.2726 14.4933 57.573 14.5931 57.6967 14.84C57.8204 15.0869 57.7206 15.3873 57.4737 15.511L57.0257 14.617ZM52.6652 18.1452C52.4281 18.2869 52.1212 18.2095 51.9795 17.9725C51.8379 17.7354 51.9152 17.4284 52.1523 17.2868L52.6652 18.1452ZM47.496 20.3217C47.7211 20.1618 48.0332 20.2147 48.1931 20.4398C48.3531 20.665 48.3002 20.9771 48.0751 21.137L47.496 20.3217ZM43.7484 24.4925C43.5377 24.671 43.2222 24.6449 43.0437 24.4342C42.8652 24.2235 42.8914 23.908 43.1021 23.7295L43.7484 24.4925ZM39.025 27.5152C39.2183 27.3181 39.5349 27.3149 39.732 27.5083C39.9292 27.7016 39.9323 28.0182 39.739 28.2154L39.025 27.5152ZM266.958 430.5C266.682 430.5 266.458 430.276 266.458 430C266.458 429.724 266.682 429.5 266.958 429.5V430.5ZM260.787 429.5C261.063 429.5 261.287 429.724 261.287 430C261.287 430.276 261.063 430.5 260.787 430.5V429.5ZM254.617 430.5C254.34 430.5 254.117 430.276 254.117 430C254.117 429.724 254.34 429.5 254.617 429.5V430.5ZM248.446 429.5C248.722 429.5 248.946 429.724 248.946 430C248.946 430.276 248.722 430.5 248.446 430.5V429.5ZM242.275 430.5C241.999 430.5 241.775 430.276 241.775 430C241.775 429.724 241.999 429.5 242.275 429.5V430.5ZM236.105 429.5C236.381 429.5 236.605 429.724 236.605 430C236.605 430.276 236.381 430.5 236.105 430.5V429.5ZM229.934 430.5C229.658 430.5 229.434 430.276 229.434 430C229.434 429.724 229.658 429.5 229.934 429.5V430.5ZM223.763 429.5C224.04 429.5 224.263 429.724 224.263 430C224.263 430.276 224.04 430.5 223.763 430.5V429.5ZM217.593 430.5C217.317 430.5 217.093 430.276 217.093 430C217.093 429.724 217.317 429.5 217.593 429.5V430.5ZM211.422 429.5C211.698 429.5 211.922 429.724 211.922 430C211.922 430.276 211.698 430.5 211.422 430.5V429.5ZM205.251 430.5C204.975 430.5 204.751 430.276 204.751 430C204.751 429.724 204.975 429.5 205.251 429.5V430.5ZM199.081 429.5C199.357 429.5 199.581 429.724 199.581 430C199.581 430.276 199.357 430.5 199.081 430.5V429.5ZM192.91 430.5C192.634 430.5 192.41 430.276 192.41 430C192.41 429.724 192.634 429.5 192.91 429.5V430.5ZM186.74 429.5C187.016 429.5 187.24 429.724 187.24 430C187.24 430.276 187.016 430.5 186.74 430.5V429.5ZM180.569 430.5C180.293 430.5 180.069 430.276 180.069 430C180.069 429.724 180.293 429.5 180.569 429.5V430.5ZM174.398 429.5C174.674 429.5 174.898 429.724 174.898 430C174.898 430.276 174.674 430.5 174.398 430.5V429.5ZM168.228 430.5C167.952 430.5 167.728 430.276 167.728 430C167.728 429.724 167.952 429.5 168.228 429.5V430.5ZM162.057 429.5C162.333 429.5 162.557 429.724 162.557 430C162.557 430.276 162.333 430.5 162.057 430.5V429.5ZM155.886 430.5C155.61 430.5 155.386 430.276 155.386 430C155.386 429.724 155.61 429.5 155.886 429.5V430.5ZM149.716 429.5C149.992 429.5 150.216 429.724 150.216 430C150.216 430.276 149.992 430.5 149.716 430.5V429.5ZM143.545 430.5C143.269 430.5 143.045 430.276 143.045 430C143.045 429.724 143.269 429.5 143.545 429.5V430.5ZM137.375 429.5C137.651 429.5 137.875 429.724 137.875 430C137.875 430.276 137.651 430.5 137.375 430.5V429.5ZM131.204 430.5C130.928 430.5 130.704 430.276 130.704 430C130.704 429.724 130.928 429.5 131.204 429.5V430.5ZM125.033 429.5C125.309 429.5 125.533 429.724 125.533 430C125.533 430.276 125.309 430.5 125.033 430.5V429.5ZM118.863 430.5C118.587 430.5 118.363 430.276 118.363 430C118.363 429.724 118.587 429.5 118.863 429.5V430.5ZM112.692 429.5C112.968 429.5 113.192 429.724 113.192 430C113.192 430.276 112.968 430.5 112.692 430.5V429.5ZM106.521 430.5C106.245 430.5 106.021 430.276 106.021 430C106.021 429.724 106.245 429.5 106.521 429.5V430.5ZM100.351 429.5C100.627 429.5 100.851 429.724 100.851 430C100.851 430.276 100.627 430.5 100.351 430.5V429.5ZM94.4459 430.46C94.1699 430.452 93.9525 430.222 93.9604 429.946C93.9683 429.67 94.1984 429.452 94.4745 429.46L94.4459 430.46ZM88.9024 429.14C89.1776 429.164 89.3812 429.406 89.3574 429.681C89.3335 429.956 89.0911 430.16 88.816 430.136L88.9024 429.14ZM83.214 429.483C82.9408 429.443 82.7518 429.189 82.7919 428.916C82.832 428.643 83.086 428.454 83.3592 428.494L83.214 429.483ZM77.8648 427.517C78.1351 427.573 78.3083 427.838 78.2516 428.109C78.195 428.379 77.93 428.552 77.6597 428.495L77.8648 427.517ZM72.1759 427.167C71.9097 427.093 71.7535 426.818 71.8269 426.552C71.9004 426.286 72.1757 426.129 72.4419 426.203L72.1759 427.167ZM67.1151 424.546C67.376 424.637 67.514 424.922 67.4234 425.183C67.3329 425.444 67.048 425.582 66.7871 425.491L67.1151 424.546ZM61.5207 423.461C61.2666 423.353 61.1482 423.06 61.2563 422.806C61.3643 422.551 61.658 422.433 61.9121 422.541L61.5207 423.461ZM56.8642 420.18C57.11 420.306 57.2071 420.607 57.0812 420.853C56.9553 421.099 56.654 421.196 56.4082 421.07L56.8642 420.18ZM51.4819 418.308C51.2464 418.164 51.1724 417.856 51.3166 417.62C51.4608 417.385 51.7686 417.311 52.0041 417.455L51.4819 418.308ZM47.374 414.358C47.5971 414.521 47.6459 414.834 47.483 415.057C47.3202 415.28 47.0074 415.329 46.7844 415.166L47.374 414.358ZM42.3692 411.64C42.1613 411.458 42.1401 411.142 42.3218 410.934C42.5035 410.727 42.8194 410.705 43.0273 410.887L42.3692 411.64ZM39.015 407.033C39.2046 407.233 39.1956 407.55 38.9949 407.739C38.7942 407.929 38.4777 407.92 38.2881 407.719L39.015 407.033ZM34.6183 403.412C34.4506 403.193 34.4925 402.879 34.7118 402.711C34.9312 402.544 35.245 402.586 35.4127 402.805L34.6183 403.412ZM32.2933 398.211C32.435 398.449 32.3577 398.755 32.1206 398.897C31.8836 399.039 31.5766 398.962 31.4349 398.724L32.2933 398.211ZM295.048 174.234C294.878 174.017 294.917 173.703 295.134 173.532C295.352 173.362 295.666 173.401 295.836 173.618L295.048 174.234ZM291.812 169.032C292.005 169.229 292.002 169.546 291.804 169.739C291.607 169.932 291.29 169.929 291.097 169.731L291.812 169.032ZM286.688 165.667C286.476 165.491 286.448 165.175 286.625 164.963C286.801 164.751 287.117 164.723 287.329 164.899L286.688 165.667ZM282.471 161.221C282.699 161.377 282.756 161.688 282.6 161.916C282.443 162.143 282.132 162.201 281.904 162.044L282.471 161.221ZM276.814 158.857C276.574 158.72 276.49 158.415 276.627 158.175C276.763 157.935 277.069 157.851 277.309 157.988L276.814 158.857ZM271.901 155.192C272.151 155.309 272.259 155.607 272.142 155.857C272.025 156.107 271.727 156.215 271.477 156.098L271.901 155.192ZM265.943 153.757C265.684 153.659 265.555 153.37 265.653 153.112C265.751 152.854 266.039 152.724 266.298 152.822L265.943 153.757ZM260.535 150.867C260.799 150.947 260.949 151.225 260.87 151.49C260.79 151.754 260.511 151.904 260.247 151.825L260.535 150.867ZM254.433 150.295C254.164 150.233 253.995 149.965 254.056 149.696C254.117 149.427 254.385 149.258 254.655 149.319L254.433 150.295ZM248.681 148.169C248.954 148.212 249.14 148.468 249.097 148.741C249.053 149.014 248.797 149.2 248.524 149.156L248.681 148.169ZM242.558 148.405C242.283 148.379 242.081 148.135 242.106 147.86C242.132 147.585 242.376 147.383 242.651 147.409L242.558 148.405ZM236.582 147.032C236.858 147.041 237.075 147.271 237.066 147.547C237.058 147.823 236.827 148.04 236.551 148.032L236.582 147.032ZM230.444 147.985C230.167 147.985 229.944 147.762 229.944 147.485C229.944 147.209 230.167 146.985 230.444 146.985V147.985ZM224.249 146.985C224.525 146.985 224.749 147.209 224.749 147.485C224.749 147.762 224.525 147.985 224.249 147.985V146.985ZM218.055 147.985C217.779 147.985 217.555 147.762 217.555 147.485C217.555 147.209 217.779 146.985 218.055 146.985V147.985ZM211.861 146.985C212.137 146.985 212.361 147.209 212.361 147.485C212.361 147.762 212.137 147.985 211.861 147.985V146.985ZM205.666 147.985C205.39 147.985 205.166 147.762 205.166 147.485C205.166 147.209 205.39 146.985 205.666 146.985V147.985ZM199.472 146.985C199.748 146.985 199.972 147.209 199.972 147.485C199.972 147.762 199.748 147.985 199.472 147.985V146.985ZM193.278 147.985C193.001 147.985 192.778 147.762 192.778 147.485C192.778 147.209 193.001 146.985 193.278 146.985V147.985ZM187.083 146.985C187.359 146.985 187.583 147.209 187.583 147.485C187.583 147.762 187.359 147.985 187.083 147.985V146.985ZM180.889 147.985C180.613 147.985 180.389 147.762 180.389 147.485C180.389 147.209 180.613 146.985 180.889 146.985V147.985ZM174.695 146.985C174.971 146.985 175.195 147.209 175.195 147.485C175.195 147.762 174.971 147.985 174.695 147.985V146.985ZM168.5 147.985C168.224 147.985 168 147.762 168 147.485C168 147.209 168.224 146.985 168.5 146.985V147.985ZM162.306 146.985C162.582 146.985 162.806 147.209 162.806 147.485C162.806 147.762 162.582 147.985 162.306 147.985V146.985ZM156.112 147.985C155.836 147.985 155.612 147.762 155.612 147.485C155.612 147.209 155.836 146.985 156.112 146.985V147.985ZM149.917 146.985C150.193 146.985 150.417 147.209 150.417 147.485C150.417 147.762 150.193 147.985 149.917 147.985V146.985ZM143.723 147.985C143.447 147.985 143.223 147.762 143.223 147.485C143.223 147.209 143.447 146.985 143.723 146.985V147.985ZM137.529 146.985C137.805 146.985 138.029 147.209 138.029 147.485C138.029 147.762 137.805 147.985 137.529 147.985V146.985ZM131.334 147.985C131.058 147.985 130.834 147.762 130.834 147.485C130.834 147.209 131.058 146.985 131.334 146.985V147.985ZM125.14 146.985C125.416 146.985 125.64 147.209 125.64 147.485C125.64 147.762 125.416 147.985 125.14 147.985V146.985ZM118.946 147.985C118.67 147.985 118.446 147.762 118.446 147.485C118.446 147.209 118.67 146.985 118.946 146.985V147.985ZM112.751 146.985C113.027 146.985 113.251 147.209 113.251 147.485C113.251 147.762 113.027 147.985 112.751 147.985V146.985ZM106.557 147.985C106.281 147.985 106.057 147.762 106.057 147.485C106.057 147.209 106.281 146.985 106.557 146.985V147.985ZM100.363 146.985C100.639 146.985 100.863 147.209 100.863 147.485C100.863 147.762 100.639 147.985 100.363 147.985V146.985ZM94.1815 147.937C93.9055 147.929 93.6888 147.698 93.6974 147.422C93.706 147.146 93.9368 146.929 94.2128 146.938L94.1815 147.937ZM88.1218 146.554C88.3967 146.58 88.5983 146.824 88.5722 147.099C88.5461 147.374 88.302 147.576 88.0271 147.55L88.1218 146.554ZM81.9129 146.768C81.6403 146.724 81.4549 146.468 81.4988 146.195C81.5428 145.922 81.7994 145.737 82.072 145.781L81.9129 146.768ZM76.0834 144.61C76.3525 144.672 76.5203 144.941 76.4582 145.21C76.3961 145.479 76.1276 145.646 75.8586 145.584L76.0834 144.61ZM69.9015 143.992C69.6374 143.911 69.4886 143.632 69.5692 143.368C69.6498 143.103 69.9292 142.955 70.1934 143.035L69.9015 143.992ZM64.4276 141.047C64.6852 141.146 64.8133 141.436 64.7138 141.693C64.6143 141.951 64.3248 142.079 64.0672 141.98L64.4276 141.047ZM58.4 139.54C58.1507 139.422 58.045 139.123 58.1638 138.874C58.2827 138.625 58.5811 138.519 58.8304 138.638L58.4 139.54ZM53.4406 135.797C53.6794 135.936 53.7605 136.242 53.6219 136.48C53.4832 136.719 53.1772 136.8 52.9384 136.662L53.4406 135.797ZM47.7348 133.333C47.509 133.174 47.4548 132.862 47.6137 132.636C47.7726 132.41 48.0845 132.356 48.3104 132.515L47.7348 133.333ZM43.5031 128.784C43.7128 128.964 43.7373 129.279 43.5577 129.489C43.3781 129.699 43.0625 129.723 42.8527 129.544L43.5031 128.784ZM38.3667 125.288C38.1766 125.087 38.185 124.771 38.3853 124.581C38.5857 124.391 38.9021 124.399 39.0922 124.6L38.3667 125.288ZM35.166 119.965C35.332 120.186 35.2876 120.499 35.0669 120.665C34.8462 120.831 34.5327 120.787 34.3668 120.566L35.166 119.965ZM297.318 261.03C297.168 261.262 296.858 261.328 296.626 261.178C296.394 261.028 296.328 260.718 296.478 260.486L297.318 261.03ZM292.752 265.432C292.933 265.223 293.248 265.201 293.457 265.382C293.666 265.563 293.688 265.878 293.507 266.087L292.752 265.432ZM289.072 270.596C288.867 270.781 288.551 270.765 288.366 270.559C288.181 270.354 288.197 270.038 288.403 269.853L289.072 270.596ZM283.565 273.748C283.789 273.586 284.101 273.637 284.263 273.861C284.424 274.085 284.374 274.398 284.15 274.559L283.565 273.748ZM278.852 277.997C278.614 278.136 278.308 278.056 278.168 277.818C278.029 277.579 278.11 277.273 278.348 277.134L278.852 277.997ZM272.844 280.033C273.093 279.915 273.391 280.021 273.51 280.271C273.628 280.52 273.522 280.819 273.272 280.937L272.844 280.033ZM267.472 283.409C267.214 283.507 266.925 283.378 266.826 283.12C266.728 282.862 266.857 282.573 267.115 282.474L267.472 283.409ZM261.215 284.479C261.48 284.4 261.758 284.55 261.838 284.815C261.917 285.079 261.767 285.358 261.503 285.437L261.215 284.479ZM255.411 287.04C255.142 287.101 254.874 286.933 254.813 286.663C254.751 286.394 254.92 286.126 255.189 286.065L255.411 287.04ZM249.067 287.246C249.34 287.203 249.596 287.388 249.639 287.661C249.683 287.934 249.497 288.19 249.224 288.234L249.067 287.246ZM242.977 289.026C242.702 289.052 242.458 288.85 242.432 288.575C242.406 288.3 242.607 288.056 242.882 288.03L242.977 289.026ZM236.659 288.422C236.935 288.413 237.166 288.63 237.174 288.906C237.183 289.182 236.966 289.413 236.69 289.421L236.659 288.422ZM230.683 289.458C230.406 289.457 230.184 289.232 230.185 288.956C230.186 288.68 230.411 288.457 230.687 288.458L230.683 289.458ZM224.975 288.433C225.251 288.434 225.474 288.659 225.473 288.935C225.472 289.211 225.247 289.434 224.971 289.433L224.975 288.433ZM219.259 289.408C218.983 289.406 218.76 289.181 218.761 288.905C218.762 288.629 218.987 288.406 219.263 288.408L219.259 289.408ZM213.551 288.382C213.827 288.383 214.05 288.608 214.049 288.884C214.048 289.161 213.823 289.383 213.547 289.382L213.551 288.382ZM207.835 289.357C207.559 289.356 207.336 289.131 207.337 288.855C207.338 288.578 207.563 288.356 207.839 288.357L207.835 289.357ZM202.127 288.331C202.403 288.333 202.626 288.558 202.625 288.834C202.624 289.11 202.399 289.333 202.123 289.331L202.127 288.331ZM196.411 289.306C196.135 289.305 195.912 289.08 195.913 288.804C195.914 288.528 196.139 288.305 196.415 288.306L196.411 289.306ZM190.703 288.281C190.98 288.282 191.202 288.507 191.201 288.783C191.2 289.059 190.975 289.282 190.699 289.281L190.703 288.281ZM184.987 289.255C184.711 289.254 184.488 289.029 184.489 288.753C184.491 288.477 184.715 288.254 184.992 288.255L184.987 289.255ZM179.28 288.23C179.556 288.231 179.779 288.456 179.777 288.732C179.776 289.008 179.551 289.231 179.275 289.23L179.28 288.23ZM173.563 289.205C173.287 289.203 173.064 288.979 173.065 288.702C173.067 288.426 173.292 288.203 173.568 288.205L173.563 289.205ZM167.856 288.179C168.132 288.181 168.355 288.405 168.354 288.682C168.352 288.958 168.127 289.181 167.851 289.179L167.856 288.179ZM162.139 289.154C161.863 289.153 161.64 288.928 161.642 288.652C161.643 288.376 161.868 288.153 162.144 288.154L162.139 289.154ZM156.432 288.129C156.708 288.13 156.931 288.355 156.93 288.631C156.928 288.907 156.704 289.13 156.427 289.129L156.432 288.129ZM150.716 289.103C150.439 289.102 150.217 288.877 150.218 288.601C150.219 288.325 150.444 288.102 150.72 288.103L150.716 289.103ZM145.008 288.078C145.284 288.079 145.507 288.304 145.506 288.58C145.505 288.856 145.28 289.079 145.004 289.078L145.008 288.078ZM139.292 289.053C139.016 289.051 138.793 288.826 138.794 288.55C138.795 288.274 139.02 288.051 139.296 288.053L139.292 289.053ZM133.584 288.027C133.86 288.028 134.083 288.253 134.082 288.529C134.081 288.806 133.856 289.028 133.58 289.027L133.584 288.027ZM127.938 289.015C127.661 289.015 127.438 288.791 127.438 288.515C127.438 288.238 127.661 288.015 127.938 288.015V289.015ZM122.361 288.015C122.637 288.015 122.861 288.238 122.861 288.515C122.861 288.791 122.637 289.015 122.361 289.015V288.015ZM116.784 289.015C116.508 289.015 116.284 288.791 116.284 288.515C116.284 288.238 116.508 288.015 116.784 288.015V289.015ZM111.207 288.015C111.483 288.015 111.707 288.238 111.707 288.515C111.707 288.791 111.483 289.015 111.207 289.015V288.015ZM105.631 289.015C105.354 289.015 105.131 288.791 105.131 288.515C105.131 288.238 105.354 288.015 105.631 288.015V289.015ZM100.054 288.015C100.33 288.015 100.554 288.238 100.554 288.515C100.554 288.791 100.33 289.015 100.054 289.015V288.015ZM94.3636 289.058C94.0876 289.066 93.8572 288.849 93.849 288.573C93.8408 288.297 94.0579 288.066 94.3339 288.058L94.3636 289.058ZM88.4811 288.408C88.7562 288.383 88.9992 288.586 89.0241 288.861C89.0489 289.136 88.8461 289.379 88.571 289.404L88.4811 288.408ZM82.8116 290.103C82.5386 290.145 82.2835 289.957 82.2418 289.684C82.2 289.411 82.3875 289.156 82.6605 289.114L82.8116 290.103ZM76.8934 290.183C77.1631 290.124 77.4296 290.295 77.4886 290.565C77.5475 290.835 77.3766 291.101 77.1068 291.16L76.8934 290.183ZM71.4826 292.582C71.2173 292.659 70.9402 292.506 70.8637 292.24C70.7872 291.975 70.9403 291.698 71.2057 291.621L71.4826 292.582ZM65.6255 293.436C65.8851 293.342 66.1719 293.476 66.2663 293.735C66.3607 293.995 66.2268 294.282 65.9673 294.376L65.6255 293.436ZM60.5925 296.549C60.3404 296.661 60.0447 296.548 59.9321 296.296C59.8194 296.044 59.9325 295.748 60.1846 295.636L60.5925 296.549ZM54.9193 298.228C55.1622 298.097 55.4656 298.187 55.5969 298.43C55.7282 298.673 55.6378 298.977 55.3949 299.108L54.9193 298.228ZM50.414 302.062C50.1824 302.213 49.8728 302.147 49.7223 301.916C49.5719 301.684 49.6376 301.374 49.8692 301.224L50.414 302.062ZM45.0822 304.634C45.2998 304.464 45.614 304.503 45.784 304.72C45.9539 304.938 45.9152 305.252 45.6975 305.422L45.0822 304.634ZM41.3101 309.188C41.1093 309.378 40.7929 309.369 40.6032 309.168C40.4136 308.967 40.4225 308.651 40.6233 308.461L41.3101 309.188ZM36.5564 312.715C36.7365 312.506 37.0522 312.482 37.2615 312.662C37.4709 312.842 37.4945 313.158 37.3144 313.367L36.5564 312.715ZM33.799 317.945C33.6437 318.173 33.3327 318.232 33.1044 318.077C32.876 317.922 32.8169 317.611 32.9722 317.382L33.799 317.945ZM29.9608 322.449C30.0867 322.203 30.388 322.106 30.6338 322.232C30.8796 322.357 30.9767 322.659 30.8508 322.905L29.9608 322.449ZM279.473 6.5H276.436V5.5H279.473V6.5ZM270.362 6.5H264.289V5.5H270.362V6.5ZM258.215 6.5H252.142V5.5H258.215V6.5ZM246.068 6.5H239.995V5.5H246.068V6.5ZM233.921 6.5H227.847V5.5H233.921V6.5ZM221.774 6.5H215.7V5.5H221.774V6.5ZM209.627 6.5H203.553V5.5H209.627V6.5ZM197.48 6.5H191.406V5.5H197.48V6.5ZM185.332 6.5H179.259V5.5H185.332V6.5ZM173.185 6.5H167.112V5.5H173.185V6.5ZM161.038 6.5H154.964V5.5H161.038V6.5ZM148.891 6.5H142.817V5.5H148.891V6.5ZM136.744 6.5H130.67V5.5H136.744V6.5ZM124.597 6.5H118.523V5.5H124.597V6.5ZM112.449 6.5H106.376V5.5H112.449V6.5ZM100.302 6.5H97.2655V5.5H100.302V6.5ZM97.2655 6.5C96.3457 6.5 95.4301 6.51293 94.5188 6.53855L94.4907 5.53894C95.4113 5.51306 96.3364 5.5 97.2655 5.5V6.5ZM89.0366 6.84872C87.1968 7.00568 85.3785 7.21462 83.5845 7.4735L83.4417 6.48375C85.255 6.22209 87.0925 6.01094 88.9516 5.85234L89.0366 6.84872ZM78.1757 8.41883C76.3664 8.79129 74.5863 9.21537 72.8385 9.68877L72.5771 8.72355C74.3448 8.24476 76.1448 7.81593 77.9741 7.43937L78.1757 8.41883ZM67.5892 11.2906C65.8391 11.8866 64.1276 12.5337 62.4581 13.2292L62.0736 12.3061C63.7637 11.602 65.496 10.9471 67.2668 10.344L67.5892 11.2906ZM57.4737 15.511C55.8195 16.34 54.2153 17.2191 52.6652 18.1452L52.1523 17.2868C53.724 16.3477 55.3498 15.4568 57.0257 14.617L57.4737 15.511ZM48.0751 21.137C46.5671 22.2082 45.1234 23.3278 43.7484 24.4925L43.1021 23.7295C44.4993 22.546 45.9655 21.4089 47.496 20.3217L48.0751 21.137ZM39.739 28.2154C39.097 28.8701 38.475 29.5361 37.8738 30.2129L37.1262 29.5488C37.7385 28.8595 38.3716 28.1815 39.025 27.5152L39.739 28.2154ZM270.043 430.5H266.958V429.5H270.043V430.5ZM260.787 430.5H254.617V429.5H260.787V430.5ZM248.446 430.5H242.275V429.5H248.446V430.5ZM236.105 430.5H229.934V429.5H236.105V430.5ZM223.763 430.5H217.593V429.5H223.763V430.5ZM211.422 430.5H205.251V429.5H211.422V430.5ZM199.081 430.5H192.91V429.5H199.081V430.5ZM186.74 430.5H180.569V429.5H186.74V430.5ZM174.398 430.5H168.228V429.5H174.398V430.5ZM162.057 430.5H155.886V429.5H162.057V430.5ZM149.716 430.5H143.545V429.5H149.716V430.5ZM137.375 430.5H131.204V429.5H137.375V430.5ZM125.033 430.5H118.863V429.5H125.033V430.5ZM112.692 430.5H106.521V429.5H112.692V430.5ZM100.351 430.5H97.2655V429.5H100.351V430.5ZM97.2655 430.5C96.3213 430.5 95.3813 430.487 94.4459 430.46L94.4745 429.46C95.4004 429.487 96.3308 429.5 97.2655 429.5V430.5ZM88.816 430.136C86.9254 429.972 85.0571 429.754 83.214 429.483L83.3592 428.494C85.1827 428.761 87.0314 428.977 88.9024 429.14L88.816 430.136ZM77.6597 428.495C75.8002 428.106 73.9712 427.662 72.1759 427.167L72.4419 426.203C74.2169 426.693 76.0256 427.131 77.8648 427.517L77.6597 428.495ZM66.7871 425.491C64.9901 424.867 63.2334 424.19 61.5207 423.461L61.9121 422.541C63.6036 423.26 65.3392 423.93 67.1151 424.546L66.7871 425.491ZM56.4082 421.07C54.7122 420.201 53.0686 419.279 51.4819 418.308L52.0041 417.455C53.5688 418.413 55.1902 419.322 56.8642 420.18L56.4082 421.07ZM46.7844 415.166C45.2433 414.041 43.7699 412.864 42.3692 411.64L43.0273 410.887C44.4054 412.092 45.8559 413.25 47.374 414.358L46.7844 415.166ZM38.2881 407.719C36.9765 406.331 35.7513 404.894 34.6183 403.412L35.4127 402.805C36.5238 404.258 37.7264 405.669 39.015 407.033L38.2881 407.719ZM31.4349 398.724C30.9482 397.91 30.488 397.085 30.0552 396.249L30.9431 395.789C31.3665 396.607 31.8168 397.414 32.2933 398.211L31.4349 398.724ZM296.821 176.645C296.258 175.829 295.667 175.025 295.048 174.234L295.836 173.618C296.467 174.424 297.07 175.244 297.644 176.077L296.821 176.645ZM291.097 169.731C289.718 168.323 288.246 166.967 286.688 165.667L287.329 164.899C288.912 166.219 290.408 167.599 291.812 169.032L291.097 169.731ZM281.904 162.044C280.277 160.925 278.579 159.861 276.814 158.857L277.309 157.988C279.097 159.006 280.82 160.085 282.471 161.221L281.904 162.044ZM271.477 156.098C269.685 155.259 267.839 154.477 265.943 153.757L266.298 152.822C268.217 153.551 270.086 154.342 271.901 155.192L271.477 156.098ZM260.247 151.825C258.349 151.255 256.409 150.744 254.433 150.295L254.655 149.319C256.653 149.774 258.614 150.291 260.535 150.867L260.247 151.825ZM248.524 149.156C246.564 148.845 244.574 148.594 242.558 148.405L242.651 147.409C244.689 147.6 246.7 147.854 248.681 148.169L248.524 149.156ZM236.551 148.032C235.553 148.001 234.549 147.985 233.541 147.985V146.985C234.56 146.985 235.573 147.001 236.582 147.032L236.551 148.032ZM233.541 147.985H230.444V146.985H233.541V147.985ZM224.249 147.985H218.055V146.985H224.249V147.985ZM211.861 147.985H205.666V146.985H211.861V147.985ZM199.472 147.985H193.278V146.985H199.472V147.985ZM187.083 147.985H180.889V146.985H187.083V147.985ZM174.695 147.985H168.5V146.985H174.695V147.985ZM162.306 147.985H156.112V146.985H162.306V147.985ZM149.917 147.985H143.723V146.985H149.917V147.985ZM137.529 147.985H131.334V146.985H137.529V147.985ZM125.14 147.985H118.946V146.985H125.14V147.985ZM112.751 147.985H106.557V146.985H112.751V147.985ZM100.363 147.985H97.2655V146.985H100.363V147.985ZM97.2655 147.985C96.2323 147.985 95.2041 147.969 94.1815 147.937L94.2128 146.938C95.225 146.969 96.2427 146.985 97.2655 146.985V147.985ZM88.0271 147.55C85.9604 147.353 83.9211 147.092 81.9129 146.768L82.072 145.781C84.0587 146.101 86.0766 146.36 88.1218 146.554L88.0271 147.55ZM75.8586 145.584C73.8332 145.117 71.846 144.585 69.9015 143.992L70.1934 143.035C72.1156 143.622 74.0804 144.148 76.0834 144.61L75.8586 145.584ZM64.0672 141.98C62.1247 141.229 60.2339 140.415 58.4 139.54L58.8304 138.638C60.641 139.501 62.5084 140.305 64.4276 141.047L64.0672 141.98ZM52.9384 136.662C51.133 135.613 49.3964 134.502 47.7348 133.333L48.3104 132.515C49.9477 133.667 51.6597 134.763 53.4406 135.797L52.9384 136.662ZM42.8527 129.544C41.2644 128.184 39.7666 126.764 38.3667 125.288L39.0922 124.6C40.4676 126.049 41.9401 127.446 43.5031 128.784L42.8527 129.544ZM34.3668 120.566C33.7429 119.736 33.1478 118.893 32.5826 118.036L33.4173 117.485C33.971 118.325 34.5542 119.151 35.166 119.965L34.3668 120.566ZM298.939 258.306C298.435 259.232 297.894 260.14 297.318 261.03L296.478 260.486C297.041 259.617 297.569 258.731 298.061 257.828L298.939 258.306ZM293.507 266.087C292.143 267.661 290.66 269.165 289.072 270.596L288.403 269.853C289.962 268.449 291.416 266.974 292.752 265.432L293.507 266.087ZM284.15 274.559C282.465 275.774 280.696 276.92 278.852 277.997L278.348 277.134C280.165 276.072 281.907 274.943 283.565 273.748L284.15 274.559ZM273.272 280.937C271.395 281.827 269.458 282.651 267.472 283.409L267.115 282.474C269.078 281.726 270.991 280.911 272.844 280.033L273.272 280.937ZM261.503 285.437C259.509 286.036 257.476 286.571 255.411 287.04L255.189 286.065C257.232 285.601 259.243 285.072 261.215 284.479L261.503 285.437ZM249.224 288.234C247.163 288.562 245.078 288.827 242.977 289.026L242.882 288.03C244.963 287.833 247.026 287.571 249.067 287.246L249.224 288.234ZM236.69 289.421C235.643 289.454 234.593 289.471 233.541 289.471V288.471C234.582 288.471 235.622 288.455 236.659 288.422L236.69 289.421ZM233.539 289.471L230.683 289.458L230.687 288.458L233.543 288.471L233.539 289.471ZM224.971 289.433L219.259 289.408L219.263 288.408L224.975 288.433L224.971 289.433ZM213.547 289.382L207.835 289.357L207.839 288.357L213.551 288.382L213.547 289.382ZM202.123 289.331L196.411 289.306L196.415 288.306L202.127 288.331L202.123 289.331ZM190.699 289.281L184.987 289.255L184.992 288.255L190.703 288.281L190.699 289.281ZM179.275 289.23L173.563 289.205L173.568 288.205L179.28 288.23L179.275 289.23ZM167.851 289.179L162.139 289.154L162.144 288.154L167.856 288.179L167.851 289.179ZM156.427 289.129L150.716 289.103L150.72 288.103L156.432 288.129L156.427 289.129ZM145.004 289.078L139.292 289.053L139.296 288.053L145.008 288.078L145.004 289.078ZM133.58 289.027L130.724 289.015L130.728 288.015L133.584 288.027L133.58 289.027ZM130.726 289.015H127.938V288.015H130.726V289.015ZM122.361 289.015H116.784V288.015H122.361V289.015ZM111.207 289.015H105.631V288.015H111.207V289.015ZM100.054 289.015H97.2655V288.015H100.054V289.015ZM97.2655 289.015C96.2935 289.015 95.3261 289.029 94.3636 289.058L94.3339 288.058C95.3063 288.029 96.2836 288.015 97.2655 288.015V289.015ZM88.571 289.404C86.6258 289.58 84.7048 289.813 82.8116 290.103L82.6605 289.114C84.5741 288.822 86.5154 288.586 88.4811 288.408L88.571 289.404ZM77.1068 291.16C75.1972 291.577 73.3212 292.052 71.4826 292.582L71.2057 291.621C73.0654 291.085 74.9626 290.605 76.8934 290.183L77.1068 291.16ZM65.9673 294.376C64.1293 295.044 62.3363 295.77 60.5925 296.549L60.1846 295.636C61.9505 294.847 63.7655 294.113 65.6255 293.436L65.9673 294.376ZM55.3949 299.108C53.6739 300.038 52.012 301.024 50.414 302.062L49.8692 301.224C51.4902 300.171 53.1752 299.171 54.9193 298.228L55.3949 299.108ZM45.6975 305.422C44.1565 306.625 42.6922 307.882 41.3101 309.188L40.6233 308.461C42.0288 307.133 43.5171 305.856 45.0822 304.634L45.6975 305.422ZM37.3144 313.367C36.0426 314.845 34.8687 316.373 33.799 317.945L32.9722 317.382C34.0638 315.778 35.2609 314.22 36.5564 312.715L37.3144 313.367ZM30.8508 322.905C30.411 323.763 30.0009 324.632 29.6215 325.511L28.7034 325.115C29.0917 324.215 29.5112 323.326 29.9608 322.449L30.8508 322.905ZM284.806 6C284.806 8.94552 282.418 11.3333 279.473 11.3333C276.527 11.3333 274.14 8.94552 274.14 6C274.14 3.05448 276.527 0.666667 279.473 0.666667C282.418 0.666667 284.806 3.05448 284.806 6ZM233.541 288.971V289.971H233.536L233.541 288.971ZM130.726 288.515V287.515H130.73L130.726 288.515ZM275.376 430C275.376 432.946 272.989 435.333 270.043 435.333C267.098 435.333 264.71 432.946 264.71 430C264.71 427.055 267.098 424.667 270.043 424.667C272.989 424.667 275.376 427.055 275.376 430ZM32.1653 118.311C31.8611 117.851 31.9883 117.23 32.4492 116.926C32.9102 116.622 33.5305 116.749 33.8347 117.21L32.1653 118.311ZM38.2476 30.545C37.8808 30.9579 37.2487 30.9953 36.8358 30.6285C36.4229 30.2617 36.3856 29.6297 36.7523 29.2168L38.2476 30.545ZM297.622 257.589C297.886 257.104 298.493 256.925 298.978 257.189C299.463 257.453 299.642 258.06 299.378 258.545L297.622 257.589ZM298.056 175.793C298.37 176.247 298.255 176.87 297.801 177.184C297.346 177.497 296.724 177.383 296.41 176.929L298.056 175.793ZM30.0805 325.709C29.8616 326.216 29.2731 326.45 28.7661 326.231C28.259 326.012 28.0254 325.424 28.2443 324.917L30.0805 325.709ZM29.6112 396.479C29.3572 395.989 29.5488 395.385 30.0392 395.131C30.5296 394.877 31.1331 395.069 31.3871 395.559L29.6112 396.479ZM276.436 7C275.884 7 275.436 6.55228 275.436 6C275.436 5.44772 275.884 5 276.436 5V7ZM270.362 5C270.915 5 271.362 5.44772 271.362 6C271.362 6.55228 270.915 7 270.362 7V5ZM264.289 7C263.737 7 263.289 6.55228 263.289 6C263.289 5.44772 263.737 5 264.289 5V7ZM258.215 5C258.768 5 259.215 5.44772 259.215 6C259.215 6.55228 258.768 7 258.215 7V5ZM252.142 7C251.589 7 251.142 6.55228 251.142 6C251.142 5.44772 251.589 5 252.142 5V7ZM246.068 5C246.62 5 247.068 5.44772 247.068 6C247.068 6.55228 246.62 7 246.068 7V5ZM239.995 7C239.442 7 238.995 6.55228 238.995 6C238.995 5.44772 239.442 5 239.995 5V7ZM233.921 5C234.473 5 234.921 5.44772 234.921 6C234.921 6.55228 234.473 7 233.921 7V5ZM227.847 7C227.295 7 226.847 6.55228 226.847 6C226.847 5.44772 227.295 5 227.847 5V7ZM221.774 5C222.326 5 222.774 5.44772 222.774 6C222.774 6.55228 222.326 7 221.774 7V5ZM215.7 7C215.148 7 214.7 6.55228 214.7 6C214.7 5.44772 215.148 5 215.7 5V7ZM209.627 5C210.179 5 210.627 5.44772 210.627 6C210.627 6.55228 210.179 7 209.627 7V5ZM203.553 7C203.001 7 202.553 6.55228 202.553 6C202.553 5.44772 203.001 5 203.553 5V7ZM197.48 5C198.032 5 198.48 5.44772 198.48 6C198.48 6.55228 198.032 7 197.48 7V5ZM191.406 7C190.854 7 190.406 6.55228 190.406 6C190.406 5.44772 190.854 5 191.406 5V7ZM185.332 5C185.885 5 186.332 5.44772 186.332 6C186.332 6.55228 185.885 7 185.332 7V5ZM179.259 7C178.707 7 178.259 6.55228 178.259 6C178.259 5.44772 178.707 5 179.259 5V7ZM173.185 5C173.738 5 174.185 5.44772 174.185 6C174.185 6.55228 173.738 7 173.185 7V5ZM167.112 7C166.559 7 166.112 6.55228 166.112 6C166.112 5.44772 166.559 5 167.112 5V7ZM161.038 5C161.59 5 162.038 5.44772 162.038 6C162.038 6.55228 161.59 7 161.038 7V5ZM154.964 7C154.412 7 153.964 6.55228 153.964 6C153.964 5.44772 154.412 5 154.964 5V7ZM148.891 5C149.443 5 149.891 5.44772 149.891 6C149.891 6.55228 149.443 7 148.891 7V5ZM142.817 7C142.265 7 141.817 6.55228 141.817 6C141.817 5.44772 142.265 5 142.817 5V7ZM136.744 5C137.296 5 137.744 5.44772 137.744 6C137.744 6.55228 137.296 7 136.744 7V5ZM130.67 7C130.118 7 129.67 6.55228 129.67 6C129.67 5.44772 130.118 5 130.67 5V7ZM124.597 5C125.149 5 125.597 5.44772 125.597 6C125.597 6.55228 125.149 7 124.597 7V5ZM118.523 7C117.971 7 117.523 6.55228 117.523 6C117.523 5.44772 117.971 5 118.523 5V7ZM112.449 5C113.002 5 113.449 5.44772 113.449 6C113.449 6.55228 113.002 7 112.449 7V5ZM106.376 7C105.824 7 105.376 6.55228 105.376 6C105.376 5.44772 105.824 5 106.376 5V7ZM100.302 5C100.855 5 101.302 5.44772 101.302 6C101.302 6.55228 100.855 7 100.302 7V5ZM94.5329 7.03835C93.9808 7.05387 93.5207 6.61892 93.5052 6.06685C93.4897 5.51479 93.9246 5.05466 94.4767 5.03914L94.5329 7.03835ZM88.9091 5.35415C89.4593 5.3072 89.9435 5.71523 89.9904 6.26552C90.0374 6.8158 89.6293 7.29996 89.0791 7.34691L88.9091 5.35415ZM83.6559 7.96837C83.1093 8.04725 82.6022 7.66806 82.5233 7.12144C82.4445 6.57482 82.8236 6.06775 83.3703 5.98887L83.6559 7.96837ZM77.8733 6.94963C78.4142 6.83828 78.943 7.18652 79.0544 7.72746C79.1657 8.2684 78.8175 8.7972 78.2765 8.90856L77.8733 6.94963ZM72.9692 10.1714C72.4362 10.3158 71.887 10.0007 71.7426 9.46759C71.5982 8.93452 71.9133 8.38533 72.4464 8.24094L72.9692 10.1714ZM67.1056 9.87069C67.6284 9.69264 68.1965 9.97211 68.3746 10.4949C68.5526 11.0177 68.2732 11.5859 67.7504 11.7639L67.1056 9.87069ZM62.6504 13.6907C62.1406 13.9031 61.5551 13.662 61.3427 13.1522C61.1304 12.6423 61.3715 12.0569 61.8813 11.8445L62.6504 13.6907ZM56.8017 14.17C57.2954 13.9225 57.8963 14.1222 58.1437 14.616C58.3911 15.1097 58.1915 15.7106 57.6977 15.958L56.8017 14.17ZM52.9216 18.5744C52.4475 18.8577 51.8336 18.703 51.5503 18.2289C51.267 17.7548 51.4217 17.1408 51.8958 16.8576L52.9216 18.5744ZM47.2064 19.9141C47.6567 19.5943 48.2809 19.7 48.6008 20.1503C48.9206 20.6005 48.8149 21.2248 48.3646 21.5446L47.2064 19.9141ZM44.0716 24.874C43.6502 25.231 43.0192 25.1788 42.6622 24.7574C42.3052 24.3359 42.3575 23.7049 42.7789 23.348L44.0716 24.874ZM38.6679 27.1652C39.0546 26.7708 39.6878 26.7646 40.0821 27.1513C40.4764 27.5379 40.4827 28.1711 40.096 28.5654L38.6679 27.1652ZM266.958 431C266.405 431 265.958 430.552 265.958 430C265.958 429.448 266.405 429 266.958 429V431ZM260.787 429C261.339 429 261.787 429.448 261.787 430C261.787 430.552 261.339 431 260.787 431V429ZM254.617 431C254.064 431 253.617 430.552 253.617 430C253.617 429.448 254.064 429 254.617 429V431ZM248.446 429C248.998 429 249.446 429.448 249.446 430C249.446 430.552 248.998 431 248.446 431V429ZM242.275 431C241.723 431 241.275 430.552 241.275 430C241.275 429.448 241.723 429 242.275 429V431ZM236.105 429C236.657 429 237.105 429.448 237.105 430C237.105 430.552 236.657 431 236.105 431V429ZM229.934 431C229.382 431 228.934 430.552 228.934 430C228.934 429.448 229.382 429 229.934 429V431ZM223.763 429C224.316 429 224.763 429.448 224.763 430C224.763 430.552 224.316 431 223.763 431V429ZM217.593 431C217.04 431 216.593 430.552 216.593 430C216.593 429.448 217.04 429 217.593 429V431ZM211.422 429C211.974 429 212.422 429.448 212.422 430C212.422 430.552 211.974 431 211.422 431V429ZM205.251 431C204.699 431 204.251 430.552 204.251 430C204.251 429.448 204.699 429 205.251 429V431ZM199.081 429C199.633 429 200.081 429.448 200.081 430C200.081 430.552 199.633 431 199.081 431V429ZM192.91 431C192.358 431 191.91 430.552 191.91 430C191.91 429.448 192.358 429 192.91 429V431ZM186.74 429C187.292 429 187.74 429.448 187.74 430C187.74 430.552 187.292 431 186.74 431V429ZM180.569 431C180.017 431 179.569 430.552 179.569 430C179.569 429.448 180.017 429 180.569 429V431ZM174.398 429C174.951 429 175.398 429.448 175.398 430C175.398 430.552 174.951 431 174.398 431V429ZM168.228 431C167.675 431 167.228 430.552 167.228 430C167.228 429.448 167.675 429 168.228 429V431ZM162.057 429C162.609 429 163.057 429.448 163.057 430C163.057 430.552 162.609 431 162.057 431V429ZM155.886 431C155.334 431 154.886 430.552 154.886 430C154.886 429.448 155.334 429 155.886 429V431ZM149.716 429C150.268 429 150.716 429.448 150.716 430C150.716 430.552 150.268 431 149.716 431V429ZM143.545 431C142.993 431 142.545 430.552 142.545 430C142.545 429.448 142.993 429 143.545 429V431ZM137.375 429C137.927 429 138.375 429.448 138.375 430C138.375 430.552 137.927 431 137.375 431V429ZM131.204 431C130.652 431 130.204 430.552 130.204 430C130.204 429.448 130.652 429 131.204 429V431ZM125.033 429C125.586 429 126.033 429.448 126.033 430C126.033 430.552 125.586 431 125.033 431V429ZM118.863 431C118.31 431 117.863 430.552 117.863 430C117.863 429.448 118.31 429 118.863 429V431ZM112.692 429C113.244 429 113.692 429.448 113.692 430C113.692 430.552 113.244 431 112.692 431V429ZM106.521 431C105.969 431 105.521 430.552 105.521 430C105.521 429.448 105.969 429 106.521 429V431ZM100.351 429C100.903 429 101.351 429.448 101.351 430C101.351 430.552 100.903 431 100.351 431V429ZM94.4316 430.96C93.8796 430.944 93.4448 430.484 93.4606 429.931C93.4764 429.379 93.9367 428.945 94.4888 428.96L94.4316 430.96ZM88.9456 428.642C89.4959 428.689 89.9032 429.174 89.8555 429.724C89.8078 430.275 89.323 430.682 88.7728 430.634L88.9456 428.642ZM83.1414 429.978C82.5949 429.898 82.217 429.39 82.2972 428.843C82.3774 428.297 82.8854 427.919 83.4318 427.999L83.1414 429.978ZM77.9673 427.027C78.5079 427.141 78.8543 427.671 78.741 428.211C78.6278 428.752 78.0977 429.098 77.5572 428.985L77.9673 427.027ZM72.0429 427.649C71.5105 427.502 71.198 426.951 71.3449 426.419C71.4918 425.886 72.0425 425.574 72.5749 425.721L72.0429 427.649ZM67.2791 424.074C67.8008 424.255 68.0769 424.825 67.8958 425.347C67.7146 425.868 67.1448 426.145 66.6231 425.963L67.2791 424.074ZM61.3251 423.921C60.8168 423.705 60.58 423.118 60.7962 422.61C61.0123 422.102 61.5995 421.865 62.1077 422.081L61.3251 423.921ZM57.0922 419.735C57.5838 419.987 57.778 420.59 57.5262 421.081C57.2743 421.573 56.6717 421.767 56.1802 421.515L57.0922 419.735ZM51.2209 418.734C50.7499 418.446 50.6018 417.83 50.8902 417.359C51.1786 416.888 51.7942 416.74 52.2652 417.029L51.2209 418.734ZM47.6689 413.954C48.1149 414.28 48.2125 414.906 47.8869 415.352C47.5612 415.798 46.9356 415.895 46.4896 415.57L47.6689 413.954ZM42.0402 412.016C41.6243 411.653 41.5819 411.021 41.9453 410.605C42.3088 410.19 42.9405 410.147 43.3564 410.511L42.0402 412.016ZM39.3784 406.689C39.7577 407.091 39.7397 407.724 39.3383 408.103C38.9368 408.482 38.3039 408.464 37.9246 408.063L39.3784 406.689ZM34.2211 403.716C33.8857 403.277 33.9694 402.65 34.4081 402.314C34.8469 401.979 35.4745 402.062 35.8099 402.501L34.2211 403.716ZM32.7225 397.955C33.0058 398.429 32.8512 399.043 32.3771 399.326C31.903 399.61 31.2891 399.455 31.0057 398.981L32.7225 397.955ZM294.654 174.542C294.314 174.107 294.391 173.479 294.826 173.139C295.261 172.798 295.89 172.875 296.23 173.31L294.654 174.542ZM292.169 168.682C292.555 169.077 292.549 169.71 292.154 170.096C291.759 170.483 291.126 170.476 290.74 170.081L292.169 168.682ZM286.368 166.052C285.944 165.698 285.887 165.067 286.241 164.643C286.594 164.219 287.225 164.162 287.649 164.515L286.368 166.052ZM282.755 160.809C283.21 161.122 283.325 161.744 283.012 162.199C282.699 162.654 282.076 162.769 281.621 162.456L282.755 160.809ZM276.567 159.291C276.087 159.018 275.919 158.408 276.192 157.928C276.465 157.448 277.076 157.28 277.556 157.553L276.567 159.291ZM272.113 154.739C272.613 154.973 272.829 155.569 272.595 156.069C272.361 156.569 271.765 156.785 271.265 156.55L272.113 154.739ZM265.765 154.225C265.249 154.029 264.989 153.451 265.185 152.935C265.381 152.418 265.959 152.159 266.475 152.355L265.765 154.225ZM260.678 150.388C261.207 150.547 261.507 151.105 261.349 151.634C261.19 152.163 260.632 152.463 260.103 152.304L260.678 150.388ZM254.322 150.782C253.784 150.66 253.446 150.124 253.569 149.585C253.691 149.047 254.227 148.709 254.765 148.832L254.322 150.782ZM248.76 147.675C249.305 147.762 249.677 148.274 249.59 148.819C249.504 149.365 248.991 149.737 248.446 149.65L248.76 147.675ZM242.511 148.903C241.961 148.851 241.557 148.363 241.609 147.814C241.66 147.264 242.148 146.86 242.697 146.911L242.511 148.903ZM236.597 146.533C237.149 146.55 237.583 147.011 237.566 147.563C237.549 148.115 237.088 148.549 236.536 148.532L236.597 146.533ZM230.444 148.485C229.891 148.485 229.444 148.038 229.444 147.485C229.444 146.933 229.891 146.485 230.444 146.485V148.485ZM224.249 146.485C224.802 146.485 225.249 146.933 225.249 147.485C225.249 148.038 224.802 148.485 224.249 148.485V146.485ZM218.055 148.485C217.503 148.485 217.055 148.038 217.055 147.485C217.055 146.933 217.503 146.485 218.055 146.485V148.485ZM211.861 146.485C212.413 146.485 212.861 146.933 212.861 147.485C212.861 148.038 212.413 148.485 211.861 148.485V146.485ZM205.666 148.485C205.114 148.485 204.666 148.038 204.666 147.485C204.666 146.933 205.114 146.485 205.666 146.485V148.485ZM199.472 146.485C200.024 146.485 200.472 146.933 200.472 147.485C200.472 148.038 200.024 148.485 199.472 148.485V146.485ZM193.278 148.485C192.725 148.485 192.278 148.038 192.278 147.485C192.278 146.933 192.725 146.485 193.278 146.485V148.485ZM187.083 146.485C187.636 146.485 188.083 146.933 188.083 147.485C188.083 148.038 187.636 148.485 187.083 148.485V146.485ZM180.889 148.485C180.337 148.485 179.889 148.038 179.889 147.485C179.889 146.933 180.337 146.485 180.889 146.485V148.485ZM174.695 146.485C175.247 146.485 175.695 146.933 175.695 147.485C175.695 148.038 175.247 148.485 174.695 148.485V146.485ZM168.5 148.485C167.948 148.485 167.5 148.038 167.5 147.485C167.5 146.933 167.948 146.485 168.5 146.485V148.485ZM162.306 146.485C162.858 146.485 163.306 146.933 163.306 147.485C163.306 148.038 162.858 148.485 162.306 148.485V146.485ZM156.112 148.485C155.559 148.485 155.112 148.038 155.112 147.485C155.112 146.933 155.559 146.485 156.112 146.485V148.485ZM149.917 146.485C150.47 146.485 150.917 146.933 150.917 147.485C150.917 148.038 150.47 148.485 149.917 148.485V146.485ZM143.723 148.485C143.171 148.485 142.723 148.038 142.723 147.485C142.723 146.933 143.171 146.485 143.723 146.485V148.485ZM137.529 146.485C138.081 146.485 138.529 146.933 138.529 147.485C138.529 148.038 138.081 148.485 137.529 148.485V146.485ZM131.334 148.485C130.782 148.485 130.334 148.038 130.334 147.485C130.334 146.933 130.782 146.485 131.334 146.485V148.485ZM125.14 146.485C125.692 146.485 126.14 146.933 126.14 147.485C126.14 148.038 125.692 148.485 125.14 148.485V146.485ZM118.946 148.485C118.393 148.485 117.946 148.038 117.946 147.485C117.946 146.933 118.393 146.485 118.946 146.485V148.485ZM112.751 146.485C113.304 146.485 113.751 146.933 113.751 147.485C113.751 148.038 113.304 148.485 112.751 148.485V146.485ZM106.557 148.485C106.005 148.485 105.557 148.038 105.557 147.485C105.557 146.933 106.005 146.485 106.557 146.485V148.485ZM100.363 146.485C100.915 146.485 101.363 146.933 101.363 147.485C101.363 148.038 100.915 148.485 100.363 148.485V146.485ZM94.1659 148.437C93.6139 148.42 93.1804 147.958 93.1976 147.406C93.2149 146.854 93.6764 146.421 94.2284 146.438L94.1659 148.437ZM88.1691 146.057C88.7189 146.109 89.1222 146.597 89.07 147.147C89.0177 147.696 88.5296 148.1 87.9798 148.048L88.1691 146.057ZM81.8334 147.262C81.2881 147.174 80.9173 146.661 81.0052 146.116C81.0931 145.57 81.6063 145.2 82.1516 145.287L81.8334 147.262ZM76.1958 144.123C76.734 144.247 77.0696 144.784 76.9454 145.322C76.8212 145.86 76.2843 146.196 75.7462 146.072L76.1958 144.123ZM69.7556 144.47C69.2273 144.309 68.9298 143.75 69.091 143.222C69.2522 142.693 69.811 142.396 70.3393 142.557L69.7556 144.47ZM64.6078 140.58C65.1229 140.779 65.3793 141.358 65.1802 141.873C64.9812 142.389 64.4023 142.645 63.8871 142.446L64.6078 140.58ZM58.1848 139.992C57.6862 139.754 57.4748 139.157 57.7125 138.659C57.9502 138.16 58.547 137.949 59.0456 138.186L58.1848 139.992ZM53.6917 135.365C54.1693 135.642 54.3316 136.254 54.0543 136.732C53.7769 137.209 53.1649 137.371 52.6873 137.094L53.6917 135.365ZM47.447 133.741C46.9954 133.424 46.8869 132.8 47.2048 132.348C47.5227 131.897 48.1465 131.788 48.5982 132.106L47.447 133.741ZM43.8282 128.404C44.2478 128.763 44.2967 129.395 43.9375 129.814C43.5784 130.234 42.9471 130.283 42.5276 129.924L43.8282 128.404ZM38.0039 125.632C37.6238 125.231 37.6405 124.598 38.0412 124.218C38.4419 123.838 39.0748 123.855 39.4549 124.255L38.0039 125.632ZM35.5657 119.664C35.8976 120.106 35.8088 120.733 35.3674 121.065C34.926 121.397 34.299 121.308 33.9671 120.866L35.5657 119.664ZM297.737 261.302C297.437 261.765 296.818 261.898 296.354 261.598C295.891 261.297 295.758 260.678 296.058 260.215L297.737 261.302ZM292.374 265.105C292.736 264.687 293.367 264.642 293.785 265.004C294.202 265.366 294.247 265.997 293.885 266.415L292.374 265.105ZM289.407 270.968C288.996 271.337 288.364 271.304 287.994 270.894C287.625 270.484 287.658 269.851 288.068 269.482L289.407 270.968ZM283.272 273.342C283.72 273.019 284.345 273.121 284.668 273.569C284.991 274.017 284.89 274.642 284.442 274.965L283.272 273.342ZM279.104 278.429C278.628 278.707 278.015 278.547 277.737 278.07C277.458 277.593 277.619 276.98 278.096 276.702L279.104 278.429ZM272.63 279.581C273.129 279.345 273.725 279.558 273.962 280.057C274.198 280.556 273.985 281.152 273.486 281.389L272.63 279.581ZM267.65 283.876C267.134 284.073 266.556 283.814 266.359 283.298C266.162 282.782 266.421 282.204 266.937 282.007L267.65 283.876ZM261.071 284.001C261.6 283.842 262.158 284.142 262.317 284.671C262.476 285.2 262.176 285.757 261.647 285.916L261.071 284.001ZM255.522 287.528C254.983 287.65 254.447 287.313 254.325 286.774C254.203 286.236 254.54 285.7 255.078 285.578L255.522 287.528ZM248.988 286.752C249.534 286.665 250.046 287.037 250.133 287.582C250.22 288.128 249.848 288.641 249.303 288.727L248.988 286.752ZM243.024 289.523C242.474 289.575 241.986 289.172 241.934 288.622C241.882 288.072 242.285 287.584 242.835 287.532L243.024 289.523ZM236.643 287.922C237.195 287.905 237.657 288.338 237.674 288.89C237.692 289.442 237.258 289.904 236.706 289.921L236.643 287.922ZM230.68 289.958C230.128 289.956 229.682 289.506 229.685 288.954C229.687 288.402 230.137 287.956 230.689 287.958L230.68 289.958ZM224.977 287.933C225.53 287.935 225.975 288.385 225.973 288.937C225.97 289.49 225.521 289.935 224.968 289.933L224.977 287.933ZM219.257 289.908C218.704 289.905 218.258 289.455 218.261 288.903C218.263 288.351 218.713 287.905 219.265 287.908L219.257 289.908ZM213.553 287.882C214.106 287.885 214.551 288.334 214.549 288.887C214.547 289.439 214.097 289.885 213.545 289.882L213.553 287.882ZM207.833 289.857C207.28 289.854 206.835 289.405 206.837 288.852C206.84 288.3 207.289 287.854 207.842 287.857L207.833 289.857ZM202.13 287.831C202.682 287.834 203.128 288.284 203.125 288.836C203.123 289.388 202.673 289.834 202.121 289.831L202.13 287.831ZM196.409 289.806C195.856 289.804 195.411 289.354 195.413 288.802C195.416 288.249 195.865 287.804 196.418 287.806L196.409 289.806ZM190.706 287.781C191.258 287.783 191.704 288.233 191.701 288.785C191.699 289.337 191.249 289.783 190.697 289.781L190.706 287.781ZM184.985 289.755C184.433 289.753 183.987 289.303 183.989 288.751C183.992 288.199 184.441 287.753 184.994 287.755L184.985 289.755ZM179.282 287.73C179.834 287.733 180.28 288.182 180.277 288.734C180.275 289.287 179.825 289.733 179.273 289.73L179.282 287.73ZM173.561 289.705C173.009 289.702 172.563 289.253 172.565 288.7C172.568 288.148 173.018 287.702 173.57 287.705L173.561 289.705ZM167.858 287.679C168.41 287.682 168.856 288.132 168.854 288.684C168.851 289.236 168.401 289.682 167.849 289.679L167.858 287.679ZM162.137 289.654C161.585 289.652 161.139 289.202 161.142 288.65C161.144 288.097 161.594 287.652 162.146 287.654L162.137 289.654ZM156.434 287.629C156.986 287.631 157.432 288.081 157.43 288.633C157.427 289.185 156.978 289.631 156.425 289.629L156.434 287.629ZM150.713 289.603C150.161 289.601 149.715 289.151 149.718 288.599C149.72 288.047 150.17 287.601 150.722 287.603L150.713 289.603ZM145.01 287.578C145.563 287.58 146.008 288.03 146.006 288.582C146.003 289.135 145.554 289.58 145.001 289.578L145.01 287.578ZM139.289 289.553C138.737 289.55 138.291 289.1 138.294 288.548C138.296 287.996 138.746 287.55 139.298 287.553L139.289 289.553ZM133.586 287.527C134.139 287.53 134.584 287.979 134.582 288.532C134.579 289.084 134.13 289.53 133.577 289.527L133.586 287.527ZM127.938 289.515C127.385 289.515 126.938 289.067 126.938 288.515C126.938 287.962 127.385 287.515 127.938 287.515V289.515ZM122.361 287.515C122.913 287.515 123.361 287.962 123.361 288.515C123.361 289.067 122.913 289.515 122.361 289.515V287.515ZM116.784 289.515C116.232 289.515 115.784 289.067 115.784 288.515C115.784 287.962 116.232 287.515 116.784 287.515V289.515ZM111.207 287.515C111.76 287.515 112.207 287.962 112.207 288.515C112.207 289.067 111.76 289.515 111.207 289.515V287.515ZM105.631 289.515C105.078 289.515 104.631 289.067 104.631 288.515C104.631 287.962 105.078 287.515 105.631 287.515V289.515ZM100.054 287.515C100.606 287.515 101.054 287.962 101.054 288.515C101.054 289.067 100.606 289.515 100.054 289.515V287.515ZM94.3784 289.557C93.8264 289.574 93.3656 289.14 93.3492 288.587C93.3328 288.035 93.767 287.575 94.319 287.558L94.3784 289.557ZM88.4362 287.91C88.9863 287.861 89.4724 288.266 89.522 288.816C89.5717 289.366 89.166 289.852 88.616 289.902L88.4362 287.91ZM82.8872 290.597C82.3412 290.681 81.831 290.306 81.7475 289.76C81.664 289.214 82.039 288.704 82.5849 288.62L82.8872 290.597ZM76.7866 289.695C77.3262 289.577 77.8591 289.919 77.977 290.458C78.0949 290.998 77.7531 291.531 77.2135 291.649L76.7866 289.695ZM71.6211 293.063C71.0904 293.216 70.5362 292.909 70.3833 292.379C70.2303 291.848 70.5365 291.294 71.0672 291.141L71.6211 293.063ZM65.4547 292.966C65.9737 292.778 66.5475 293.045 66.7362 293.564C66.9249 294.083 66.6572 294.657 66.1381 294.846L65.4547 292.966ZM60.7965 297.005C60.2922 297.231 59.7008 297.004 59.4756 296.5C59.2503 295.996 59.4764 295.405 59.9807 295.179L60.7965 297.005ZM54.6815 297.788C55.1673 297.526 55.7741 297.707 56.0367 298.192C56.2994 298.678 56.1185 299.285 55.6326 299.548L54.6815 297.788ZM50.6864 302.482C50.2233 302.783 49.6039 302.651 49.303 302.188C49.0022 301.725 49.1337 301.106 49.5968 300.805L50.6864 302.482ZM44.7744 304.24C45.2098 303.9 45.8382 303.977 46.1781 304.413C46.5179 304.848 46.4406 305.476 46.0052 305.816L44.7744 304.24ZM41.6535 309.551C41.252 309.931 40.6191 309.913 40.2398 309.511C39.8605 309.11 39.8784 308.477 40.2798 308.098L41.6535 309.551ZM36.1774 312.389C36.5376 311.97 37.169 311.923 37.5877 312.283C38.0063 312.643 38.0536 313.275 37.6934 313.693L36.1774 312.389ZM34.2124 318.226C33.9018 318.683 33.2798 318.801 32.8231 318.491C32.3665 318.18 32.2482 317.558 32.5588 317.101L34.2124 318.226ZM29.5158 322.221C29.7676 321.729 30.3702 321.535 30.8618 321.787C31.3533 322.038 31.5476 322.641 31.2958 323.132L29.5158 322.221ZM279.473 7H276.436V5H279.473V7ZM270.362 7H264.289V5H270.362V7ZM258.215 7H252.142V5H258.215V7ZM246.068 7H239.995V5H246.068V7ZM233.921 7H227.847V5H233.921V7ZM221.774 7H215.7V5H221.774V7ZM209.627 7H203.553V5H209.627V7ZM197.48 7H191.406V5H197.48V7ZM185.332 7H179.259V5H185.332V7ZM173.185 7H167.112V5H173.185V7ZM161.038 7H154.964V5H161.038V7ZM148.891 7H142.817V5H148.891V7ZM136.744 7H130.67V5H136.744V7ZM124.597 7H118.523V5H124.597V7ZM112.449 7H106.376V5H112.449V7ZM100.302 7H97.2655V5H100.302V7ZM97.2655 7C96.3504 7 95.4395 7.01286 94.5329 7.03835L94.4767 5.03914C95.402 5.01313 96.3317 5 97.2655 5V7ZM89.0791 7.34691C87.2489 7.50305 85.4403 7.71088 83.6559 7.96837L83.3703 5.98887C85.1932 5.72583 87.0404 5.51358 88.9091 5.35415L89.0791 7.34691ZM78.2765 8.90856C76.4772 9.27897 74.7071 9.70068 72.9692 10.1714L72.4464 8.24094C74.224 7.75945 76.0341 7.32826 77.8733 6.94963L78.2765 8.90856ZM67.7504 11.7639C66.0107 12.3564 64.3095 12.9995 62.6504 13.6907L61.8813 11.8445C63.5818 11.1361 65.3244 10.4773 67.1056 9.87069L67.7504 11.7639ZM57.6977 15.958C56.0543 16.7816 54.461 17.6547 52.9216 18.5744L51.8958 16.8576C53.4783 15.912 55.115 15.0152 56.8017 14.17L57.6977 15.958ZM48.3646 21.5446C46.8679 22.6078 45.4354 23.7188 44.0716 24.874L42.7789 23.348C44.1872 22.155 45.6647 21.0093 47.2064 19.9141L48.3646 21.5446ZM40.096 28.5654C39.4596 29.2144 38.8433 29.8744 38.2476 30.545L36.7523 29.2168C37.3702 28.5212 38.009 27.8372 38.6679 27.1652L40.096 28.5654ZM270.043 431H266.958V429H270.043V431ZM260.787 431H254.617V429H260.787V431ZM248.446 431H242.275V429H248.446V431ZM236.105 431H229.934V429H236.105V431ZM223.763 431H217.593V429H223.763V431ZM211.422 431H205.251V429H211.422V431ZM199.081 431H192.91V429H199.081V431ZM186.74 431H180.569V429H186.74V431ZM174.398 431H168.228V429H174.398V431ZM162.057 431H155.886V429H162.057V431ZM149.716 431H143.545V429H149.716V431ZM137.375 431H131.204V429H137.375V431ZM125.033 431H118.863V429H125.033V431ZM112.692 431H106.521V429H112.692V431ZM100.351 431H97.2655V429H100.351V431ZM97.2655 431C96.3165 431 95.3718 430.986 94.4316 430.96L94.4888 428.96C95.4099 428.987 96.3356 429 97.2655 429V431ZM88.7728 430.634C86.8724 430.469 84.9942 430.25 83.1414 429.978L83.4318 427.999C85.2455 428.265 87.0844 428.48 88.9456 428.642L88.7728 430.634ZM77.5572 428.985C75.6875 428.593 73.8483 428.147 72.0429 427.649L72.5749 425.721C74.3397 426.208 76.1383 426.644 77.9673 427.027L77.5572 428.985ZM66.6231 425.963C64.8155 425.336 63.0482 424.654 61.3251 423.921L62.1077 422.081C63.7887 422.796 65.5137 423.461 67.2791 424.074L66.6231 425.963ZM56.1802 421.515C54.4731 420.64 52.8185 419.712 51.2209 418.734L52.2652 417.029C53.8189 417.98 55.4293 418.883 57.0922 419.735L56.1802 421.515ZM46.4896 415.57C44.937 414.436 43.4521 413.251 42.0402 412.016L43.3564 410.511C44.7231 411.705 46.1622 412.854 47.6689 413.954L46.4896 415.57ZM37.9246 408.063C36.6015 406.662 35.3649 405.212 34.2211 403.716L35.8099 402.501C36.9102 403.94 38.1014 405.338 39.3784 406.689L37.9246 408.063ZM31.0057 398.981C30.5139 398.158 30.0487 397.324 29.6112 396.479L31.3871 395.559C31.8057 396.367 32.2511 397.166 32.7225 397.955L31.0057 398.981ZM296.41 176.929C295.852 176.121 295.267 175.325 294.654 174.542L296.23 173.31C296.866 174.124 297.475 174.952 298.056 175.793L296.41 176.929ZM290.74 170.081C289.373 168.685 287.914 167.34 286.368 166.052L287.649 164.515C289.245 165.846 290.754 167.236 292.169 168.682L290.74 170.081ZM281.621 162.456C280.006 161.345 278.319 160.289 276.567 159.291L277.556 157.553C279.357 158.578 281.091 159.664 282.755 160.809L281.621 162.456ZM271.265 156.55C269.485 155.717 267.65 154.94 265.765 154.225L266.475 152.355C268.406 153.088 270.287 153.884 272.113 154.739L271.265 156.55ZM260.103 152.304C258.216 151.737 256.287 151.229 254.322 150.782L254.765 148.832C256.775 149.289 258.747 149.808 260.678 150.388L260.103 152.304ZM248.446 149.65C246.497 149.341 244.517 149.09 242.511 148.903L242.697 146.911C244.746 147.103 246.768 147.359 248.76 147.675L248.446 149.65ZM236.536 148.532C235.543 148.501 234.544 148.485 233.541 148.485V146.485C234.565 146.485 235.584 146.501 236.597 146.533L236.536 148.532ZM233.541 148.485H230.444V146.485H233.541V148.485ZM224.249 148.485H218.055V146.485H224.249V148.485ZM211.861 148.485H205.666V146.485H211.861V148.485ZM199.472 148.485H193.278V146.485H199.472V148.485ZM187.083 148.485H180.889V146.485H187.083V148.485ZM174.695 148.485H168.5V146.485H174.695V148.485ZM162.306 148.485H156.112V146.485H162.306V148.485ZM149.917 148.485H143.723V146.485H149.917V148.485ZM137.529 148.485H131.334V146.485H137.529V148.485ZM125.14 148.485H118.946V146.485H125.14V148.485ZM112.751 148.485H106.557V146.485H112.751V148.485ZM100.363 148.485H97.2655V146.485H100.363V148.485ZM97.2655 148.485C96.2271 148.485 95.1937 148.469 94.1659 148.437L94.2284 146.438C95.2354 146.47 96.2479 146.485 97.2655 146.485V148.485ZM87.9798 148.048C85.9024 147.85 83.8523 147.587 81.8334 147.262L82.1516 145.287C84.1275 145.606 86.1346 145.863 88.1691 146.057L87.9798 148.048ZM75.7462 146.072C73.7096 145.602 71.7113 145.067 69.7556 144.47L70.3393 142.557C72.2504 143.14 74.204 143.663 76.1958 144.123L75.7462 146.072ZM63.8871 142.446C61.9329 141.691 60.0304 140.872 58.1848 139.992L59.0456 138.186C60.8446 139.044 62.7003 139.843 64.6078 140.58L63.8871 142.446ZM52.6873 137.094C50.8696 136.039 49.1208 134.92 47.447 133.741L48.5982 132.106C50.2233 133.25 51.923 134.338 53.6917 135.365L52.6873 137.094ZM42.5276 129.924C40.9265 128.553 39.4162 127.121 38.0039 125.632L39.4549 124.255C40.818 125.692 42.278 127.077 43.8282 128.404L42.5276 129.924ZM33.9671 120.866C33.3372 120.029 32.7362 119.177 32.1653 118.311L33.8347 117.21C34.3826 118.04 34.9599 118.859 35.5657 119.664L33.9671 120.866ZM299.378 258.545C298.868 259.482 298.32 260.401 297.737 261.302L296.058 260.215C296.614 259.356 297.136 258.48 297.622 257.589L299.378 258.545ZM293.885 266.415C292.507 268.005 291.01 269.524 289.407 270.968L288.068 269.482C289.613 268.09 291.052 266.63 292.374 265.105L293.885 266.415ZM284.442 274.965C282.744 276.189 280.961 277.344 279.104 278.429L278.096 276.702C279.9 275.648 281.628 274.528 283.272 273.342L284.442 274.965ZM273.486 281.389C271.596 282.284 269.648 283.114 267.65 283.876L266.937 282.007C268.888 281.263 270.789 280.454 272.63 279.581L273.486 281.389ZM261.647 285.916C259.641 286.518 257.597 287.056 255.522 287.528L255.078 285.578C257.11 285.116 259.111 284.589 261.071 284.001L261.647 285.916ZM249.303 288.727C247.231 289.058 245.135 289.324 243.024 289.523L242.835 287.532C244.905 287.336 246.958 287.076 248.988 286.752L249.303 288.727ZM236.706 289.921C235.653 289.954 234.598 289.971 233.541 289.971V287.971C234.577 287.971 235.611 287.955 236.643 287.922L236.706 289.921ZM233.536 289.971L230.68 289.958L230.689 287.958L233.545 287.971L233.536 289.971ZM224.968 289.933L219.257 289.908L219.265 287.908L224.977 287.933L224.968 289.933ZM213.545 289.882L207.833 289.857L207.842 287.857L213.553 287.882L213.545 289.882ZM202.121 289.831L196.409 289.806L196.418 287.806L202.13 287.831L202.121 289.831ZM190.697 289.781L184.985 289.755L184.994 287.755L190.706 287.781L190.697 289.781ZM179.273 289.73L173.561 289.705L173.57 287.705L179.282 287.73L179.273 289.73ZM167.849 289.679L162.137 289.654L162.146 287.654L167.858 287.679L167.849 289.679ZM156.425 289.629L150.713 289.603L150.722 287.603L156.434 287.629L156.425 289.629ZM145.001 289.578L139.289 289.553L139.298 287.553L145.01 287.578L145.001 289.578ZM133.577 289.527L130.722 289.515L130.73 287.515L133.586 287.527L133.577 289.527ZM130.726 289.515H127.938V287.515H130.726V289.515ZM122.361 289.515H116.784V287.515H122.361V289.515ZM111.207 289.515H105.631V287.515H111.207V289.515ZM100.054 289.515H97.2655V287.515H100.054V289.515ZM97.2655 289.515C96.2984 289.515 95.336 289.529 94.3784 289.557L94.319 287.558C95.2964 287.529 96.2786 287.515 97.2655 287.515V289.515ZM88.616 289.902C86.6809 290.077 84.7702 290.309 82.8872 290.597L82.5849 288.62C84.5087 288.326 86.4603 288.089 88.4362 287.91L88.616 289.902ZM77.2135 291.649C75.3145 292.064 73.4492 292.536 71.6211 293.063L71.0672 291.141C72.9375 290.602 74.8452 290.119 76.7866 289.695L77.2135 291.649ZM66.1381 294.846C64.3112 295.51 62.5293 296.231 60.7965 297.005L59.9807 295.179C61.7575 294.385 63.5836 293.647 65.4547 292.966L66.1381 294.846ZM55.6326 299.548C53.9232 300.472 52.2729 301.451 50.6864 302.482L49.5968 300.805C51.2293 299.744 52.9259 298.737 54.6815 297.788L55.6326 299.548ZM46.0052 305.816C44.4762 307.01 43.0238 308.256 41.6535 309.551L40.2798 308.098C41.6972 306.758 43.1974 305.471 44.7744 304.24L46.0052 305.816ZM37.6934 313.693C36.4335 315.157 35.2711 316.67 34.2124 318.226L32.5588 317.101C33.6614 315.481 34.87 313.908 36.1774 312.389L37.6934 313.693ZM31.2958 323.132C30.861 323.981 30.4556 324.841 30.0805 325.709L28.2443 324.917C28.6371 324.007 29.0612 323.108 29.5158 322.221L31.2958 323.132Z" fill="#03433B"/>
<mask id="path-2-inside-1_487_1360" fill="white">
<path fill-rule="evenodd" clip-rule="evenodd" d="M65 68.1758C65 80.5751 58.1659 91.3655 48.0875 96.9287L35.3224 108.432C33.8058 109.799 31.5034 109.804 29.9806 108.444L17.3458 97.1636C7.03044 91.6731 0 80.752 0 68.1758C0 50.0832 14.5507 35.4163 32.5 35.4163C50.4493 35.4163 65 50.0832 65 68.1758ZM32.4999 81.879C40.1924 81.879 46.4284 75.5931 46.4284 67.8391C46.4284 60.0852 40.1924 53.7993 32.4999 53.7993C24.8073 53.7993 18.5713 60.0852 18.5713 67.8391C18.5713 75.5931 24.8073 81.879 32.4999 81.879Z"/>
</mask>
<path fill-rule="evenodd" clip-rule="evenodd" d="M65 68.1758C65 80.5751 58.1659 91.3655 48.0875 96.9287L35.3224 108.432C33.8058 109.799 31.5034 109.804 29.9806 108.444L17.3458 97.1636C7.03044 91.6731 0 80.752 0 68.1758C0 50.0832 14.5507 35.4163 32.5 35.4163C50.4493 35.4163 65 50.0832 65 68.1758ZM32.4999 81.879C40.1924 81.879 46.4284 75.5931 46.4284 67.8391C46.4284 60.0852 40.1924 53.7993 32.4999 53.7993C24.8073 53.7993 18.5713 60.0852 18.5713 67.8391C18.5713 75.5931 24.8073 81.879 32.4999 81.879Z" fill="#C2FFA0"/>
<path d="M48.0875 96.9287L47.6042 96.0532L47.5035 96.1088L47.418 96.1858L48.0875 96.9287ZM35.3224 108.432L34.653 107.689L35.3224 108.432ZM29.9806 108.444L29.3146 109.19H29.3146L29.9806 108.444ZM17.3458 97.1636L18.0118 96.4176L17.922 96.3374L17.8157 96.2808L17.3458 97.1636ZM48.5707 97.8042C58.9576 92.0708 66 80.951 66 68.1758H64C64 80.1993 57.3742 90.6603 47.6042 96.0532L48.5707 97.8042ZM35.9918 109.175L48.7569 97.6716L47.418 96.1858L34.653 107.689L35.9918 109.175ZM29.3146 109.19C31.2182 110.89 34.0961 110.883 35.9918 109.175L34.653 107.689C33.5155 108.714 31.7887 108.718 30.6466 107.698L29.3146 109.19ZM16.6798 97.9095L29.3146 109.19L30.6466 107.698L18.0118 96.4176L16.6798 97.9095ZM-1 68.1758C-1 81.1332 6.24466 92.3877 16.876 98.0463L17.8157 96.2808C7.81622 90.9585 1 80.3709 1 68.1758H-1ZM32.5 34.4163C13.991 34.4163 -1 49.5384 -1 68.1758H1C1 50.628 15.1105 36.4163 32.5 36.4163V34.4163ZM66 68.1758C66 49.5384 51.009 34.4163 32.5 34.4163V36.4163C49.8895 36.4163 64 50.628 64 68.1758H66ZM45.4284 67.8391C45.4284 75.0484 39.6326 80.879 32.4999 80.879V82.879C40.7522 82.879 47.4284 76.1379 47.4284 67.8391H45.4284ZM32.4999 54.7993C39.6326 54.7993 45.4284 60.6299 45.4284 67.8391H47.4284C47.4284 59.5404 40.7522 52.7993 32.4999 52.7993V54.7993ZM19.5713 67.8391C19.5713 60.6299 25.3671 54.7993 32.4999 54.7993V52.7993C24.2476 52.7993 17.5713 59.5404 17.5713 67.8391H19.5713ZM32.4999 80.879C25.3671 80.879 19.5713 75.0484 19.5713 67.8391H17.5713C17.5713 76.1379 24.2476 82.879 32.4999 82.879V80.879Z" fill="#06050F" mask="url(#path-2-inside-1_487_1360)"/>
<mask id="path-4-inside-2_487_1360" fill="white">
<path fill-rule="evenodd" clip-rule="evenodd" d="M29.4703 331.716C13.1943 331.716 0 344.91 0 361.186C0 377.462 13.1943 390.657 29.4702 390.657H57.0485C60.2939 390.657 63.4167 390.132 66.3369 389.163C66.4066 389.241 66.4871 389.312 66.5784 389.373L88.9768 404.48C90.0655 405.215 91.4143 404.016 90.8444 402.82L79.8804 379.821C84.0298 374.743 86.5188 368.255 86.5188 361.186C86.5188 344.91 73.3245 331.716 57.0485 331.716H29.4703Z"/>
</mask>
<path fill-rule="evenodd" clip-rule="evenodd" d="M29.4703 331.716C13.1943 331.716 0 344.91 0 361.186C0 377.462 13.1943 390.657 29.4702 390.657H57.0485C60.2939 390.657 63.4167 390.132 66.3369 389.163C66.4066 389.241 66.4871 389.312 66.5784 389.373L88.9768 404.48C90.0655 405.215 91.4143 404.016 90.8444 402.82L79.8804 379.821C84.0298 374.743 86.5188 368.255 86.5188 361.186C86.5188 344.91 73.3245 331.716 57.0485 331.716H29.4703Z" fill="#BFFF9B"/>
<path d="M66.3369 389.163L66.9802 388.587L66.6025 388.165L66.0649 388.343L66.3369 389.163ZM66.5784 389.373L67.0612 388.657L67.0612 388.657L66.5784 389.373ZM88.9768 404.48L88.494 405.196L88.9768 404.48ZM90.8444 402.82L90.0651 403.192L90.8444 402.82ZM79.8804 379.821L79.2118 379.275L78.8655 379.699L79.101 380.193L79.8804 379.821ZM0.86335 361.186C0.86335 345.387 13.6711 332.579 29.4703 332.579V330.853C12.7175 330.853 -0.86335 344.433 -0.86335 361.186H0.86335ZM29.4702 389.793C13.6711 389.793 0.86335 376.985 0.86335 361.186H-0.86335C-0.86335 377.939 12.7175 391.52 29.4702 391.52V389.793ZM57.0485 389.793H29.4702V391.52H57.0485V389.793ZM66.0649 388.343C63.2314 389.284 60.2003 389.793 57.0485 389.793V391.52C60.3874 391.52 63.602 390.98 66.6088 389.982L66.0649 388.343ZM67.0612 388.657C67.0294 388.636 67.0027 388.612 66.9802 388.587L65.6935 389.739C65.8104 389.869 65.9448 389.987 66.0957 390.089L67.0612 388.657ZM89.4595 403.765L67.0612 388.657L66.0957 390.089L88.494 405.196L89.4595 403.765ZM90.0651 403.192C90.1655 403.403 90.1084 403.596 89.959 403.729C89.883 403.796 89.7969 403.832 89.7198 403.84C89.6511 403.847 89.5646 403.836 89.4595 403.765L88.494 405.196C90.3676 406.46 92.5427 404.377 91.6237 402.449L90.0651 403.192ZM79.101 380.193L90.0651 403.192L91.6237 402.449L80.6597 379.45L79.101 380.193ZM85.6554 361.186C85.6554 368.049 83.2399 374.345 79.2118 379.275L80.5489 380.367C84.8197 375.141 87.3821 368.462 87.3821 361.186H85.6554ZM57.0485 332.579C72.8477 332.579 85.6554 345.387 85.6554 361.186H87.3821C87.3821 344.433 73.8013 330.853 57.0485 330.853V332.579ZM29.4703 332.579H57.0485V330.853H29.4703V332.579Z" fill="#06050F" mask="url(#path-4-inside-2_487_1360)"/>
<path d="M74.3235 327.749C74.6537 327.163 75.4975 327.163 75.8277 327.749L78.0394 331.673C78.2858 332.111 78.7102 332.419 79.2021 332.518L83.6175 333.409C84.2768 333.542 84.5375 334.344 84.0824 334.84L81.0339 338.156C80.6943 338.525 80.5322 339.024 80.5898 339.523L81.1069 343.997C81.1841 344.665 80.5015 345.161 79.89 344.881L75.7942 343.007C75.3379 342.798 74.8133 342.798 74.357 343.007L70.2613 344.881C69.6497 345.161 68.9671 344.665 69.0443 343.997L69.5615 339.523C69.6191 339.024 69.457 338.525 69.1173 338.156L66.0689 334.84C65.6137 334.344 65.8744 333.542 66.5337 333.409L70.9491 332.518C71.441 332.419 71.8654 332.111 72.1118 331.673L74.3235 327.749Z" fill="#03433B" stroke="#06050F" stroke-width="0.86335"/>
<circle cx="28.9224" cy="362.365" r="5.61177" fill="white" stroke="#06050F" stroke-width="0.86335"/>
<circle cx="45.3259" cy="362.365" r="5.61177" fill="white" stroke="#06050F" stroke-width="0.86335"/>
<circle cx="61.7295" cy="362.365" r="5.61177" fill="white" stroke="#06050F" stroke-width="0.86335"/>
<path fill-rule="evenodd" clip-rule="evenodd" d="M327.352 229.403C327.167 228.386 327.292 227.337 327.709 226.391C328.107 225.464 328.767 224.673 329.608 224.116C330.45 223.559 331.436 223.26 332.445 223.256H332.727C334.391 223.256 335.986 222.596 337.163 221.42C338.339 220.244 339 218.649 339 216.986C339 215.323 338.339 213.728 337.163 212.552C335.986 211.376 334.391 210.715 332.727 210.715H332.194C331.185 210.711 330.199 210.412 329.357 209.855C328.516 209.298 327.856 208.507 327.458 207.58V207.329C327.041 206.383 326.916 205.334 327.101 204.317C327.285 203.3 327.77 202.362 328.493 201.623L328.681 201.435C329.265 200.852 329.727 200.161 330.043 199.4C330.359 198.638 330.521 197.822 330.521 196.998C330.521 196.174 330.359 195.358 330.043 194.597C329.727 193.836 329.265 193.144 328.681 192.562C328.099 191.979 327.407 191.516 326.645 191.201C325.884 190.885 325.068 190.723 324.243 190.723C323.419 190.723 322.603 190.885 321.841 191.201C321.08 191.516 320.388 191.979 319.805 192.562L319.617 192.75C318.878 193.473 317.939 193.958 316.922 194.142C315.904 194.326 314.855 194.202 313.909 193.785C312.981 193.387 312.19 192.727 311.633 191.886C311.076 191.045 310.777 190.059 310.773 189.05V188.768C310.773 187.105 310.112 185.51 308.935 184.334C307.759 183.158 306.164 182.498 304.5 182.498C302.836 182.498 301.241 183.158 300.065 184.334C298.888 185.51 298.227 187.105 298.227 188.768V189.301C298.223 190.31 297.924 191.296 297.367 192.137C296.81 192.978 296.019 193.638 295.091 194.035H294.84C293.894 194.453 292.845 194.577 291.827 194.393C290.81 194.208 289.871 193.724 289.132 193.001L288.944 192.813C288.361 192.23 287.669 191.767 286.908 191.452C286.146 191.136 285.33 190.974 284.506 190.974C283.681 190.974 282.865 191.136 282.104 191.452C281.342 191.767 280.65 192.23 280.068 192.813C279.485 193.395 279.022 194.087 278.706 194.848C278.391 195.609 278.228 196.425 278.228 197.249C278.228 198.073 278.391 198.889 278.706 199.65C279.022 200.412 279.485 201.103 280.068 201.686L280.256 201.874C280.979 202.613 281.464 203.551 281.648 204.568C281.833 205.585 281.708 206.634 281.291 207.58C280.932 208.554 280.289 209.398 279.445 210.002C278.6 210.606 277.593 210.942 276.555 210.966H276.273C274.609 210.966 273.014 211.627 271.837 212.803C270.661 213.978 270 215.573 270 217.236C270 218.9 270.661 220.494 271.837 221.67C273.014 222.846 274.609 223.507 276.273 223.507H276.806C277.815 223.511 278.801 223.81 279.643 224.367C280.484 224.924 281.144 225.715 281.542 226.642C281.959 227.588 282.084 228.637 281.899 229.654C281.715 230.671 281.23 231.61 280.507 232.349L280.319 232.537C279.735 233.119 279.273 233.811 278.957 234.572C278.641 235.333 278.479 236.149 278.479 236.973C278.479 237.797 278.641 238.613 278.957 239.374C279.273 240.136 279.735 240.827 280.319 241.409C280.901 241.992 281.593 242.455 282.355 242.771C283.116 243.086 283.932 243.249 284.757 243.249C285.581 243.249 286.397 243.086 287.159 242.771C287.92 242.455 288.612 241.992 289.195 241.409L289.383 241.221C290.122 240.499 291.061 240.014 292.078 239.829C293.096 239.645 294.145 239.769 295.091 240.187C296.065 240.545 296.91 241.188 297.514 242.032C298.118 242.877 298.454 243.883 298.478 244.921V245.203C298.478 246.866 299.139 248.461 300.315 249.637C301.492 250.813 303.087 251.474 304.751 251.474C306.415 251.474 308.01 250.813 309.186 249.637C310.363 248.461 311.024 246.866 311.024 245.203V244.67C311.028 243.661 311.327 242.676 311.884 241.834C312.441 240.993 313.232 240.333 314.16 239.936C315.106 239.519 316.155 239.394 317.173 239.578C318.19 239.763 319.129 240.248 319.868 240.971L320.056 241.159C320.639 241.742 321.331 242.204 322.092 242.52C322.854 242.835 323.67 242.998 324.494 242.998C325.319 242.998 326.135 242.835 326.896 242.52C327.658 242.204 328.35 241.742 328.932 241.159C329.515 240.576 329.978 239.885 330.294 239.123C330.609 238.362 330.772 237.546 330.772 236.722C330.772 235.898 330.609 235.082 330.294 234.321C329.978 233.56 329.515 232.868 328.932 232.286L328.744 232.098C328.021 231.359 327.536 230.42 327.352 229.403ZM304.112 204.517C297.437 204.517 292.027 209.925 292.027 216.597C292.027 223.27 297.437 228.678 304.112 228.678C310.786 228.678 316.197 223.27 316.197 216.597C316.197 209.925 310.786 204.517 304.112 204.517Z" fill="#C2FFA0" stroke="#06050F" stroke-linecap="round" stroke-linejoin="round"/>
<path fill-rule="evenodd" clip-rule="evenodd" d="M338.455 208.831C338.399 208.502 338.437 208.162 338.564 207.856C338.685 207.556 338.886 207.301 339.142 207.12C339.398 206.94 339.698 206.843 340.005 206.842H340.091C340.597 206.842 341.083 206.628 341.441 206.248C341.799 205.867 342 205.351 342 204.813C342 204.275 341.799 203.759 341.441 203.379C341.083 202.998 340.597 202.785 340.091 202.785H339.929C339.621 202.783 339.321 202.687 339.065 202.506C338.809 202.326 338.608 202.07 338.487 201.77V201.689C338.36 201.383 338.322 201.044 338.378 200.715C338.435 200.386 338.582 200.082 338.802 199.843L338.86 199.782C339.037 199.594 339.178 199.37 339.274 199.124C339.37 198.877 339.419 198.614 339.419 198.347C339.419 198.08 339.37 197.816 339.274 197.57C339.178 197.324 339.037 197.1 338.86 196.912C338.682 196.723 338.472 196.573 338.24 196.471C338.008 196.369 337.76 196.317 337.509 196.317C337.258 196.317 337.01 196.369 336.778 196.471C336.546 196.573 336.335 196.723 336.158 196.912L336.101 196.972C335.876 197.206 335.59 197.363 335.281 197.423C334.971 197.482 334.652 197.442 334.364 197.307C334.081 197.179 333.841 196.965 333.671 196.693C333.501 196.421 333.41 196.102 333.409 195.776V195.684C333.409 195.146 333.208 194.63 332.85 194.25C332.492 193.869 332.006 193.656 331.5 193.656C330.994 193.656 330.508 193.869 330.15 194.25C329.792 194.63 329.591 195.146 329.591 195.684V195.857C329.59 196.183 329.499 196.502 329.329 196.774C329.159 197.046 328.919 197.26 328.636 197.388H328.56C328.272 197.523 327.953 197.564 327.643 197.504C327.333 197.444 327.048 197.287 326.823 197.054L326.765 196.993C326.588 196.804 326.378 196.654 326.146 196.552C325.914 196.45 325.666 196.398 325.415 196.398C325.164 196.398 324.915 196.45 324.684 196.552C324.452 196.654 324.241 196.804 324.064 196.993C323.887 197.181 323.746 197.405 323.65 197.651C323.554 197.897 323.504 198.161 323.504 198.428C323.504 198.695 323.554 198.959 323.65 199.205C323.746 199.451 323.887 199.675 324.064 199.863L324.121 199.924C324.341 200.163 324.489 200.467 324.545 200.796C324.601 201.125 324.563 201.464 324.436 201.77C324.327 202.086 324.131 202.359 323.874 202.554C323.617 202.749 323.311 202.858 322.995 202.866H322.909C322.403 202.866 321.917 203.08 321.559 203.46C321.201 203.841 321 204.357 321 204.895C321 205.433 321.201 205.949 321.559 206.329C321.917 206.71 322.403 206.923 322.909 206.923H323.071C323.379 206.925 323.679 207.021 323.935 207.202C324.191 207.382 324.392 207.638 324.513 207.938C324.64 208.244 324.678 208.583 324.622 208.912C324.565 209.241 324.418 209.545 324.198 209.784L324.14 209.845C323.963 210.033 323.822 210.257 323.726 210.503C323.63 210.749 323.581 211.013 323.581 211.28C323.581 211.547 323.63 211.811 323.726 212.057C323.822 212.303 323.963 212.527 324.14 212.715C324.318 212.904 324.528 213.053 324.76 213.156C324.992 213.258 325.24 213.31 325.491 213.31C325.742 213.31 325.99 213.258 326.222 213.156C326.454 213.053 326.665 212.904 326.842 212.715L326.899 212.654C327.124 212.421 327.41 212.264 327.719 212.204C328.029 212.144 328.348 212.185 328.636 212.32C328.933 212.436 329.19 212.644 329.374 212.917C329.558 213.19 329.66 213.516 329.667 213.851V213.943C329.667 214.481 329.868 214.997 330.226 215.377C330.584 215.758 331.07 215.971 331.576 215.971C332.083 215.971 332.568 215.758 332.926 215.377C333.284 214.997 333.485 214.481 333.485 213.943V213.77C333.487 213.444 333.578 213.125 333.747 212.853C333.917 212.581 334.158 212.367 334.44 212.238C334.728 212.103 335.047 212.063 335.357 212.123C335.667 212.183 335.952 212.339 336.177 212.573L336.235 212.634C336.412 212.823 336.622 212.972 336.854 213.074C337.086 213.177 337.334 213.229 337.585 213.229C337.836 213.229 338.085 213.177 338.316 213.074C338.548 212.972 338.759 212.823 338.936 212.634C339.113 212.446 339.254 212.222 339.35 211.976C339.446 211.729 339.496 211.465 339.496 211.199C339.496 210.932 339.446 210.668 339.35 210.422C339.254 210.176 339.113 209.952 338.936 209.763L338.879 209.703C338.659 209.464 338.511 209.16 338.455 208.831ZM331.382 200.779C329.35 200.779 327.704 202.529 327.704 204.688C327.704 206.846 329.35 208.596 331.382 208.596C333.413 208.596 335.06 206.846 335.06 204.688C335.06 202.529 333.413 200.779 331.382 200.779Z" fill="#03433B" stroke="#06050F" stroke-linecap="round" stroke-linejoin="round"/>
</svg>
